<?xml version="1.0" encoding="iso-8859-1"?>
<!-- Generator: Adobe Illustrator 22.1.0, SVG Export Plug-In . SVG Version: 6.00 Build 0)  -->
<svg version="1.1" id="Layer_1" xmlns="http://www.w3.org/2000/svg" xmlns:xlink="http://www.w3.org/1999/xlink" x="0px" y="0px"
	 width="100px" height="100px" viewBox="0 0 100 100" enable-background="new 0 0 100 100" xml:space="preserve">
<g>
	<defs>
		<rect id="SVGID_1_" y="0" width="100" height="100"/>
	</defs>
	<clipPath id="SVGID_2_">
		<use xlink:href="#SVGID_1_"  overflow="visible"/>
	</clipPath>
	<g clip-path="url(#SVGID_2_)">
		<g>
			<polygon points="0,46.4 0,39.3 39.3,0 46.4,0 			"/>
			<polygon points="100,96.4 100,100 96.4,100 			"/>
			<polygon points="0,60.7 0,53.6 53.6,0 60.7,0 			"/>
			<polygon points="0,32.1 0,25 25,0 32.1,0 			"/>
			<polygon points="0,17.9 0,10.7 10.7,0 17.9,0 			"/>
			<polygon points="3.6,100 0,100 0,96.4 96.4,0 100,0 100,3.6 			"/>
			<polygon points="0,75 0,67.9 67.9,0 75,0 			"/>
			<polygon points="0,3.6 0,0 3.6,0 			"/>
			<polygon points="60.7,100 53.6,100 100,53.6 100,60.7 			"/>
			<polygon points="0,89.3 0,82.1 82.1,0 89.3,0 			"/>
			<polygon points="89.3,100 82.1,100 100,82.1 100,89.3 			"/>
			<polygon points="75,100 67.9,100 100,67.9 100,75 			"/>
			<polygon points="46.4,100 39.3,100 100,39.3 100,46.4 			"/>
			<polygon points="17.9,100 10.7,100 100,10.7 100,17.9 			"/>
			<polygon points="32.1,100 25,100 100,25 100,32.1 			"/>
		</g>
		<g>
			<polygon points="-100,46.4 -100,39.3 -60.7,0 -53.6,0 			"/>
			<polygon points="0,96.4 0,100 -3.6,100 			"/>
			<polygon points="-100,60.7 -100,53.6 -46.4,0 -39.3,0 			"/>
			<polygon points="-100,32.1 -100,25 -75,0 -67.9,0 			"/>
			<polygon points="-100,17.9 -100,10.7 -89.3,0 -82.1,0 			"/>
			<polygon points="-96.4,100 -100,100 -100,96.4 -3.6,0 0,0 0,3.6 			"/>
			<polygon points="-100,75 -100,67.9 -32.1,0 -25,0 			"/>
			<polygon points="-100,3.6 -100,0 -96.4,0 			"/>
			<polygon points="-39.3,100 -46.4,100 0,53.6 0,60.7 			"/>
			<polygon points="-100,89.3 -100,82.1 -17.9,0 -10.7,0 			"/>
			<polygon points="-10.7,100 -17.9,100 0,82.1 0,89.3 			"/>
			<polygon points="-25,100 -32.1,100 0,67.9 0,75 			"/>
			<polygon points="-53.6,100 -60.7,100 0,39.3 0,46.4 			"/>
			<polygon points="-82.1,100 -89.3,100 0,10.7 0,17.9 			"/>
			<polygon points="-67.9,100 -75,100 0,25 0,32.1 			"/>
		</g>
		<g>
			<polygon points="-200,46.4 -200,39.3 -160.7,0 -153.6,0 			"/>
			<polygon points="-100,96.4 -100,100 -103.6,100 			"/>
			<polygon points="-200,60.7 -200,53.6 -146.4,0 -139.3,0 			"/>
			<polygon points="-200,32.1 -200,25 -175,0 -167.9,0 			"/>
			<polygon points="-200,17.9 -200,10.7 -189.3,0 -182.1,0 			"/>
			<polygon points="-196.4,100 -200,100 -200,96.4 -103.6,0 -100,0 -100,3.6 			"/>
			<polygon points="-200,75 -200,67.9 -132.1,0 -125,0 			"/>
			<polygon points="-200,3.6 -200,0 -196.4,0 			"/>
			<polygon points="-139.3,100 -146.4,100 -100,53.6 -100,60.7 			"/>
			<polygon points="-200,89.3 -200,82.1 -117.9,0 -110.7,0 			"/>
			<polygon points="-110.7,100 -117.9,100 -100,82.1 -100,89.3 			"/>
			<polygon points="-125,100 -132.1,100 -100,67.9 -100,75 			"/>
			<polygon points="-153.6,100 -160.7,100 -100,39.3 -100,46.4 			"/>
			<polygon points="-182.1,100 -189.3,100 -100,10.7 -100,17.9 			"/>
			<polygon points="-167.9,100 -175,100 -100,25 -100,32.1 			"/>
		</g>
		<g>
			<polygon points="-300,46.4 -300,39.3 -260.7,0 -253.6,0 			"/>
			<polygon points="-200,96.4 -200,100 -203.6,100 			"/>
			<polygon points="-300,60.7 -300,53.6 -246.4,0 -239.3,0 			"/>
			<polygon points="-300,32.1 -300,25 -275,0 -267.9,0 			"/>
			<polygon points="-300,17.9 -300,10.7 -289.3,0 -282.1,0 			"/>
			<polygon points="-296.4,100 -300,100 -300,96.4 -203.6,0 -200,0 -200,3.6 			"/>
			<polygon points="-300,75 -300,67.9 -232.1,0 -225,0 			"/>
			<polygon points="-300,3.6 -300,0 -296.4,0 			"/>
			<polygon points="-239.3,100 -246.4,100 -200,53.6 -200,60.7 			"/>
			<polygon points="-300,89.3 -300,82.1 -217.9,0 -210.7,0 			"/>
			<polygon points="-210.7,100 -217.9,100 -200,82.1 -200,89.3 			"/>
			<polygon points="-225,100 -232.1,100 -200,67.9 -200,75 			"/>
			<polygon points="-253.6,100 -260.7,100 -200,39.3 -200,46.4 			"/>
			<polygon points="-282.1,100 -289.3,100 -200,10.7 -200,17.9 			"/>
			<polygon points="-267.9,100 -275,100 -200,25 -200,32.1 			"/>
		</g>
		<g>
			<polygon points="100,46.4 100,39.3 139.3,0 146.4,0 			"/>
			<polygon points="200,96.4 200,100 196.4,100 			"/>
			<polygon points="100,60.7 100,53.6 153.6,0 160.7,0 			"/>
			<polygon points="100,32.1 100,25 125,0 132.1,0 			"/>
			<polygon points="100,17.9 100,10.7 110.7,0 117.9,0 			"/>
			<polygon points="103.6,100 100,100 100,96.4 196.4,0 200,0 200,3.6 			"/>
			<polygon points="100,75 100,67.9 167.9,0 175,0 			"/>
			<polygon points="100,3.6 100,0 103.6,0 			"/>
			<polygon points="160.7,100 153.6,100 200,53.6 200,60.7 			"/>
			<polygon points="100,89.3 100,82.1 182.1,0 189.3,0 			"/>
			<polygon points="189.3,100 182.1,100 200,82.1 200,89.3 			"/>
			<polygon points="175,100 167.9,100 200,67.9 200,75 			"/>
			<polygon points="146.4,100 139.3,100 200,39.3 200,46.4 			"/>
			<polygon points="117.9,100 110.7,100 200,10.7 200,17.9 			"/>
			<polygon points="132.1,100 125,100 200,25 200,32.1 			"/>
		</g>
		<g>
			<polygon points="200,46.4 200,39.3 239.3,0 246.4,0 			"/>
			<polygon points="300,96.4 300,100 296.4,100 			"/>
			<polygon points="200,60.7 200,53.6 253.6,0 260.7,0 			"/>
			<polygon points="200,32.1 200,25 225,0 232.1,0 			"/>
			<polygon points="200,17.9 200,10.7 210.7,0 217.9,0 			"/>
			<polygon points="203.6,100 200,100 200,96.4 296.4,0 300,0 300,3.6 			"/>
			<polygon points="200,75 200,67.9 267.9,0 275,0 			"/>
			<polygon points="200,3.6 200,0 203.6,0 			"/>
			<polygon points="260.7,100 253.6,100 300,53.6 300,60.7 			"/>
			<polygon points="200,89.3 200,82.1 282.1,0 289.3,0 			"/>
			<polygon points="289.3,100 282.1,100 300,82.1 300,89.3 			"/>
			<polygon points="275,100 267.9,100 300,67.9 300,75 			"/>
			<polygon points="246.4,100 239.3,100 300,39.3 300,46.4 			"/>
			<polygon points="217.9,100 210.7,100 300,10.7 300,17.9 			"/>
			<polygon points="232.1,100 225,100 300,25 300,32.1 			"/>
		</g>
		<g>
			<polygon points="300,46.4 300,39.3 339.3,0 346.4,0 			"/>
			<polygon points="400,96.4 400,100 396.4,100 			"/>
			<polygon points="300,60.7 300,53.6 353.6,0 360.7,0 			"/>
			<polygon points="300,32.1 300,25 325,0 332.1,0 			"/>
			<polygon points="300,17.9 300,10.7 310.7,0 317.9,0 			"/>
			<polygon points="303.6,100 300,100 300,96.4 396.4,0 400,0 400,3.6 			"/>
			<polygon points="300,75 300,67.9 367.9,0 375,0 			"/>
			<polygon points="300,3.6 300,0 303.6,0 			"/>
			<polygon points="360.7,100 353.6,100 400,53.6 400,60.7 			"/>
			<polygon points="300,89.3 300,82.1 382.1,0 389.3,0 			"/>
			<polygon points="389.3,100 382.1,100 400,82.1 400,89.3 			"/>
			<polygon points="375,100 367.9,100 400,67.9 400,75 			"/>
			<polygon points="346.4,100 339.3,100 400,39.3 400,46.4 			"/>
			<polygon points="317.9,100 310.7,100 400,10.7 400,17.9 			"/>
			<polygon points="332.1,100 325,100 400,25 400,32.1 			"/>
		</g>
		<g>
			<polygon points="0,146.4 0,139.3 39.3,100 46.4,100 			"/>
			<polygon points="100,196.4 100,200 96.4,200 			"/>
			<polygon points="0,160.7 0,153.6 53.6,100 60.7,100 			"/>
			<polygon points="0,132.1 0,125 25,100 32.1,100 			"/>
			<polygon points="0,117.9 0,110.7 10.7,100 17.9,100 			"/>
			<polygon points="3.6,200 0,200 0,196.4 96.4,100 100,100 100,103.6 			"/>
			<polygon points="0,175 0,167.9 67.9,100 75,100 			"/>
			<polygon points="0,103.6 0,100 3.6,100 			"/>
			<polygon points="60.7,200 53.6,200 100,153.6 100,160.7 			"/>
			<polygon points="0,189.3 0,182.1 82.1,100 89.3,100 			"/>
			<polygon points="89.3,200 82.1,200 100,182.1 100,189.3 			"/>
			<polygon points="75,200 67.9,200 100,167.9 100,175 			"/>
			<polygon points="46.4,200 39.3,200 100,139.3 100,146.4 			"/>
			<polygon points="17.9,200 10.7,200 100,110.7 100,117.9 			"/>
			<polygon points="32.1,200 25,200 100,125 100,132.1 			"/>
		</g>
		<g>
			<polygon points="-100,146.4 -100,139.3 -60.7,100 -53.6,100 			"/>
			<polygon points="0,196.4 0,200 -3.6,200 			"/>
			<polygon points="-100,160.7 -100,153.6 -46.4,100 -39.3,100 			"/>
			<polygon points="-100,132.1 -100,125 -75,100 -67.9,100 			"/>
			<polygon points="-100,117.9 -100,110.7 -89.3,100 -82.1,100 			"/>
			<polygon points="-96.4,200 -100,200 -100,196.4 -3.6,100 0,100 0,103.6 			"/>
			<polygon points="-100,175 -100,167.9 -32.1,100 -25,100 			"/>
			<polygon points="-100,103.6 -100,100 -96.4,100 			"/>
			<polygon points="-39.3,200 -46.4,200 0,153.6 0,160.7 			"/>
			<polygon points="-100,189.3 -100,182.1 -17.9,100 -10.7,100 			"/>
			<polygon points="-10.7,200 -17.9,200 0,182.1 0,189.3 			"/>
			<polygon points="-25,200 -32.1,200 0,167.9 0,175 			"/>
			<polygon points="-53.6,200 -60.7,200 0,139.3 0,146.4 			"/>
			<polygon points="-82.1,200 -89.3,200 0,110.7 0,117.9 			"/>
			<polygon points="-67.9,200 -75,200 0,125 0,132.1 			"/>
		</g>
		<g>
			<polygon points="-200,146.4 -200,139.3 -160.7,100 -153.6,100 			"/>
			<polygon points="-100,196.4 -100,200 -103.6,200 			"/>
			<polygon points="-200,160.7 -200,153.6 -146.4,100 -139.3,100 			"/>
			<polygon points="-200,132.1 -200,125 -175,100 -167.9,100 			"/>
			<polygon points="-200,117.9 -200,110.7 -189.3,100 -182.1,100 			"/>
			<polygon points="-196.4,200 -200,200 -200,196.4 -103.6,100 -100,100 -100,103.6 			"/>
			<polygon points="-200,175 -200,167.9 -132.1,100 -125,100 			"/>
			<polygon points="-200,103.6 -200,100 -196.4,100 			"/>
			<polygon points="-139.3,200 -146.4,200 -100,153.6 -100,160.7 			"/>
			<polygon points="-200,189.3 -200,182.1 -117.9,100 -110.7,100 			"/>
			<polygon points="-110.7,200 -117.9,200 -100,182.1 -100,189.3 			"/>
			<polygon points="-125,200 -132.1,200 -100,167.9 -100,175 			"/>
			<polygon points="-153.6,200 -160.7,200 -100,139.3 -100,146.4 			"/>
			<polygon points="-182.1,200 -189.3,200 -100,110.7 -100,117.9 			"/>
			<polygon points="-167.9,200 -175,200 -100,125 -100,132.1 			"/>
		</g>
		<g>
			<polygon points="-300,146.4 -300,139.3 -260.7,100 -253.6,100 			"/>
			<polygon points="-200,196.4 -200,200 -203.6,200 			"/>
			<polygon points="-300,160.7 -300,153.6 -246.4,100 -239.3,100 			"/>
			<polygon points="-300,132.1 -300,125 -275,100 -267.9,100 			"/>
			<polygon points="-300,117.9 -300,110.7 -289.3,100 -282.1,100 			"/>
			<polygon points="-296.4,200 -300,200 -300,196.4 -203.6,100 -200,100 -200,103.6 			"/>
			<polygon points="-300,175 -300,167.9 -232.1,100 -225,100 			"/>
			<polygon points="-300,103.6 -300,100 -296.4,100 			"/>
			<polygon points="-239.3,200 -246.4,200 -200,153.6 -200,160.7 			"/>
			<polygon points="-300,189.3 -300,182.1 -217.9,100 -210.7,100 			"/>
			<polygon points="-210.7,200 -217.9,200 -200,182.1 -200,189.3 			"/>
			<polygon points="-225,200 -232.1,200 -200,167.9 -200,175 			"/>
			<polygon points="-253.6,200 -260.7,200 -200,139.3 -200,146.4 			"/>
			<polygon points="-282.1,200 -289.3,200 -200,110.7 -200,117.9 			"/>
			<polygon points="-267.9,200 -275,200 -200,125 -200,132.1 			"/>
		</g>
		<g>
			<polygon points="100,146.4 100,139.3 139.3,100 146.4,100 			"/>
			<polygon points="200,196.4 200,200 196.4,200 			"/>
			<polygon points="100,160.7 100,153.6 153.6,100 160.7,100 			"/>
			<polygon points="100,132.1 100,125 125,100 132.1,100 			"/>
			<polygon points="100,117.9 100,110.7 110.7,100 117.9,100 			"/>
			<polygon points="103.6,200 100,200 100,196.4 196.4,100 200,100 200,103.6 			"/>
			<polygon points="100,175 100,167.9 167.9,100 175,100 			"/>
			<polygon points="100,103.6 100,100 103.6,100 			"/>
			<polygon points="160.7,200 153.6,200 200,153.6 200,160.7 			"/>
			<polygon points="100,189.3 100,182.1 182.1,100 189.3,100 			"/>
			<polygon points="189.3,200 182.1,200 200,182.1 200,189.3 			"/>
			<polygon points="175,200 167.9,200 200,167.9 200,175 			"/>
			<polygon points="146.4,200 139.3,200 200,139.3 200,146.4 			"/>
			<polygon points="117.9,200 110.7,200 200,110.7 200,117.9 			"/>
			<polygon points="132.1,200 125,200 200,125 200,132.1 			"/>
		</g>
		<g>
			<polygon points="200,146.4 200,139.3 239.3,100 246.4,100 			"/>
			<polygon points="300,196.4 300,200 296.4,200 			"/>
			<polygon points="200,160.7 200,153.6 253.6,100 260.7,100 			"/>
			<polygon points="200,132.1 200,125 225,100 232.1,100 			"/>
			<polygon points="200,117.9 200,110.7 210.7,100 217.9,100 			"/>
			<polygon points="203.6,200 200,200 200,196.4 296.4,100 300,100 300,103.6 			"/>
			<polygon points="200,175 200,167.9 267.9,100 275,100 			"/>
			<polygon points="200,103.6 200,100 203.6,100 			"/>
			<polygon points="260.7,200 253.6,200 300,153.6 300,160.7 			"/>
			<polygon points="200,189.3 200,182.1 282.1,100 289.3,100 			"/>
			<polygon points="289.3,200 282.1,200 300,182.1 300,189.3 			"/>
			<polygon points="275,200 267.9,200 300,167.9 300,175 			"/>
			<polygon points="246.4,200 239.3,200 300,139.3 300,146.4 			"/>
			<polygon points="217.9,200 210.7,200 300,110.7 300,117.9 			"/>
			<polygon points="232.1,200 225,200 300,125 300,132.1 			"/>
		</g>
		<g>
			<polygon points="300,146.4 300,139.3 339.3,100 346.4,100 			"/>
			<polygon points="400,196.4 400,200 396.4,200 			"/>
			<polygon points="300,160.7 300,153.6 353.6,100 360.7,100 			"/>
			<polygon points="300,132.1 300,125 325,100 332.1,100 			"/>
			<polygon points="300,117.9 300,110.7 310.7,100 317.9,100 			"/>
			<polygon points="303.6,200 300,200 300,196.4 396.4,100 400,100 400,103.6 			"/>
			<polygon points="300,175 300,167.9 367.9,100 375,100 			"/>
			<polygon points="300,103.6 300,100 303.6,100 			"/>
			<polygon points="360.7,200 353.6,200 400,153.6 400,160.7 			"/>
			<polygon points="300,189.3 300,182.1 382.1,100 389.3,100 			"/>
			<polygon points="389.3,200 382.1,200 400,182.1 400,189.3 			"/>
			<polygon points="375,200 367.9,200 400,167.9 400,175 			"/>
			<polygon points="346.4,200 339.3,200 400,139.3 400,146.4 			"/>
			<polygon points="317.9,200 310.7,200 400,110.7 400,117.9 			"/>
			<polygon points="332.1,200 325,200 400,125 400,132.1 			"/>
		</g>
		<g>
			<polygon points="0,246.4 0,239.3 39.3,200 46.4,200 			"/>
			<polygon points="100,296.4 100,300 96.4,300 			"/>
			<polygon points="0,260.7 0,253.6 53.6,200 60.7,200 			"/>
			<polygon points="0,232.1 0,225 25,200 32.1,200 			"/>
			<polygon points="0,217.9 0,210.7 10.7,200 17.9,200 			"/>
			<polygon points="3.6,300 0,300 0,296.4 96.4,200 100,200 100,203.6 			"/>
			<polygon points="0,275 0,267.9 67.9,200 75,200 			"/>
			<polygon points="0,203.6 0,200 3.6,200 			"/>
			<polygon points="60.7,300 53.6,300 100,253.6 100,260.7 			"/>
			<polygon points="0,289.3 0,282.1 82.1,200 89.3,200 			"/>
			<polygon points="89.3,300 82.1,300 100,282.1 100,289.3 			"/>
			<polygon points="75,300 67.9,300 100,267.9 100,275 			"/>
			<polygon points="46.4,300 39.3,300 100,239.3 100,246.4 			"/>
			<polygon points="17.9,300 10.7,300 100,210.7 100,217.9 			"/>
			<polygon points="32.1,300 25,300 100,225 100,232.1 			"/>
		</g>
		<g>
			<polygon points="-100,246.4 -100,239.3 -60.7,200 -53.6,200 			"/>
			<polygon points="0,296.4 0,300 -3.6,300 			"/>
			<polygon points="-100,260.7 -100,253.6 -46.4,200 -39.3,200 			"/>
			<polygon points="-100,232.1 -100,225 -75,200 -67.9,200 			"/>
			<polygon points="-100,217.9 -100,210.7 -89.3,200 -82.1,200 			"/>
			<polygon points="-96.4,300 -100,300 -100,296.4 -3.6,200 0,200 0,203.6 			"/>
			<polygon points="-100,275 -100,267.9 -32.1,200 -25,200 			"/>
			<polygon points="-100,203.6 -100,200 -96.4,200 			"/>
			<polygon points="-39.3,300 -46.4,300 0,253.6 0,260.7 			"/>
			<polygon points="-100,289.3 -100,282.1 -17.9,200 -10.7,200 			"/>
			<polygon points="-10.7,300 -17.9,300 0,282.1 0,289.3 			"/>
			<polygon points="-25,300 -32.1,300 0,267.9 0,275 			"/>
			<polygon points="-53.6,300 -60.7,300 0,239.3 0,246.4 			"/>
			<polygon points="-82.1,300 -89.3,300 0,210.7 0,217.9 			"/>
			<polygon points="-67.9,300 -75,300 0,225 0,232.1 			"/>
		</g>
		<g>
			<polygon points="-200,246.4 -200,239.3 -160.7,200 -153.6,200 			"/>
			<polygon points="-100,296.4 -100,300 -103.6,300 			"/>
			<polygon points="-200,260.7 -200,253.6 -146.4,200 -139.3,200 			"/>
			<polygon points="-200,232.1 -200,225 -175,200 -167.9,200 			"/>
			<polygon points="-200,217.9 -200,210.7 -189.3,200 -182.1,200 			"/>
			<polygon points="-196.4,300 -200,300 -200,296.4 -103.6,200 -100,200 -100,203.6 			"/>
			<polygon points="-200,275 -200,267.9 -132.1,200 -125,200 			"/>
			<polygon points="-200,203.6 -200,200 -196.4,200 			"/>
			<polygon points="-139.3,300 -146.4,300 -100,253.6 -100,260.7 			"/>
			<polygon points="-200,289.3 -200,282.1 -117.9,200 -110.7,200 			"/>
			<polygon points="-110.7,300 -117.9,300 -100,282.1 -100,289.3 			"/>
			<polygon points="-125,300 -132.1,300 -100,267.9 -100,275 			"/>
			<polygon points="-153.6,300 -160.7,300 -100,239.3 -100,246.4 			"/>
			<polygon points="-182.1,300 -189.3,300 -100,210.7 -100,217.9 			"/>
			<polygon points="-167.9,300 -175,300 -100,225 -100,232.1 			"/>
		</g>
		<g>
			<polygon points="-300,246.4 -300,239.3 -260.7,200 -253.6,200 			"/>
			<polygon points="-200,296.4 -200,300 -203.6,300 			"/>
			<polygon points="-300,260.7 -300,253.6 -246.4,200 -239.3,200 			"/>
			<polygon points="-300,232.1 -300,225 -275,200 -267.9,200 			"/>
			<polygon points="-300,217.9 -300,210.7 -289.3,200 -282.1,200 			"/>
			<polygon points="-296.4,300 -300,300 -300,296.4 -203.6,200 -200,200 -200,203.6 			"/>
			<polygon points="-300,275 -300,267.9 -232.1,200 -225,200 			"/>
			<polygon points="-300,203.6 -300,200 -296.4,200 			"/>
			<polygon points="-239.3,300 -246.4,300 -200,253.6 -200,260.7 			"/>
			<polygon points="-300,289.3 -300,282.1 -217.9,200 -210.7,200 			"/>
			<polygon points="-210.7,300 -217.9,300 -200,282.1 -200,289.3 			"/>
			<polygon points="-225,300 -232.1,300 -200,267.9 -200,275 			"/>
			<polygon points="-253.6,300 -260.7,300 -200,239.3 -200,246.4 			"/>
			<polygon points="-282.1,300 -289.3,300 -200,210.7 -200,217.9 			"/>
			<polygon points="-267.9,300 -275,300 -200,225 -200,232.1 			"/>
		</g>
		<g>
			<polygon points="100,246.4 100,239.3 139.3,200 146.4,200 			"/>
			<polygon points="200,296.4 200,300 196.4,300 			"/>
			<polygon points="100,260.7 100,253.6 153.6,200 160.7,200 			"/>
			<polygon points="100,232.1 100,225 125,200 132.1,200 			"/>
			<polygon points="100,217.9 100,210.7 110.7,200 117.9,200 			"/>
			<polygon points="103.6,300 100,300 100,296.4 196.4,200 200,200 200,203.6 			"/>
			<polygon points="100,275 100,267.9 167.9,200 175,200 			"/>
			<polygon points="100,203.6 100,200 103.6,200 			"/>
			<polygon points="160.7,300 153.6,300 200,253.6 200,260.7 			"/>
			<polygon points="100,289.3 100,282.1 182.1,200 189.3,200 			"/>
			<polygon points="189.3,300 182.1,300 200,282.1 200,289.3 			"/>
			<polygon points="175,300 167.9,300 200,267.9 200,275 			"/>
			<polygon points="146.4,300 139.3,300 200,239.3 200,246.4 			"/>
			<polygon points="117.9,300 110.7,300 200,210.7 200,217.9 			"/>
			<polygon points="132.1,300 125,300 200,225 200,232.1 			"/>
		</g>
		<g>
			<polygon points="200,246.4 200,239.3 239.3,200 246.4,200 			"/>
			<polygon points="300,296.4 300,300 296.4,300 			"/>
			<polygon points="200,260.7 200,253.6 253.6,200 260.7,200 			"/>
			<polygon points="200,232.1 200,225 225,200 232.1,200 			"/>
			<polygon points="200,217.9 200,210.7 210.7,200 217.9,200 			"/>
			<polygon points="203.6,300 200,300 200,296.4 296.4,200 300,200 300,203.6 			"/>
			<polygon points="200,275 200,267.9 267.9,200 275,200 			"/>
			<polygon points="200,203.6 200,200 203.6,200 			"/>
			<polygon points="260.7,300 253.6,300 300,253.6 300,260.7 			"/>
			<polygon points="200,289.3 200,282.1 282.1,200 289.3,200 			"/>
			<polygon points="289.3,300 282.1,300 300,282.1 300,289.3 			"/>
			<polygon points="275,300 267.9,300 300,267.9 300,275 			"/>
			<polygon points="246.4,300 239.3,300 300,239.3 300,246.4 			"/>
			<polygon points="217.9,300 210.7,300 300,210.7 300,217.9 			"/>
			<polygon points="232.1,300 225,300 300,225 300,232.1 			"/>
		</g>
		<g>
			<polygon points="300,246.4 300,239.3 339.3,200 346.4,200 			"/>
			<polygon points="400,296.4 400,300 396.4,300 			"/>
			<polygon points="300,260.7 300,253.6 353.6,200 360.7,200 			"/>
			<polygon points="300,232.1 300,225 325,200 332.1,200 			"/>
			<polygon points="300,217.9 300,210.7 310.7,200 317.9,200 			"/>
			<polygon points="303.6,300 300,300 300,296.4 396.4,200 400,200 400,203.6 			"/>
			<polygon points="300,275 300,267.9 367.9,200 375,200 			"/>
			<polygon points="300,203.6 300,200 303.6,200 			"/>
			<polygon points="360.7,300 353.6,300 400,253.6 400,260.7 			"/>
			<polygon points="300,289.3 300,282.1 382.1,200 389.3,200 			"/>
			<polygon points="389.3,300 382.1,300 400,282.1 400,289.3 			"/>
			<polygon points="375,300 367.9,300 400,267.9 400,275 			"/>
			<polygon points="346.4,300 339.3,300 400,239.3 400,246.4 			"/>
			<polygon points="317.9,300 310.7,300 400,210.7 400,217.9 			"/>
			<polygon points="332.1,300 325,300 400,225 400,232.1 			"/>
		</g>
		<g>
			<polygon points="0,-53.6 0,-60.7 39.3,-100 46.4,-100 			"/>
			<polygon points="100,-3.6 100,0 96.4,0 			"/>
			<polygon points="0,-39.3 0,-46.4 53.6,-100 60.7,-100 			"/>
			<polygon points="0,-67.9 0,-75 25,-100 32.1,-100 			"/>
			<polygon points="0,-82.1 0,-89.3 10.7,-100 17.9,-100 			"/>
			<polygon points="3.6,0 0,0 0,-3.6 96.4,-100 100,-100 100,-96.4 			"/>
			<polygon points="0,-25 0,-32.1 67.9,-100 75,-100 			"/>
			<polygon points="0,-96.4 0,-100 3.6,-100 			"/>
			<polygon points="60.7,0 53.6,0 100,-46.4 100,-39.3 			"/>
			<polygon points="0,-10.7 0,-17.9 82.1,-100 89.3,-100 			"/>
			<polygon points="89.3,0 82.1,0 100,-17.9 100,-10.7 			"/>
			<polygon points="75,0 67.9,0 100,-32.1 100,-25 			"/>
			<polygon points="46.4,0 39.3,0 100,-60.7 100,-53.6 			"/>
			<polygon points="17.9,0 10.7,0 100,-89.3 100,-82.1 			"/>
			<polygon points="32.1,0 25,0 100,-75 100,-67.9 			"/>
		</g>
		<g>
			<polygon points="-100,-53.6 -100,-60.7 -60.7,-100 -53.6,-100 			"/>
			<polygon points="0,-3.6 0,0 -3.6,0 			"/>
			<polygon points="-100,-39.3 -100,-46.4 -46.4,-100 -39.3,-100 			"/>
			<polygon points="-100,-67.9 -100,-75 -75,-100 -67.9,-100 			"/>
			<polygon points="-100,-82.1 -100,-89.3 -89.3,-100 -82.1,-100 			"/>
			<polygon points="-96.4,0 -100,0 -100,-3.6 -3.6,-100 0,-100 0,-96.4 			"/>
			<polygon points="-100,-25 -100,-32.1 -32.1,-100 -25,-100 			"/>
			<polygon points="-100,-96.4 -100,-100 -96.4,-100 			"/>
			<polygon points="-39.3,0 -46.4,0 0,-46.4 0,-39.3 			"/>
			<polygon points="-100,-10.7 -100,-17.9 -17.9,-100 -10.7,-100 			"/>
			<polygon points="-10.7,0 -17.9,0 0,-17.9 0,-10.7 			"/>
			<polygon points="-25,0 -32.1,0 0,-32.1 0,-25 			"/>
			<polygon points="-53.6,0 -60.7,0 0,-60.7 0,-53.6 			"/>
			<polygon points="-82.1,0 -89.3,0 0,-89.3 0,-82.1 			"/>
			<polygon points="-67.9,0 -75,0 0,-75 0,-67.9 			"/>
		</g>
		<g>
			<polygon points="-200,-53.6 -200,-60.7 -160.7,-100 -153.6,-100 			"/>
			<polygon points="-100,-3.6 -100,0 -103.6,0 			"/>
			<polygon points="-200,-39.3 -200,-46.4 -146.4,-100 -139.3,-100 			"/>
			<polygon points="-200,-67.9 -200,-75 -175,-100 -167.9,-100 			"/>
			<polygon points="-200,-82.1 -200,-89.3 -189.3,-100 -182.1,-100 			"/>
			<polygon points="-196.4,0 -200,0 -200,-3.6 -103.6,-100 -100,-100 -100,-96.4 			"/>
			<polygon points="-200,-25 -200,-32.1 -132.1,-100 -125,-100 			"/>
			<polygon points="-200,-96.4 -200,-100 -196.4,-100 			"/>
			<polygon points="-139.3,0 -146.4,0 -100,-46.4 -100,-39.3 			"/>
			<polygon points="-200,-10.7 -200,-17.9 -117.9,-100 -110.7,-100 			"/>
			<polygon points="-110.7,0 -117.9,0 -100,-17.9 -100,-10.7 			"/>
			<polygon points="-125,0 -132.1,0 -100,-32.1 -100,-25 			"/>
			<polygon points="-153.6,0 -160.7,0 -100,-60.7 -100,-53.6 			"/>
			<polygon points="-182.1,0 -189.3,0 -100,-89.3 -100,-82.1 			"/>
			<polygon points="-167.9,0 -175,0 -100,-75 -100,-67.9 			"/>
		</g>
		<g>
			<polygon points="-300,-53.6 -300,-60.7 -260.7,-100 -253.6,-100 			"/>
			<polygon points="-200,-3.6 -200,0 -203.6,0 			"/>
			<polygon points="-300,-39.3 -300,-46.4 -246.4,-100 -239.3,-100 			"/>
			<polygon points="-300,-67.9 -300,-75 -275,-100 -267.9,-100 			"/>
			<polygon points="-300,-82.1 -300,-89.3 -289.3,-100 -282.1,-100 			"/>
			<polygon points="-296.4,0 -300,0 -300,-3.6 -203.6,-100 -200,-100 -200,-96.4 			"/>
			<polygon points="-300,-25 -300,-32.1 -232.1,-100 -225,-100 			"/>
			<polygon points="-300,-96.4 -300,-100 -296.4,-100 			"/>
			<polygon points="-239.3,0 -246.4,0 -200,-46.4 -200,-39.3 			"/>
			<polygon points="-300,-10.7 -300,-17.9 -217.9,-100 -210.7,-100 			"/>
			<polygon points="-210.7,0 -217.9,0 -200,-17.9 -200,-10.7 			"/>
			<polygon points="-225,0 -232.1,0 -200,-32.1 -200,-25 			"/>
			<polygon points="-253.6,0 -260.7,0 -200,-60.7 -200,-53.6 			"/>
			<polygon points="-282.1,0 -289.3,0 -200,-89.3 -200,-82.1 			"/>
			<polygon points="-267.9,0 -275,0 -200,-75 -200,-67.9 			"/>
		</g>
		<g>
			<polygon points="100,-53.6 100,-60.7 139.3,-100 146.4,-100 			"/>
			<polygon points="200,-3.6 200,0 196.4,0 			"/>
			<polygon points="100,-39.3 100,-46.4 153.6,-100 160.7,-100 			"/>
			<polygon points="100,-67.9 100,-75 125,-100 132.1,-100 			"/>
			<polygon points="100,-82.1 100,-89.3 110.7,-100 117.9,-100 			"/>
			<polygon points="103.6,0 100,0 100,-3.6 196.4,-100 200,-100 200,-96.4 			"/>
			<polygon points="100,-25 100,-32.1 167.9,-100 175,-100 			"/>
			<polygon points="100,-96.4 100,-100 103.6,-100 			"/>
			<polygon points="160.7,0 153.6,0 200,-46.4 200,-39.3 			"/>
			<polygon points="100,-10.7 100,-17.9 182.1,-100 189.3,-100 			"/>
			<polygon points="189.3,0 182.1,0 200,-17.9 200,-10.7 			"/>
			<polygon points="175,0 167.9,0 200,-32.1 200,-25 			"/>
			<polygon points="146.4,0 139.3,0 200,-60.7 200,-53.6 			"/>
			<polygon points="117.9,0 110.7,0 200,-89.3 200,-82.1 			"/>
			<polygon points="132.1,0 125,0 200,-75 200,-67.9 			"/>
		</g>
		<g>
			<polygon points="200,-53.6 200,-60.7 239.3,-100 246.4,-100 			"/>
			<polygon points="300,-3.6 300,0 296.4,0 			"/>
			<polygon points="200,-39.3 200,-46.4 253.6,-100 260.7,-100 			"/>
			<polygon points="200,-67.9 200,-75 225,-100 232.1,-100 			"/>
			<polygon points="200,-82.1 200,-89.3 210.7,-100 217.9,-100 			"/>
			<polygon points="203.6,0 200,0 200,-3.6 296.4,-100 300,-100 300,-96.4 			"/>
			<polygon points="200,-25 200,-32.1 267.9,-100 275,-100 			"/>
			<polygon points="200,-96.4 200,-100 203.6,-100 			"/>
			<polygon points="260.7,0 253.6,0 300,-46.4 300,-39.3 			"/>
			<polygon points="200,-10.7 200,-17.9 282.1,-100 289.3,-100 			"/>
			<polygon points="289.3,0 282.1,0 300,-17.9 300,-10.7 			"/>
			<polygon points="275,0 267.9,0 300,-32.1 300,-25 			"/>
			<polygon points="246.4,0 239.3,0 300,-60.7 300,-53.6 			"/>
			<polygon points="217.9,0 210.7,0 300,-89.3 300,-82.1 			"/>
			<polygon points="232.1,0 225,0 300,-75 300,-67.9 			"/>
		</g>
		<g>
			<polygon points="300,-53.6 300,-60.7 339.3,-100 346.4,-100 			"/>
			<polygon points="400,-3.6 400,0 396.4,0 			"/>
			<polygon points="300,-39.3 300,-46.4 353.6,-100 360.7,-100 			"/>
			<polygon points="300,-67.9 300,-75 325,-100 332.1,-100 			"/>
			<polygon points="300,-82.1 300,-89.3 310.7,-100 317.9,-100 			"/>
			<polygon points="303.6,0 300,0 300,-3.6 396.4,-100 400,-100 400,-96.4 			"/>
			<polygon points="300,-25 300,-32.1 367.9,-100 375,-100 			"/>
			<polygon points="300,-96.4 300,-100 303.6,-100 			"/>
			<polygon points="360.7,0 353.6,0 400,-46.4 400,-39.3 			"/>
			<polygon points="300,-10.7 300,-17.9 382.1,-100 389.3,-100 			"/>
			<polygon points="389.3,0 382.1,0 400,-17.9 400,-10.7 			"/>
			<polygon points="375,0 367.9,0 400,-32.1 400,-25 			"/>
			<polygon points="346.4,0 339.3,0 400,-60.7 400,-53.6 			"/>
			<polygon points="317.9,0 310.7,0 400,-89.3 400,-82.1 			"/>
			<polygon points="332.1,0 325,0 400,-75 400,-67.9 			"/>
		</g>
		<g>
			<polygon points="0,-153.6 0,-160.7 39.3,-200 46.4,-200 			"/>
			<polygon points="100,-103.6 100,-100 96.4,-100 			"/>
			<polygon points="0,-139.3 0,-146.4 53.6,-200 60.7,-200 			"/>
			<polygon points="0,-167.9 0,-175 25,-200 32.1,-200 			"/>
			<polygon points="0,-182.1 0,-189.3 10.7,-200 17.9,-200 			"/>
			<polygon points="3.6,-100 0,-100 0,-103.6 96.4,-200 100,-200 100,-196.4 			"/>
			<polygon points="0,-125 0,-132.1 67.9,-200 75,-200 			"/>
			<polygon points="0,-196.4 0,-200 3.6,-200 			"/>
			<polygon points="60.7,-100 53.6,-100 100,-146.4 100,-139.3 			"/>
			<polygon points="0,-110.7 0,-117.9 82.1,-200 89.3,-200 			"/>
			<polygon points="89.3,-100 82.1,-100 100,-117.9 100,-110.7 			"/>
			<polygon points="75,-100 67.9,-100 100,-132.1 100,-125 			"/>
			<polygon points="46.4,-100 39.3,-100 100,-160.7 100,-153.6 			"/>
			<polygon points="17.9,-100 10.7,-100 100,-189.3 100,-182.1 			"/>
			<polygon points="32.1,-100 25,-100 100,-175 100,-167.9 			"/>
		</g>
		<g>
			<polygon points="-100,-153.6 -100,-160.7 -60.7,-200 -53.6,-200 			"/>
			<polygon points="0,-103.6 0,-100 -3.6,-100 			"/>
			<polygon points="-100,-139.3 -100,-146.4 -46.4,-200 -39.3,-200 			"/>
			<polygon points="-100,-167.9 -100,-175 -75,-200 -67.9,-200 			"/>
			<polygon points="-100,-182.1 -100,-189.3 -89.3,-200 -82.1,-200 			"/>
			<polygon points="-96.4,-100 -100,-100 -100,-103.6 -3.6,-200 0,-200 0,-196.4 			"/>
			<polygon points="-100,-125 -100,-132.1 -32.1,-200 -25,-200 			"/>
			<polygon points="-100,-196.4 -100,-200 -96.4,-200 			"/>
			<polygon points="-39.3,-100 -46.4,-100 0,-146.4 0,-139.3 			"/>
			<polygon points="-100,-110.7 -100,-117.9 -17.9,-200 -10.7,-200 			"/>
			<polygon points="-10.7,-100 -17.9,-100 0,-117.9 0,-110.7 			"/>
			<polygon points="-25,-100 -32.1,-100 0,-132.1 0,-125 			"/>
			<polygon points="-53.6,-100 -60.7,-100 0,-160.7 0,-153.6 			"/>
			<polygon points="-82.1,-100 -89.3,-100 0,-189.3 0,-182.1 			"/>
			<polygon points="-67.9,-100 -75,-100 0,-175 0,-167.9 			"/>
		</g>
		<g>
			<polygon points="-200,-153.6 -200,-160.7 -160.7,-200 -153.6,-200 			"/>
			<polygon points="-100,-103.6 -100,-100 -103.6,-100 			"/>
			<polygon points="-200,-139.3 -200,-146.4 -146.4,-200 -139.3,-200 			"/>
			<polygon points="-200,-167.9 -200,-175 -175,-200 -167.9,-200 			"/>
			<polygon points="-200,-182.1 -200,-189.3 -189.3,-200 -182.1,-200 			"/>
			<polygon points="-196.4,-100 -200,-100 -200,-103.6 -103.6,-200 -100,-200 -100,-196.4 			"/>
			<polygon points="-200,-125 -200,-132.1 -132.1,-200 -125,-200 			"/>
			<polygon points="-200,-196.4 -200,-200 -196.4,-200 			"/>
			<polygon points="-139.3,-100 -146.4,-100 -100,-146.4 -100,-139.3 			"/>
			<polygon points="-200,-110.7 -200,-117.9 -117.9,-200 -110.7,-200 			"/>
			<polygon points="-110.7,-100 -117.9,-100 -100,-117.9 -100,-110.7 			"/>
			<polygon points="-125,-100 -132.1,-100 -100,-132.1 -100,-125 			"/>
			<polygon points="-153.6,-100 -160.7,-100 -100,-160.7 -100,-153.6 			"/>
			<polygon points="-182.1,-100 -189.3,-100 -100,-189.3 -100,-182.1 			"/>
			<polygon points="-167.9,-100 -175,-100 -100,-175 -100,-167.9 			"/>
		</g>
		<g>
			<polygon points="-300,-153.6 -300,-160.7 -260.7,-200 -253.6,-200 			"/>
			<polygon points="-200,-103.6 -200,-100 -203.6,-100 			"/>
			<polygon points="-300,-139.3 -300,-146.4 -246.4,-200 -239.3,-200 			"/>
			<polygon points="-300,-167.9 -300,-175 -275,-200 -267.9,-200 			"/>
			<polygon points="-300,-182.1 -300,-189.3 -289.3,-200 -282.1,-200 			"/>
			<polygon points="-296.4,-100 -300,-100 -300,-103.6 -203.6,-200 -200,-200 -200,-196.4 			"/>
			<polygon points="-300,-125 -300,-132.1 -232.1,-200 -225,-200 			"/>
			<polygon points="-300,-196.4 -300,-200 -296.4,-200 			"/>
			<polygon points="-239.3,-100 -246.4,-100 -200,-146.4 -200,-139.3 			"/>
			<polygon points="-300,-110.7 -300,-117.9 -217.9,-200 -210.7,-200 			"/>
			<polygon points="-210.7,-100 -217.9,-100 -200,-117.9 -200,-110.7 			"/>
			<polygon points="-225,-100 -232.1,-100 -200,-132.1 -200,-125 			"/>
			<polygon points="-253.6,-100 -260.7,-100 -200,-160.7 -200,-153.6 			"/>
			<polygon points="-282.1,-100 -289.3,-100 -200,-189.3 -200,-182.1 			"/>
			<polygon points="-267.9,-100 -275,-100 -200,-175 -200,-167.9 			"/>
		</g>
		<g>
			<polygon points="100,-153.6 100,-160.7 139.3,-200 146.4,-200 			"/>
			<polygon points="200,-103.6 200,-100 196.4,-100 			"/>
			<polygon points="100,-139.3 100,-146.4 153.6,-200 160.7,-200 			"/>
			<polygon points="100,-167.9 100,-175 125,-200 132.1,-200 			"/>
			<polygon points="100,-182.1 100,-189.3 110.7,-200 117.9,-200 			"/>
			<polygon points="103.6,-100 100,-100 100,-103.6 196.4,-200 200,-200 200,-196.4 			"/>
			<polygon points="100,-125 100,-132.1 167.9,-200 175,-200 			"/>
			<polygon points="100,-196.4 100,-200 103.6,-200 			"/>
			<polygon points="160.7,-100 153.6,-100 200,-146.4 200,-139.3 			"/>
			<polygon points="100,-110.7 100,-117.9 182.1,-200 189.3,-200 			"/>
			<polygon points="189.3,-100 182.1,-100 200,-117.9 200,-110.7 			"/>
			<polygon points="175,-100 167.9,-100 200,-132.1 200,-125 			"/>
			<polygon points="146.4,-100 139.3,-100 200,-160.7 200,-153.6 			"/>
			<polygon points="117.9,-100 110.7,-100 200,-189.3 200,-182.1 			"/>
			<polygon points="132.1,-100 125,-100 200,-175 200,-167.9 			"/>
		</g>
		<g>
			<polygon points="200,-153.6 200,-160.7 239.3,-200 246.4,-200 			"/>
			<polygon points="300,-103.6 300,-100 296.4,-100 			"/>
			<polygon points="200,-139.3 200,-146.4 253.6,-200 260.7,-200 			"/>
			<polygon points="200,-167.9 200,-175 225,-200 232.1,-200 			"/>
			<polygon points="200,-182.1 200,-189.3 210.7,-200 217.9,-200 			"/>
			<polygon points="203.6,-100 200,-100 200,-103.6 296.4,-200 300,-200 300,-196.4 			"/>
			<polygon points="200,-125 200,-132.1 267.9,-200 275,-200 			"/>
			<polygon points="200,-196.4 200,-200 203.6,-200 			"/>
			<polygon points="260.7,-100 253.6,-100 300,-146.4 300,-139.3 			"/>
			<polygon points="200,-110.7 200,-117.9 282.1,-200 289.3,-200 			"/>
			<polygon points="289.3,-100 282.1,-100 300,-117.9 300,-110.7 			"/>
			<polygon points="275,-100 267.9,-100 300,-132.1 300,-125 			"/>
			<polygon points="246.4,-100 239.3,-100 300,-160.7 300,-153.6 			"/>
			<polygon points="217.9,-100 210.7,-100 300,-189.3 300,-182.1 			"/>
			<polygon points="232.1,-100 225,-100 300,-175 300,-167.9 			"/>
		</g>
		<g>
			<polygon points="300,-153.6 300,-160.7 339.3,-200 346.4,-200 			"/>
			<polygon points="400,-103.6 400,-100 396.4,-100 			"/>
			<polygon points="300,-139.3 300,-146.4 353.6,-200 360.7,-200 			"/>
			<polygon points="300,-167.9 300,-175 325,-200 332.1,-200 			"/>
			<polygon points="300,-182.1 300,-189.3 310.7,-200 317.9,-200 			"/>
			<polygon points="303.6,-100 300,-100 300,-103.6 396.4,-200 400,-200 400,-196.4 			"/>
			<polygon points="300,-125 300,-132.1 367.9,-200 375,-200 			"/>
			<polygon points="300,-196.4 300,-200 303.6,-200 			"/>
			<polygon points="360.7,-100 353.6,-100 400,-146.4 400,-139.3 			"/>
			<polygon points="300,-110.7 300,-117.9 382.1,-200 389.3,-200 			"/>
			<polygon points="389.3,-100 382.1,-100 400,-117.9 400,-110.7 			"/>
			<polygon points="375,-100 367.9,-100 400,-132.1 400,-125 			"/>
			<polygon points="346.4,-100 339.3,-100 400,-160.7 400,-153.6 			"/>
			<polygon points="317.9,-100 310.7,-100 400,-189.3 400,-182.1 			"/>
			<polygon points="332.1,-100 325,-100 400,-175 400,-167.9 			"/>
		</g>
	</g>
</g>
</svg>
