<?xml version="1.0" encoding="iso-8859-1"?>
<!-- Generator: Adobe Illustrator 22.1.0, SVG Export Plug-In . SVG Version: 6.00 Build 0)  -->
<svg version="1.1" id="Layer_3" xmlns="http://www.w3.org/2000/svg" xmlns:xlink="http://www.w3.org/1999/xlink" x="0px" y="0px"
	 width="100px" height="100px" viewBox="0 0 100 100" enable-background="new 0 0 100 100" xml:space="preserve">
<g>
	<defs>
		<rect id="SVGID_1_" width="100" height="100"/>
	</defs>
	<clipPath id="SVGID_2_">
		<use xlink:href="#SVGID_1_"  overflow="visible"/>
	</clipPath>
	<g clip-path="url(#SVGID_2_)">
		<path fill="none" stroke="#4D4D4F" stroke-width="2.5024" stroke-linecap="square" d="M-53.3,77.5h20v15h-10v-5h5v-5h-10v15h20
			v-20h20v15h-10v-5h5v-5h-10v15h20v-20h20v15h-10v-5h5v-5h-10v15h20v-20h20v15h-10v-5h5v-5h-10v15h20v-20h20v15h-10v-5h5v-5h-10v15
			h20v-20h20v15h-10v-5h5v-5h-10v15h20v-20h20v15h-10v-5h5v-5h-10v15h20v-20h20v15h-10v-5h5v-5h-10v15h20v-20 M-53.3,52.5h20v15h-10
			v-5h5v-5h-10v15h20v-20h20v15h-10v-5h5v-5h-10v15h20v-20h20v15h-10v-5h5v-5h-10v15h20v-20h20v15h-10v-5h5v-5h-10v15h20v-20h20v15
			h-10v-5h5v-5h-10v15h20v-20h20v15h-10v-5h5v-5h-10v15h20v-20h20v15h-10v-5h5v-5h-10v15h20v-20h20v15h-10v-5h5v-5h-10v15h20v-20
			 M-53.3,27.5h20v15h-10v-5h5v-5h-10v15h20v-20h20v15h-10v-5h5v-5h-10v15h20v-20h20v15h-10v-5h5v-5h-10v15h20v-20h20v15h-10v-5h5
			v-5h-10v15h20v-20h20v15h-10v-5h5v-5h-10v15h20v-20h20v15h-10v-5h5v-5h-10v15h20v-20h20v15h-10v-5h5v-5h-10v15h20v-20h20v15h-10
			v-5h5v-5h-10v15h20v-20 M-53.3,2.5h20v15h-10v-5h5v-5h-10v15h20v-20h20v15h-10v-5h5v-5h-10v15h20v-20h20v15h-10v-5h5v-5h-10v15h20
			v-20h20v15h-10v-5h5v-5h-10v15h20v-20h20v15h-10v-5h5v-5h-10v15h20v-20h20v15h-10v-5h5v-5h-10v15h20v-20h20v15h-10v-5h5v-5h-10v15
			h20v-20h20v15h-10v-5h5v-5h-10v15h20v-20"/>
		<path fill="none" stroke="#4D4D4F" stroke-width="2.5024" stroke-linecap="square" d="M-53.3-22.5h20v15h-10v-5h5v-5h-10v15h20
			v-20h20v15h-10v-5h5v-5h-10v15h20v-20h20v15h-10v-5h5v-5h-10v15h20v-20h20v15h-10v-5h5v-5h-10v15h20v-20h20v15h-10v-5h5v-5h-10v15
			h20v-20h20v15h-10v-5h5v-5h-10v15h20v-20h20v15h-10v-5h5v-5h-10v15h20v-20h20v15h-10v-5h5v-5h-10v15h20v-20 M-53.3-47.5h20v15h-10
			v-5h5v-5h-10v15h20v-20h20v15h-10v-5h5v-5h-10v15h20v-20h20v15h-10v-5h5v-5h-10v15h20v-20h20v15h-10v-5h5v-5h-10v15h20v-20h20v15
			h-10v-5h5v-5h-10v15h20v-20h20v15h-10v-5h5v-5h-10v15h20v-20h20v15h-10v-5h5v-5h-10v15h20v-20h20v15h-10v-5h5v-5h-10v15h20v-20
			 M-53.3-72.5h20v15h-10v-5h5v-5h-10v15h20v-20h20v15h-10v-5h5v-5h-10v15h20v-20h20v15h-10v-5h5v-5h-10v15h20v-20h20v15h-10v-5h5
			v-5h-10v15h20v-20h20v15h-10v-5h5v-5h-10v15h20v-20h20v15h-10v-5h5v-5h-10v15h20v-20h20v15h-10v-5h5v-5h-10v15h20v-20h20v15h-10
			v-5h5v-5h-10v15h20v-20 M-53.3-97.5h20v15h-10v-5h5v-5h-10v15h20v-20h20v15h-10v-5h5v-5h-10v15h20v-20h20v15h-10v-5h5v-5h-10v15
			h20v-20h20v15h-10v-5h5v-5h-10v15h20v-20h20v15h-10v-5h5v-5h-10v15h20v-20h20v15h-10v-5h5v-5h-10v15h20v-20h20v15h-10v-5h5v-5h-10
			v15h20v-20h20v15h-10v-5h5v-5h-10v15h20v-20"/>
		<path fill="none" stroke="#4D4D4F" stroke-width="2.5024" stroke-linecap="square" d="M-53.3,177.5h20v15h-10v-5h5v-5h-10v15h20
			v-20h20v15h-10v-5h5v-5h-10v15h20v-20h20v15h-10v-5h5v-5h-10v15h20v-20h20v15h-10v-5h5v-5h-10v15h20v-20h20v15h-10v-5h5v-5h-10v15
			h20v-20h20v15h-10v-5h5v-5h-10v15h20v-20h20v15h-10v-5h5v-5h-10v15h20v-20h20v15h-10v-5h5v-5h-10v15h20v-20 M-53.3,152.5h20v15
			h-10v-5h5v-5h-10v15h20v-20h20v15h-10v-5h5v-5h-10v15h20v-20h20v15h-10v-5h5v-5h-10v15h20v-20h20v15h-10v-5h5v-5h-10v15h20v-20h20
			v15h-10v-5h5v-5h-10v15h20v-20h20v15h-10v-5h5v-5h-10v15h20v-20h20v15h-10v-5h5v-5h-10v15h20v-20h20v15h-10v-5h5v-5h-10v15h20v-20
			 M-53.3,127.5h20v15h-10v-5h5v-5h-10v15h20v-20h20v15h-10v-5h5v-5h-10v15h20v-20h20v15h-10v-5h5v-5h-10v15h20v-20h20v15h-10v-5h5
			v-5h-10v15h20v-20h20v15h-10v-5h5v-5h-10v15h20v-20h20v15h-10v-5h5v-5h-10v15h20v-20h20v15h-10v-5h5v-5h-10v15h20v-20h20v15h-10
			v-5h5v-5h-10v15h20v-20 M-53.3,102.5h20v15h-10v-5h5v-5h-10v15h20v-20h20v15h-10v-5h5v-5h-10v15h20v-20h20v15h-10v-5h5v-5h-10v15
			h20v-20h20v15h-10v-5h5v-5h-10v15h20v-20h20v15h-10v-5h5v-5h-10v15h20v-20h20v15h-10v-5h5v-5h-10v15h20v-20h20v15h-10v-5h5v-5h-10
			v15h20v-20h20v15h-10v-5h5v-5h-10v15h20v-20"/>
		<path fill="none" stroke="#4D4D4F" stroke-width="2.5024" stroke-linecap="square" d="M-253.5,77.5h20v15h-10v-5h5v-5h-10v15h20
			v-20h20v15h-10v-5h5v-5h-10v15h20v-20h20v15h-10v-5h5v-5h-10v15h20v-20h20v15h-10v-5h5v-5h-10v15h20v-20h20v15h-10v-5h5v-5h-10v15
			h20v-20h20v15h-10v-5h5v-5h-10v15h20v-20h20v15h-10v-5h5v-5h-10v15h20v-20h20v15h-10v-5h5v-5h-10v15h20v-20 M-253.5,52.5h20v15
			h-10v-5h5v-5h-10v15h20v-20h20v15h-10v-5h5v-5h-10v15h20v-20h20v15h-10v-5h5v-5h-10v15h20v-20h20v15h-10v-5h5v-5h-10v15h20v-20h20
			v15h-10v-5h5v-5h-10v15h20v-20h20v15h-10v-5h5v-5h-10v15h20v-20h20v15h-10v-5h5v-5h-10v15h20v-20h20v15h-10v-5h5v-5h-10v15h20v-20
			 M-253.5,27.5h20v15h-10v-5h5v-5h-10v15h20v-20h20v15h-10v-5h5v-5h-10v15h20v-20h20v15h-10v-5h5v-5h-10v15h20v-20h20v15h-10v-5h5
			v-5h-10v15h20v-20h20v15h-10v-5h5v-5h-10v15h20v-20h20v15h-10v-5h5v-5h-10v15h20v-20h20v15h-10v-5h5v-5h-10v15h20v-20h20v15h-10
			v-5h5v-5h-10v15h20v-20 M-253.5,2.5h20v15h-10v-5h5v-5h-10v15h20v-20h20v15h-10v-5h5v-5h-10v15h20v-20h20v15h-10v-5h5v-5h-10v15
			h20v-20h20v15h-10v-5h5v-5h-10v15h20v-20h20v15h-10v-5h5v-5h-10v15h20v-20h20v15h-10v-5h5v-5h-10v15h20v-20h20v15h-10v-5h5v-5h-10
			v15h20v-20h20v15h-10v-5h5v-5h-10v15h20v-20"/>
		<path fill="none" stroke="#4D4D4F" stroke-width="2.5024" stroke-linecap="square" d="M-253.5-22.5h20v15h-10v-5h5v-5h-10v15h20
			v-20h20v15h-10v-5h5v-5h-10v15h20v-20h20v15h-10v-5h5v-5h-10v15h20v-20h20v15h-10v-5h5v-5h-10v15h20v-20h20v15h-10v-5h5v-5h-10v15
			h20v-20h20v15h-10v-5h5v-5h-10v15h20v-20h20v15h-10v-5h5v-5h-10v15h20v-20h20v15h-10v-5h5v-5h-10v15h20v-20 M-253.5-47.5h20v15
			h-10v-5h5v-5h-10v15h20v-20h20v15h-10v-5h5v-5h-10v15h20v-20h20v15h-10v-5h5v-5h-10v15h20v-20h20v15h-10v-5h5v-5h-10v15h20v-20h20
			v15h-10v-5h5v-5h-10v15h20v-20h20v15h-10v-5h5v-5h-10v15h20v-20h20v15h-10v-5h5v-5h-10v15h20v-20h20v15h-10v-5h5v-5h-10v15h20v-20
			 M-253.5-72.5h20v15h-10v-5h5v-5h-10v15h20v-20h20v15h-10v-5h5v-5h-10v15h20v-20h20v15h-10v-5h5v-5h-10v15h20v-20h20v15h-10v-5h5
			v-5h-10v15h20v-20h20v15h-10v-5h5v-5h-10v15h20v-20h20v15h-10v-5h5v-5h-10v15h20v-20h20v15h-10v-5h5v-5h-10v15h20v-20h20v15h-10
			v-5h5v-5h-10v15h20v-20 M-253.5-97.5h20v15h-10v-5h5v-5h-10v15h20v-20h20v15h-10v-5h5v-5h-10v15h20v-20h20v15h-10v-5h5v-5h-10v15
			h20v-20h20v15h-10v-5h5v-5h-10v15h20v-20h20v15h-10v-5h5v-5h-10v15h20v-20h20v15h-10v-5h5v-5h-10v15h20v-20h20v15h-10v-5h5v-5h-10
			v15h20v-20h20v15h-10v-5h5v-5h-10v15h20v-20"/>
		<path fill="none" stroke="#4D4D4F" stroke-width="2.5024" stroke-linecap="square" d="M-253.5,177.5h20v15h-10v-5h5v-5h-10v15h20
			v-20h20v15h-10v-5h5v-5h-10v15h20v-20h20v15h-10v-5h5v-5h-10v15h20v-20h20v15h-10v-5h5v-5h-10v15h20v-20h20v15h-10v-5h5v-5h-10v15
			h20v-20h20v15h-10v-5h5v-5h-10v15h20v-20h20v15h-10v-5h5v-5h-10v15h20v-20h20v15h-10v-5h5v-5h-10v15h20v-20 M-253.5,152.5h20v15
			h-10v-5h5v-5h-10v15h20v-20h20v15h-10v-5h5v-5h-10v15h20v-20h20v15h-10v-5h5v-5h-10v15h20v-20h20v15h-10v-5h5v-5h-10v15h20v-20h20
			v15h-10v-5h5v-5h-10v15h20v-20h20v15h-10v-5h5v-5h-10v15h20v-20h20v15h-10v-5h5v-5h-10v15h20v-20h20v15h-10v-5h5v-5h-10v15h20v-20
			 M-253.5,127.5h20v15h-10v-5h5v-5h-10v15h20v-20h20v15h-10v-5h5v-5h-10v15h20v-20h20v15h-10v-5h5v-5h-10v15h20v-20h20v15h-10v-5h5
			v-5h-10v15h20v-20h20v15h-10v-5h5v-5h-10v15h20v-20h20v15h-10v-5h5v-5h-10v15h20v-20h20v15h-10v-5h5v-5h-10v15h20v-20h20v15h-10
			v-5h5v-5h-10v15h20v-20 M-253.5,102.5h20v15h-10v-5h5v-5h-10v15h20v-20h20v15h-10v-5h5v-5h-10v15h20v-20h20v15h-10v-5h5v-5h-10v15
			h20v-20h20v15h-10v-5h5v-5h-10v15h20v-20h20v15h-10v-5h5v-5h-10v15h20v-20h20v15h-10v-5h5v-5h-10v15h20v-20h20v15h-10v-5h5v-5h-10
			v15h20v-20h20v15h-10v-5h5v-5h-10v15h20v-20"/>
		<path fill="none" stroke="#4D4D4F" stroke-width="2.5024" d="M146.9,77.5h20v15h-10v-5h5v-5h-10v15h20v-20h20v15h-10v-5h5v-5h-10
			v15h20v-20h20v15h-10v-5h5v-5h-10v15h20v-20h20v15h-10v-5h5v-5h-10v15h20v-20h20v15h-10v-5h5v-5h-10v15h20v-20h20v15h-10v-5h5v-5
			h-10v15h20v-20h20v15h-10v-5h5v-5h-10v15h20v-20h20v15h-10v-5h5v-5h-10v15h20v-20 M146.9,52.5h20v15h-10v-5h5v-5h-10v15h20v-20h20
			v15h-10v-5h5v-5h-10v15h20v-20h20v15h-10v-5h5v-5h-10v15h20v-20h20v15h-10v-5h5v-5h-10v15h20v-20h20v15h-10v-5h5v-5h-10v15h20v-20
			h20v15h-10v-5h5v-5h-10v15h20v-20h20v15h-10v-5h5v-5h-10v15h20v-20h20v15h-10v-5h5v-5h-10v15h20v-20 M146.9,27.5h20v15h-10v-5h5
			v-5h-10v15h20v-20h20v15h-10v-5h5v-5h-10v15h20v-20h20v15h-10v-5h5v-5h-10v15h20v-20h20v15h-10v-5h5v-5h-10v15h20v-20h20v15h-10
			v-5h5v-5h-10v15h20v-20h20v15h-10v-5h5v-5h-10v15h20v-20h20v15h-10v-5h5v-5h-10v15h20v-20h20v15h-10v-5h5v-5h-10v15h20v-20
			 M146.9,2.5h20v15h-10v-5h5v-5h-10v15h20v-20h20v15h-10v-5h5v-5h-10v15h20v-20h20v15h-10v-5h5v-5h-10v15h20v-20h20v15h-10v-5h5v-5
			h-10v15h20v-20h20v15h-10v-5h5v-5h-10v15h20v-20h20v15h-10v-5h5v-5h-10v15h20v-20h20v15h-10v-5h5v-5h-10v15h20v-20h20v15h-10v-5h5
			v-5h-10v15h20v-20"/>
		<path fill="none" stroke="#4D4D4F" stroke-width="2.5024" d="M146.9-22.5h20v15h-10v-5h5v-5h-10v15h20v-20h20v15h-10v-5h5v-5h-10
			v15h20v-20h20v15h-10v-5h5v-5h-10v15h20v-20h20v15h-10v-5h5v-5h-10v15h20v-20h20v15h-10v-5h5v-5h-10v15h20v-20h20v15h-10v-5h5v-5
			h-10v15h20v-20h20v15h-10v-5h5v-5h-10v15h20v-20h20v15h-10v-5h5v-5h-10v15h20v-20 M146.9-47.5h20v15h-10v-5h5v-5h-10v15h20v-20h20
			v15h-10v-5h5v-5h-10v15h20v-20h20v15h-10v-5h5v-5h-10v15h20v-20h20v15h-10v-5h5v-5h-10v15h20v-20h20v15h-10v-5h5v-5h-10v15h20v-20
			h20v15h-10v-5h5v-5h-10v15h20v-20h20v15h-10v-5h5v-5h-10v15h20v-20h20v15h-10v-5h5v-5h-10v15h20v-20 M146.9-72.5h20v15h-10v-5h5
			v-5h-10v15h20v-20h20v15h-10v-5h5v-5h-10v15h20v-20h20v15h-10v-5h5v-5h-10v15h20v-20h20v15h-10v-5h5v-5h-10v15h20v-20h20v15h-10
			v-5h5v-5h-10v15h20v-20h20v15h-10v-5h5v-5h-10v15h20v-20h20v15h-10v-5h5v-5h-10v15h20v-20h20v15h-10v-5h5v-5h-10v15h20v-20
			 M146.9-97.5h20v15h-10v-5h5v-5h-10v15h20v-20h20v15h-10v-5h5v-5h-10v15h20v-20h20v15h-10v-5h5v-5h-10v15h20v-20h20v15h-10v-5h5
			v-5h-10v15h20v-20h20v15h-10v-5h5v-5h-10v15h20v-20h20v15h-10v-5h5v-5h-10v15h20v-20h20v15h-10v-5h5v-5h-10v15h20v-20h20v15h-10
			v-5h5v-5h-10v15h20v-20"/>
		<path fill="none" stroke="#4D4D4F" stroke-width="2.5024" d="M146.9,177.5h20v15h-10v-5h5v-5h-10v15h20v-20h20v15h-10v-5h5v-5h-10
			v15h20v-20h20v15h-10v-5h5v-5h-10v15h20v-20h20v15h-10v-5h5v-5h-10v15h20v-20h20v15h-10v-5h5v-5h-10v15h20v-20h20v15h-10v-5h5v-5
			h-10v15h20v-20h20v15h-10v-5h5v-5h-10v15h20v-20h20v15h-10v-5h5v-5h-10v15h20v-20 M146.9,152.5h20v15h-10v-5h5v-5h-10v15h20v-20
			h20v15h-10v-5h5v-5h-10v15h20v-20h20v15h-10v-5h5v-5h-10v15h20v-20h20v15h-10v-5h5v-5h-10v15h20v-20h20v15h-10v-5h5v-5h-10v15h20
			v-20h20v15h-10v-5h5v-5h-10v15h20v-20h20v15h-10v-5h5v-5h-10v15h20v-20h20v15h-10v-5h5v-5h-10v15h20v-20 M146.9,127.5h20v15h-10
			v-5h5v-5h-10v15h20v-20h20v15h-10v-5h5v-5h-10v15h20v-20h20v15h-10v-5h5v-5h-10v15h20v-20h20v15h-10v-5h5v-5h-10v15h20v-20h20v15
			h-10v-5h5v-5h-10v15h20v-20h20v15h-10v-5h5v-5h-10v15h20v-20h20v15h-10v-5h5v-5h-10v15h20v-20h20v15h-10v-5h5v-5h-10v15h20v-20
			 M146.9,102.5h20v15h-10v-5h5v-5h-10v15h20v-20h20v15h-10v-5h5v-5h-10v15h20v-20h20v15h-10v-5h5v-5h-10v15h20v-20h20v15h-10v-5h5
			v-5h-10v15h20v-20h20v15h-10v-5h5v-5h-10v15h20v-20h20v15h-10v-5h5v-5h-10v15h20v-20h20v15h-10v-5h5v-5h-10v15h20v-20h20v15h-10
			v-5h5v-5h-10v15h20v-20"/>
	</g>
</g>
</svg>
