<?xml version="1.0" encoding="iso-8859-1"?>
<!-- Generator: Adobe Illustrator 22.1.0, SVG Export Plug-In . SVG Version: 6.00 Build 0)  -->
<svg version="1.1" id="Layer_1" xmlns="http://www.w3.org/2000/svg" xmlns:xlink="http://www.w3.org/1999/xlink" x="0px" y="0px"
	 width="100px" height="100px" viewBox="0 0 100 100" enable-background="new 0 0 100 100" xml:space="preserve">
<g>
	<defs>
		<rect id="SVGID_1_" width="100" height="100"/>
	</defs>
	<clipPath id="SVGID_2_">
		<use xlink:href="#SVGID_1_"  overflow="visible"/>
	</clipPath>
	<g clip-path="url(#SVGID_2_)">
		<polygon fill-rule="evenodd" clip-rule="evenodd" points="5.1,-100 5.1,0 5.1,100 5.1,200 5.1,300 9.1,300 9.1,200 9.1,100 9.1,0 
			9.1,-100 9.1,-200 5.1,-200 		"/>
		<polygon fill-rule="evenodd" clip-rule="evenodd" points="19.4,-100 19.4,0 19.4,100 19.4,200 19.4,300 23.4,300 23.4,200 
			23.4,100 23.4,0 23.4,-100 23.4,-200 19.4,-200 		"/>
		<polygon fill-rule="evenodd" clip-rule="evenodd" points="33.7,-100 33.7,0 33.7,100 33.7,200 33.7,300 37.7,300 37.7,200 
			37.7,100 37.7,0 37.7,-100 37.7,-200 33.7,-200 		"/>
		<polygon fill-rule="evenodd" clip-rule="evenodd" points="48,-100 48,0 48,100 48,200 48,300 52,300 52,200 52,100 52,0 52,-100 
			52,-200 48,-200 		"/>
		<polygon fill-rule="evenodd" clip-rule="evenodd" points="62.3,-100 62.3,0 62.3,100 62.3,200 62.3,300 66.3,300 66.3,200 
			66.3,100 66.3,0 66.3,-100 66.3,-200 62.3,-200 		"/>
		<polygon fill-rule="evenodd" clip-rule="evenodd" points="76.6,-100 76.6,0 76.6,100 76.6,200 76.6,300 80.6,300 80.6,200 
			80.6,100 80.6,0 80.6,-100 80.6,-200 76.6,-200 		"/>
		<polygon fill-rule="evenodd" clip-rule="evenodd" points="90.9,-100 90.9,0 90.9,100 90.9,200 90.9,300 94.9,300 94.9,200 
			94.9,100 94.9,0 94.9,-100 94.9,-200 90.9,-200 		"/>
		<polygon fill-rule="evenodd" clip-rule="evenodd" points="105.1,-100 105.1,0 105.1,100 105.1,200 105.1,300 109.1,300 109.1,200 
			109.1,100 109.1,0 109.1,-100 109.1,-200 105.1,-200 		"/>
		<polygon fill-rule="evenodd" clip-rule="evenodd" points="119.4,-100 119.4,0 119.4,100 119.4,200 119.4,300 123.4,300 123.4,200 
			123.4,100 123.4,0 123.4,-100 123.4,-200 119.4,-200 		"/>
		<polygon fill-rule="evenodd" clip-rule="evenodd" points="133.7,-100 133.7,0 133.7,100 133.7,200 133.7,300 137.7,300 137.7,200 
			137.7,100 137.7,0 137.7,-100 137.7,-200 133.7,-200 		"/>
		<polygon fill-rule="evenodd" clip-rule="evenodd" points="148,-100 148,0 148,100 148,200 148,300 152,300 152,200 152,100 152,0 
			152,-100 152,-200 148,-200 		"/>
		<polygon fill-rule="evenodd" clip-rule="evenodd" points="162.3,-100 162.3,0 162.3,100 162.3,200 162.3,300 166.3,300 166.3,200 
			166.3,100 166.3,0 166.3,-100 166.3,-200 162.3,-200 		"/>
		<polygon fill-rule="evenodd" clip-rule="evenodd" points="176.6,-100 176.6,0 176.6,100 176.6,200 176.6,300 180.6,300 180.6,200 
			180.6,100 180.6,0 180.6,-100 180.6,-200 176.6,-200 		"/>
		<polygon fill-rule="evenodd" clip-rule="evenodd" points="190.9,-100 190.9,0 190.9,100 190.9,200 190.9,300 194.9,300 194.9,200 
			194.9,100 194.9,0 194.9,-100 194.9,-200 190.9,-200 		"/>
		<polygon fill-rule="evenodd" clip-rule="evenodd" points="205.1,-100 205.1,0 205.1,100 205.1,200 205.1,300 209.1,300 209.1,200 
			209.1,100 209.1,0 209.1,-100 209.1,-200 205.1,-200 		"/>
		<polygon fill-rule="evenodd" clip-rule="evenodd" points="219.4,-100 219.4,0 219.4,100 219.4,200 219.4,300 223.4,300 223.4,200 
			223.4,100 223.4,0 223.4,-100 223.4,-200 219.4,-200 		"/>
		<polygon fill-rule="evenodd" clip-rule="evenodd" points="233.7,-100 233.7,0 233.7,100 233.7,200 233.7,300 237.7,300 237.7,200 
			237.7,100 237.7,0 237.7,-100 237.7,-200 233.7,-200 		"/>
		<polygon fill-rule="evenodd" clip-rule="evenodd" points="248,-100 248,0 248,100 248,200 248,300 252,300 252,200 252,100 252,0 
			252,-100 252,-200 248,-200 		"/>
		<polygon fill-rule="evenodd" clip-rule="evenodd" points="262.3,-100 262.3,0 262.3,100 262.3,200 262.3,300 266.3,300 266.3,200 
			266.3,100 266.3,0 266.3,-100 266.3,-200 262.3,-200 		"/>
		<polygon fill-rule="evenodd" clip-rule="evenodd" points="276.6,-100 276.6,0 276.6,100 276.6,200 276.6,300 280.6,300 280.6,200 
			280.6,100 280.6,0 280.6,-100 280.6,-200 276.6,-200 		"/>
		<polygon fill-rule="evenodd" clip-rule="evenodd" points="290.9,-100 290.9,0 290.9,100 290.9,200 290.9,300 294.9,300 294.9,200 
			294.9,100 294.9,0 294.9,-100 294.9,-200 290.9,-200 		"/>
		<polygon fill-rule="evenodd" clip-rule="evenodd" points="305.1,-100 305.1,0 305.1,100 305.1,200 305.1,300 309.1,300 309.1,200 
			309.1,100 309.1,0 309.1,-100 309.1,-200 305.1,-200 		"/>
		<polygon fill-rule="evenodd" clip-rule="evenodd" points="319.4,-100 319.4,0 319.4,100 319.4,200 319.4,300 323.4,300 323.4,200 
			323.4,100 323.4,0 323.4,-100 323.4,-200 319.4,-200 		"/>
		<polygon fill-rule="evenodd" clip-rule="evenodd" points="333.7,-100 333.7,0 333.7,100 333.7,200 333.7,300 337.7,300 337.7,200 
			337.7,100 337.7,0 337.7,-100 337.7,-200 333.7,-200 		"/>
		<polygon fill-rule="evenodd" clip-rule="evenodd" points="348,-100 348,0 348,100 348,200 348,300 352,300 352,200 352,100 352,0 
			352,-100 352,-200 348,-200 		"/>
		<polygon fill-rule="evenodd" clip-rule="evenodd" points="362.3,-100 362.3,0 362.3,100 362.3,200 362.3,300 366.3,300 366.3,200 
			366.3,100 366.3,0 366.3,-100 366.3,-200 362.3,-200 		"/>
		<polygon fill-rule="evenodd" clip-rule="evenodd" points="376.6,-100 376.6,0 376.6,100 376.6,200 376.6,300 380.6,300 380.6,200 
			380.6,100 380.6,0 380.6,-100 380.6,-200 376.6,-200 		"/>
		<polygon fill-rule="evenodd" clip-rule="evenodd" points="390.9,-200 390.9,-100 390.9,0 390.9,100 390.9,200 390.9,300 
			394.9,300 394.9,200 394.9,100 394.9,0 394.9,-100 394.9,-200 		"/>
		<polygon fill-rule="evenodd" clip-rule="evenodd" points="-94.9,-100 -94.9,0 -94.9,100 -94.9,200 -94.9,300 -90.9,300 -90.9,200 
			-90.9,100 -90.9,0 -90.9,-100 -90.9,-200 -94.9,-200 		"/>
		<polygon fill-rule="evenodd" clip-rule="evenodd" points="-80.6,-100 -80.6,0 -80.6,100 -80.6,200 -80.6,300 -76.6,300 -76.6,200 
			-76.6,100 -76.6,0 -76.6,-100 -76.6,-200 -80.6,-200 		"/>
		<polygon fill-rule="evenodd" clip-rule="evenodd" points="-66.3,-100 -66.3,0 -66.3,100 -66.3,200 -66.3,300 -62.3,300 -62.3,200 
			-62.3,100 -62.3,0 -62.3,-100 -62.3,-200 -66.3,-200 		"/>
		<polygon fill-rule="evenodd" clip-rule="evenodd" points="-52,-100 -52,0 -52,100 -52,200 -52,300 -48,300 -48,200 -48,100 -48,0 
			-48,-100 -48,-200 -52,-200 		"/>
		<polygon fill-rule="evenodd" clip-rule="evenodd" points="-37.7,-100 -37.7,0 -37.7,100 -37.7,200 -37.7,300 -33.7,300 -33.7,200 
			-33.7,100 -33.7,0 -33.7,-100 -33.7,-200 -37.7,-200 		"/>
		<polygon fill-rule="evenodd" clip-rule="evenodd" points="-23.4,-100 -23.4,0 -23.4,100 -23.4,200 -23.4,300 -19.4,300 -19.4,200 
			-19.4,100 -19.4,0 -19.4,-100 -19.4,-200 -23.4,-200 		"/>
		<polygon fill-rule="evenodd" clip-rule="evenodd" points="-9.1,-100 -9.1,0 -9.1,100 -9.1,200 -9.1,300 -5.1,300 -5.1,200 
			-5.1,100 -5.1,0 -5.1,-100 -5.1,-200 -9.1,-200 		"/>
		<polygon fill-rule="evenodd" clip-rule="evenodd" points="-194.9,-100 -194.9,0 -194.9,100 -194.9,200 -194.9,300 -190.9,300 
			-190.9,200 -190.9,100 -190.9,0 -190.9,-100 -190.9,-200 -194.9,-200 		"/>
		<polygon fill-rule="evenodd" clip-rule="evenodd" points="-180.6,-100 -180.6,0 -180.6,100 -180.6,200 -180.6,300 -176.6,300 
			-176.6,200 -176.6,100 -176.6,0 -176.6,-100 -176.6,-200 -180.6,-200 		"/>
		<polygon fill-rule="evenodd" clip-rule="evenodd" points="-166.3,-100 -166.3,0 -166.3,100 -166.3,200 -166.3,300 -162.3,300 
			-162.3,200 -162.3,100 -162.3,0 -162.3,-100 -162.3,-200 -166.3,-200 		"/>
		<polygon fill-rule="evenodd" clip-rule="evenodd" points="-152,-100 -152,0 -152,100 -152,200 -152,300 -148,300 -148,200 
			-148,100 -148,0 -148,-100 -148,-200 -152,-200 		"/>
		<polygon fill-rule="evenodd" clip-rule="evenodd" points="-137.7,-100 -137.7,0 -137.7,100 -137.7,200 -137.7,300 -133.7,300 
			-133.7,200 -133.7,100 -133.7,0 -133.7,-100 -133.7,-200 -137.7,-200 		"/>
		<polygon fill-rule="evenodd" clip-rule="evenodd" points="-123.4,-100 -123.4,0 -123.4,100 -123.4,200 -123.4,300 -119.4,300 
			-119.4,200 -119.4,100 -119.4,0 -119.4,-100 -119.4,-200 -123.4,-200 		"/>
		<polygon fill-rule="evenodd" clip-rule="evenodd" points="-109.1,-100 -109.1,0 -109.1,100 -109.1,200 -109.1,300 -105.1,300 
			-105.1,200 -105.1,100 -105.1,0 -105.1,-100 -105.1,-200 -109.1,-200 		"/>
		<polygon fill-rule="evenodd" clip-rule="evenodd" points="-294.9,-100 -294.9,0 -294.9,100 -294.9,200 -294.9,300 -290.9,300 
			-290.9,200 -290.9,100 -290.9,0 -290.9,-100 -290.9,-200 -294.9,-200 		"/>
		<polygon fill-rule="evenodd" clip-rule="evenodd" points="-280.6,-100 -280.6,0 -280.6,100 -280.6,200 -280.6,300 -276.6,300 
			-276.6,200 -276.6,100 -276.6,0 -276.6,-100 -276.6,-200 -280.6,-200 		"/>
		<polygon fill-rule="evenodd" clip-rule="evenodd" points="-266.3,-100 -266.3,0 -266.3,100 -266.3,200 -266.3,300 -262.3,300 
			-262.3,200 -262.3,100 -262.3,0 -262.3,-100 -262.3,-200 -266.3,-200 		"/>
		<polygon fill-rule="evenodd" clip-rule="evenodd" points="-252,-100 -252,0 -252,100 -252,200 -252,300 -248,300 -248,200 
			-248,100 -248,0 -248,-100 -248,-200 -252,-200 		"/>
		<polygon fill-rule="evenodd" clip-rule="evenodd" points="-237.7,-100 -237.7,0 -237.7,100 -237.7,200 -237.7,300 -233.7,300 
			-233.7,200 -233.7,100 -233.7,0 -233.7,-100 -233.7,-200 -237.7,-200 		"/>
		<polygon fill-rule="evenodd" clip-rule="evenodd" points="-223.4,-100 -223.4,0 -223.4,100 -223.4,200 -223.4,300 -219.4,300 
			-219.4,200 -219.4,100 -219.4,0 -219.4,-100 -219.4,-200 -223.4,-200 		"/>
		<polygon fill-rule="evenodd" clip-rule="evenodd" points="-209.1,-100 -209.1,0 -209.1,100 -209.1,200 -209.1,300 -205.1,300 
			-205.1,200 -205.1,100 -205.1,0 -205.1,-100 -205.1,-200 -209.1,-200 		"/>
	</g>
</g>
</svg>
