<?xml version="1.0" encoding="iso-8859-1"?>
<!-- Generator: Adobe Illustrator 22.1.0, SVG Export Plug-In . SVG Version: 6.00 Build 0)  -->
<svg version="1.1" id="Layer_1" xmlns="http://www.w3.org/2000/svg" xmlns:xlink="http://www.w3.org/1999/xlink" x="0px" y="0px"
	 width="102px" height="102px" viewBox="0 0 102 102" enable-background="new 0 0 102 102" xml:space="preserve">
<g>
	<defs>
		<rect id="SVGID_1_" width="102" height="102"/>
	</defs>
	<clipPath id="SVGID_2_">
		<use xlink:href="#SVGID_1_"  overflow="visible"/>
	</clipPath>
	<g clip-path="url(#SVGID_2_)">
		<g>
			<polygon points="12.8,12.8 4.2,12.8 4.2,4.2 			"/>
			<polygon points="12.8,29.8 4.2,29.8 4.2,21.2 			"/>
			<polygon points="12.8,46.8 4.2,46.8 4.2,38.2 			"/>
			<polygon points="12.8,63.8 4.2,63.8 4.2,55.2 			"/>
			<polygon points="12.8,80.8 4.2,80.8 4.2,72.2 			"/>
			<polygon points="12.8,97.8 4.2,97.8 4.2,89.2 			"/>
			<polygon points="29.8,12.8 21.2,12.8 21.2,4.2 			"/>
			<polygon points="29.8,29.8 21.2,29.8 21.2,21.2 			"/>
			<polygon points="29.8,46.8 21.2,46.8 21.2,38.2 			"/>
			<polygon points="29.8,63.8 21.2,63.8 21.2,55.2 			"/>
			<polygon points="29.8,80.8 21.2,80.8 21.2,72.2 			"/>
			<polygon points="29.8,97.8 21.2,97.8 21.2,89.2 			"/>
			<polygon points="46.8,12.8 38.2,12.8 38.2,4.2 			"/>
			<polygon points="46.8,29.8 38.2,29.8 38.2,21.2 			"/>
			<polygon points="46.8,46.8 38.2,46.8 38.2,38.2 			"/>
			<polygon points="46.8,63.8 38.2,63.8 38.2,55.2 			"/>
			<polygon points="46.8,80.8 38.2,80.8 38.2,72.2 			"/>
			<polygon points="46.8,97.8 38.2,97.8 38.2,89.2 			"/>
			<polygon points="63.8,12.8 55.2,12.8 55.2,4.2 			"/>
			<polygon points="63.8,29.8 55.2,29.8 55.2,21.2 			"/>
			<polygon points="63.8,46.8 55.2,46.8 55.2,38.2 			"/>
			<polygon points="63.8,63.8 55.2,63.8 55.2,55.2 			"/>
			<polygon points="63.8,80.8 55.2,80.8 55.2,72.2 			"/>
			<polygon points="63.8,97.8 55.2,97.8 55.2,89.2 			"/>
			<polygon points="80.8,12.8 72.2,12.8 72.2,4.2 			"/>
			<polygon points="80.8,29.8 72.2,29.8 72.2,21.2 			"/>
			<polygon points="80.8,46.8 72.2,46.8 72.2,38.2 			"/>
			<polygon points="80.8,63.8 72.2,63.8 72.2,55.2 			"/>
			<polygon points="80.8,80.8 72.2,80.8 72.2,72.2 			"/>
			<polygon points="80.8,97.8 72.2,97.8 72.2,89.2 			"/>
			<polygon points="97.8,12.8 89.2,12.8 89.2,4.2 			"/>
			<polygon points="97.8,29.8 89.2,29.8 89.2,21.2 			"/>
			<polygon points="97.8,46.8 89.2,46.8 89.2,38.2 			"/>
			<polygon points="97.8,63.8 89.2,63.8 89.2,55.2 			"/>
			<polygon points="97.8,80.8 89.2,80.8 89.2,72.2 			"/>
			<polygon points="97.8,97.8 89.2,97.8 89.2,89.2 			"/>
		</g>
		<g>
			<polygon points="114.8,12.8 106.2,12.8 106.2,4.2 			"/>
			<polygon points="114.8,29.8 106.2,29.8 106.2,21.2 			"/>
			<polygon points="114.8,46.8 106.2,46.8 106.2,38.2 			"/>
			<polygon points="114.8,63.8 106.2,63.8 106.2,55.2 			"/>
			<polygon points="114.8,80.8 106.2,80.8 106.2,72.2 			"/>
			<polygon points="114.8,97.8 106.2,97.8 106.2,89.2 			"/>
			<polygon points="131.8,12.8 123.2,12.8 123.2,4.2 			"/>
			<polygon points="131.8,29.8 123.2,29.8 123.2,21.2 			"/>
			<polygon points="131.8,46.8 123.2,46.8 123.2,38.2 			"/>
			<polygon points="131.8,63.8 123.2,63.8 123.2,55.2 			"/>
			<polygon points="131.8,80.8 123.2,80.8 123.2,72.2 			"/>
			<polygon points="131.8,97.8 123.2,97.8 123.2,89.2 			"/>
			<polygon points="148.8,12.8 140.2,12.8 140.2,4.2 			"/>
			<polygon points="148.8,29.8 140.2,29.8 140.2,21.2 			"/>
			<polygon points="148.8,46.8 140.2,46.8 140.2,38.2 			"/>
			<polygon points="148.8,63.8 140.2,63.8 140.2,55.2 			"/>
			<polygon points="148.8,80.8 140.2,80.8 140.2,72.2 			"/>
			<polygon points="148.8,97.8 140.2,97.8 140.2,89.2 			"/>
			<polygon points="165.8,12.8 157.2,12.8 157.2,4.2 			"/>
			<polygon points="165.8,29.8 157.2,29.8 157.2,21.2 			"/>
			<polygon points="165.8,46.8 157.2,46.8 157.2,38.2 			"/>
			<polygon points="165.8,63.8 157.2,63.8 157.2,55.2 			"/>
			<polygon points="165.8,80.8 157.2,80.8 157.2,72.2 			"/>
			<polygon points="165.8,97.8 157.2,97.8 157.2,89.2 			"/>
			<polygon points="182.8,12.8 174.2,12.8 174.2,4.2 			"/>
			<polygon points="182.8,29.8 174.2,29.8 174.2,21.2 			"/>
			<polygon points="182.8,46.8 174.2,46.8 174.2,38.2 			"/>
			<polygon points="182.8,63.8 174.2,63.8 174.2,55.2 			"/>
			<polygon points="182.8,80.8 174.2,80.8 174.2,72.2 			"/>
			<polygon points="182.8,97.8 174.2,97.8 174.2,89.2 			"/>
			<polygon points="199.8,12.8 191.2,12.8 191.2,4.2 			"/>
			<polygon points="199.8,29.8 191.2,29.8 191.2,21.2 			"/>
			<polygon points="199.8,46.8 191.2,46.8 191.2,38.2 			"/>
			<polygon points="199.8,63.8 191.2,63.8 191.2,55.2 			"/>
			<polygon points="199.8,80.8 191.2,80.8 191.2,72.2 			"/>
			<polygon points="199.8,97.8 191.2,97.8 191.2,89.2 			"/>
		</g>
		<g>
			<polygon points="216.8,12.8 208.2,12.8 208.2,4.2 			"/>
			<polygon points="216.8,29.8 208.2,29.8 208.2,21.2 			"/>
			<polygon points="216.8,46.8 208.2,46.8 208.2,38.2 			"/>
			<polygon points="216.8,63.8 208.2,63.8 208.2,55.2 			"/>
			<polygon points="216.8,80.8 208.2,80.8 208.2,72.2 			"/>
			<polygon points="216.8,97.8 208.2,97.8 208.2,89.2 			"/>
			<polygon points="233.8,12.8 225.2,12.8 225.2,4.2 			"/>
			<polygon points="233.8,29.8 225.2,29.8 225.2,21.2 			"/>
			<polygon points="233.8,46.8 225.2,46.8 225.2,38.2 			"/>
			<polygon points="233.8,63.8 225.2,63.8 225.2,55.2 			"/>
			<polygon points="233.8,80.8 225.2,80.8 225.2,72.2 			"/>
			<polygon points="233.8,97.8 225.2,97.8 225.2,89.2 			"/>
			<polygon points="250.8,12.8 242.2,12.8 242.2,4.2 			"/>
			<polygon points="250.8,29.8 242.2,29.8 242.2,21.2 			"/>
			<polygon points="250.8,46.8 242.2,46.8 242.2,38.2 			"/>
			<polygon points="250.8,63.8 242.2,63.8 242.2,55.2 			"/>
			<polygon points="250.8,80.8 242.2,80.8 242.2,72.2 			"/>
			<polygon points="250.8,97.8 242.2,97.8 242.2,89.2 			"/>
			<polygon points="267.8,12.8 259.2,12.8 259.2,4.2 			"/>
			<polygon points="267.8,29.8 259.2,29.8 259.2,21.2 			"/>
			<polygon points="267.8,46.8 259.2,46.8 259.2,38.2 			"/>
			<polygon points="267.8,63.8 259.2,63.8 259.2,55.2 			"/>
			<polygon points="267.8,80.8 259.2,80.8 259.2,72.2 			"/>
			<polygon points="267.8,97.8 259.2,97.8 259.2,89.2 			"/>
			<polygon points="284.8,12.8 276.2,12.8 276.2,4.2 			"/>
			<polygon points="284.8,29.8 276.2,29.8 276.2,21.2 			"/>
			<polygon points="284.8,46.8 276.2,46.8 276.2,38.2 			"/>
			<polygon points="284.8,63.8 276.2,63.8 276.2,55.2 			"/>
			<polygon points="284.8,80.8 276.2,80.8 276.2,72.2 			"/>
			<polygon points="284.8,97.8 276.2,97.8 276.2,89.2 			"/>
			<polygon points="301.8,12.8 293.2,12.8 293.2,4.2 			"/>
			<polygon points="301.8,29.8 293.2,29.8 293.2,21.2 			"/>
			<polygon points="301.8,46.8 293.2,46.8 293.2,38.2 			"/>
			<polygon points="301.8,63.8 293.2,63.8 293.2,55.2 			"/>
			<polygon points="301.8,80.8 293.2,80.8 293.2,72.2 			"/>
			<polygon points="301.8,97.8 293.2,97.8 293.2,89.2 			"/>
		</g>
		<g>
			<polygon points="-89.2,12.8 -97.8,12.8 -97.8,4.2 			"/>
			<polygon points="-89.2,29.8 -97.8,29.8 -97.8,21.2 			"/>
			<polygon points="-89.2,46.8 -97.8,46.8 -97.8,38.2 			"/>
			<polygon points="-89.2,63.8 -97.8,63.8 -97.8,55.2 			"/>
			<polygon points="-89.2,80.8 -97.8,80.8 -97.8,72.2 			"/>
			<polygon points="-89.2,97.8 -97.8,97.8 -97.8,89.2 			"/>
			<polygon points="-72.2,12.8 -80.8,12.8 -80.8,4.2 			"/>
			<polygon points="-72.2,29.8 -80.8,29.8 -80.8,21.2 			"/>
			<polygon points="-72.2,46.8 -80.8,46.8 -80.8,38.2 			"/>
			<polygon points="-72.2,63.8 -80.8,63.8 -80.8,55.2 			"/>
			<polygon points="-72.2,80.8 -80.8,80.8 -80.8,72.2 			"/>
			<polygon points="-72.2,97.8 -80.8,97.8 -80.8,89.2 			"/>
			<polygon points="-55.2,12.8 -63.8,12.8 -63.8,4.2 			"/>
			<polygon points="-55.2,29.8 -63.8,29.8 -63.8,21.2 			"/>
			<polygon points="-55.2,46.8 -63.8,46.8 -63.8,38.2 			"/>
			<polygon points="-55.2,63.8 -63.8,63.8 -63.8,55.2 			"/>
			<polygon points="-55.2,80.8 -63.8,80.8 -63.8,72.2 			"/>
			<polygon points="-55.2,97.8 -63.8,97.8 -63.8,89.2 			"/>
			<polygon points="-38.2,12.8 -46.8,12.8 -46.8,4.2 			"/>
			<polygon points="-38.2,29.8 -46.8,29.8 -46.8,21.2 			"/>
			<polygon points="-38.2,46.8 -46.8,46.8 -46.8,38.2 			"/>
			<polygon points="-38.2,63.8 -46.8,63.8 -46.8,55.2 			"/>
			<polygon points="-38.2,80.8 -46.8,80.8 -46.8,72.2 			"/>
			<polygon points="-38.2,97.8 -46.8,97.8 -46.8,89.2 			"/>
			<polygon points="-21.2,12.8 -29.8,12.8 -29.8,4.2 			"/>
			<polygon points="-21.2,29.8 -29.8,29.8 -29.8,21.2 			"/>
			<polygon points="-21.2,46.8 -29.8,46.8 -29.8,38.2 			"/>
			<polygon points="-21.2,63.8 -29.8,63.8 -29.8,55.2 			"/>
			<polygon points="-21.2,80.8 -29.8,80.8 -29.8,72.2 			"/>
			<polygon points="-21.2,97.8 -29.8,97.8 -29.8,89.2 			"/>
			<polygon points="-4.2,12.8 -12.8,12.8 -12.8,4.2 			"/>
			<polygon points="-4.2,29.8 -12.8,29.8 -12.8,21.2 			"/>
			<polygon points="-4.2,46.8 -12.8,46.8 -12.8,38.2 			"/>
			<polygon points="-4.2,63.8 -12.8,63.8 -12.8,55.2 			"/>
			<polygon points="-4.2,80.8 -12.8,80.8 -12.8,72.2 			"/>
			<polygon points="-4.2,97.8 -12.8,97.8 -12.8,89.2 			"/>
		</g>
		<g>
			<polygon points="12.8,114.8 4.2,114.8 4.2,106.2 			"/>
			<polygon points="12.8,131.8 4.2,131.8 4.2,123.2 			"/>
			<polygon points="12.8,148.8 4.2,148.8 4.2,140.2 			"/>
			<polygon points="12.8,165.8 4.2,165.8 4.2,157.2 			"/>
			<polygon points="12.8,182.8 4.2,182.8 4.2,174.2 			"/>
			<polygon points="12.8,199.8 4.2,199.8 4.2,191.2 			"/>
			<polygon points="29.8,114.8 21.2,114.8 21.2,106.2 			"/>
			<polygon points="29.8,131.8 21.2,131.8 21.2,123.2 			"/>
			<polygon points="29.8,148.8 21.2,148.8 21.2,140.2 			"/>
			<polygon points="29.8,165.8 21.2,165.8 21.2,157.2 			"/>
			<polygon points="29.8,182.8 21.2,182.8 21.2,174.2 			"/>
			<polygon points="29.8,199.8 21.2,199.8 21.2,191.2 			"/>
			<polygon points="46.8,114.8 38.2,114.8 38.2,106.2 			"/>
			<polygon points="46.8,131.8 38.2,131.8 38.2,123.2 			"/>
			<polygon points="46.8,148.8 38.2,148.8 38.2,140.2 			"/>
			<polygon points="46.8,165.8 38.2,165.8 38.2,157.2 			"/>
			<polygon points="46.8,182.8 38.2,182.8 38.2,174.2 			"/>
			<polygon points="46.8,199.8 38.2,199.8 38.2,191.2 			"/>
			<polygon points="63.8,114.8 55.2,114.8 55.2,106.2 			"/>
			<polygon points="63.8,131.8 55.2,131.8 55.2,123.2 			"/>
			<polygon points="63.8,148.8 55.2,148.8 55.2,140.2 			"/>
			<polygon points="63.8,165.8 55.2,165.8 55.2,157.2 			"/>
			<polygon points="63.8,182.8 55.2,182.8 55.2,174.2 			"/>
			<polygon points="63.8,199.8 55.2,199.8 55.2,191.2 			"/>
			<polygon points="80.8,114.8 72.2,114.8 72.2,106.2 			"/>
			<polygon points="80.8,131.8 72.2,131.8 72.2,123.2 			"/>
			<polygon points="80.8,148.8 72.2,148.8 72.2,140.2 			"/>
			<polygon points="80.8,165.8 72.2,165.8 72.2,157.2 			"/>
			<polygon points="80.8,182.8 72.2,182.8 72.2,174.2 			"/>
			<polygon points="80.8,199.8 72.2,199.8 72.2,191.2 			"/>
			<polygon points="97.8,114.8 89.2,114.8 89.2,106.2 			"/>
			<polygon points="97.8,131.8 89.2,131.8 89.2,123.2 			"/>
			<polygon points="97.8,148.8 89.2,148.8 89.2,140.2 			"/>
			<polygon points="97.8,165.8 89.2,165.8 89.2,157.2 			"/>
			<polygon points="97.8,182.8 89.2,182.8 89.2,174.2 			"/>
			<polygon points="97.8,199.8 89.2,199.8 89.2,191.2 			"/>
		</g>
		<g>
			<polygon points="114.8,114.8 106.2,114.8 106.2,106.2 			"/>
			<polygon points="114.8,131.8 106.2,131.8 106.2,123.2 			"/>
			<polygon points="114.8,148.8 106.2,148.8 106.2,140.2 			"/>
			<polygon points="114.8,165.8 106.2,165.8 106.2,157.2 			"/>
			<polygon points="114.8,182.8 106.2,182.8 106.2,174.2 			"/>
			<polygon points="114.8,199.8 106.2,199.8 106.2,191.2 			"/>
			<polygon points="131.8,114.8 123.2,114.8 123.2,106.2 			"/>
			<polygon points="131.8,131.8 123.2,131.8 123.2,123.2 			"/>
			<polygon points="131.8,148.8 123.2,148.8 123.2,140.2 			"/>
			<polygon points="131.8,165.8 123.2,165.8 123.2,157.2 			"/>
			<polygon points="131.8,182.8 123.2,182.8 123.2,174.2 			"/>
			<polygon points="131.8,199.8 123.2,199.8 123.2,191.2 			"/>
			<polygon points="148.8,114.8 140.2,114.8 140.2,106.2 			"/>
			<polygon points="148.8,131.8 140.2,131.8 140.2,123.2 			"/>
			<polygon points="148.8,148.8 140.2,148.8 140.2,140.2 			"/>
			<polygon points="148.8,165.8 140.2,165.8 140.2,157.2 			"/>
			<polygon points="148.8,182.8 140.2,182.8 140.2,174.2 			"/>
			<polygon points="148.8,199.8 140.2,199.8 140.2,191.2 			"/>
			<polygon points="165.8,114.8 157.2,114.8 157.2,106.2 			"/>
			<polygon points="165.8,131.8 157.2,131.8 157.2,123.2 			"/>
			<polygon points="165.8,148.8 157.2,148.8 157.2,140.2 			"/>
			<polygon points="165.8,165.8 157.2,165.8 157.2,157.2 			"/>
			<polygon points="165.8,182.8 157.2,182.8 157.2,174.2 			"/>
			<polygon points="165.8,199.8 157.2,199.8 157.2,191.2 			"/>
			<polygon points="182.8,114.8 174.2,114.8 174.2,106.2 			"/>
			<polygon points="182.8,131.8 174.2,131.8 174.2,123.2 			"/>
			<polygon points="182.8,148.8 174.2,148.8 174.2,140.2 			"/>
			<polygon points="182.8,165.8 174.2,165.8 174.2,157.2 			"/>
			<polygon points="182.8,182.8 174.2,182.8 174.2,174.2 			"/>
			<polygon points="182.8,199.8 174.2,199.8 174.2,191.2 			"/>
			<polygon points="199.8,114.8 191.2,114.8 191.2,106.2 			"/>
			<polygon points="199.8,131.8 191.2,131.8 191.2,123.2 			"/>
			<polygon points="199.8,148.8 191.2,148.8 191.2,140.2 			"/>
			<polygon points="199.8,165.8 191.2,165.8 191.2,157.2 			"/>
			<polygon points="199.8,182.8 191.2,182.8 191.2,174.2 			"/>
			<polygon points="199.8,199.8 191.2,199.8 191.2,191.2 			"/>
		</g>
		<g>
			<polygon points="216.8,114.8 208.2,114.8 208.2,106.2 			"/>
			<polygon points="216.8,131.8 208.2,131.8 208.2,123.2 			"/>
			<polygon points="216.8,148.8 208.2,148.8 208.2,140.2 			"/>
			<polygon points="216.8,165.8 208.2,165.8 208.2,157.2 			"/>
			<polygon points="216.8,182.8 208.2,182.8 208.2,174.2 			"/>
			<polygon points="216.8,199.8 208.2,199.8 208.2,191.2 			"/>
			<polygon points="233.8,114.8 225.2,114.8 225.2,106.2 			"/>
			<polygon points="233.8,131.8 225.2,131.8 225.2,123.2 			"/>
			<polygon points="233.8,148.8 225.2,148.8 225.2,140.2 			"/>
			<polygon points="233.8,165.8 225.2,165.8 225.2,157.2 			"/>
			<polygon points="233.8,182.8 225.2,182.8 225.2,174.2 			"/>
			<polygon points="233.8,199.8 225.2,199.8 225.2,191.2 			"/>
			<polygon points="250.8,114.8 242.2,114.8 242.2,106.2 			"/>
			<polygon points="250.8,131.8 242.2,131.8 242.2,123.2 			"/>
			<polygon points="250.8,148.8 242.2,148.8 242.2,140.2 			"/>
			<polygon points="250.8,165.8 242.2,165.8 242.2,157.2 			"/>
			<polygon points="250.8,182.8 242.2,182.8 242.2,174.2 			"/>
			<polygon points="250.8,199.8 242.2,199.8 242.2,191.2 			"/>
			<polygon points="267.8,114.8 259.2,114.8 259.2,106.2 			"/>
			<polygon points="267.8,131.8 259.2,131.8 259.2,123.2 			"/>
			<polygon points="267.8,148.8 259.2,148.8 259.2,140.2 			"/>
			<polygon points="267.8,165.8 259.2,165.8 259.2,157.2 			"/>
			<polygon points="267.8,182.8 259.2,182.8 259.2,174.2 			"/>
			<polygon points="267.8,199.8 259.2,199.8 259.2,191.2 			"/>
			<polygon points="284.8,114.8 276.2,114.8 276.2,106.2 			"/>
			<polygon points="284.8,131.8 276.2,131.8 276.2,123.2 			"/>
			<polygon points="284.8,148.8 276.2,148.8 276.2,140.2 			"/>
			<polygon points="284.8,165.8 276.2,165.8 276.2,157.2 			"/>
			<polygon points="284.8,182.8 276.2,182.8 276.2,174.2 			"/>
			<polygon points="284.8,199.8 276.2,199.8 276.2,191.2 			"/>
			<polygon points="301.8,114.8 293.2,114.8 293.2,106.2 			"/>
			<polygon points="301.8,131.8 293.2,131.8 293.2,123.2 			"/>
			<polygon points="301.8,148.8 293.2,148.8 293.2,140.2 			"/>
			<polygon points="301.8,165.8 293.2,165.8 293.2,157.2 			"/>
			<polygon points="301.8,182.8 293.2,182.8 293.2,174.2 			"/>
			<polygon points="301.8,199.8 293.2,199.8 293.2,191.2 			"/>
		</g>
		<g>
			<polygon points="-89.2,114.8 -97.8,114.8 -97.8,106.2 			"/>
			<polygon points="-89.2,131.8 -97.8,131.8 -97.8,123.2 			"/>
			<polygon points="-89.2,148.8 -97.8,148.8 -97.8,140.2 			"/>
			<polygon points="-89.2,165.8 -97.8,165.8 -97.8,157.2 			"/>
			<polygon points="-89.2,182.8 -97.8,182.8 -97.8,174.2 			"/>
			<polygon points="-89.2,199.8 -97.8,199.8 -97.8,191.2 			"/>
			<polygon points="-72.2,114.8 -80.8,114.8 -80.8,106.2 			"/>
			<polygon points="-72.2,131.8 -80.8,131.8 -80.8,123.2 			"/>
			<polygon points="-72.2,148.8 -80.8,148.8 -80.8,140.2 			"/>
			<polygon points="-72.2,165.8 -80.8,165.8 -80.8,157.2 			"/>
			<polygon points="-72.2,182.8 -80.8,182.8 -80.8,174.2 			"/>
			<polygon points="-72.2,199.8 -80.8,199.8 -80.8,191.2 			"/>
			<polygon points="-55.2,114.8 -63.8,114.8 -63.8,106.2 			"/>
			<polygon points="-55.2,131.8 -63.8,131.8 -63.8,123.2 			"/>
			<polygon points="-55.2,148.8 -63.8,148.8 -63.8,140.2 			"/>
			<polygon points="-55.2,165.8 -63.8,165.8 -63.8,157.2 			"/>
			<polygon points="-55.2,182.8 -63.8,182.8 -63.8,174.2 			"/>
			<polygon points="-55.2,199.8 -63.8,199.8 -63.8,191.2 			"/>
			<polygon points="-38.2,114.8 -46.8,114.8 -46.8,106.2 			"/>
			<polygon points="-38.2,131.8 -46.8,131.8 -46.8,123.2 			"/>
			<polygon points="-38.2,148.8 -46.8,148.8 -46.8,140.2 			"/>
			<polygon points="-38.2,165.8 -46.8,165.8 -46.8,157.2 			"/>
			<polygon points="-38.2,182.8 -46.8,182.8 -46.8,174.2 			"/>
			<polygon points="-38.2,199.8 -46.8,199.8 -46.8,191.2 			"/>
			<polygon points="-21.2,114.8 -29.8,114.8 -29.8,106.2 			"/>
			<polygon points="-21.2,131.8 -29.8,131.8 -29.8,123.2 			"/>
			<polygon points="-21.2,148.8 -29.8,148.8 -29.8,140.2 			"/>
			<polygon points="-21.2,165.8 -29.8,165.8 -29.8,157.2 			"/>
			<polygon points="-21.2,182.8 -29.8,182.8 -29.8,174.2 			"/>
			<polygon points="-21.2,199.8 -29.8,199.8 -29.8,191.2 			"/>
			<polygon points="-4.2,114.8 -12.8,114.8 -12.8,106.2 			"/>
			<polygon points="-4.2,131.8 -12.8,131.8 -12.8,123.2 			"/>
			<polygon points="-4.2,148.8 -12.8,148.8 -12.8,140.2 			"/>
			<polygon points="-4.2,165.8 -12.8,165.8 -12.8,157.2 			"/>
			<polygon points="-4.2,182.8 -12.8,182.8 -12.8,174.2 			"/>
			<polygon points="-4.2,199.8 -12.8,199.8 -12.8,191.2 			"/>
		</g>
		<g>
			<polygon points="-191.2,12.8 -199.8,12.8 -199.8,4.2 			"/>
			<polygon points="-191.2,29.8 -199.8,29.8 -199.8,21.2 			"/>
			<polygon points="-191.2,46.8 -199.8,46.8 -199.8,38.2 			"/>
			<polygon points="-191.2,63.8 -199.8,63.8 -199.8,55.2 			"/>
			<polygon points="-191.2,80.8 -199.8,80.8 -199.8,72.2 			"/>
			<polygon points="-191.2,97.8 -199.8,97.8 -199.8,89.2 			"/>
			<polygon points="-174.2,12.8 -182.8,12.8 -182.8,4.2 			"/>
			<polygon points="-174.2,29.8 -182.8,29.8 -182.8,21.2 			"/>
			<polygon points="-174.2,46.8 -182.8,46.8 -182.8,38.2 			"/>
			<polygon points="-174.2,63.8 -182.8,63.8 -182.8,55.2 			"/>
			<polygon points="-174.2,80.8 -182.8,80.8 -182.8,72.2 			"/>
			<polygon points="-174.2,97.8 -182.8,97.8 -182.8,89.2 			"/>
			<polygon points="-157.2,12.8 -165.8,12.8 -165.8,4.2 			"/>
			<polygon points="-157.2,29.8 -165.8,29.8 -165.8,21.2 			"/>
			<polygon points="-157.2,46.8 -165.8,46.8 -165.8,38.2 			"/>
			<polygon points="-157.2,63.8 -165.8,63.8 -165.8,55.2 			"/>
			<polygon points="-157.2,80.8 -165.8,80.8 -165.8,72.2 			"/>
			<polygon points="-157.2,97.8 -165.8,97.8 -165.8,89.2 			"/>
			<polygon points="-140.2,12.8 -148.8,12.8 -148.8,4.2 			"/>
			<polygon points="-140.2,29.8 -148.8,29.8 -148.8,21.2 			"/>
			<polygon points="-140.2,46.8 -148.8,46.8 -148.8,38.2 			"/>
			<polygon points="-140.2,63.8 -148.8,63.8 -148.8,55.2 			"/>
			<polygon points="-140.2,80.8 -148.8,80.8 -148.8,72.2 			"/>
			<polygon points="-140.2,97.8 -148.8,97.8 -148.8,89.2 			"/>
			<polygon points="-123.2,12.8 -131.8,12.8 -131.8,4.2 			"/>
			<polygon points="-123.2,29.8 -131.8,29.8 -131.8,21.2 			"/>
			<polygon points="-123.2,46.8 -131.8,46.8 -131.8,38.2 			"/>
			<polygon points="-123.2,63.8 -131.8,63.8 -131.8,55.2 			"/>
			<polygon points="-123.2,80.8 -131.8,80.8 -131.8,72.2 			"/>
			<polygon points="-123.2,97.8 -131.8,97.8 -131.8,89.2 			"/>
			<polygon points="-106.2,12.8 -114.8,12.8 -114.8,4.2 			"/>
			<polygon points="-106.2,29.8 -114.8,29.8 -114.8,21.2 			"/>
			<polygon points="-106.2,46.8 -114.8,46.8 -114.8,38.2 			"/>
			<polygon points="-106.2,63.8 -114.8,63.8 -114.8,55.2 			"/>
			<polygon points="-106.2,80.8 -114.8,80.8 -114.8,72.2 			"/>
			<polygon points="-106.2,97.8 -114.8,97.8 -114.8,89.2 			"/>
		</g>
		<g>
			<polygon points="-191.2,114.8 -199.8,114.8 -199.8,106.2 			"/>
			<polygon points="-191.2,131.8 -199.8,131.8 -199.8,123.2 			"/>
			<polygon points="-191.2,148.8 -199.8,148.8 -199.8,140.2 			"/>
			<polygon points="-191.2,165.8 -199.8,165.8 -199.8,157.2 			"/>
			<polygon points="-191.2,182.8 -199.8,182.8 -199.8,174.2 			"/>
			<polygon points="-191.2,199.8 -199.8,199.8 -199.8,191.2 			"/>
			<polygon points="-174.2,114.8 -182.8,114.8 -182.8,106.2 			"/>
			<polygon points="-174.2,131.8 -182.8,131.8 -182.8,123.2 			"/>
			<polygon points="-174.2,148.8 -182.8,148.8 -182.8,140.2 			"/>
			<polygon points="-174.2,165.8 -182.8,165.8 -182.8,157.2 			"/>
			<polygon points="-174.2,182.8 -182.8,182.8 -182.8,174.2 			"/>
			<polygon points="-174.2,199.8 -182.8,199.8 -182.8,191.2 			"/>
			<polygon points="-157.2,114.8 -165.8,114.8 -165.8,106.2 			"/>
			<polygon points="-157.2,131.8 -165.8,131.8 -165.8,123.2 			"/>
			<polygon points="-157.2,148.8 -165.8,148.8 -165.8,140.2 			"/>
			<polygon points="-157.2,165.8 -165.8,165.8 -165.8,157.2 			"/>
			<polygon points="-157.2,182.8 -165.8,182.8 -165.8,174.2 			"/>
			<polygon points="-157.2,199.8 -165.8,199.8 -165.8,191.2 			"/>
			<polygon points="-140.2,114.8 -148.8,114.8 -148.8,106.2 			"/>
			<polygon points="-140.2,131.8 -148.8,131.8 -148.8,123.2 			"/>
			<polygon points="-140.2,148.8 -148.8,148.8 -148.8,140.2 			"/>
			<polygon points="-140.2,165.8 -148.8,165.8 -148.8,157.2 			"/>
			<polygon points="-140.2,182.8 -148.8,182.8 -148.8,174.2 			"/>
			<polygon points="-140.2,199.8 -148.8,199.8 -148.8,191.2 			"/>
			<polygon points="-123.2,114.8 -131.8,114.8 -131.8,106.2 			"/>
			<polygon points="-123.2,131.8 -131.8,131.8 -131.8,123.2 			"/>
			<polygon points="-123.2,148.8 -131.8,148.8 -131.8,140.2 			"/>
			<polygon points="-123.2,165.8 -131.8,165.8 -131.8,157.2 			"/>
			<polygon points="-123.2,182.8 -131.8,182.8 -131.8,174.2 			"/>
			<polygon points="-123.2,199.8 -131.8,199.8 -131.8,191.2 			"/>
			<polygon points="-106.2,114.8 -114.8,114.8 -114.8,106.2 			"/>
			<polygon points="-106.2,131.8 -114.8,131.8 -114.8,123.2 			"/>
			<polygon points="-106.2,148.8 -114.8,148.8 -114.8,140.2 			"/>
			<polygon points="-106.2,165.8 -114.8,165.8 -114.8,157.2 			"/>
			<polygon points="-106.2,182.8 -114.8,182.8 -114.8,174.2 			"/>
			<polygon points="-106.2,199.8 -114.8,199.8 -114.8,191.2 			"/>
		</g>
		<g>
			<polygon points="12.8,-191.2 4.2,-191.2 4.2,-199.8 			"/>
			<polygon points="12.8,-174.2 4.2,-174.2 4.2,-182.8 			"/>
			<polygon points="12.8,-157.2 4.2,-157.2 4.2,-165.8 			"/>
			<polygon points="12.8,-140.2 4.2,-140.2 4.2,-148.8 			"/>
			<polygon points="12.8,-123.2 4.2,-123.2 4.2,-131.8 			"/>
			<polygon points="12.8,-106.2 4.2,-106.2 4.2,-114.8 			"/>
			<polygon points="29.8,-191.2 21.2,-191.2 21.2,-199.8 			"/>
			<polygon points="29.8,-174.2 21.2,-174.2 21.2,-182.8 			"/>
			<polygon points="29.8,-157.2 21.2,-157.2 21.2,-165.8 			"/>
			<polygon points="29.8,-140.2 21.2,-140.2 21.2,-148.8 			"/>
			<polygon points="29.8,-123.2 21.2,-123.2 21.2,-131.8 			"/>
			<polygon points="29.8,-106.2 21.2,-106.2 21.2,-114.8 			"/>
			<polygon points="46.8,-191.2 38.2,-191.2 38.2,-199.8 			"/>
			<polygon points="46.8,-174.2 38.2,-174.2 38.2,-182.8 			"/>
			<polygon points="46.8,-157.2 38.2,-157.2 38.2,-165.8 			"/>
			<polygon points="46.8,-140.2 38.2,-140.2 38.2,-148.8 			"/>
			<polygon points="46.8,-123.2 38.2,-123.2 38.2,-131.8 			"/>
			<polygon points="46.8,-106.2 38.2,-106.2 38.2,-114.8 			"/>
			<polygon points="63.8,-191.2 55.2,-191.2 55.2,-199.8 			"/>
			<polygon points="63.8,-174.2 55.2,-174.2 55.2,-182.8 			"/>
			<polygon points="63.8,-157.2 55.2,-157.2 55.2,-165.8 			"/>
			<polygon points="63.8,-140.2 55.2,-140.2 55.2,-148.8 			"/>
			<polygon points="63.8,-123.2 55.2,-123.2 55.2,-131.8 			"/>
			<polygon points="63.8,-106.2 55.2,-106.2 55.2,-114.8 			"/>
			<polygon points="80.8,-191.2 72.2,-191.2 72.2,-199.8 			"/>
			<polygon points="80.8,-174.2 72.2,-174.2 72.2,-182.8 			"/>
			<polygon points="80.8,-157.2 72.2,-157.2 72.2,-165.8 			"/>
			<polygon points="80.8,-140.2 72.2,-140.2 72.2,-148.8 			"/>
			<polygon points="80.8,-123.2 72.2,-123.2 72.2,-131.8 			"/>
			<polygon points="80.8,-106.2 72.2,-106.2 72.2,-114.8 			"/>
			<polygon points="97.8,-191.2 89.2,-191.2 89.2,-199.8 			"/>
			<polygon points="97.8,-174.2 89.2,-174.2 89.2,-182.8 			"/>
			<polygon points="97.8,-157.2 89.2,-157.2 89.2,-165.8 			"/>
			<polygon points="97.8,-140.2 89.2,-140.2 89.2,-148.8 			"/>
			<polygon points="97.8,-123.2 89.2,-123.2 89.2,-131.8 			"/>
			<polygon points="97.8,-106.2 89.2,-106.2 89.2,-114.8 			"/>
		</g>
		<g>
			<polygon points="114.8,-191.2 106.2,-191.2 106.2,-199.8 			"/>
			<polygon points="114.8,-174.2 106.2,-174.2 106.2,-182.8 			"/>
			<polygon points="114.8,-157.2 106.2,-157.2 106.2,-165.8 			"/>
			<polygon points="114.8,-140.2 106.2,-140.2 106.2,-148.8 			"/>
			<polygon points="114.8,-123.2 106.2,-123.2 106.2,-131.8 			"/>
			<polygon points="114.8,-106.2 106.2,-106.2 106.2,-114.8 			"/>
			<polygon points="131.8,-191.2 123.2,-191.2 123.2,-199.8 			"/>
			<polygon points="131.8,-174.2 123.2,-174.2 123.2,-182.8 			"/>
			<polygon points="131.8,-157.2 123.2,-157.2 123.2,-165.8 			"/>
			<polygon points="131.8,-140.2 123.2,-140.2 123.2,-148.8 			"/>
			<polygon points="131.8,-123.2 123.2,-123.2 123.2,-131.8 			"/>
			<polygon points="131.8,-106.2 123.2,-106.2 123.2,-114.8 			"/>
			<polygon points="148.8,-191.2 140.2,-191.2 140.2,-199.8 			"/>
			<polygon points="148.8,-174.2 140.2,-174.2 140.2,-182.8 			"/>
			<polygon points="148.8,-157.2 140.2,-157.2 140.2,-165.8 			"/>
			<polygon points="148.8,-140.2 140.2,-140.2 140.2,-148.8 			"/>
			<polygon points="148.8,-123.2 140.2,-123.2 140.2,-131.8 			"/>
			<polygon points="148.8,-106.2 140.2,-106.2 140.2,-114.8 			"/>
			<polygon points="165.8,-191.2 157.2,-191.2 157.2,-199.8 			"/>
			<polygon points="165.8,-174.2 157.2,-174.2 157.2,-182.8 			"/>
			<polygon points="165.8,-157.2 157.2,-157.2 157.2,-165.8 			"/>
			<polygon points="165.8,-140.2 157.2,-140.2 157.2,-148.8 			"/>
			<polygon points="165.8,-123.2 157.2,-123.2 157.2,-131.8 			"/>
			<polygon points="165.8,-106.2 157.2,-106.2 157.2,-114.8 			"/>
			<polygon points="182.8,-191.2 174.2,-191.2 174.2,-199.8 			"/>
			<polygon points="182.8,-174.2 174.2,-174.2 174.2,-182.8 			"/>
			<polygon points="182.8,-157.2 174.2,-157.2 174.2,-165.8 			"/>
			<polygon points="182.8,-140.2 174.2,-140.2 174.2,-148.8 			"/>
			<polygon points="182.8,-123.2 174.2,-123.2 174.2,-131.8 			"/>
			<polygon points="182.8,-106.2 174.2,-106.2 174.2,-114.8 			"/>
			<polygon points="199.8,-191.2 191.2,-191.2 191.2,-199.8 			"/>
			<polygon points="199.8,-174.2 191.2,-174.2 191.2,-182.8 			"/>
			<polygon points="199.8,-157.2 191.2,-157.2 191.2,-165.8 			"/>
			<polygon points="199.8,-140.2 191.2,-140.2 191.2,-148.8 			"/>
			<polygon points="199.8,-123.2 191.2,-123.2 191.2,-131.8 			"/>
			<polygon points="199.8,-106.2 191.2,-106.2 191.2,-114.8 			"/>
		</g>
		<g>
			<polygon points="216.8,-191.2 208.2,-191.2 208.2,-199.8 			"/>
			<polygon points="216.8,-174.2 208.2,-174.2 208.2,-182.8 			"/>
			<polygon points="216.8,-157.2 208.2,-157.2 208.2,-165.8 			"/>
			<polygon points="216.8,-140.2 208.2,-140.2 208.2,-148.8 			"/>
			<polygon points="216.8,-123.2 208.2,-123.2 208.2,-131.8 			"/>
			<polygon points="216.8,-106.2 208.2,-106.2 208.2,-114.8 			"/>
			<polygon points="233.8,-191.2 225.2,-191.2 225.2,-199.8 			"/>
			<polygon points="233.8,-174.2 225.2,-174.2 225.2,-182.8 			"/>
			<polygon points="233.8,-157.2 225.2,-157.2 225.2,-165.8 			"/>
			<polygon points="233.8,-140.2 225.2,-140.2 225.2,-148.8 			"/>
			<polygon points="233.8,-123.2 225.2,-123.2 225.2,-131.8 			"/>
			<polygon points="233.8,-106.2 225.2,-106.2 225.2,-114.8 			"/>
			<polygon points="250.8,-191.2 242.2,-191.2 242.2,-199.8 			"/>
			<polygon points="250.8,-174.2 242.2,-174.2 242.2,-182.8 			"/>
			<polygon points="250.8,-157.2 242.2,-157.2 242.2,-165.8 			"/>
			<polygon points="250.8,-140.2 242.2,-140.2 242.2,-148.8 			"/>
			<polygon points="250.8,-123.2 242.2,-123.2 242.2,-131.8 			"/>
			<polygon points="250.8,-106.2 242.2,-106.2 242.2,-114.8 			"/>
			<polygon points="267.8,-191.2 259.2,-191.2 259.2,-199.8 			"/>
			<polygon points="267.8,-174.2 259.2,-174.2 259.2,-182.8 			"/>
			<polygon points="267.8,-157.2 259.2,-157.2 259.2,-165.8 			"/>
			<polygon points="267.8,-140.2 259.2,-140.2 259.2,-148.8 			"/>
			<polygon points="267.8,-123.2 259.2,-123.2 259.2,-131.8 			"/>
			<polygon points="267.8,-106.2 259.2,-106.2 259.2,-114.8 			"/>
			<polygon points="284.8,-191.2 276.2,-191.2 276.2,-199.8 			"/>
			<polygon points="284.8,-174.2 276.2,-174.2 276.2,-182.8 			"/>
			<polygon points="284.8,-157.2 276.2,-157.2 276.2,-165.8 			"/>
			<polygon points="284.8,-140.2 276.2,-140.2 276.2,-148.8 			"/>
			<polygon points="284.8,-123.2 276.2,-123.2 276.2,-131.8 			"/>
			<polygon points="284.8,-106.2 276.2,-106.2 276.2,-114.8 			"/>
			<polygon points="301.8,-191.2 293.2,-191.2 293.2,-199.8 			"/>
			<polygon points="301.8,-174.2 293.2,-174.2 293.2,-182.8 			"/>
			<polygon points="301.8,-157.2 293.2,-157.2 293.2,-165.8 			"/>
			<polygon points="301.8,-140.2 293.2,-140.2 293.2,-148.8 			"/>
			<polygon points="301.8,-123.2 293.2,-123.2 293.2,-131.8 			"/>
			<polygon points="301.8,-106.2 293.2,-106.2 293.2,-114.8 			"/>
		</g>
		<g>
			<polygon points="-89.2,-191.2 -97.8,-191.2 -97.8,-199.8 			"/>
			<polygon points="-89.2,-174.2 -97.8,-174.2 -97.8,-182.8 			"/>
			<polygon points="-89.2,-157.2 -97.8,-157.2 -97.8,-165.8 			"/>
			<polygon points="-89.2,-140.2 -97.8,-140.2 -97.8,-148.8 			"/>
			<polygon points="-89.2,-123.2 -97.8,-123.2 -97.8,-131.8 			"/>
			<polygon points="-89.2,-106.2 -97.8,-106.2 -97.8,-114.8 			"/>
			<polygon points="-72.2,-191.2 -80.8,-191.2 -80.8,-199.8 			"/>
			<polygon points="-72.2,-174.2 -80.8,-174.2 -80.8,-182.8 			"/>
			<polygon points="-72.2,-157.2 -80.8,-157.2 -80.8,-165.8 			"/>
			<polygon points="-72.2,-140.2 -80.8,-140.2 -80.8,-148.8 			"/>
			<polygon points="-72.2,-123.2 -80.8,-123.2 -80.8,-131.8 			"/>
			<polygon points="-72.2,-106.2 -80.8,-106.2 -80.8,-114.8 			"/>
			<polygon points="-55.2,-191.2 -63.8,-191.2 -63.8,-199.8 			"/>
			<polygon points="-55.2,-174.2 -63.8,-174.2 -63.8,-182.8 			"/>
			<polygon points="-55.2,-157.2 -63.8,-157.2 -63.8,-165.8 			"/>
			<polygon points="-55.2,-140.2 -63.8,-140.2 -63.8,-148.8 			"/>
			<polygon points="-55.2,-123.2 -63.8,-123.2 -63.8,-131.8 			"/>
			<polygon points="-55.2,-106.2 -63.8,-106.2 -63.8,-114.8 			"/>
			<polygon points="-38.2,-191.2 -46.8,-191.2 -46.8,-199.8 			"/>
			<polygon points="-38.2,-174.2 -46.8,-174.2 -46.8,-182.8 			"/>
			<polygon points="-38.2,-157.2 -46.8,-157.2 -46.8,-165.8 			"/>
			<polygon points="-38.2,-140.2 -46.8,-140.2 -46.8,-148.8 			"/>
			<polygon points="-38.2,-123.2 -46.8,-123.2 -46.8,-131.8 			"/>
			<polygon points="-38.2,-106.2 -46.8,-106.2 -46.8,-114.8 			"/>
			<polygon points="-21.2,-191.2 -29.8,-191.2 -29.8,-199.8 			"/>
			<polygon points="-21.2,-174.2 -29.8,-174.2 -29.8,-182.8 			"/>
			<polygon points="-21.2,-157.2 -29.8,-157.2 -29.8,-165.8 			"/>
			<polygon points="-21.2,-140.2 -29.8,-140.2 -29.8,-148.8 			"/>
			<polygon points="-21.2,-123.2 -29.8,-123.2 -29.8,-131.8 			"/>
			<polygon points="-21.2,-106.2 -29.8,-106.2 -29.8,-114.8 			"/>
			<polygon points="-4.2,-191.2 -12.8,-191.2 -12.8,-199.8 			"/>
			<polygon points="-4.2,-174.2 -12.8,-174.2 -12.8,-182.8 			"/>
			<polygon points="-4.2,-157.2 -12.8,-157.2 -12.8,-165.8 			"/>
			<polygon points="-4.2,-140.2 -12.8,-140.2 -12.8,-148.8 			"/>
			<polygon points="-4.2,-123.2 -12.8,-123.2 -12.8,-131.8 			"/>
			<polygon points="-4.2,-106.2 -12.8,-106.2 -12.8,-114.8 			"/>
		</g>
		<g>
			<polygon points="12.8,-89.2 4.2,-89.2 4.2,-97.8 			"/>
			<polygon points="12.8,-72.2 4.2,-72.2 4.2,-80.8 			"/>
			<polygon points="12.8,-55.2 4.2,-55.2 4.2,-63.8 			"/>
			<polygon points="12.8,-38.2 4.2,-38.2 4.2,-46.8 			"/>
			<polygon points="12.8,-21.2 4.2,-21.2 4.2,-29.8 			"/>
			<polygon points="12.8,-4.2 4.2,-4.2 4.2,-12.8 			"/>
			<polygon points="29.8,-89.2 21.2,-89.2 21.2,-97.8 			"/>
			<polygon points="29.8,-72.2 21.2,-72.2 21.2,-80.8 			"/>
			<polygon points="29.8,-55.2 21.2,-55.2 21.2,-63.8 			"/>
			<polygon points="29.8,-38.2 21.2,-38.2 21.2,-46.8 			"/>
			<polygon points="29.8,-21.2 21.2,-21.2 21.2,-29.8 			"/>
			<polygon points="29.8,-4.2 21.2,-4.2 21.2,-12.8 			"/>
			<polygon points="46.8,-89.2 38.2,-89.2 38.2,-97.8 			"/>
			<polygon points="46.8,-72.2 38.2,-72.2 38.2,-80.8 			"/>
			<polygon points="46.8,-55.2 38.2,-55.2 38.2,-63.8 			"/>
			<polygon points="46.8,-38.2 38.2,-38.2 38.2,-46.8 			"/>
			<polygon points="46.8,-21.2 38.2,-21.2 38.2,-29.8 			"/>
			<polygon points="46.8,-4.2 38.2,-4.2 38.2,-12.8 			"/>
			<polygon points="63.8,-89.2 55.2,-89.2 55.2,-97.8 			"/>
			<polygon points="63.8,-72.2 55.2,-72.2 55.2,-80.8 			"/>
			<polygon points="63.8,-55.2 55.2,-55.2 55.2,-63.8 			"/>
			<polygon points="63.8,-38.2 55.2,-38.2 55.2,-46.8 			"/>
			<polygon points="63.8,-21.2 55.2,-21.2 55.2,-29.8 			"/>
			<polygon points="63.8,-4.2 55.2,-4.2 55.2,-12.8 			"/>
			<polygon points="80.8,-89.2 72.2,-89.2 72.2,-97.8 			"/>
			<polygon points="80.8,-72.2 72.2,-72.2 72.2,-80.8 			"/>
			<polygon points="80.8,-55.2 72.2,-55.2 72.2,-63.8 			"/>
			<polygon points="80.8,-38.2 72.2,-38.2 72.2,-46.8 			"/>
			<polygon points="80.8,-21.2 72.2,-21.2 72.2,-29.8 			"/>
			<polygon points="80.8,-4.2 72.2,-4.2 72.2,-12.8 			"/>
			<polygon points="97.8,-89.2 89.2,-89.2 89.2,-97.8 			"/>
			<polygon points="97.8,-72.2 89.2,-72.2 89.2,-80.8 			"/>
			<polygon points="97.8,-55.2 89.2,-55.2 89.2,-63.8 			"/>
			<polygon points="97.8,-38.2 89.2,-38.2 89.2,-46.8 			"/>
			<polygon points="97.8,-21.2 89.2,-21.2 89.2,-29.8 			"/>
			<polygon points="97.8,-4.2 89.2,-4.2 89.2,-12.8 			"/>
		</g>
		<g>
			<polygon points="114.8,-89.2 106.2,-89.2 106.2,-97.8 			"/>
			<polygon points="114.8,-72.2 106.2,-72.2 106.2,-80.8 			"/>
			<polygon points="114.8,-55.2 106.2,-55.2 106.2,-63.8 			"/>
			<polygon points="114.8,-38.2 106.2,-38.2 106.2,-46.8 			"/>
			<polygon points="114.8,-21.2 106.2,-21.2 106.2,-29.8 			"/>
			<polygon points="114.8,-4.2 106.2,-4.2 106.2,-12.8 			"/>
			<polygon points="131.8,-89.2 123.2,-89.2 123.2,-97.8 			"/>
			<polygon points="131.8,-72.2 123.2,-72.2 123.2,-80.8 			"/>
			<polygon points="131.8,-55.2 123.2,-55.2 123.2,-63.8 			"/>
			<polygon points="131.8,-38.2 123.2,-38.2 123.2,-46.8 			"/>
			<polygon points="131.8,-21.2 123.2,-21.2 123.2,-29.8 			"/>
			<polygon points="131.8,-4.2 123.2,-4.2 123.2,-12.8 			"/>
			<polygon points="148.8,-89.2 140.2,-89.2 140.2,-97.8 			"/>
			<polygon points="148.8,-72.2 140.2,-72.2 140.2,-80.8 			"/>
			<polygon points="148.8,-55.2 140.2,-55.2 140.2,-63.8 			"/>
			<polygon points="148.8,-38.2 140.2,-38.2 140.2,-46.8 			"/>
			<polygon points="148.8,-21.2 140.2,-21.2 140.2,-29.8 			"/>
			<polygon points="148.8,-4.2 140.2,-4.2 140.2,-12.8 			"/>
			<polygon points="165.8,-89.2 157.2,-89.2 157.2,-97.8 			"/>
			<polygon points="165.8,-72.2 157.2,-72.2 157.2,-80.8 			"/>
			<polygon points="165.8,-55.2 157.2,-55.2 157.2,-63.8 			"/>
			<polygon points="165.8,-38.2 157.2,-38.2 157.2,-46.8 			"/>
			<polygon points="165.8,-21.2 157.2,-21.2 157.2,-29.8 			"/>
			<polygon points="165.8,-4.2 157.2,-4.2 157.2,-12.8 			"/>
			<polygon points="182.8,-89.2 174.2,-89.2 174.2,-97.8 			"/>
			<polygon points="182.8,-72.2 174.2,-72.2 174.2,-80.8 			"/>
			<polygon points="182.8,-55.2 174.2,-55.2 174.2,-63.8 			"/>
			<polygon points="182.8,-38.2 174.2,-38.2 174.2,-46.8 			"/>
			<polygon points="182.8,-21.2 174.2,-21.2 174.2,-29.8 			"/>
			<polygon points="182.8,-4.2 174.2,-4.2 174.2,-12.8 			"/>
			<polygon points="199.8,-89.2 191.2,-89.2 191.2,-97.8 			"/>
			<polygon points="199.8,-72.2 191.2,-72.2 191.2,-80.8 			"/>
			<polygon points="199.8,-55.2 191.2,-55.2 191.2,-63.8 			"/>
			<polygon points="199.8,-38.2 191.2,-38.2 191.2,-46.8 			"/>
			<polygon points="199.8,-21.2 191.2,-21.2 191.2,-29.8 			"/>
			<polygon points="199.8,-4.2 191.2,-4.2 191.2,-12.8 			"/>
		</g>
		<g>
			<polygon points="216.8,-89.2 208.2,-89.2 208.2,-97.8 			"/>
			<polygon points="216.8,-72.2 208.2,-72.2 208.2,-80.8 			"/>
			<polygon points="216.8,-55.2 208.2,-55.2 208.2,-63.8 			"/>
			<polygon points="216.8,-38.2 208.2,-38.2 208.2,-46.8 			"/>
			<polygon points="216.8,-21.2 208.2,-21.2 208.2,-29.8 			"/>
			<polygon points="216.8,-4.2 208.2,-4.2 208.2,-12.8 			"/>
			<polygon points="233.8,-89.2 225.2,-89.2 225.2,-97.8 			"/>
			<polygon points="233.8,-72.2 225.2,-72.2 225.2,-80.8 			"/>
			<polygon points="233.8,-55.2 225.2,-55.2 225.2,-63.8 			"/>
			<polygon points="233.8,-38.2 225.2,-38.2 225.2,-46.8 			"/>
			<polygon points="233.8,-21.2 225.2,-21.2 225.2,-29.8 			"/>
			<polygon points="233.8,-4.2 225.2,-4.2 225.2,-12.8 			"/>
			<polygon points="250.8,-89.2 242.2,-89.2 242.2,-97.8 			"/>
			<polygon points="250.8,-72.2 242.2,-72.2 242.2,-80.8 			"/>
			<polygon points="250.8,-55.2 242.2,-55.2 242.2,-63.8 			"/>
			<polygon points="250.8,-38.2 242.2,-38.2 242.2,-46.8 			"/>
			<polygon points="250.8,-21.2 242.2,-21.2 242.2,-29.8 			"/>
			<polygon points="250.8,-4.2 242.2,-4.2 242.2,-12.8 			"/>
			<polygon points="267.8,-89.2 259.2,-89.2 259.2,-97.8 			"/>
			<polygon points="267.8,-72.2 259.2,-72.2 259.2,-80.8 			"/>
			<polygon points="267.8,-55.2 259.2,-55.2 259.2,-63.8 			"/>
			<polygon points="267.8,-38.2 259.2,-38.2 259.2,-46.8 			"/>
			<polygon points="267.8,-21.2 259.2,-21.2 259.2,-29.8 			"/>
			<polygon points="267.8,-4.2 259.2,-4.2 259.2,-12.8 			"/>
			<polygon points="284.8,-89.2 276.2,-89.2 276.2,-97.8 			"/>
			<polygon points="284.8,-72.2 276.2,-72.2 276.2,-80.8 			"/>
			<polygon points="284.8,-55.2 276.2,-55.2 276.2,-63.8 			"/>
			<polygon points="284.8,-38.2 276.2,-38.2 276.2,-46.8 			"/>
			<polygon points="284.8,-21.2 276.2,-21.2 276.2,-29.8 			"/>
			<polygon points="284.8,-4.2 276.2,-4.2 276.2,-12.8 			"/>
			<polygon points="301.8,-89.2 293.2,-89.2 293.2,-97.8 			"/>
			<polygon points="301.8,-72.2 293.2,-72.2 293.2,-80.8 			"/>
			<polygon points="301.8,-55.2 293.2,-55.2 293.2,-63.8 			"/>
			<polygon points="301.8,-38.2 293.2,-38.2 293.2,-46.8 			"/>
			<polygon points="301.8,-21.2 293.2,-21.2 293.2,-29.8 			"/>
			<polygon points="301.8,-4.2 293.2,-4.2 293.2,-12.8 			"/>
		</g>
		<g>
			<polygon points="-89.2,-89.2 -97.8,-89.2 -97.8,-97.8 			"/>
			<polygon points="-89.2,-72.2 -97.8,-72.2 -97.8,-80.8 			"/>
			<polygon points="-89.2,-55.2 -97.8,-55.2 -97.8,-63.8 			"/>
			<polygon points="-89.2,-38.2 -97.8,-38.2 -97.8,-46.8 			"/>
			<polygon points="-89.2,-21.2 -97.8,-21.2 -97.8,-29.8 			"/>
			<polygon points="-89.2,-4.2 -97.8,-4.2 -97.8,-12.8 			"/>
			<polygon points="-72.2,-89.2 -80.8,-89.2 -80.8,-97.8 			"/>
			<polygon points="-72.2,-72.2 -80.8,-72.2 -80.8,-80.8 			"/>
			<polygon points="-72.2,-55.2 -80.8,-55.2 -80.8,-63.8 			"/>
			<polygon points="-72.2,-38.2 -80.8,-38.2 -80.8,-46.8 			"/>
			<polygon points="-72.2,-21.2 -80.8,-21.2 -80.8,-29.8 			"/>
			<polygon points="-72.2,-4.2 -80.8,-4.2 -80.8,-12.8 			"/>
			<polygon points="-55.2,-89.2 -63.8,-89.2 -63.8,-97.8 			"/>
			<polygon points="-55.2,-72.2 -63.8,-72.2 -63.8,-80.8 			"/>
			<polygon points="-55.2,-55.2 -63.8,-55.2 -63.8,-63.8 			"/>
			<polygon points="-55.2,-38.2 -63.8,-38.2 -63.8,-46.8 			"/>
			<polygon points="-55.2,-21.2 -63.8,-21.2 -63.8,-29.8 			"/>
			<polygon points="-55.2,-4.2 -63.8,-4.2 -63.8,-12.8 			"/>
			<polygon points="-38.2,-89.2 -46.8,-89.2 -46.8,-97.8 			"/>
			<polygon points="-38.2,-72.2 -46.8,-72.2 -46.8,-80.8 			"/>
			<polygon points="-38.2,-55.2 -46.8,-55.2 -46.8,-63.8 			"/>
			<polygon points="-38.2,-38.2 -46.8,-38.2 -46.8,-46.8 			"/>
			<polygon points="-38.2,-21.2 -46.8,-21.2 -46.8,-29.8 			"/>
			<polygon points="-38.2,-4.2 -46.8,-4.2 -46.8,-12.8 			"/>
			<polygon points="-21.2,-89.2 -29.8,-89.2 -29.8,-97.8 			"/>
			<polygon points="-21.2,-72.2 -29.8,-72.2 -29.8,-80.8 			"/>
			<polygon points="-21.2,-55.2 -29.8,-55.2 -29.8,-63.8 			"/>
			<polygon points="-21.2,-38.2 -29.8,-38.2 -29.8,-46.8 			"/>
			<polygon points="-21.2,-21.2 -29.8,-21.2 -29.8,-29.8 			"/>
			<polygon points="-21.2,-4.2 -29.8,-4.2 -29.8,-12.8 			"/>
			<polygon points="-4.2,-89.2 -12.8,-89.2 -12.8,-97.8 			"/>
			<polygon points="-4.2,-72.2 -12.8,-72.2 -12.8,-80.8 			"/>
			<polygon points="-4.2,-55.2 -12.8,-55.2 -12.8,-63.8 			"/>
			<polygon points="-4.2,-38.2 -12.8,-38.2 -12.8,-46.8 			"/>
			<polygon points="-4.2,-21.2 -12.8,-21.2 -12.8,-29.8 			"/>
			<polygon points="-4.2,-4.2 -12.8,-4.2 -12.8,-12.8 			"/>
		</g>
		<g>
			<polygon points="-191.2,-191.2 -199.8,-191.2 -199.8,-199.8 			"/>
			<polygon points="-191.2,-174.2 -199.8,-174.2 -199.8,-182.8 			"/>
			<polygon points="-191.2,-157.2 -199.8,-157.2 -199.8,-165.8 			"/>
			<polygon points="-191.2,-140.2 -199.8,-140.2 -199.8,-148.8 			"/>
			<polygon points="-191.2,-123.2 -199.8,-123.2 -199.8,-131.8 			"/>
			<polygon points="-191.2,-106.2 -199.8,-106.2 -199.8,-114.8 			"/>
			<polygon points="-174.2,-191.2 -182.8,-191.2 -182.8,-199.8 			"/>
			<polygon points="-174.2,-174.2 -182.8,-174.2 -182.8,-182.8 			"/>
			<polygon points="-174.2,-157.2 -182.8,-157.2 -182.8,-165.8 			"/>
			<polygon points="-174.2,-140.2 -182.8,-140.2 -182.8,-148.8 			"/>
			<polygon points="-174.2,-123.2 -182.8,-123.2 -182.8,-131.8 			"/>
			<polygon points="-174.2,-106.2 -182.8,-106.2 -182.8,-114.8 			"/>
			<polygon points="-157.2,-191.2 -165.8,-191.2 -165.8,-199.8 			"/>
			<polygon points="-157.2,-174.2 -165.8,-174.2 -165.8,-182.8 			"/>
			<polygon points="-157.2,-157.2 -165.8,-157.2 -165.8,-165.8 			"/>
			<polygon points="-157.2,-140.2 -165.8,-140.2 -165.8,-148.8 			"/>
			<polygon points="-157.2,-123.2 -165.8,-123.2 -165.8,-131.8 			"/>
			<polygon points="-157.2,-106.2 -165.8,-106.2 -165.8,-114.8 			"/>
			<polygon points="-140.2,-191.2 -148.8,-191.2 -148.8,-199.8 			"/>
			<polygon points="-140.2,-174.2 -148.8,-174.2 -148.8,-182.8 			"/>
			<polygon points="-140.2,-157.2 -148.8,-157.2 -148.8,-165.8 			"/>
			<polygon points="-140.2,-140.2 -148.8,-140.2 -148.8,-148.8 			"/>
			<polygon points="-140.2,-123.2 -148.8,-123.2 -148.8,-131.8 			"/>
			<polygon points="-140.2,-106.2 -148.8,-106.2 -148.8,-114.8 			"/>
			<polygon points="-123.2,-191.2 -131.8,-191.2 -131.8,-199.8 			"/>
			<polygon points="-123.2,-174.2 -131.8,-174.2 -131.8,-182.8 			"/>
			<polygon points="-123.2,-157.2 -131.8,-157.2 -131.8,-165.8 			"/>
			<polygon points="-123.2,-140.2 -131.8,-140.2 -131.8,-148.8 			"/>
			<polygon points="-123.2,-123.2 -131.8,-123.2 -131.8,-131.8 			"/>
			<polygon points="-123.2,-106.2 -131.8,-106.2 -131.8,-114.8 			"/>
			<polygon points="-106.2,-191.2 -114.8,-191.2 -114.8,-199.8 			"/>
			<polygon points="-106.2,-174.2 -114.8,-174.2 -114.8,-182.8 			"/>
			<polygon points="-106.2,-157.2 -114.8,-157.2 -114.8,-165.8 			"/>
			<polygon points="-106.2,-140.2 -114.8,-140.2 -114.8,-148.8 			"/>
			<polygon points="-106.2,-123.2 -114.8,-123.2 -114.8,-131.8 			"/>
			<polygon points="-106.2,-106.2 -114.8,-106.2 -114.8,-114.8 			"/>
		</g>
		<g>
			<polygon points="-191.2,-89.2 -199.8,-89.2 -199.8,-97.8 			"/>
			<polygon points="-191.2,-72.2 -199.8,-72.2 -199.8,-80.8 			"/>
			<polygon points="-191.2,-55.2 -199.8,-55.2 -199.8,-63.8 			"/>
			<polygon points="-191.2,-38.2 -199.8,-38.2 -199.8,-46.8 			"/>
			<polygon points="-191.2,-21.2 -199.8,-21.2 -199.8,-29.8 			"/>
			<polygon points="-191.2,-4.2 -199.8,-4.2 -199.8,-12.8 			"/>
			<polygon points="-174.2,-89.2 -182.8,-89.2 -182.8,-97.8 			"/>
			<polygon points="-174.2,-72.2 -182.8,-72.2 -182.8,-80.8 			"/>
			<polygon points="-174.2,-55.2 -182.8,-55.2 -182.8,-63.8 			"/>
			<polygon points="-174.2,-38.2 -182.8,-38.2 -182.8,-46.8 			"/>
			<polygon points="-174.2,-21.2 -182.8,-21.2 -182.8,-29.8 			"/>
			<polygon points="-174.2,-4.2 -182.8,-4.2 -182.8,-12.8 			"/>
			<polygon points="-157.2,-89.2 -165.8,-89.2 -165.8,-97.8 			"/>
			<polygon points="-157.2,-72.2 -165.8,-72.2 -165.8,-80.8 			"/>
			<polygon points="-157.2,-55.2 -165.8,-55.2 -165.8,-63.8 			"/>
			<polygon points="-157.2,-38.2 -165.8,-38.2 -165.8,-46.8 			"/>
			<polygon points="-157.2,-21.2 -165.8,-21.2 -165.8,-29.8 			"/>
			<polygon points="-157.2,-4.2 -165.8,-4.2 -165.8,-12.8 			"/>
			<polygon points="-140.2,-89.2 -148.8,-89.2 -148.8,-97.8 			"/>
			<polygon points="-140.2,-72.2 -148.8,-72.2 -148.8,-80.8 			"/>
			<polygon points="-140.2,-55.2 -148.8,-55.2 -148.8,-63.8 			"/>
			<polygon points="-140.2,-38.2 -148.8,-38.2 -148.8,-46.8 			"/>
			<polygon points="-140.2,-21.2 -148.8,-21.2 -148.8,-29.8 			"/>
			<polygon points="-140.2,-4.2 -148.8,-4.2 -148.8,-12.8 			"/>
			<polygon points="-123.2,-89.2 -131.8,-89.2 -131.8,-97.8 			"/>
			<polygon points="-123.2,-72.2 -131.8,-72.2 -131.8,-80.8 			"/>
			<polygon points="-123.2,-55.2 -131.8,-55.2 -131.8,-63.8 			"/>
			<polygon points="-123.2,-38.2 -131.8,-38.2 -131.8,-46.8 			"/>
			<polygon points="-123.2,-21.2 -131.8,-21.2 -131.8,-29.8 			"/>
			<polygon points="-123.2,-4.2 -131.8,-4.2 -131.8,-12.8 			"/>
			<polygon points="-106.2,-89.2 -114.8,-89.2 -114.8,-97.8 			"/>
			<polygon points="-106.2,-72.2 -114.8,-72.2 -114.8,-80.8 			"/>
			<polygon points="-106.2,-55.2 -114.8,-55.2 -114.8,-63.8 			"/>
			<polygon points="-106.2,-38.2 -114.8,-38.2 -114.8,-46.8 			"/>
			<polygon points="-106.2,-21.2 -114.8,-21.2 -114.8,-29.8 			"/>
			<polygon points="-106.2,-4.2 -114.8,-4.2 -114.8,-12.8 			"/>
		</g>
		<g>
			<polygon points="12.8,216.8 4.2,216.8 4.2,208.2 			"/>
			<polygon points="12.8,233.8 4.2,233.8 4.2,225.2 			"/>
			<polygon points="12.8,250.8 4.2,250.8 4.2,242.2 			"/>
			<polygon points="12.8,267.8 4.2,267.8 4.2,259.2 			"/>
			<polygon points="12.8,284.8 4.2,284.8 4.2,276.2 			"/>
			<polygon points="12.8,301.8 4.2,301.8 4.2,293.2 			"/>
			<polygon points="29.8,216.8 21.2,216.8 21.2,208.2 			"/>
			<polygon points="29.8,233.8 21.2,233.8 21.2,225.2 			"/>
			<polygon points="29.8,250.8 21.2,250.8 21.2,242.2 			"/>
			<polygon points="29.8,267.8 21.2,267.8 21.2,259.2 			"/>
			<polygon points="29.8,284.8 21.2,284.8 21.2,276.2 			"/>
			<polygon points="29.8,301.8 21.2,301.8 21.2,293.2 			"/>
			<polygon points="46.8,216.8 38.2,216.8 38.2,208.2 			"/>
			<polygon points="46.8,233.8 38.2,233.8 38.2,225.2 			"/>
			<polygon points="46.8,250.8 38.2,250.8 38.2,242.2 			"/>
			<polygon points="46.8,267.8 38.2,267.8 38.2,259.2 			"/>
			<polygon points="46.8,284.8 38.2,284.8 38.2,276.2 			"/>
			<polygon points="46.8,301.8 38.2,301.8 38.2,293.2 			"/>
			<polygon points="63.8,216.8 55.2,216.8 55.2,208.2 			"/>
			<polygon points="63.8,233.8 55.2,233.8 55.2,225.2 			"/>
			<polygon points="63.8,250.8 55.2,250.8 55.2,242.2 			"/>
			<polygon points="63.8,267.8 55.2,267.8 55.2,259.2 			"/>
			<polygon points="63.8,284.8 55.2,284.8 55.2,276.2 			"/>
			<polygon points="63.8,301.8 55.2,301.8 55.2,293.2 			"/>
			<polygon points="80.8,216.8 72.2,216.8 72.2,208.2 			"/>
			<polygon points="80.8,233.8 72.2,233.8 72.2,225.2 			"/>
			<polygon points="80.8,250.8 72.2,250.8 72.2,242.2 			"/>
			<polygon points="80.8,267.8 72.2,267.8 72.2,259.2 			"/>
			<polygon points="80.8,284.8 72.2,284.8 72.2,276.2 			"/>
			<polygon points="80.8,301.8 72.2,301.8 72.2,293.2 			"/>
			<polygon points="97.8,216.8 89.2,216.8 89.2,208.2 			"/>
			<polygon points="97.8,233.8 89.2,233.8 89.2,225.2 			"/>
			<polygon points="97.8,250.8 89.2,250.8 89.2,242.2 			"/>
			<polygon points="97.8,267.8 89.2,267.8 89.2,259.2 			"/>
			<polygon points="97.8,284.8 89.2,284.8 89.2,276.2 			"/>
			<polygon points="97.8,301.8 89.2,301.8 89.2,293.2 			"/>
		</g>
		<g>
			<polygon points="114.8,216.8 106.2,216.8 106.2,208.2 			"/>
			<polygon points="114.8,233.8 106.2,233.8 106.2,225.2 			"/>
			<polygon points="114.8,250.8 106.2,250.8 106.2,242.2 			"/>
			<polygon points="114.8,267.8 106.2,267.8 106.2,259.2 			"/>
			<polygon points="114.8,284.8 106.2,284.8 106.2,276.2 			"/>
			<polygon points="114.8,301.8 106.2,301.8 106.2,293.2 			"/>
			<polygon points="131.8,216.8 123.2,216.8 123.2,208.2 			"/>
			<polygon points="131.8,233.8 123.2,233.8 123.2,225.2 			"/>
			<polygon points="131.8,250.8 123.2,250.8 123.2,242.2 			"/>
			<polygon points="131.8,267.8 123.2,267.8 123.2,259.2 			"/>
			<polygon points="131.8,284.8 123.2,284.8 123.2,276.2 			"/>
			<polygon points="131.8,301.8 123.2,301.8 123.2,293.2 			"/>
			<polygon points="148.8,216.8 140.2,216.8 140.2,208.2 			"/>
			<polygon points="148.8,233.8 140.2,233.8 140.2,225.2 			"/>
			<polygon points="148.8,250.8 140.2,250.8 140.2,242.2 			"/>
			<polygon points="148.8,267.8 140.2,267.8 140.2,259.2 			"/>
			<polygon points="148.8,284.8 140.2,284.8 140.2,276.2 			"/>
			<polygon points="148.8,301.8 140.2,301.8 140.2,293.2 			"/>
			<polygon points="165.8,216.8 157.2,216.8 157.2,208.2 			"/>
			<polygon points="165.8,233.8 157.2,233.8 157.2,225.2 			"/>
			<polygon points="165.8,250.8 157.2,250.8 157.2,242.2 			"/>
			<polygon points="165.8,267.8 157.2,267.8 157.2,259.2 			"/>
			<polygon points="165.8,284.8 157.2,284.8 157.2,276.2 			"/>
			<polygon points="165.8,301.8 157.2,301.8 157.2,293.2 			"/>
			<polygon points="182.8,216.8 174.2,216.8 174.2,208.2 			"/>
			<polygon points="182.8,233.8 174.2,233.8 174.2,225.2 			"/>
			<polygon points="182.8,250.8 174.2,250.8 174.2,242.2 			"/>
			<polygon points="182.8,267.8 174.2,267.8 174.2,259.2 			"/>
			<polygon points="182.8,284.8 174.2,284.8 174.2,276.2 			"/>
			<polygon points="182.8,301.8 174.2,301.8 174.2,293.2 			"/>
			<polygon points="199.8,216.8 191.2,216.8 191.2,208.2 			"/>
			<polygon points="199.8,233.8 191.2,233.8 191.2,225.2 			"/>
			<polygon points="199.8,250.8 191.2,250.8 191.2,242.2 			"/>
			<polygon points="199.8,267.8 191.2,267.8 191.2,259.2 			"/>
			<polygon points="199.8,284.8 191.2,284.8 191.2,276.2 			"/>
			<polygon points="199.8,301.8 191.2,301.8 191.2,293.2 			"/>
		</g>
		<g>
			<polygon points="216.8,216.8 208.2,216.8 208.2,208.2 			"/>
			<polygon points="216.8,233.8 208.2,233.8 208.2,225.2 			"/>
			<polygon points="216.8,250.8 208.2,250.8 208.2,242.2 			"/>
			<polygon points="216.8,267.8 208.2,267.8 208.2,259.2 			"/>
			<polygon points="216.8,284.8 208.2,284.8 208.2,276.2 			"/>
			<polygon points="216.8,301.8 208.2,301.8 208.2,293.2 			"/>
			<polygon points="233.8,216.8 225.2,216.8 225.2,208.2 			"/>
			<polygon points="233.8,233.8 225.2,233.8 225.2,225.2 			"/>
			<polygon points="233.8,250.8 225.2,250.8 225.2,242.2 			"/>
			<polygon points="233.8,267.8 225.2,267.8 225.2,259.2 			"/>
			<polygon points="233.8,284.8 225.2,284.8 225.2,276.2 			"/>
			<polygon points="233.8,301.8 225.2,301.8 225.2,293.2 			"/>
			<polygon points="250.8,216.8 242.2,216.8 242.2,208.2 			"/>
			<polygon points="250.8,233.8 242.2,233.8 242.2,225.2 			"/>
			<polygon points="250.8,250.8 242.2,250.8 242.2,242.2 			"/>
			<polygon points="250.8,267.8 242.2,267.8 242.2,259.2 			"/>
			<polygon points="250.8,284.8 242.2,284.8 242.2,276.2 			"/>
			<polygon points="250.8,301.8 242.2,301.8 242.2,293.2 			"/>
			<polygon points="267.8,216.8 259.2,216.8 259.2,208.2 			"/>
			<polygon points="267.8,233.8 259.2,233.8 259.2,225.2 			"/>
			<polygon points="267.8,250.8 259.2,250.8 259.2,242.2 			"/>
			<polygon points="267.8,267.8 259.2,267.8 259.2,259.2 			"/>
			<polygon points="267.8,284.8 259.2,284.8 259.2,276.2 			"/>
			<polygon points="267.8,301.8 259.2,301.8 259.2,293.2 			"/>
			<polygon points="284.8,216.8 276.2,216.8 276.2,208.2 			"/>
			<polygon points="284.8,233.8 276.2,233.8 276.2,225.2 			"/>
			<polygon points="284.8,250.8 276.2,250.8 276.2,242.2 			"/>
			<polygon points="284.8,267.8 276.2,267.8 276.2,259.2 			"/>
			<polygon points="284.8,284.8 276.2,284.8 276.2,276.2 			"/>
			<polygon points="284.8,301.8 276.2,301.8 276.2,293.2 			"/>
			<polygon points="301.8,216.8 293.2,216.8 293.2,208.2 			"/>
			<polygon points="301.8,233.8 293.2,233.8 293.2,225.2 			"/>
			<polygon points="301.8,250.8 293.2,250.8 293.2,242.2 			"/>
			<polygon points="301.8,267.8 293.2,267.8 293.2,259.2 			"/>
			<polygon points="301.8,284.8 293.2,284.8 293.2,276.2 			"/>
			<polygon points="301.8,301.8 293.2,301.8 293.2,293.2 			"/>
		</g>
		<g>
			<polygon points="-89.2,216.8 -97.8,216.8 -97.8,208.2 			"/>
			<polygon points="-89.2,233.8 -97.8,233.8 -97.8,225.2 			"/>
			<polygon points="-89.2,250.8 -97.8,250.8 -97.8,242.2 			"/>
			<polygon points="-89.2,267.8 -97.8,267.8 -97.8,259.2 			"/>
			<polygon points="-89.2,284.8 -97.8,284.8 -97.8,276.2 			"/>
			<polygon points="-89.2,301.8 -97.8,301.8 -97.8,293.2 			"/>
			<polygon points="-72.2,216.8 -80.8,216.8 -80.8,208.2 			"/>
			<polygon points="-72.2,233.8 -80.8,233.8 -80.8,225.2 			"/>
			<polygon points="-72.2,250.8 -80.8,250.8 -80.8,242.2 			"/>
			<polygon points="-72.2,267.8 -80.8,267.8 -80.8,259.2 			"/>
			<polygon points="-72.2,284.8 -80.8,284.8 -80.8,276.2 			"/>
			<polygon points="-72.2,301.8 -80.8,301.8 -80.8,293.2 			"/>
			<polygon points="-55.2,216.8 -63.8,216.8 -63.8,208.2 			"/>
			<polygon points="-55.2,233.8 -63.8,233.8 -63.8,225.2 			"/>
			<polygon points="-55.2,250.8 -63.8,250.8 -63.8,242.2 			"/>
			<polygon points="-55.2,267.8 -63.8,267.8 -63.8,259.2 			"/>
			<polygon points="-55.2,284.8 -63.8,284.8 -63.8,276.2 			"/>
			<polygon points="-55.2,301.8 -63.8,301.8 -63.8,293.2 			"/>
			<polygon points="-38.2,216.8 -46.8,216.8 -46.8,208.2 			"/>
			<polygon points="-38.2,233.8 -46.8,233.8 -46.8,225.2 			"/>
			<polygon points="-38.2,250.8 -46.8,250.8 -46.8,242.2 			"/>
			<polygon points="-38.2,267.8 -46.8,267.8 -46.8,259.2 			"/>
			<polygon points="-38.2,284.8 -46.8,284.8 -46.8,276.2 			"/>
			<polygon points="-38.2,301.8 -46.8,301.8 -46.8,293.2 			"/>
			<polygon points="-21.2,216.8 -29.8,216.8 -29.8,208.2 			"/>
			<polygon points="-21.2,233.8 -29.8,233.8 -29.8,225.2 			"/>
			<polygon points="-21.2,250.8 -29.8,250.8 -29.8,242.2 			"/>
			<polygon points="-21.2,267.8 -29.8,267.8 -29.8,259.2 			"/>
			<polygon points="-21.2,284.8 -29.8,284.8 -29.8,276.2 			"/>
			<polygon points="-21.2,301.8 -29.8,301.8 -29.8,293.2 			"/>
			<polygon points="-4.2,216.8 -12.8,216.8 -12.8,208.2 			"/>
			<polygon points="-4.2,233.8 -12.8,233.8 -12.8,225.2 			"/>
			<polygon points="-4.2,250.8 -12.8,250.8 -12.8,242.2 			"/>
			<polygon points="-4.2,267.8 -12.8,267.8 -12.8,259.2 			"/>
			<polygon points="-4.2,284.8 -12.8,284.8 -12.8,276.2 			"/>
			<polygon points="-4.2,301.8 -12.8,301.8 -12.8,293.2 			"/>
		</g>
		<g>
			<polygon points="-191.2,216.8 -199.8,216.8 -199.8,208.2 			"/>
			<polygon points="-191.2,233.8 -199.8,233.8 -199.8,225.2 			"/>
			<polygon points="-191.2,250.8 -199.8,250.8 -199.8,242.2 			"/>
			<polygon points="-191.2,267.8 -199.8,267.8 -199.8,259.2 			"/>
			<polygon points="-191.2,284.8 -199.8,284.8 -199.8,276.2 			"/>
			<polygon points="-191.2,301.8 -199.8,301.8 -199.8,293.2 			"/>
			<polygon points="-174.2,216.8 -182.8,216.8 -182.8,208.2 			"/>
			<polygon points="-174.2,233.8 -182.8,233.8 -182.8,225.2 			"/>
			<polygon points="-174.2,250.8 -182.8,250.8 -182.8,242.2 			"/>
			<polygon points="-174.2,267.8 -182.8,267.8 -182.8,259.2 			"/>
			<polygon points="-174.2,284.8 -182.8,284.8 -182.8,276.2 			"/>
			<polygon points="-174.2,301.8 -182.8,301.8 -182.8,293.2 			"/>
			<polygon points="-157.2,216.8 -165.8,216.8 -165.8,208.2 			"/>
			<polygon points="-157.2,233.8 -165.8,233.8 -165.8,225.2 			"/>
			<polygon points="-157.2,250.8 -165.8,250.8 -165.8,242.2 			"/>
			<polygon points="-157.2,267.8 -165.8,267.8 -165.8,259.2 			"/>
			<polygon points="-157.2,284.8 -165.8,284.8 -165.8,276.2 			"/>
			<polygon points="-157.2,301.8 -165.8,301.8 -165.8,293.2 			"/>
			<polygon points="-140.2,216.8 -148.8,216.8 -148.8,208.2 			"/>
			<polygon points="-140.2,233.8 -148.8,233.8 -148.8,225.2 			"/>
			<polygon points="-140.2,250.8 -148.8,250.8 -148.8,242.2 			"/>
			<polygon points="-140.2,267.8 -148.8,267.8 -148.8,259.2 			"/>
			<polygon points="-140.2,284.8 -148.8,284.8 -148.8,276.2 			"/>
			<polygon points="-140.2,301.8 -148.8,301.8 -148.8,293.2 			"/>
			<polygon points="-123.2,216.8 -131.8,216.8 -131.8,208.2 			"/>
			<polygon points="-123.2,233.8 -131.8,233.8 -131.8,225.2 			"/>
			<polygon points="-123.2,250.8 -131.8,250.8 -131.8,242.2 			"/>
			<polygon points="-123.2,267.8 -131.8,267.8 -131.8,259.2 			"/>
			<polygon points="-123.2,284.8 -131.8,284.8 -131.8,276.2 			"/>
			<polygon points="-123.2,301.8 -131.8,301.8 -131.8,293.2 			"/>
			<polygon points="-106.2,216.8 -114.8,216.8 -114.8,208.2 			"/>
			<polygon points="-106.2,233.8 -114.8,233.8 -114.8,225.2 			"/>
			<polygon points="-106.2,250.8 -114.8,250.8 -114.8,242.2 			"/>
			<polygon points="-106.2,267.8 -114.8,267.8 -114.8,259.2 			"/>
			<polygon points="-106.2,284.8 -114.8,284.8 -114.8,276.2 			"/>
			<polygon points="-106.2,301.8 -114.8,301.8 -114.8,293.2 			"/>
		</g>
	</g>
</g>
</svg>
