<?xml version="1.0" encoding="iso-8859-1"?>
<!-- Generator: Adobe Illustrator 22.1.0, SVG Export Plug-In . SVG Version: 6.00 Build 0)  -->
<svg version="1.1" id="Layer_1" xmlns="http://www.w3.org/2000/svg" xmlns:xlink="http://www.w3.org/1999/xlink" x="0px" y="0px"
	 width="100px" height="100px" viewBox="0 0 100 100" enable-background="new 0 0 100 100" xml:space="preserve">
<g>
	<defs>
		<rect id="SVGID_1_" width="100" height="100"/>
	</defs>
	<clipPath id="SVGID_2_">
		<use xlink:href="#SVGID_1_"  overflow="visible"/>
	</clipPath>
	<g clip-path="url(#SVGID_2_)">
		<g>
			<g>
				<polygon points="93.3,42.7 96.7,46.1 96.7,47.3 93.3,43.8 				"/>
				<polygon points="83.3,42.7 86.7,46.1 86.7,47.3 83.3,43.8 				"/>
				<polygon points="73.3,42.7 76.7,46.1 76.7,47.3 73.3,43.8 				"/>
				<polygon points="63.3,42.7 66.7,46.1 66.7,47.3 63.3,43.8 				"/>
				<polygon points="53.3,42.7 56.7,46.1 56.7,47.3 53.3,43.8 				"/>
				<polygon points="43.3,42.7 46.7,46.1 46.7,47.3 43.3,43.8 				"/>
				<polygon points="33.3,42.7 36.7,46.1 36.7,47.3 33.3,43.8 				"/>
				<polygon points="23.3,42.7 26.7,46.1 26.7,47.3 23.3,43.8 				"/>
				<polygon points="13.3,42.7 16.7,46.1 16.7,47.3 13.3,43.8 				"/>
				<polygon points="3.3,42.7 6.7,46.1 6.7,47.3 3.3,43.8 				"/>
			</g>
			<g>
				<polygon points="93.3,32.7 96.7,36.1 96.7,37.3 93.3,33.8 				"/>
				<polygon points="83.3,32.7 86.7,36.1 86.7,37.3 83.3,33.8 				"/>
				<polygon points="73.3,32.7 76.7,36.1 76.7,37.3 73.3,33.8 				"/>
				<polygon points="63.3,32.7 66.7,36.1 66.7,37.3 63.3,33.8 				"/>
				<polygon points="53.3,32.7 56.7,36.1 56.7,37.3 53.3,33.8 				"/>
				<polygon points="43.3,32.7 46.7,36.1 46.7,37.3 43.3,33.8 				"/>
				<polygon points="33.3,32.7 36.7,36.1 36.7,37.3 33.3,33.8 				"/>
				<polygon points="23.3,32.7 26.7,36.1 26.7,37.3 23.3,33.8 				"/>
				<polygon points="13.3,32.7 16.7,36.1 16.7,37.3 13.3,33.8 				"/>
				<polygon points="3.3,32.7 6.7,36.1 6.7,37.3 3.3,33.8 				"/>
			</g>
			<g>
				<polygon points="93.3,22.7 96.7,26.1 96.7,27.3 93.3,23.8 				"/>
				<polygon points="83.3,22.7 86.7,26.1 86.7,27.3 83.3,23.8 				"/>
				<polygon points="73.3,22.7 76.7,26.1 76.7,27.3 73.3,23.8 				"/>
				<polygon points="63.3,22.7 66.7,26.1 66.7,27.3 63.3,23.8 				"/>
				<polygon points="53.3,22.7 56.7,26.1 56.7,27.3 53.3,23.8 				"/>
				<polygon points="43.3,22.7 46.7,26.1 46.7,27.3 43.3,23.8 				"/>
				<polygon points="33.3,22.7 36.7,26.1 36.7,27.3 33.3,23.8 				"/>
				<polygon points="23.3,22.7 26.7,26.1 26.7,27.3 23.3,23.8 				"/>
				<polygon points="13.3,22.7 16.7,26.1 16.7,27.3 13.3,23.8 				"/>
				<polygon points="3.3,22.7 6.7,26.1 6.7,27.3 3.3,23.8 				"/>
			</g>
			<g>
				<polygon points="93.3,12.7 96.7,16.1 96.7,17.3 93.3,13.8 				"/>
				<polygon points="83.3,12.7 86.7,16.1 86.7,17.3 83.3,13.8 				"/>
				<polygon points="73.3,12.7 76.7,16.1 76.7,17.3 73.3,13.8 				"/>
				<polygon points="63.3,12.7 66.7,16.1 66.7,17.3 63.3,13.8 				"/>
				<polygon points="53.3,12.7 56.7,16.1 56.7,17.3 53.3,13.8 				"/>
				<polygon points="43.3,12.7 46.7,16.1 46.7,17.3 43.3,13.8 				"/>
				<polygon points="33.3,12.7 36.7,16.1 36.7,17.3 33.3,13.8 				"/>
				<polygon points="23.3,12.7 26.7,16.1 26.7,17.3 23.3,13.8 				"/>
				<polygon points="13.3,12.7 16.7,16.1 16.7,17.3 13.3,13.8 				"/>
				<polygon points="3.3,12.7 6.7,16.1 6.7,17.3 3.3,13.8 				"/>
			</g>
			<g>
				<polygon points="93.3,2.7 96.7,6.2 96.7,7.3 93.3,3.8 				"/>
				<polygon points="83.3,2.7 86.7,6.2 86.7,7.3 83.3,3.8 				"/>
				<polygon points="73.3,2.7 76.7,6.2 76.7,7.3 73.3,3.8 				"/>
				<polygon points="63.3,2.7 66.7,6.2 66.7,7.3 63.3,3.8 				"/>
				<polygon points="53.3,2.7 56.7,6.2 56.7,7.3 53.3,3.8 				"/>
				<polygon points="43.3,2.7 46.7,6.2 46.7,7.3 43.3,3.8 				"/>
				<polygon points="33.3,2.7 36.7,6.2 36.7,7.3 33.3,3.8 				"/>
				<polygon points="23.3,2.7 26.7,6.2 26.7,7.3 23.3,3.8 				"/>
				<polygon points="13.3,2.7 16.7,6.2 16.7,7.3 13.3,3.8 				"/>
				<polygon points="3.3,2.7 6.7,6.2 6.7,7.3 3.3,3.8 				"/>
			</g>
			<g>
				<polygon points="93.3,92.7 96.7,96.1 96.7,97.3 93.3,93.9 				"/>
				<polygon points="83.3,92.7 86.7,96.1 86.7,97.3 83.3,93.9 				"/>
				<polygon points="73.3,92.7 76.7,96.1 76.7,97.3 73.3,93.9 				"/>
				<polygon points="63.3,92.7 66.7,96.1 66.7,97.3 63.3,93.9 				"/>
				<polygon points="53.3,92.7 56.7,96.1 56.7,97.3 53.3,93.9 				"/>
				<polygon points="43.3,92.7 46.7,96.1 46.7,97.3 43.3,93.9 				"/>
				<polygon points="33.3,92.7 36.7,96.1 36.7,97.3 33.3,93.9 				"/>
				<polygon points="23.3,92.7 26.7,96.1 26.7,97.3 23.3,93.9 				"/>
				<polygon points="13.3,92.7 16.7,96.1 16.7,97.3 13.3,93.9 				"/>
				<polygon points="3.3,92.7 6.7,96.1 6.7,97.3 3.3,93.9 				"/>
			</g>
			<g>
				<polygon points="93.3,82.7 96.7,86.1 96.7,87.3 93.3,83.9 				"/>
				<polygon points="83.3,82.7 86.7,86.1 86.7,87.3 83.3,83.9 				"/>
				<polygon points="73.3,82.7 76.7,86.1 76.7,87.3 73.3,83.9 				"/>
				<polygon points="63.3,82.7 66.7,86.1 66.7,87.3 63.3,83.9 				"/>
				<polygon points="53.3,82.7 56.7,86.1 56.7,87.3 53.3,83.9 				"/>
				<polygon points="43.3,82.7 46.7,86.1 46.7,87.3 43.3,83.9 				"/>
				<polygon points="33.3,82.7 36.7,86.1 36.7,87.3 33.3,83.9 				"/>
				<polygon points="23.3,82.7 26.7,86.1 26.7,87.3 23.3,83.9 				"/>
				<polygon points="13.3,82.7 16.7,86.1 16.7,87.3 13.3,83.9 				"/>
				<polygon points="3.3,82.7 6.7,86.1 6.7,87.3 3.3,83.9 				"/>
			</g>
			<g>
				<polygon points="93.3,72.7 96.7,76.1 96.7,77.3 93.3,73.8 				"/>
				<polygon points="83.3,72.7 86.7,76.1 86.7,77.3 83.3,73.8 				"/>
				<polygon points="73.3,72.7 76.7,76.1 76.7,77.3 73.3,73.8 				"/>
				<polygon points="63.3,72.7 66.7,76.1 66.7,77.3 63.3,73.8 				"/>
				<polygon points="53.3,72.7 56.7,76.1 56.7,77.3 53.3,73.8 				"/>
				<polygon points="43.3,72.7 46.7,76.1 46.7,77.3 43.3,73.8 				"/>
				<polygon points="33.3,72.7 36.7,76.1 36.7,77.3 33.3,73.8 				"/>
				<polygon points="23.3,72.7 26.7,76.1 26.7,77.3 23.3,73.8 				"/>
				<polygon points="13.3,72.7 16.7,76.1 16.7,77.3 13.3,73.8 				"/>
				<polygon points="3.3,72.7 6.7,76.1 6.7,77.3 3.3,73.8 				"/>
			</g>
			<g>
				<polygon points="93.3,62.7 96.7,66.1 96.7,67.3 93.3,63.8 				"/>
				<polygon points="83.3,62.7 86.7,66.1 86.7,67.3 83.3,63.8 				"/>
				<polygon points="73.3,62.7 76.7,66.1 76.7,67.3 73.3,63.8 				"/>
				<polygon points="63.3,62.7 66.7,66.1 66.7,67.3 63.3,63.8 				"/>
				<polygon points="53.3,62.7 56.7,66.1 56.7,67.3 53.3,63.8 				"/>
				<polygon points="43.3,62.7 46.7,66.1 46.7,67.3 43.3,63.8 				"/>
				<polygon points="33.3,62.7 36.7,66.1 36.7,67.3 33.3,63.8 				"/>
				<polygon points="23.3,62.7 26.7,66.1 26.7,67.3 23.3,63.8 				"/>
				<polygon points="13.3,62.7 16.7,66.1 16.7,67.3 13.3,63.8 				"/>
				<polygon points="3.3,62.7 6.7,66.1 6.7,67.3 3.3,63.8 				"/>
			</g>
			<g>
				<polygon points="93.3,52.7 96.7,56.1 96.7,57.3 93.3,53.8 				"/>
				<polygon points="83.3,52.7 86.7,56.1 86.7,57.3 83.3,53.8 				"/>
				<polygon points="73.3,52.7 76.7,56.1 76.7,57.3 73.3,53.8 				"/>
				<polygon points="63.3,52.7 66.7,56.1 66.7,57.3 63.3,53.8 				"/>
				<polygon points="53.3,52.7 56.7,56.1 56.7,57.3 53.3,53.8 				"/>
				<polygon points="43.3,52.7 46.7,56.1 46.7,57.3 43.3,53.8 				"/>
				<polygon points="33.3,52.7 36.7,56.1 36.7,57.3 33.3,53.8 				"/>
				<polygon points="23.3,52.7 26.7,56.1 26.7,57.3 23.3,53.8 				"/>
				<polygon points="13.3,52.7 16.7,56.1 16.7,57.3 13.3,53.8 				"/>
				<polygon points="3.3,52.7 6.7,56.1 6.7,57.3 3.3,53.8 				"/>
			</g>
			<rect fill="none" width="100" height="100"/>
		</g>
		<g>
			<g>
				<polygon points="-6.7,42.7 -3.3,46.1 -3.3,47.3 -6.7,43.8 				"/>
				<polygon points="-16.7,42.7 -13.3,46.1 -13.3,47.3 -16.7,43.8 				"/>
				<polygon points="-26.7,42.7 -23.3,46.1 -23.3,47.3 -26.7,43.8 				"/>
				<polygon points="-36.7,42.7 -33.3,46.1 -33.3,47.3 -36.7,43.8 				"/>
				<polygon points="-46.7,42.7 -43.3,46.1 -43.3,47.3 -46.7,43.8 				"/>
				<polygon points="-56.7,42.7 -53.3,46.1 -53.3,47.3 -56.7,43.8 				"/>
				<polygon points="-66.7,42.7 -63.3,46.1 -63.3,47.3 -66.7,43.8 				"/>
				<polygon points="-76.7,42.7 -73.3,46.1 -73.3,47.3 -76.7,43.8 				"/>
				<polygon points="-86.7,42.7 -83.3,46.1 -83.3,47.3 -86.7,43.8 				"/>
				<polygon points="-96.7,42.7 -93.3,46.1 -93.3,47.3 -96.7,43.8 				"/>
			</g>
			<g>
				<polygon points="-6.7,32.7 -3.3,36.1 -3.3,37.3 -6.7,33.8 				"/>
				<polygon points="-16.7,32.7 -13.3,36.1 -13.3,37.3 -16.7,33.8 				"/>
				<polygon points="-26.7,32.7 -23.3,36.1 -23.3,37.3 -26.7,33.8 				"/>
				<polygon points="-36.7,32.7 -33.3,36.1 -33.3,37.3 -36.7,33.8 				"/>
				<polygon points="-46.7,32.7 -43.3,36.1 -43.3,37.3 -46.7,33.8 				"/>
				<polygon points="-56.7,32.7 -53.3,36.1 -53.3,37.3 -56.7,33.8 				"/>
				<polygon points="-66.7,32.7 -63.3,36.1 -63.3,37.3 -66.7,33.8 				"/>
				<polygon points="-76.7,32.7 -73.3,36.1 -73.3,37.3 -76.7,33.8 				"/>
				<polygon points="-86.7,32.7 -83.3,36.1 -83.3,37.3 -86.7,33.8 				"/>
				<polygon points="-96.7,32.7 -93.3,36.1 -93.3,37.3 -96.7,33.8 				"/>
			</g>
			<g>
				<polygon points="-6.7,22.7 -3.3,26.1 -3.3,27.3 -6.7,23.8 				"/>
				<polygon points="-16.7,22.7 -13.3,26.1 -13.3,27.3 -16.7,23.8 				"/>
				<polygon points="-26.7,22.7 -23.3,26.1 -23.3,27.3 -26.7,23.8 				"/>
				<polygon points="-36.7,22.7 -33.3,26.1 -33.3,27.3 -36.7,23.8 				"/>
				<polygon points="-46.7,22.7 -43.3,26.1 -43.3,27.3 -46.7,23.8 				"/>
				<polygon points="-56.7,22.7 -53.3,26.1 -53.3,27.3 -56.7,23.8 				"/>
				<polygon points="-66.7,22.7 -63.3,26.1 -63.3,27.3 -66.7,23.8 				"/>
				<polygon points="-76.7,22.7 -73.3,26.1 -73.3,27.3 -76.7,23.8 				"/>
				<polygon points="-86.7,22.7 -83.3,26.1 -83.3,27.3 -86.7,23.8 				"/>
				<polygon points="-96.7,22.7 -93.3,26.1 -93.3,27.3 -96.7,23.8 				"/>
			</g>
			<g>
				<polygon points="-6.7,12.7 -3.3,16.1 -3.3,17.3 -6.7,13.8 				"/>
				<polygon points="-16.7,12.7 -13.3,16.1 -13.3,17.3 -16.7,13.8 				"/>
				<polygon points="-26.7,12.7 -23.3,16.1 -23.3,17.3 -26.7,13.8 				"/>
				<polygon points="-36.7,12.7 -33.3,16.1 -33.3,17.3 -36.7,13.8 				"/>
				<polygon points="-46.7,12.7 -43.3,16.1 -43.3,17.3 -46.7,13.8 				"/>
				<polygon points="-56.7,12.7 -53.3,16.1 -53.3,17.3 -56.7,13.8 				"/>
				<polygon points="-66.7,12.7 -63.3,16.1 -63.3,17.3 -66.7,13.8 				"/>
				<polygon points="-76.7,12.7 -73.3,16.1 -73.3,17.3 -76.7,13.8 				"/>
				<polygon points="-86.7,12.7 -83.3,16.1 -83.3,17.3 -86.7,13.8 				"/>
				<polygon points="-96.7,12.7 -93.3,16.1 -93.3,17.3 -96.7,13.8 				"/>
			</g>
			<g>
				<polygon points="-6.7,2.7 -3.3,6.2 -3.3,7.3 -6.7,3.8 				"/>
				<polygon points="-16.7,2.7 -13.3,6.2 -13.3,7.3 -16.7,3.8 				"/>
				<polygon points="-26.7,2.7 -23.3,6.2 -23.3,7.3 -26.7,3.8 				"/>
				<polygon points="-36.7,2.7 -33.3,6.2 -33.3,7.3 -36.7,3.8 				"/>
				<polygon points="-46.7,2.7 -43.3,6.2 -43.3,7.3 -46.7,3.8 				"/>
				<polygon points="-56.7,2.7 -53.3,6.2 -53.3,7.3 -56.7,3.8 				"/>
				<polygon points="-66.7,2.7 -63.3,6.2 -63.3,7.3 -66.7,3.8 				"/>
				<polygon points="-76.7,2.7 -73.3,6.2 -73.3,7.3 -76.7,3.8 				"/>
				<polygon points="-86.7,2.7 -83.3,6.2 -83.3,7.3 -86.7,3.8 				"/>
				<polygon points="-96.7,2.7 -93.3,6.2 -93.3,7.3 -96.7,3.8 				"/>
			</g>
			<g>
				<polygon points="-6.7,92.7 -3.3,96.1 -3.3,97.3 -6.7,93.9 				"/>
				<polygon points="-16.7,92.7 -13.3,96.1 -13.3,97.3 -16.7,93.9 				"/>
				<polygon points="-26.7,92.7 -23.3,96.1 -23.3,97.3 -26.7,93.9 				"/>
				<polygon points="-36.7,92.7 -33.3,96.1 -33.3,97.3 -36.7,93.9 				"/>
				<polygon points="-46.7,92.7 -43.3,96.1 -43.3,97.3 -46.7,93.9 				"/>
				<polygon points="-56.7,92.7 -53.3,96.1 -53.3,97.3 -56.7,93.9 				"/>
				<polygon points="-66.7,92.7 -63.3,96.1 -63.3,97.3 -66.7,93.9 				"/>
				<polygon points="-76.7,92.7 -73.3,96.1 -73.3,97.3 -76.7,93.9 				"/>
				<polygon points="-86.7,92.7 -83.3,96.1 -83.3,97.3 -86.7,93.9 				"/>
				<polygon points="-96.7,92.7 -93.3,96.1 -93.3,97.3 -96.7,93.9 				"/>
			</g>
			<g>
				<polygon points="-6.7,82.7 -3.3,86.1 -3.3,87.3 -6.7,83.9 				"/>
				<polygon points="-16.7,82.7 -13.3,86.1 -13.3,87.3 -16.7,83.9 				"/>
				<polygon points="-26.7,82.7 -23.3,86.1 -23.3,87.3 -26.7,83.9 				"/>
				<polygon points="-36.7,82.7 -33.3,86.1 -33.3,87.3 -36.7,83.9 				"/>
				<polygon points="-46.7,82.7 -43.3,86.1 -43.3,87.3 -46.7,83.9 				"/>
				<polygon points="-56.7,82.7 -53.3,86.1 -53.3,87.3 -56.7,83.9 				"/>
				<polygon points="-66.7,82.7 -63.3,86.1 -63.3,87.3 -66.7,83.9 				"/>
				<polygon points="-76.7,82.7 -73.3,86.1 -73.3,87.3 -76.7,83.9 				"/>
				<polygon points="-86.7,82.7 -83.3,86.1 -83.3,87.3 -86.7,83.9 				"/>
				<polygon points="-96.7,82.7 -93.3,86.1 -93.3,87.3 -96.7,83.9 				"/>
			</g>
			<g>
				<polygon points="-6.7,72.7 -3.3,76.1 -3.3,77.3 -6.7,73.8 				"/>
				<polygon points="-16.7,72.7 -13.3,76.1 -13.3,77.3 -16.7,73.8 				"/>
				<polygon points="-26.7,72.7 -23.3,76.1 -23.3,77.3 -26.7,73.8 				"/>
				<polygon points="-36.7,72.7 -33.3,76.1 -33.3,77.3 -36.7,73.8 				"/>
				<polygon points="-46.7,72.7 -43.3,76.1 -43.3,77.3 -46.7,73.8 				"/>
				<polygon points="-56.7,72.7 -53.3,76.1 -53.3,77.3 -56.7,73.8 				"/>
				<polygon points="-66.7,72.7 -63.3,76.1 -63.3,77.3 -66.7,73.8 				"/>
				<polygon points="-76.7,72.7 -73.3,76.1 -73.3,77.3 -76.7,73.8 				"/>
				<polygon points="-86.7,72.7 -83.3,76.1 -83.3,77.3 -86.7,73.8 				"/>
				<polygon points="-96.7,72.7 -93.3,76.1 -93.3,77.3 -96.7,73.8 				"/>
			</g>
			<g>
				<polygon points="-6.7,62.7 -3.3,66.1 -3.3,67.3 -6.7,63.8 				"/>
				<polygon points="-16.7,62.7 -13.3,66.1 -13.3,67.3 -16.7,63.8 				"/>
				<polygon points="-26.7,62.7 -23.3,66.1 -23.3,67.3 -26.7,63.8 				"/>
				<polygon points="-36.7,62.7 -33.3,66.1 -33.3,67.3 -36.7,63.8 				"/>
				<polygon points="-46.7,62.7 -43.3,66.1 -43.3,67.3 -46.7,63.8 				"/>
				<polygon points="-56.7,62.7 -53.3,66.1 -53.3,67.3 -56.7,63.8 				"/>
				<polygon points="-66.7,62.7 -63.3,66.1 -63.3,67.3 -66.7,63.8 				"/>
				<polygon points="-76.7,62.7 -73.3,66.1 -73.3,67.3 -76.7,63.8 				"/>
				<polygon points="-86.7,62.7 -83.3,66.1 -83.3,67.3 -86.7,63.8 				"/>
				<polygon points="-96.7,62.7 -93.3,66.1 -93.3,67.3 -96.7,63.8 				"/>
			</g>
			<g>
				<polygon points="-6.7,52.7 -3.3,56.1 -3.3,57.3 -6.7,53.8 				"/>
				<polygon points="-16.7,52.7 -13.3,56.1 -13.3,57.3 -16.7,53.8 				"/>
				<polygon points="-26.7,52.7 -23.3,56.1 -23.3,57.3 -26.7,53.8 				"/>
				<polygon points="-36.7,52.7 -33.3,56.1 -33.3,57.3 -36.7,53.8 				"/>
				<polygon points="-46.7,52.7 -43.3,56.1 -43.3,57.3 -46.7,53.8 				"/>
				<polygon points="-56.7,52.7 -53.3,56.1 -53.3,57.3 -56.7,53.8 				"/>
				<polygon points="-66.7,52.7 -63.3,56.1 -63.3,57.3 -66.7,53.8 				"/>
				<polygon points="-76.7,52.7 -73.3,56.1 -73.3,57.3 -76.7,53.8 				"/>
				<polygon points="-86.7,52.7 -83.3,56.1 -83.3,57.3 -86.7,53.8 				"/>
				<polygon points="-96.7,52.7 -93.3,56.1 -93.3,57.3 -96.7,53.8 				"/>
			</g>
			<rect x="-100" fill="none" width="100" height="100"/>
		</g>
		<g>
			<g>
				<polygon points="193.3,42.7 196.7,46.1 196.7,47.3 193.3,43.8 				"/>
				<polygon points="183.3,42.7 186.7,46.1 186.7,47.3 183.3,43.8 				"/>
				<polygon points="173.3,42.7 176.7,46.1 176.7,47.3 173.3,43.8 				"/>
				<polygon points="163.3,42.7 166.7,46.1 166.7,47.3 163.3,43.8 				"/>
				<polygon points="153.3,42.7 156.7,46.1 156.7,47.3 153.3,43.8 				"/>
				<polygon points="143.3,42.7 146.7,46.1 146.7,47.3 143.3,43.8 				"/>
				<polygon points="133.3,42.7 136.7,46.1 136.7,47.3 133.3,43.8 				"/>
				<polygon points="123.3,42.7 126.7,46.1 126.7,47.3 123.3,43.8 				"/>
				<polygon points="113.3,42.7 116.7,46.1 116.7,47.3 113.3,43.8 				"/>
				<polygon points="103.3,42.7 106.7,46.1 106.7,47.3 103.3,43.8 				"/>
			</g>
			<g>
				<polygon points="193.3,32.7 196.7,36.1 196.7,37.3 193.3,33.8 				"/>
				<polygon points="183.3,32.7 186.7,36.1 186.7,37.3 183.3,33.8 				"/>
				<polygon points="173.3,32.7 176.7,36.1 176.7,37.3 173.3,33.8 				"/>
				<polygon points="163.3,32.7 166.7,36.1 166.7,37.3 163.3,33.8 				"/>
				<polygon points="153.3,32.7 156.7,36.1 156.7,37.3 153.3,33.8 				"/>
				<polygon points="143.3,32.7 146.7,36.1 146.7,37.3 143.3,33.8 				"/>
				<polygon points="133.3,32.7 136.7,36.1 136.7,37.3 133.3,33.8 				"/>
				<polygon points="123.3,32.7 126.7,36.1 126.7,37.3 123.3,33.8 				"/>
				<polygon points="113.3,32.7 116.7,36.1 116.7,37.3 113.3,33.8 				"/>
				<polygon points="103.3,32.7 106.7,36.1 106.7,37.3 103.3,33.8 				"/>
			</g>
			<g>
				<polygon points="193.3,22.7 196.7,26.1 196.7,27.3 193.3,23.8 				"/>
				<polygon points="183.3,22.7 186.7,26.1 186.7,27.3 183.3,23.8 				"/>
				<polygon points="173.3,22.7 176.7,26.1 176.7,27.3 173.3,23.8 				"/>
				<polygon points="163.3,22.7 166.7,26.1 166.7,27.3 163.3,23.8 				"/>
				<polygon points="153.3,22.7 156.7,26.1 156.7,27.3 153.3,23.8 				"/>
				<polygon points="143.3,22.7 146.7,26.1 146.7,27.3 143.3,23.8 				"/>
				<polygon points="133.3,22.7 136.7,26.1 136.7,27.3 133.3,23.8 				"/>
				<polygon points="123.3,22.7 126.7,26.1 126.7,27.3 123.3,23.8 				"/>
				<polygon points="113.3,22.7 116.7,26.1 116.7,27.3 113.3,23.8 				"/>
				<polygon points="103.3,22.7 106.7,26.1 106.7,27.3 103.3,23.8 				"/>
			</g>
			<g>
				<polygon points="193.3,12.7 196.7,16.1 196.7,17.3 193.3,13.8 				"/>
				<polygon points="183.3,12.7 186.7,16.1 186.7,17.3 183.3,13.8 				"/>
				<polygon points="173.3,12.7 176.7,16.1 176.7,17.3 173.3,13.8 				"/>
				<polygon points="163.3,12.7 166.7,16.1 166.7,17.3 163.3,13.8 				"/>
				<polygon points="153.3,12.7 156.7,16.1 156.7,17.3 153.3,13.8 				"/>
				<polygon points="143.3,12.7 146.7,16.1 146.7,17.3 143.3,13.8 				"/>
				<polygon points="133.3,12.7 136.7,16.1 136.7,17.3 133.3,13.8 				"/>
				<polygon points="123.3,12.7 126.7,16.1 126.7,17.3 123.3,13.8 				"/>
				<polygon points="113.3,12.7 116.7,16.1 116.7,17.3 113.3,13.8 				"/>
				<polygon points="103.3,12.7 106.7,16.1 106.7,17.3 103.3,13.8 				"/>
			</g>
			<g>
				<polygon points="193.3,2.7 196.7,6.2 196.7,7.3 193.3,3.8 				"/>
				<polygon points="183.3,2.7 186.7,6.2 186.7,7.3 183.3,3.8 				"/>
				<polygon points="173.3,2.7 176.7,6.2 176.7,7.3 173.3,3.8 				"/>
				<polygon points="163.3,2.7 166.7,6.2 166.7,7.3 163.3,3.8 				"/>
				<polygon points="153.3,2.7 156.7,6.2 156.7,7.3 153.3,3.8 				"/>
				<polygon points="143.3,2.7 146.7,6.2 146.7,7.3 143.3,3.8 				"/>
				<polygon points="133.3,2.7 136.7,6.2 136.7,7.3 133.3,3.8 				"/>
				<polygon points="123.3,2.7 126.7,6.2 126.7,7.3 123.3,3.8 				"/>
				<polygon points="113.3,2.7 116.7,6.2 116.7,7.3 113.3,3.8 				"/>
				<polygon points="103.3,2.7 106.7,6.2 106.7,7.3 103.3,3.8 				"/>
			</g>
			<g>
				<polygon points="193.3,92.7 196.7,96.1 196.7,97.3 193.3,93.9 				"/>
				<polygon points="183.3,92.7 186.7,96.1 186.7,97.3 183.3,93.9 				"/>
				<polygon points="173.3,92.7 176.7,96.1 176.7,97.3 173.3,93.9 				"/>
				<polygon points="163.3,92.7 166.7,96.1 166.7,97.3 163.3,93.9 				"/>
				<polygon points="153.3,92.7 156.7,96.1 156.7,97.3 153.3,93.9 				"/>
				<polygon points="143.3,92.7 146.7,96.1 146.7,97.3 143.3,93.9 				"/>
				<polygon points="133.3,92.7 136.7,96.1 136.7,97.3 133.3,93.9 				"/>
				<polygon points="123.3,92.7 126.7,96.1 126.7,97.3 123.3,93.9 				"/>
				<polygon points="113.3,92.7 116.7,96.1 116.7,97.3 113.3,93.9 				"/>
				<polygon points="103.3,92.7 106.7,96.1 106.7,97.3 103.3,93.9 				"/>
			</g>
			<g>
				<polygon points="193.3,82.7 196.7,86.1 196.7,87.3 193.3,83.9 				"/>
				<polygon points="183.3,82.7 186.7,86.1 186.7,87.3 183.3,83.9 				"/>
				<polygon points="173.3,82.7 176.7,86.1 176.7,87.3 173.3,83.9 				"/>
				<polygon points="163.3,82.7 166.7,86.1 166.7,87.3 163.3,83.9 				"/>
				<polygon points="153.3,82.7 156.7,86.1 156.7,87.3 153.3,83.9 				"/>
				<polygon points="143.3,82.7 146.7,86.1 146.7,87.3 143.3,83.9 				"/>
				<polygon points="133.3,82.7 136.7,86.1 136.7,87.3 133.3,83.9 				"/>
				<polygon points="123.3,82.7 126.7,86.1 126.7,87.3 123.3,83.9 				"/>
				<polygon points="113.3,82.7 116.7,86.1 116.7,87.3 113.3,83.9 				"/>
				<polygon points="103.3,82.7 106.7,86.1 106.7,87.3 103.3,83.9 				"/>
			</g>
			<g>
				<polygon points="193.3,72.7 196.7,76.1 196.7,77.3 193.3,73.8 				"/>
				<polygon points="183.3,72.7 186.7,76.1 186.7,77.3 183.3,73.8 				"/>
				<polygon points="173.3,72.7 176.7,76.1 176.7,77.3 173.3,73.8 				"/>
				<polygon points="163.3,72.7 166.7,76.1 166.7,77.3 163.3,73.8 				"/>
				<polygon points="153.3,72.7 156.7,76.1 156.7,77.3 153.3,73.8 				"/>
				<polygon points="143.3,72.7 146.7,76.1 146.7,77.3 143.3,73.8 				"/>
				<polygon points="133.3,72.7 136.7,76.1 136.7,77.3 133.3,73.8 				"/>
				<polygon points="123.3,72.7 126.7,76.1 126.7,77.3 123.3,73.8 				"/>
				<polygon points="113.3,72.7 116.7,76.1 116.7,77.3 113.3,73.8 				"/>
				<polygon points="103.3,72.7 106.7,76.1 106.7,77.3 103.3,73.8 				"/>
			</g>
			<g>
				<polygon points="193.3,62.7 196.7,66.1 196.7,67.3 193.3,63.8 				"/>
				<polygon points="183.3,62.7 186.7,66.1 186.7,67.3 183.3,63.8 				"/>
				<polygon points="173.3,62.7 176.7,66.1 176.7,67.3 173.3,63.8 				"/>
				<polygon points="163.3,62.7 166.7,66.1 166.7,67.3 163.3,63.8 				"/>
				<polygon points="153.3,62.7 156.7,66.1 156.7,67.3 153.3,63.8 				"/>
				<polygon points="143.3,62.7 146.7,66.1 146.7,67.3 143.3,63.8 				"/>
				<polygon points="133.3,62.7 136.7,66.1 136.7,67.3 133.3,63.8 				"/>
				<polygon points="123.3,62.7 126.7,66.1 126.7,67.3 123.3,63.8 				"/>
				<polygon points="113.3,62.7 116.7,66.1 116.7,67.3 113.3,63.8 				"/>
				<polygon points="103.3,62.7 106.7,66.1 106.7,67.3 103.3,63.8 				"/>
			</g>
			<g>
				<polygon points="193.3,52.7 196.7,56.1 196.7,57.3 193.3,53.8 				"/>
				<polygon points="183.3,52.7 186.7,56.1 186.7,57.3 183.3,53.8 				"/>
				<polygon points="173.3,52.7 176.7,56.1 176.7,57.3 173.3,53.8 				"/>
				<polygon points="163.3,52.7 166.7,56.1 166.7,57.3 163.3,53.8 				"/>
				<polygon points="153.3,52.7 156.7,56.1 156.7,57.3 153.3,53.8 				"/>
				<polygon points="143.3,52.7 146.7,56.1 146.7,57.3 143.3,53.8 				"/>
				<polygon points="133.3,52.7 136.7,56.1 136.7,57.3 133.3,53.8 				"/>
				<polygon points="123.3,52.7 126.7,56.1 126.7,57.3 123.3,53.8 				"/>
				<polygon points="113.3,52.7 116.7,56.1 116.7,57.3 113.3,53.8 				"/>
				<polygon points="103.3,52.7 106.7,56.1 106.7,57.3 103.3,53.8 				"/>
			</g>
			<rect x="100" fill="none" width="100" height="100"/>
		</g>
		<g>
			<g>
				<polygon points="93.3,142.7 96.7,146.1 96.7,147.3 93.3,143.8 				"/>
				<polygon points="83.3,142.7 86.7,146.1 86.7,147.3 83.3,143.8 				"/>
				<polygon points="73.3,142.7 76.7,146.1 76.7,147.3 73.3,143.8 				"/>
				<polygon points="63.3,142.7 66.7,146.1 66.7,147.3 63.3,143.8 				"/>
				<polygon points="53.3,142.7 56.7,146.1 56.7,147.3 53.3,143.8 				"/>
				<polygon points="43.3,142.7 46.7,146.1 46.7,147.3 43.3,143.8 				"/>
				<polygon points="33.3,142.7 36.7,146.1 36.7,147.3 33.3,143.8 				"/>
				<polygon points="23.3,142.7 26.7,146.1 26.7,147.3 23.3,143.8 				"/>
				<polygon points="13.3,142.7 16.7,146.1 16.7,147.3 13.3,143.8 				"/>
				<polygon points="3.3,142.7 6.7,146.1 6.7,147.3 3.3,143.8 				"/>
			</g>
			<g>
				<polygon points="93.3,132.7 96.7,136.1 96.7,137.3 93.3,133.8 				"/>
				<polygon points="83.3,132.7 86.7,136.1 86.7,137.3 83.3,133.8 				"/>
				<polygon points="73.3,132.7 76.7,136.1 76.7,137.3 73.3,133.8 				"/>
				<polygon points="63.3,132.7 66.7,136.1 66.7,137.3 63.3,133.8 				"/>
				<polygon points="53.3,132.7 56.7,136.1 56.7,137.3 53.3,133.8 				"/>
				<polygon points="43.3,132.7 46.7,136.1 46.7,137.3 43.3,133.8 				"/>
				<polygon points="33.3,132.7 36.7,136.1 36.7,137.3 33.3,133.8 				"/>
				<polygon points="23.3,132.7 26.7,136.1 26.7,137.3 23.3,133.8 				"/>
				<polygon points="13.3,132.7 16.7,136.1 16.7,137.3 13.3,133.8 				"/>
				<polygon points="3.3,132.7 6.7,136.1 6.7,137.3 3.3,133.8 				"/>
			</g>
			<g>
				<polygon points="93.3,122.7 96.7,126.1 96.7,127.3 93.3,123.8 				"/>
				<polygon points="83.3,122.7 86.7,126.1 86.7,127.3 83.3,123.8 				"/>
				<polygon points="73.3,122.7 76.7,126.1 76.7,127.3 73.3,123.8 				"/>
				<polygon points="63.3,122.7 66.7,126.1 66.7,127.3 63.3,123.8 				"/>
				<polygon points="53.3,122.7 56.7,126.1 56.7,127.3 53.3,123.8 				"/>
				<polygon points="43.3,122.7 46.7,126.1 46.7,127.3 43.3,123.8 				"/>
				<polygon points="33.3,122.7 36.7,126.1 36.7,127.3 33.3,123.8 				"/>
				<polygon points="23.3,122.7 26.7,126.1 26.7,127.3 23.3,123.8 				"/>
				<polygon points="13.3,122.7 16.7,126.1 16.7,127.3 13.3,123.8 				"/>
				<polygon points="3.3,122.7 6.7,126.1 6.7,127.3 3.3,123.8 				"/>
			</g>
			<g>
				<polygon points="93.3,112.7 96.7,116.1 96.7,117.3 93.3,113.8 				"/>
				<polygon points="83.3,112.7 86.7,116.1 86.7,117.3 83.3,113.8 				"/>
				<polygon points="73.3,112.7 76.7,116.1 76.7,117.3 73.3,113.8 				"/>
				<polygon points="63.3,112.7 66.7,116.1 66.7,117.3 63.3,113.8 				"/>
				<polygon points="53.3,112.7 56.7,116.1 56.7,117.3 53.3,113.8 				"/>
				<polygon points="43.3,112.7 46.7,116.1 46.7,117.3 43.3,113.8 				"/>
				<polygon points="33.3,112.7 36.7,116.1 36.7,117.3 33.3,113.8 				"/>
				<polygon points="23.3,112.7 26.7,116.1 26.7,117.3 23.3,113.8 				"/>
				<polygon points="13.3,112.7 16.7,116.1 16.7,117.3 13.3,113.8 				"/>
				<polygon points="3.3,112.7 6.7,116.1 6.7,117.3 3.3,113.8 				"/>
			</g>
			<g>
				<polygon points="93.3,102.7 96.7,106.2 96.7,107.3 93.3,103.8 				"/>
				<polygon points="83.3,102.7 86.7,106.2 86.7,107.3 83.3,103.8 				"/>
				<polygon points="73.3,102.7 76.7,106.2 76.7,107.3 73.3,103.8 				"/>
				<polygon points="63.3,102.7 66.7,106.2 66.7,107.3 63.3,103.8 				"/>
				<polygon points="53.3,102.7 56.7,106.2 56.7,107.3 53.3,103.8 				"/>
				<polygon points="43.3,102.7 46.7,106.2 46.7,107.3 43.3,103.8 				"/>
				<polygon points="33.3,102.7 36.7,106.2 36.7,107.3 33.3,103.8 				"/>
				<polygon points="23.3,102.7 26.7,106.2 26.7,107.3 23.3,103.8 				"/>
				<polygon points="13.3,102.7 16.7,106.2 16.7,107.3 13.3,103.8 				"/>
				<polygon points="3.3,102.7 6.7,106.2 6.7,107.3 3.3,103.8 				"/>
			</g>
			<g>
				<polygon points="93.3,192.7 96.7,196.1 96.7,197.3 93.3,193.9 				"/>
				<polygon points="83.3,192.7 86.7,196.1 86.7,197.3 83.3,193.9 				"/>
				<polygon points="73.3,192.7 76.7,196.1 76.7,197.3 73.3,193.9 				"/>
				<polygon points="63.3,192.7 66.7,196.1 66.7,197.3 63.3,193.9 				"/>
				<polygon points="53.3,192.7 56.7,196.1 56.7,197.3 53.3,193.9 				"/>
				<polygon points="43.3,192.7 46.7,196.1 46.7,197.3 43.3,193.9 				"/>
				<polygon points="33.3,192.7 36.7,196.1 36.7,197.3 33.3,193.9 				"/>
				<polygon points="23.3,192.7 26.7,196.1 26.7,197.3 23.3,193.9 				"/>
				<polygon points="13.3,192.7 16.7,196.1 16.7,197.3 13.3,193.9 				"/>
				<polygon points="3.3,192.7 6.7,196.1 6.7,197.3 3.3,193.9 				"/>
			</g>
			<g>
				<polygon points="93.3,182.7 96.7,186.1 96.7,187.3 93.3,183.9 				"/>
				<polygon points="83.3,182.7 86.7,186.1 86.7,187.3 83.3,183.9 				"/>
				<polygon points="73.3,182.7 76.7,186.1 76.7,187.3 73.3,183.9 				"/>
				<polygon points="63.3,182.7 66.7,186.1 66.7,187.3 63.3,183.9 				"/>
				<polygon points="53.3,182.7 56.7,186.1 56.7,187.3 53.3,183.9 				"/>
				<polygon points="43.3,182.7 46.7,186.1 46.7,187.3 43.3,183.9 				"/>
				<polygon points="33.3,182.7 36.7,186.1 36.7,187.3 33.3,183.9 				"/>
				<polygon points="23.3,182.7 26.7,186.1 26.7,187.3 23.3,183.9 				"/>
				<polygon points="13.3,182.7 16.7,186.1 16.7,187.3 13.3,183.9 				"/>
				<polygon points="3.3,182.7 6.7,186.1 6.7,187.3 3.3,183.9 				"/>
			</g>
			<g>
				<polygon points="93.3,172.7 96.7,176.1 96.7,177.3 93.3,173.8 				"/>
				<polygon points="83.3,172.7 86.7,176.1 86.7,177.3 83.3,173.8 				"/>
				<polygon points="73.3,172.7 76.7,176.1 76.7,177.3 73.3,173.8 				"/>
				<polygon points="63.3,172.7 66.7,176.1 66.7,177.3 63.3,173.8 				"/>
				<polygon points="53.3,172.7 56.7,176.1 56.7,177.3 53.3,173.8 				"/>
				<polygon points="43.3,172.7 46.7,176.1 46.7,177.3 43.3,173.8 				"/>
				<polygon points="33.3,172.7 36.7,176.1 36.7,177.3 33.3,173.8 				"/>
				<polygon points="23.3,172.7 26.7,176.1 26.7,177.3 23.3,173.8 				"/>
				<polygon points="13.3,172.7 16.7,176.1 16.7,177.3 13.3,173.8 				"/>
				<polygon points="3.3,172.7 6.7,176.1 6.7,177.3 3.3,173.8 				"/>
			</g>
			<g>
				<polygon points="93.3,162.7 96.7,166.1 96.7,167.3 93.3,163.8 				"/>
				<polygon points="83.3,162.7 86.7,166.1 86.7,167.3 83.3,163.8 				"/>
				<polygon points="73.3,162.7 76.7,166.1 76.7,167.3 73.3,163.8 				"/>
				<polygon points="63.3,162.7 66.7,166.1 66.7,167.3 63.3,163.8 				"/>
				<polygon points="53.3,162.7 56.7,166.1 56.7,167.3 53.3,163.8 				"/>
				<polygon points="43.3,162.7 46.7,166.1 46.7,167.3 43.3,163.8 				"/>
				<polygon points="33.3,162.7 36.7,166.1 36.7,167.3 33.3,163.8 				"/>
				<polygon points="23.3,162.7 26.7,166.1 26.7,167.3 23.3,163.8 				"/>
				<polygon points="13.3,162.7 16.7,166.1 16.7,167.3 13.3,163.8 				"/>
				<polygon points="3.3,162.7 6.7,166.1 6.7,167.3 3.3,163.8 				"/>
			</g>
			<g>
				<polygon points="93.3,152.7 96.7,156.1 96.7,157.3 93.3,153.8 				"/>
				<polygon points="83.3,152.7 86.7,156.1 86.7,157.3 83.3,153.8 				"/>
				<polygon points="73.3,152.7 76.7,156.1 76.7,157.3 73.3,153.8 				"/>
				<polygon points="63.3,152.7 66.7,156.1 66.7,157.3 63.3,153.8 				"/>
				<polygon points="53.3,152.7 56.7,156.1 56.7,157.3 53.3,153.8 				"/>
				<polygon points="43.3,152.7 46.7,156.1 46.7,157.3 43.3,153.8 				"/>
				<polygon points="33.3,152.7 36.7,156.1 36.7,157.3 33.3,153.8 				"/>
				<polygon points="23.3,152.7 26.7,156.1 26.7,157.3 23.3,153.8 				"/>
				<polygon points="13.3,152.7 16.7,156.1 16.7,157.3 13.3,153.8 				"/>
				<polygon points="3.3,152.7 6.7,156.1 6.7,157.3 3.3,153.8 				"/>
			</g>
			<rect y="100" fill="none" width="100" height="100"/>
		</g>
		<g>
			<g>
				<polygon points="-6.7,142.7 -3.3,146.1 -3.3,147.3 -6.7,143.8 				"/>
				<polygon points="-16.7,142.7 -13.3,146.1 -13.3,147.3 -16.7,143.8 				"/>
				<polygon points="-26.7,142.7 -23.3,146.1 -23.3,147.3 -26.7,143.8 				"/>
				<polygon points="-36.7,142.7 -33.3,146.1 -33.3,147.3 -36.7,143.8 				"/>
				<polygon points="-46.7,142.7 -43.3,146.1 -43.3,147.3 -46.7,143.8 				"/>
				<polygon points="-56.7,142.7 -53.3,146.1 -53.3,147.3 -56.7,143.8 				"/>
				<polygon points="-66.7,142.7 -63.3,146.1 -63.3,147.3 -66.7,143.8 				"/>
				<polygon points="-76.7,142.7 -73.3,146.1 -73.3,147.3 -76.7,143.8 				"/>
				<polygon points="-86.7,142.7 -83.3,146.1 -83.3,147.3 -86.7,143.8 				"/>
				<polygon points="-96.7,142.7 -93.3,146.1 -93.3,147.3 -96.7,143.8 				"/>
			</g>
			<g>
				<polygon points="-6.7,132.7 -3.3,136.1 -3.3,137.3 -6.7,133.8 				"/>
				<polygon points="-16.7,132.7 -13.3,136.1 -13.3,137.3 -16.7,133.8 				"/>
				<polygon points="-26.7,132.7 -23.3,136.1 -23.3,137.3 -26.7,133.8 				"/>
				<polygon points="-36.7,132.7 -33.3,136.1 -33.3,137.3 -36.7,133.8 				"/>
				<polygon points="-46.7,132.7 -43.3,136.1 -43.3,137.3 -46.7,133.8 				"/>
				<polygon points="-56.7,132.7 -53.3,136.1 -53.3,137.3 -56.7,133.8 				"/>
				<polygon points="-66.7,132.7 -63.3,136.1 -63.3,137.3 -66.7,133.8 				"/>
				<polygon points="-76.7,132.7 -73.3,136.1 -73.3,137.3 -76.7,133.8 				"/>
				<polygon points="-86.7,132.7 -83.3,136.1 -83.3,137.3 -86.7,133.8 				"/>
				<polygon points="-96.7,132.7 -93.3,136.1 -93.3,137.3 -96.7,133.8 				"/>
			</g>
			<g>
				<polygon points="-6.7,122.7 -3.3,126.1 -3.3,127.3 -6.7,123.8 				"/>
				<polygon points="-16.7,122.7 -13.3,126.1 -13.3,127.3 -16.7,123.8 				"/>
				<polygon points="-26.7,122.7 -23.3,126.1 -23.3,127.3 -26.7,123.8 				"/>
				<polygon points="-36.7,122.7 -33.3,126.1 -33.3,127.3 -36.7,123.8 				"/>
				<polygon points="-46.7,122.7 -43.3,126.1 -43.3,127.3 -46.7,123.8 				"/>
				<polygon points="-56.7,122.7 -53.3,126.1 -53.3,127.3 -56.7,123.8 				"/>
				<polygon points="-66.7,122.7 -63.3,126.1 -63.3,127.3 -66.7,123.8 				"/>
				<polygon points="-76.7,122.7 -73.3,126.1 -73.3,127.3 -76.7,123.8 				"/>
				<polygon points="-86.7,122.7 -83.3,126.1 -83.3,127.3 -86.7,123.8 				"/>
				<polygon points="-96.7,122.7 -93.3,126.1 -93.3,127.3 -96.7,123.8 				"/>
			</g>
			<g>
				<polygon points="-6.7,112.7 -3.3,116.1 -3.3,117.3 -6.7,113.8 				"/>
				<polygon points="-16.7,112.7 -13.3,116.1 -13.3,117.3 -16.7,113.8 				"/>
				<polygon points="-26.7,112.7 -23.3,116.1 -23.3,117.3 -26.7,113.8 				"/>
				<polygon points="-36.7,112.7 -33.3,116.1 -33.3,117.3 -36.7,113.8 				"/>
				<polygon points="-46.7,112.7 -43.3,116.1 -43.3,117.3 -46.7,113.8 				"/>
				<polygon points="-56.7,112.7 -53.3,116.1 -53.3,117.3 -56.7,113.8 				"/>
				<polygon points="-66.7,112.7 -63.3,116.1 -63.3,117.3 -66.7,113.8 				"/>
				<polygon points="-76.7,112.7 -73.3,116.1 -73.3,117.3 -76.7,113.8 				"/>
				<polygon points="-86.7,112.7 -83.3,116.1 -83.3,117.3 -86.7,113.8 				"/>
				<polygon points="-96.7,112.7 -93.3,116.1 -93.3,117.3 -96.7,113.8 				"/>
			</g>
			<g>
				<polygon points="-6.7,102.7 -3.3,106.2 -3.3,107.3 -6.7,103.8 				"/>
				<polygon points="-16.7,102.7 -13.3,106.2 -13.3,107.3 -16.7,103.8 				"/>
				<polygon points="-26.7,102.7 -23.3,106.2 -23.3,107.3 -26.7,103.8 				"/>
				<polygon points="-36.7,102.7 -33.3,106.2 -33.3,107.3 -36.7,103.8 				"/>
				<polygon points="-46.7,102.7 -43.3,106.2 -43.3,107.3 -46.7,103.8 				"/>
				<polygon points="-56.7,102.7 -53.3,106.2 -53.3,107.3 -56.7,103.8 				"/>
				<polygon points="-66.7,102.7 -63.3,106.2 -63.3,107.3 -66.7,103.8 				"/>
				<polygon points="-76.7,102.7 -73.3,106.2 -73.3,107.3 -76.7,103.8 				"/>
				<polygon points="-86.7,102.7 -83.3,106.2 -83.3,107.3 -86.7,103.8 				"/>
				<polygon points="-96.7,102.7 -93.3,106.2 -93.3,107.3 -96.7,103.8 				"/>
			</g>
			<g>
				<polygon points="-6.7,192.7 -3.3,196.1 -3.3,197.3 -6.7,193.9 				"/>
				<polygon points="-16.7,192.7 -13.3,196.1 -13.3,197.3 -16.7,193.9 				"/>
				<polygon points="-26.7,192.7 -23.3,196.1 -23.3,197.3 -26.7,193.9 				"/>
				<polygon points="-36.7,192.7 -33.3,196.1 -33.3,197.3 -36.7,193.9 				"/>
				<polygon points="-46.7,192.7 -43.3,196.1 -43.3,197.3 -46.7,193.9 				"/>
				<polygon points="-56.7,192.7 -53.3,196.1 -53.3,197.3 -56.7,193.9 				"/>
				<polygon points="-66.7,192.7 -63.3,196.1 -63.3,197.3 -66.7,193.9 				"/>
				<polygon points="-76.7,192.7 -73.3,196.1 -73.3,197.3 -76.7,193.9 				"/>
				<polygon points="-86.7,192.7 -83.3,196.1 -83.3,197.3 -86.7,193.9 				"/>
				<polygon points="-96.7,192.7 -93.3,196.1 -93.3,197.3 -96.7,193.9 				"/>
			</g>
			<g>
				<polygon points="-6.7,182.7 -3.3,186.1 -3.3,187.3 -6.7,183.9 				"/>
				<polygon points="-16.7,182.7 -13.3,186.1 -13.3,187.3 -16.7,183.9 				"/>
				<polygon points="-26.7,182.7 -23.3,186.1 -23.3,187.3 -26.7,183.9 				"/>
				<polygon points="-36.7,182.7 -33.3,186.1 -33.3,187.3 -36.7,183.9 				"/>
				<polygon points="-46.7,182.7 -43.3,186.1 -43.3,187.3 -46.7,183.9 				"/>
				<polygon points="-56.7,182.7 -53.3,186.1 -53.3,187.3 -56.7,183.9 				"/>
				<polygon points="-66.7,182.7 -63.3,186.1 -63.3,187.3 -66.7,183.9 				"/>
				<polygon points="-76.7,182.7 -73.3,186.1 -73.3,187.3 -76.7,183.9 				"/>
				<polygon points="-86.7,182.7 -83.3,186.1 -83.3,187.3 -86.7,183.9 				"/>
				<polygon points="-96.7,182.7 -93.3,186.1 -93.3,187.3 -96.7,183.9 				"/>
			</g>
			<g>
				<polygon points="-6.7,172.7 -3.3,176.1 -3.3,177.3 -6.7,173.8 				"/>
				<polygon points="-16.7,172.7 -13.3,176.1 -13.3,177.3 -16.7,173.8 				"/>
				<polygon points="-26.7,172.7 -23.3,176.1 -23.3,177.3 -26.7,173.8 				"/>
				<polygon points="-36.7,172.7 -33.3,176.1 -33.3,177.3 -36.7,173.8 				"/>
				<polygon points="-46.7,172.7 -43.3,176.1 -43.3,177.3 -46.7,173.8 				"/>
				<polygon points="-56.7,172.7 -53.3,176.1 -53.3,177.3 -56.7,173.8 				"/>
				<polygon points="-66.7,172.7 -63.3,176.1 -63.3,177.3 -66.7,173.8 				"/>
				<polygon points="-76.7,172.7 -73.3,176.1 -73.3,177.3 -76.7,173.8 				"/>
				<polygon points="-86.7,172.7 -83.3,176.1 -83.3,177.3 -86.7,173.8 				"/>
				<polygon points="-96.7,172.7 -93.3,176.1 -93.3,177.3 -96.7,173.8 				"/>
			</g>
			<g>
				<polygon points="-6.7,162.7 -3.3,166.1 -3.3,167.3 -6.7,163.8 				"/>
				<polygon points="-16.7,162.7 -13.3,166.1 -13.3,167.3 -16.7,163.8 				"/>
				<polygon points="-26.7,162.7 -23.3,166.1 -23.3,167.3 -26.7,163.8 				"/>
				<polygon points="-36.7,162.7 -33.3,166.1 -33.3,167.3 -36.7,163.8 				"/>
				<polygon points="-46.7,162.7 -43.3,166.1 -43.3,167.3 -46.7,163.8 				"/>
				<polygon points="-56.7,162.7 -53.3,166.1 -53.3,167.3 -56.7,163.8 				"/>
				<polygon points="-66.7,162.7 -63.3,166.1 -63.3,167.3 -66.7,163.8 				"/>
				<polygon points="-76.7,162.7 -73.3,166.1 -73.3,167.3 -76.7,163.8 				"/>
				<polygon points="-86.7,162.7 -83.3,166.1 -83.3,167.3 -86.7,163.8 				"/>
				<polygon points="-96.7,162.7 -93.3,166.1 -93.3,167.3 -96.7,163.8 				"/>
			</g>
			<g>
				<polygon points="-6.7,152.7 -3.3,156.1 -3.3,157.3 -6.7,153.8 				"/>
				<polygon points="-16.7,152.7 -13.3,156.1 -13.3,157.3 -16.7,153.8 				"/>
				<polygon points="-26.7,152.7 -23.3,156.1 -23.3,157.3 -26.7,153.8 				"/>
				<polygon points="-36.7,152.7 -33.3,156.1 -33.3,157.3 -36.7,153.8 				"/>
				<polygon points="-46.7,152.7 -43.3,156.1 -43.3,157.3 -46.7,153.8 				"/>
				<polygon points="-56.7,152.7 -53.3,156.1 -53.3,157.3 -56.7,153.8 				"/>
				<polygon points="-66.7,152.7 -63.3,156.1 -63.3,157.3 -66.7,153.8 				"/>
				<polygon points="-76.7,152.7 -73.3,156.1 -73.3,157.3 -76.7,153.8 				"/>
				<polygon points="-86.7,152.7 -83.3,156.1 -83.3,157.3 -86.7,153.8 				"/>
				<polygon points="-96.7,152.7 -93.3,156.1 -93.3,157.3 -96.7,153.8 				"/>
			</g>
			<rect x="-100" y="100" fill="none" width="100" height="100"/>
		</g>
		<g>
			<g>
				<polygon points="193.3,142.7 196.7,146.1 196.7,147.3 193.3,143.8 				"/>
				<polygon points="183.3,142.7 186.7,146.1 186.7,147.3 183.3,143.8 				"/>
				<polygon points="173.3,142.7 176.7,146.1 176.7,147.3 173.3,143.8 				"/>
				<polygon points="163.3,142.7 166.7,146.1 166.7,147.3 163.3,143.8 				"/>
				<polygon points="153.3,142.7 156.7,146.1 156.7,147.3 153.3,143.8 				"/>
				<polygon points="143.3,142.7 146.7,146.1 146.7,147.3 143.3,143.8 				"/>
				<polygon points="133.3,142.7 136.7,146.1 136.7,147.3 133.3,143.8 				"/>
				<polygon points="123.3,142.7 126.7,146.1 126.7,147.3 123.3,143.8 				"/>
				<polygon points="113.3,142.7 116.7,146.1 116.7,147.3 113.3,143.8 				"/>
				<polygon points="103.3,142.7 106.7,146.1 106.7,147.3 103.3,143.8 				"/>
			</g>
			<g>
				<polygon points="193.3,132.7 196.7,136.1 196.7,137.3 193.3,133.8 				"/>
				<polygon points="183.3,132.7 186.7,136.1 186.7,137.3 183.3,133.8 				"/>
				<polygon points="173.3,132.7 176.7,136.1 176.7,137.3 173.3,133.8 				"/>
				<polygon points="163.3,132.7 166.7,136.1 166.7,137.3 163.3,133.8 				"/>
				<polygon points="153.3,132.7 156.7,136.1 156.7,137.3 153.3,133.8 				"/>
				<polygon points="143.3,132.7 146.7,136.1 146.7,137.3 143.3,133.8 				"/>
				<polygon points="133.3,132.7 136.7,136.1 136.7,137.3 133.3,133.8 				"/>
				<polygon points="123.3,132.7 126.7,136.1 126.7,137.3 123.3,133.8 				"/>
				<polygon points="113.3,132.7 116.7,136.1 116.7,137.3 113.3,133.8 				"/>
				<polygon points="103.3,132.7 106.7,136.1 106.7,137.3 103.3,133.8 				"/>
			</g>
			<g>
				<polygon points="193.3,122.7 196.7,126.1 196.7,127.3 193.3,123.8 				"/>
				<polygon points="183.3,122.7 186.7,126.1 186.7,127.3 183.3,123.8 				"/>
				<polygon points="173.3,122.7 176.7,126.1 176.7,127.3 173.3,123.8 				"/>
				<polygon points="163.3,122.7 166.7,126.1 166.7,127.3 163.3,123.8 				"/>
				<polygon points="153.3,122.7 156.7,126.1 156.7,127.3 153.3,123.8 				"/>
				<polygon points="143.3,122.7 146.7,126.1 146.7,127.3 143.3,123.8 				"/>
				<polygon points="133.3,122.7 136.7,126.1 136.7,127.3 133.3,123.8 				"/>
				<polygon points="123.3,122.7 126.7,126.1 126.7,127.3 123.3,123.8 				"/>
				<polygon points="113.3,122.7 116.7,126.1 116.7,127.3 113.3,123.8 				"/>
				<polygon points="103.3,122.7 106.7,126.1 106.7,127.3 103.3,123.8 				"/>
			</g>
			<g>
				<polygon points="193.3,112.7 196.7,116.1 196.7,117.3 193.3,113.8 				"/>
				<polygon points="183.3,112.7 186.7,116.1 186.7,117.3 183.3,113.8 				"/>
				<polygon points="173.3,112.7 176.7,116.1 176.7,117.3 173.3,113.8 				"/>
				<polygon points="163.3,112.7 166.7,116.1 166.7,117.3 163.3,113.8 				"/>
				<polygon points="153.3,112.7 156.7,116.1 156.7,117.3 153.3,113.8 				"/>
				<polygon points="143.3,112.7 146.7,116.1 146.7,117.3 143.3,113.8 				"/>
				<polygon points="133.3,112.7 136.7,116.1 136.7,117.3 133.3,113.8 				"/>
				<polygon points="123.3,112.7 126.7,116.1 126.7,117.3 123.3,113.8 				"/>
				<polygon points="113.3,112.7 116.7,116.1 116.7,117.3 113.3,113.8 				"/>
				<polygon points="103.3,112.7 106.7,116.1 106.7,117.3 103.3,113.8 				"/>
			</g>
			<g>
				<polygon points="193.3,102.7 196.7,106.2 196.7,107.3 193.3,103.8 				"/>
				<polygon points="183.3,102.7 186.7,106.2 186.7,107.3 183.3,103.8 				"/>
				<polygon points="173.3,102.7 176.7,106.2 176.7,107.3 173.3,103.8 				"/>
				<polygon points="163.3,102.7 166.7,106.2 166.7,107.3 163.3,103.8 				"/>
				<polygon points="153.3,102.7 156.7,106.2 156.7,107.3 153.3,103.8 				"/>
				<polygon points="143.3,102.7 146.7,106.2 146.7,107.3 143.3,103.8 				"/>
				<polygon points="133.3,102.7 136.7,106.2 136.7,107.3 133.3,103.8 				"/>
				<polygon points="123.3,102.7 126.7,106.2 126.7,107.3 123.3,103.8 				"/>
				<polygon points="113.3,102.7 116.7,106.2 116.7,107.3 113.3,103.8 				"/>
				<polygon points="103.3,102.7 106.7,106.2 106.7,107.3 103.3,103.8 				"/>
			</g>
			<g>
				<polygon points="193.3,192.7 196.7,196.1 196.7,197.3 193.3,193.9 				"/>
				<polygon points="183.3,192.7 186.7,196.1 186.7,197.3 183.3,193.9 				"/>
				<polygon points="173.3,192.7 176.7,196.1 176.7,197.3 173.3,193.9 				"/>
				<polygon points="163.3,192.7 166.7,196.1 166.7,197.3 163.3,193.9 				"/>
				<polygon points="153.3,192.7 156.7,196.1 156.7,197.3 153.3,193.9 				"/>
				<polygon points="143.3,192.7 146.7,196.1 146.7,197.3 143.3,193.9 				"/>
				<polygon points="133.3,192.7 136.7,196.1 136.7,197.3 133.3,193.9 				"/>
				<polygon points="123.3,192.7 126.7,196.1 126.7,197.3 123.3,193.9 				"/>
				<polygon points="113.3,192.7 116.7,196.1 116.7,197.3 113.3,193.9 				"/>
				<polygon points="103.3,192.7 106.7,196.1 106.7,197.3 103.3,193.9 				"/>
			</g>
			<g>
				<polygon points="193.3,182.7 196.7,186.1 196.7,187.3 193.3,183.9 				"/>
				<polygon points="183.3,182.7 186.7,186.1 186.7,187.3 183.3,183.9 				"/>
				<polygon points="173.3,182.7 176.7,186.1 176.7,187.3 173.3,183.9 				"/>
				<polygon points="163.3,182.7 166.7,186.1 166.7,187.3 163.3,183.9 				"/>
				<polygon points="153.3,182.7 156.7,186.1 156.7,187.3 153.3,183.9 				"/>
				<polygon points="143.3,182.7 146.7,186.1 146.7,187.3 143.3,183.9 				"/>
				<polygon points="133.3,182.7 136.7,186.1 136.7,187.3 133.3,183.9 				"/>
				<polygon points="123.3,182.7 126.7,186.1 126.7,187.3 123.3,183.9 				"/>
				<polygon points="113.3,182.7 116.7,186.1 116.7,187.3 113.3,183.9 				"/>
				<polygon points="103.3,182.7 106.7,186.1 106.7,187.3 103.3,183.9 				"/>
			</g>
			<g>
				<polygon points="193.3,172.7 196.7,176.1 196.7,177.3 193.3,173.8 				"/>
				<polygon points="183.3,172.7 186.7,176.1 186.7,177.3 183.3,173.8 				"/>
				<polygon points="173.3,172.7 176.7,176.1 176.7,177.3 173.3,173.8 				"/>
				<polygon points="163.3,172.7 166.7,176.1 166.7,177.3 163.3,173.8 				"/>
				<polygon points="153.3,172.7 156.7,176.1 156.7,177.3 153.3,173.8 				"/>
				<polygon points="143.3,172.7 146.7,176.1 146.7,177.3 143.3,173.8 				"/>
				<polygon points="133.3,172.7 136.7,176.1 136.7,177.3 133.3,173.8 				"/>
				<polygon points="123.3,172.7 126.7,176.1 126.7,177.3 123.3,173.8 				"/>
				<polygon points="113.3,172.7 116.7,176.1 116.7,177.3 113.3,173.8 				"/>
				<polygon points="103.3,172.7 106.7,176.1 106.7,177.3 103.3,173.8 				"/>
			</g>
			<g>
				<polygon points="193.3,162.7 196.7,166.1 196.7,167.3 193.3,163.8 				"/>
				<polygon points="183.3,162.7 186.7,166.1 186.7,167.3 183.3,163.8 				"/>
				<polygon points="173.3,162.7 176.7,166.1 176.7,167.3 173.3,163.8 				"/>
				<polygon points="163.3,162.7 166.7,166.1 166.7,167.3 163.3,163.8 				"/>
				<polygon points="153.3,162.7 156.7,166.1 156.7,167.3 153.3,163.8 				"/>
				<polygon points="143.3,162.7 146.7,166.1 146.7,167.3 143.3,163.8 				"/>
				<polygon points="133.3,162.7 136.7,166.1 136.7,167.3 133.3,163.8 				"/>
				<polygon points="123.3,162.7 126.7,166.1 126.7,167.3 123.3,163.8 				"/>
				<polygon points="113.3,162.7 116.7,166.1 116.7,167.3 113.3,163.8 				"/>
				<polygon points="103.3,162.7 106.7,166.1 106.7,167.3 103.3,163.8 				"/>
			</g>
			<g>
				<polygon points="193.3,152.7 196.7,156.1 196.7,157.3 193.3,153.8 				"/>
				<polygon points="183.3,152.7 186.7,156.1 186.7,157.3 183.3,153.8 				"/>
				<polygon points="173.3,152.7 176.7,156.1 176.7,157.3 173.3,153.8 				"/>
				<polygon points="163.3,152.7 166.7,156.1 166.7,157.3 163.3,153.8 				"/>
				<polygon points="153.3,152.7 156.7,156.1 156.7,157.3 153.3,153.8 				"/>
				<polygon points="143.3,152.7 146.7,156.1 146.7,157.3 143.3,153.8 				"/>
				<polygon points="133.3,152.7 136.7,156.1 136.7,157.3 133.3,153.8 				"/>
				<polygon points="123.3,152.7 126.7,156.1 126.7,157.3 123.3,153.8 				"/>
				<polygon points="113.3,152.7 116.7,156.1 116.7,157.3 113.3,153.8 				"/>
				<polygon points="103.3,152.7 106.7,156.1 106.7,157.3 103.3,153.8 				"/>
			</g>
			<rect x="100" y="100" fill="none" width="100" height="100"/>
		</g>
		<g>
			<g>
				<polygon points="93.3,-57.3 96.7,-53.9 96.7,-52.7 93.3,-56.2 				"/>
				<polygon points="83.3,-57.3 86.7,-53.9 86.7,-52.7 83.3,-56.2 				"/>
				<polygon points="73.3,-57.3 76.7,-53.9 76.7,-52.7 73.3,-56.2 				"/>
				<polygon points="63.3,-57.3 66.7,-53.9 66.7,-52.7 63.3,-56.2 				"/>
				<polygon points="53.3,-57.3 56.7,-53.9 56.7,-52.7 53.3,-56.2 				"/>
				<polygon points="43.3,-57.3 46.7,-53.9 46.7,-52.7 43.3,-56.2 				"/>
				<polygon points="33.3,-57.3 36.7,-53.9 36.7,-52.7 33.3,-56.2 				"/>
				<polygon points="23.3,-57.3 26.7,-53.9 26.7,-52.7 23.3,-56.2 				"/>
				<polygon points="13.3,-57.3 16.7,-53.9 16.7,-52.7 13.3,-56.2 				"/>
				<polygon points="3.3,-57.3 6.7,-53.9 6.7,-52.7 3.3,-56.2 				"/>
			</g>
			<g>
				<polygon points="93.3,-67.3 96.7,-63.9 96.7,-62.7 93.3,-66.2 				"/>
				<polygon points="83.3,-67.3 86.7,-63.9 86.7,-62.7 83.3,-66.2 				"/>
				<polygon points="73.3,-67.3 76.7,-63.9 76.7,-62.7 73.3,-66.2 				"/>
				<polygon points="63.3,-67.3 66.7,-63.9 66.7,-62.7 63.3,-66.2 				"/>
				<polygon points="53.3,-67.3 56.7,-63.9 56.7,-62.7 53.3,-66.2 				"/>
				<polygon points="43.3,-67.3 46.7,-63.9 46.7,-62.7 43.3,-66.2 				"/>
				<polygon points="33.3,-67.3 36.7,-63.9 36.7,-62.7 33.3,-66.2 				"/>
				<polygon points="23.3,-67.3 26.7,-63.9 26.7,-62.7 23.3,-66.2 				"/>
				<polygon points="13.3,-67.3 16.7,-63.9 16.7,-62.7 13.3,-66.2 				"/>
				<polygon points="3.3,-67.3 6.7,-63.9 6.7,-62.7 3.3,-66.2 				"/>
			</g>
			<g>
				<polygon points="93.3,-77.3 96.7,-73.9 96.7,-72.7 93.3,-76.2 				"/>
				<polygon points="83.3,-77.3 86.7,-73.9 86.7,-72.7 83.3,-76.2 				"/>
				<polygon points="73.3,-77.3 76.7,-73.9 76.7,-72.7 73.3,-76.2 				"/>
				<polygon points="63.3,-77.3 66.7,-73.9 66.7,-72.7 63.3,-76.2 				"/>
				<polygon points="53.3,-77.3 56.7,-73.9 56.7,-72.7 53.3,-76.2 				"/>
				<polygon points="43.3,-77.3 46.7,-73.9 46.7,-72.7 43.3,-76.2 				"/>
				<polygon points="33.3,-77.3 36.7,-73.9 36.7,-72.7 33.3,-76.2 				"/>
				<polygon points="23.3,-77.3 26.7,-73.9 26.7,-72.7 23.3,-76.2 				"/>
				<polygon points="13.3,-77.3 16.7,-73.9 16.7,-72.7 13.3,-76.2 				"/>
				<polygon points="3.3,-77.3 6.7,-73.9 6.7,-72.7 3.3,-76.2 				"/>
			</g>
			<g>
				<polygon points="93.3,-87.3 96.7,-83.9 96.7,-82.7 93.3,-86.2 				"/>
				<polygon points="83.3,-87.3 86.7,-83.9 86.7,-82.7 83.3,-86.2 				"/>
				<polygon points="73.3,-87.3 76.7,-83.9 76.7,-82.7 73.3,-86.2 				"/>
				<polygon points="63.3,-87.3 66.7,-83.9 66.7,-82.7 63.3,-86.2 				"/>
				<polygon points="53.3,-87.3 56.7,-83.9 56.7,-82.7 53.3,-86.2 				"/>
				<polygon points="43.3,-87.3 46.7,-83.9 46.7,-82.7 43.3,-86.2 				"/>
				<polygon points="33.3,-87.3 36.7,-83.9 36.7,-82.7 33.3,-86.2 				"/>
				<polygon points="23.3,-87.3 26.7,-83.9 26.7,-82.7 23.3,-86.2 				"/>
				<polygon points="13.3,-87.3 16.7,-83.9 16.7,-82.7 13.3,-86.2 				"/>
				<polygon points="3.3,-87.3 6.7,-83.9 6.7,-82.7 3.3,-86.2 				"/>
			</g>
			<g>
				<polygon points="93.3,-97.3 96.7,-93.8 96.7,-92.7 93.3,-96.2 				"/>
				<polygon points="83.3,-97.3 86.7,-93.8 86.7,-92.7 83.3,-96.2 				"/>
				<polygon points="73.3,-97.3 76.7,-93.8 76.7,-92.7 73.3,-96.2 				"/>
				<polygon points="63.3,-97.3 66.7,-93.8 66.7,-92.7 63.3,-96.2 				"/>
				<polygon points="53.3,-97.3 56.7,-93.8 56.7,-92.7 53.3,-96.2 				"/>
				<polygon points="43.3,-97.3 46.7,-93.8 46.7,-92.7 43.3,-96.2 				"/>
				<polygon points="33.3,-97.3 36.7,-93.8 36.7,-92.7 33.3,-96.2 				"/>
				<polygon points="23.3,-97.3 26.7,-93.8 26.7,-92.7 23.3,-96.2 				"/>
				<polygon points="13.3,-97.3 16.7,-93.8 16.7,-92.7 13.3,-96.2 				"/>
				<polygon points="3.3,-97.3 6.7,-93.8 6.7,-92.7 3.3,-96.2 				"/>
			</g>
			<g>
				<polygon points="93.3,-7.3 96.7,-3.9 96.7,-2.7 93.3,-6.1 				"/>
				<polygon points="83.3,-7.3 86.7,-3.9 86.7,-2.7 83.3,-6.1 				"/>
				<polygon points="73.3,-7.3 76.7,-3.9 76.7,-2.7 73.3,-6.1 				"/>
				<polygon points="63.3,-7.3 66.7,-3.9 66.7,-2.7 63.3,-6.1 				"/>
				<polygon points="53.3,-7.3 56.7,-3.9 56.7,-2.7 53.3,-6.1 				"/>
				<polygon points="43.3,-7.3 46.7,-3.9 46.7,-2.7 43.3,-6.1 				"/>
				<polygon points="33.3,-7.3 36.7,-3.9 36.7,-2.7 33.3,-6.1 				"/>
				<polygon points="23.3,-7.3 26.7,-3.9 26.7,-2.7 23.3,-6.1 				"/>
				<polygon points="13.3,-7.3 16.7,-3.9 16.7,-2.7 13.3,-6.1 				"/>
				<polygon points="3.3,-7.3 6.7,-3.9 6.7,-2.7 3.3,-6.1 				"/>
			</g>
			<g>
				<polygon points="93.3,-17.3 96.7,-13.9 96.7,-12.7 93.3,-16.1 				"/>
				<polygon points="83.3,-17.3 86.7,-13.9 86.7,-12.7 83.3,-16.1 				"/>
				<polygon points="73.3,-17.3 76.7,-13.9 76.7,-12.7 73.3,-16.1 				"/>
				<polygon points="63.3,-17.3 66.7,-13.9 66.7,-12.7 63.3,-16.1 				"/>
				<polygon points="53.3,-17.3 56.7,-13.9 56.7,-12.7 53.3,-16.1 				"/>
				<polygon points="43.3,-17.3 46.7,-13.9 46.7,-12.7 43.3,-16.1 				"/>
				<polygon points="33.3,-17.3 36.7,-13.9 36.7,-12.7 33.3,-16.1 				"/>
				<polygon points="23.3,-17.3 26.7,-13.9 26.7,-12.7 23.3,-16.1 				"/>
				<polygon points="13.3,-17.3 16.7,-13.9 16.7,-12.7 13.3,-16.1 				"/>
				<polygon points="3.3,-17.3 6.7,-13.9 6.7,-12.7 3.3,-16.1 				"/>
			</g>
			<g>
				<polygon points="93.3,-27.3 96.7,-23.9 96.7,-22.7 93.3,-26.2 				"/>
				<polygon points="83.3,-27.3 86.7,-23.9 86.7,-22.7 83.3,-26.2 				"/>
				<polygon points="73.3,-27.3 76.7,-23.9 76.7,-22.7 73.3,-26.2 				"/>
				<polygon points="63.3,-27.3 66.7,-23.9 66.7,-22.7 63.3,-26.2 				"/>
				<polygon points="53.3,-27.3 56.7,-23.9 56.7,-22.7 53.3,-26.2 				"/>
				<polygon points="43.3,-27.3 46.7,-23.9 46.7,-22.7 43.3,-26.2 				"/>
				<polygon points="33.3,-27.3 36.7,-23.9 36.7,-22.7 33.3,-26.2 				"/>
				<polygon points="23.3,-27.3 26.7,-23.9 26.7,-22.7 23.3,-26.2 				"/>
				<polygon points="13.3,-27.3 16.7,-23.9 16.7,-22.7 13.3,-26.2 				"/>
				<polygon points="3.3,-27.3 6.7,-23.9 6.7,-22.7 3.3,-26.2 				"/>
			</g>
			<g>
				<polygon points="93.3,-37.3 96.7,-33.9 96.7,-32.7 93.3,-36.2 				"/>
				<polygon points="83.3,-37.3 86.7,-33.9 86.7,-32.7 83.3,-36.2 				"/>
				<polygon points="73.3,-37.3 76.7,-33.9 76.7,-32.7 73.3,-36.2 				"/>
				<polygon points="63.3,-37.3 66.7,-33.9 66.7,-32.7 63.3,-36.2 				"/>
				<polygon points="53.3,-37.3 56.7,-33.9 56.7,-32.7 53.3,-36.2 				"/>
				<polygon points="43.3,-37.3 46.7,-33.9 46.7,-32.7 43.3,-36.2 				"/>
				<polygon points="33.3,-37.3 36.7,-33.9 36.7,-32.7 33.3,-36.2 				"/>
				<polygon points="23.3,-37.3 26.7,-33.9 26.7,-32.7 23.3,-36.2 				"/>
				<polygon points="13.3,-37.3 16.7,-33.9 16.7,-32.7 13.3,-36.2 				"/>
				<polygon points="3.3,-37.3 6.7,-33.9 6.7,-32.7 3.3,-36.2 				"/>
			</g>
			<g>
				<polygon points="93.3,-47.3 96.7,-43.9 96.7,-42.7 93.3,-46.2 				"/>
				<polygon points="83.3,-47.3 86.7,-43.9 86.7,-42.7 83.3,-46.2 				"/>
				<polygon points="73.3,-47.3 76.7,-43.9 76.7,-42.7 73.3,-46.2 				"/>
				<polygon points="63.3,-47.3 66.7,-43.9 66.7,-42.7 63.3,-46.2 				"/>
				<polygon points="53.3,-47.3 56.7,-43.9 56.7,-42.7 53.3,-46.2 				"/>
				<polygon points="43.3,-47.3 46.7,-43.9 46.7,-42.7 43.3,-46.2 				"/>
				<polygon points="33.3,-47.3 36.7,-43.9 36.7,-42.7 33.3,-46.2 				"/>
				<polygon points="23.3,-47.3 26.7,-43.9 26.7,-42.7 23.3,-46.2 				"/>
				<polygon points="13.3,-47.3 16.7,-43.9 16.7,-42.7 13.3,-46.2 				"/>
				<polygon points="3.3,-47.3 6.7,-43.9 6.7,-42.7 3.3,-46.2 				"/>
			</g>
			<rect y="-100" fill="none" width="100" height="100"/>
		</g>
		<g>
			<g>
				<polygon points="-6.7,-57.3 -3.3,-53.9 -3.3,-52.7 -6.7,-56.2 				"/>
				<polygon points="-16.7,-57.3 -13.3,-53.9 -13.3,-52.7 -16.7,-56.2 				"/>
				<polygon points="-26.7,-57.3 -23.3,-53.9 -23.3,-52.7 -26.7,-56.2 				"/>
				<polygon points="-36.7,-57.3 -33.3,-53.9 -33.3,-52.7 -36.7,-56.2 				"/>
				<polygon points="-46.7,-57.3 -43.3,-53.9 -43.3,-52.7 -46.7,-56.2 				"/>
				<polygon points="-56.7,-57.3 -53.3,-53.9 -53.3,-52.7 -56.7,-56.2 				"/>
				<polygon points="-66.7,-57.3 -63.3,-53.9 -63.3,-52.7 -66.7,-56.2 				"/>
				<polygon points="-76.7,-57.3 -73.3,-53.9 -73.3,-52.7 -76.7,-56.2 				"/>
				<polygon points="-86.7,-57.3 -83.3,-53.9 -83.3,-52.7 -86.7,-56.2 				"/>
				<polygon points="-96.7,-57.3 -93.3,-53.9 -93.3,-52.7 -96.7,-56.2 				"/>
			</g>
			<g>
				<polygon points="-6.7,-67.3 -3.3,-63.9 -3.3,-62.7 -6.7,-66.2 				"/>
				<polygon points="-16.7,-67.3 -13.3,-63.9 -13.3,-62.7 -16.7,-66.2 				"/>
				<polygon points="-26.7,-67.3 -23.3,-63.9 -23.3,-62.7 -26.7,-66.2 				"/>
				<polygon points="-36.7,-67.3 -33.3,-63.9 -33.3,-62.7 -36.7,-66.2 				"/>
				<polygon points="-46.7,-67.3 -43.3,-63.9 -43.3,-62.7 -46.7,-66.2 				"/>
				<polygon points="-56.7,-67.3 -53.3,-63.9 -53.3,-62.7 -56.7,-66.2 				"/>
				<polygon points="-66.7,-67.3 -63.3,-63.9 -63.3,-62.7 -66.7,-66.2 				"/>
				<polygon points="-76.7,-67.3 -73.3,-63.9 -73.3,-62.7 -76.7,-66.2 				"/>
				<polygon points="-86.7,-67.3 -83.3,-63.9 -83.3,-62.7 -86.7,-66.2 				"/>
				<polygon points="-96.7,-67.3 -93.3,-63.9 -93.3,-62.7 -96.7,-66.2 				"/>
			</g>
			<g>
				<polygon points="-6.7,-77.3 -3.3,-73.9 -3.3,-72.7 -6.7,-76.2 				"/>
				<polygon points="-16.7,-77.3 -13.3,-73.9 -13.3,-72.7 -16.7,-76.2 				"/>
				<polygon points="-26.7,-77.3 -23.3,-73.9 -23.3,-72.7 -26.7,-76.2 				"/>
				<polygon points="-36.7,-77.3 -33.3,-73.9 -33.3,-72.7 -36.7,-76.2 				"/>
				<polygon points="-46.7,-77.3 -43.3,-73.9 -43.3,-72.7 -46.7,-76.2 				"/>
				<polygon points="-56.7,-77.3 -53.3,-73.9 -53.3,-72.7 -56.7,-76.2 				"/>
				<polygon points="-66.7,-77.3 -63.3,-73.9 -63.3,-72.7 -66.7,-76.2 				"/>
				<polygon points="-76.7,-77.3 -73.3,-73.9 -73.3,-72.7 -76.7,-76.2 				"/>
				<polygon points="-86.7,-77.3 -83.3,-73.9 -83.3,-72.7 -86.7,-76.2 				"/>
				<polygon points="-96.7,-77.3 -93.3,-73.9 -93.3,-72.7 -96.7,-76.2 				"/>
			</g>
			<g>
				<polygon points="-6.7,-87.3 -3.3,-83.9 -3.3,-82.7 -6.7,-86.2 				"/>
				<polygon points="-16.7,-87.3 -13.3,-83.9 -13.3,-82.7 -16.7,-86.2 				"/>
				<polygon points="-26.7,-87.3 -23.3,-83.9 -23.3,-82.7 -26.7,-86.2 				"/>
				<polygon points="-36.7,-87.3 -33.3,-83.9 -33.3,-82.7 -36.7,-86.2 				"/>
				<polygon points="-46.7,-87.3 -43.3,-83.9 -43.3,-82.7 -46.7,-86.2 				"/>
				<polygon points="-56.7,-87.3 -53.3,-83.9 -53.3,-82.7 -56.7,-86.2 				"/>
				<polygon points="-66.7,-87.3 -63.3,-83.9 -63.3,-82.7 -66.7,-86.2 				"/>
				<polygon points="-76.7,-87.3 -73.3,-83.9 -73.3,-82.7 -76.7,-86.2 				"/>
				<polygon points="-86.7,-87.3 -83.3,-83.9 -83.3,-82.7 -86.7,-86.2 				"/>
				<polygon points="-96.7,-87.3 -93.3,-83.9 -93.3,-82.7 -96.7,-86.2 				"/>
			</g>
			<g>
				<polygon points="-6.7,-97.3 -3.3,-93.8 -3.3,-92.7 -6.7,-96.2 				"/>
				<polygon points="-16.7,-97.3 -13.3,-93.8 -13.3,-92.7 -16.7,-96.2 				"/>
				<polygon points="-26.7,-97.3 -23.3,-93.8 -23.3,-92.7 -26.7,-96.2 				"/>
				<polygon points="-36.7,-97.3 -33.3,-93.8 -33.3,-92.7 -36.7,-96.2 				"/>
				<polygon points="-46.7,-97.3 -43.3,-93.8 -43.3,-92.7 -46.7,-96.2 				"/>
				<polygon points="-56.7,-97.3 -53.3,-93.8 -53.3,-92.7 -56.7,-96.2 				"/>
				<polygon points="-66.7,-97.3 -63.3,-93.8 -63.3,-92.7 -66.7,-96.2 				"/>
				<polygon points="-76.7,-97.3 -73.3,-93.8 -73.3,-92.7 -76.7,-96.2 				"/>
				<polygon points="-86.7,-97.3 -83.3,-93.8 -83.3,-92.7 -86.7,-96.2 				"/>
				<polygon points="-96.7,-97.3 -93.3,-93.8 -93.3,-92.7 -96.7,-96.2 				"/>
			</g>
			<g>
				<polygon points="-6.7,-7.3 -3.3,-3.9 -3.3,-2.7 -6.7,-6.1 				"/>
				<polygon points="-16.7,-7.3 -13.3,-3.9 -13.3,-2.7 -16.7,-6.1 				"/>
				<polygon points="-26.7,-7.3 -23.3,-3.9 -23.3,-2.7 -26.7,-6.1 				"/>
				<polygon points="-36.7,-7.3 -33.3,-3.9 -33.3,-2.7 -36.7,-6.1 				"/>
				<polygon points="-46.7,-7.3 -43.3,-3.9 -43.3,-2.7 -46.7,-6.1 				"/>
				<polygon points="-56.7,-7.3 -53.3,-3.9 -53.3,-2.7 -56.7,-6.1 				"/>
				<polygon points="-66.7,-7.3 -63.3,-3.9 -63.3,-2.7 -66.7,-6.1 				"/>
				<polygon points="-76.7,-7.3 -73.3,-3.9 -73.3,-2.7 -76.7,-6.1 				"/>
				<polygon points="-86.7,-7.3 -83.3,-3.9 -83.3,-2.7 -86.7,-6.1 				"/>
				<polygon points="-96.7,-7.3 -93.3,-3.9 -93.3,-2.7 -96.7,-6.1 				"/>
			</g>
			<g>
				<polygon points="-6.7,-17.3 -3.3,-13.9 -3.3,-12.7 -6.7,-16.1 				"/>
				<polygon points="-16.7,-17.3 -13.3,-13.9 -13.3,-12.7 -16.7,-16.1 				"/>
				<polygon points="-26.7,-17.3 -23.3,-13.9 -23.3,-12.7 -26.7,-16.1 				"/>
				<polygon points="-36.7,-17.3 -33.3,-13.9 -33.3,-12.7 -36.7,-16.1 				"/>
				<polygon points="-46.7,-17.3 -43.3,-13.9 -43.3,-12.7 -46.7,-16.1 				"/>
				<polygon points="-56.7,-17.3 -53.3,-13.9 -53.3,-12.7 -56.7,-16.1 				"/>
				<polygon points="-66.7,-17.3 -63.3,-13.9 -63.3,-12.7 -66.7,-16.1 				"/>
				<polygon points="-76.7,-17.3 -73.3,-13.9 -73.3,-12.7 -76.7,-16.1 				"/>
				<polygon points="-86.7,-17.3 -83.3,-13.9 -83.3,-12.7 -86.7,-16.1 				"/>
				<polygon points="-96.7,-17.3 -93.3,-13.9 -93.3,-12.7 -96.7,-16.1 				"/>
			</g>
			<g>
				<polygon points="-6.7,-27.3 -3.3,-23.9 -3.3,-22.7 -6.7,-26.2 				"/>
				<polygon points="-16.7,-27.3 -13.3,-23.9 -13.3,-22.7 -16.7,-26.2 				"/>
				<polygon points="-26.7,-27.3 -23.3,-23.9 -23.3,-22.7 -26.7,-26.2 				"/>
				<polygon points="-36.7,-27.3 -33.3,-23.9 -33.3,-22.7 -36.7,-26.2 				"/>
				<polygon points="-46.7,-27.3 -43.3,-23.9 -43.3,-22.7 -46.7,-26.2 				"/>
				<polygon points="-56.7,-27.3 -53.3,-23.9 -53.3,-22.7 -56.7,-26.2 				"/>
				<polygon points="-66.7,-27.3 -63.3,-23.9 -63.3,-22.7 -66.7,-26.2 				"/>
				<polygon points="-76.7,-27.3 -73.3,-23.9 -73.3,-22.7 -76.7,-26.2 				"/>
				<polygon points="-86.7,-27.3 -83.3,-23.9 -83.3,-22.7 -86.7,-26.2 				"/>
				<polygon points="-96.7,-27.3 -93.3,-23.9 -93.3,-22.7 -96.7,-26.2 				"/>
			</g>
			<g>
				<polygon points="-6.7,-37.3 -3.3,-33.9 -3.3,-32.7 -6.7,-36.2 				"/>
				<polygon points="-16.7,-37.3 -13.3,-33.9 -13.3,-32.7 -16.7,-36.2 				"/>
				<polygon points="-26.7,-37.3 -23.3,-33.9 -23.3,-32.7 -26.7,-36.2 				"/>
				<polygon points="-36.7,-37.3 -33.3,-33.9 -33.3,-32.7 -36.7,-36.2 				"/>
				<polygon points="-46.7,-37.3 -43.3,-33.9 -43.3,-32.7 -46.7,-36.2 				"/>
				<polygon points="-56.7,-37.3 -53.3,-33.9 -53.3,-32.7 -56.7,-36.2 				"/>
				<polygon points="-66.7,-37.3 -63.3,-33.9 -63.3,-32.7 -66.7,-36.2 				"/>
				<polygon points="-76.7,-37.3 -73.3,-33.9 -73.3,-32.7 -76.7,-36.2 				"/>
				<polygon points="-86.7,-37.3 -83.3,-33.9 -83.3,-32.7 -86.7,-36.2 				"/>
				<polygon points="-96.7,-37.3 -93.3,-33.9 -93.3,-32.7 -96.7,-36.2 				"/>
			</g>
			<g>
				<polygon points="-6.7,-47.3 -3.3,-43.9 -3.3,-42.7 -6.7,-46.2 				"/>
				<polygon points="-16.7,-47.3 -13.3,-43.9 -13.3,-42.7 -16.7,-46.2 				"/>
				<polygon points="-26.7,-47.3 -23.3,-43.9 -23.3,-42.7 -26.7,-46.2 				"/>
				<polygon points="-36.7,-47.3 -33.3,-43.9 -33.3,-42.7 -36.7,-46.2 				"/>
				<polygon points="-46.7,-47.3 -43.3,-43.9 -43.3,-42.7 -46.7,-46.2 				"/>
				<polygon points="-56.7,-47.3 -53.3,-43.9 -53.3,-42.7 -56.7,-46.2 				"/>
				<polygon points="-66.7,-47.3 -63.3,-43.9 -63.3,-42.7 -66.7,-46.2 				"/>
				<polygon points="-76.7,-47.3 -73.3,-43.9 -73.3,-42.7 -76.7,-46.2 				"/>
				<polygon points="-86.7,-47.3 -83.3,-43.9 -83.3,-42.7 -86.7,-46.2 				"/>
				<polygon points="-96.7,-47.3 -93.3,-43.9 -93.3,-42.7 -96.7,-46.2 				"/>
			</g>
			<rect x="-100" y="-100" fill="none" width="100" height="100"/>
		</g>
		<g>
			<g>
				<polygon points="193.3,-57.3 196.7,-53.9 196.7,-52.7 193.3,-56.2 				"/>
				<polygon points="183.3,-57.3 186.7,-53.9 186.7,-52.7 183.3,-56.2 				"/>
				<polygon points="173.3,-57.3 176.7,-53.9 176.7,-52.7 173.3,-56.2 				"/>
				<polygon points="163.3,-57.3 166.7,-53.9 166.7,-52.7 163.3,-56.2 				"/>
				<polygon points="153.3,-57.3 156.7,-53.9 156.7,-52.7 153.3,-56.2 				"/>
				<polygon points="143.3,-57.3 146.7,-53.9 146.7,-52.7 143.3,-56.2 				"/>
				<polygon points="133.3,-57.3 136.7,-53.9 136.7,-52.7 133.3,-56.2 				"/>
				<polygon points="123.3,-57.3 126.7,-53.9 126.7,-52.7 123.3,-56.2 				"/>
				<polygon points="113.3,-57.3 116.7,-53.9 116.7,-52.7 113.3,-56.2 				"/>
				<polygon points="103.3,-57.3 106.7,-53.9 106.7,-52.7 103.3,-56.2 				"/>
			</g>
			<g>
				<polygon points="193.3,-67.3 196.7,-63.9 196.7,-62.7 193.3,-66.2 				"/>
				<polygon points="183.3,-67.3 186.7,-63.9 186.7,-62.7 183.3,-66.2 				"/>
				<polygon points="173.3,-67.3 176.7,-63.9 176.7,-62.7 173.3,-66.2 				"/>
				<polygon points="163.3,-67.3 166.7,-63.9 166.7,-62.7 163.3,-66.2 				"/>
				<polygon points="153.3,-67.3 156.7,-63.9 156.7,-62.7 153.3,-66.2 				"/>
				<polygon points="143.3,-67.3 146.7,-63.9 146.7,-62.7 143.3,-66.2 				"/>
				<polygon points="133.3,-67.3 136.7,-63.9 136.7,-62.7 133.3,-66.2 				"/>
				<polygon points="123.3,-67.3 126.7,-63.9 126.7,-62.7 123.3,-66.2 				"/>
				<polygon points="113.3,-67.3 116.7,-63.9 116.7,-62.7 113.3,-66.2 				"/>
				<polygon points="103.3,-67.3 106.7,-63.9 106.7,-62.7 103.3,-66.2 				"/>
			</g>
			<g>
				<polygon points="193.3,-77.3 196.7,-73.9 196.7,-72.7 193.3,-76.2 				"/>
				<polygon points="183.3,-77.3 186.7,-73.9 186.7,-72.7 183.3,-76.2 				"/>
				<polygon points="173.3,-77.3 176.7,-73.9 176.7,-72.7 173.3,-76.2 				"/>
				<polygon points="163.3,-77.3 166.7,-73.9 166.7,-72.7 163.3,-76.2 				"/>
				<polygon points="153.3,-77.3 156.7,-73.9 156.7,-72.7 153.3,-76.2 				"/>
				<polygon points="143.3,-77.3 146.7,-73.9 146.7,-72.7 143.3,-76.2 				"/>
				<polygon points="133.3,-77.3 136.7,-73.9 136.7,-72.7 133.3,-76.2 				"/>
				<polygon points="123.3,-77.3 126.7,-73.9 126.7,-72.7 123.3,-76.2 				"/>
				<polygon points="113.3,-77.3 116.7,-73.9 116.7,-72.7 113.3,-76.2 				"/>
				<polygon points="103.3,-77.3 106.7,-73.9 106.7,-72.7 103.3,-76.2 				"/>
			</g>
			<g>
				<polygon points="193.3,-87.3 196.7,-83.9 196.7,-82.7 193.3,-86.2 				"/>
				<polygon points="183.3,-87.3 186.7,-83.9 186.7,-82.7 183.3,-86.2 				"/>
				<polygon points="173.3,-87.3 176.7,-83.9 176.7,-82.7 173.3,-86.2 				"/>
				<polygon points="163.3,-87.3 166.7,-83.9 166.7,-82.7 163.3,-86.2 				"/>
				<polygon points="153.3,-87.3 156.7,-83.9 156.7,-82.7 153.3,-86.2 				"/>
				<polygon points="143.3,-87.3 146.7,-83.9 146.7,-82.7 143.3,-86.2 				"/>
				<polygon points="133.3,-87.3 136.7,-83.9 136.7,-82.7 133.3,-86.2 				"/>
				<polygon points="123.3,-87.3 126.7,-83.9 126.7,-82.7 123.3,-86.2 				"/>
				<polygon points="113.3,-87.3 116.7,-83.9 116.7,-82.7 113.3,-86.2 				"/>
				<polygon points="103.3,-87.3 106.7,-83.9 106.7,-82.7 103.3,-86.2 				"/>
			</g>
			<g>
				<polygon points="193.3,-97.3 196.7,-93.8 196.7,-92.7 193.3,-96.2 				"/>
				<polygon points="183.3,-97.3 186.7,-93.8 186.7,-92.7 183.3,-96.2 				"/>
				<polygon points="173.3,-97.3 176.7,-93.8 176.7,-92.7 173.3,-96.2 				"/>
				<polygon points="163.3,-97.3 166.7,-93.8 166.7,-92.7 163.3,-96.2 				"/>
				<polygon points="153.3,-97.3 156.7,-93.8 156.7,-92.7 153.3,-96.2 				"/>
				<polygon points="143.3,-97.3 146.7,-93.8 146.7,-92.7 143.3,-96.2 				"/>
				<polygon points="133.3,-97.3 136.7,-93.8 136.7,-92.7 133.3,-96.2 				"/>
				<polygon points="123.3,-97.3 126.7,-93.8 126.7,-92.7 123.3,-96.2 				"/>
				<polygon points="113.3,-97.3 116.7,-93.8 116.7,-92.7 113.3,-96.2 				"/>
				<polygon points="103.3,-97.3 106.7,-93.8 106.7,-92.7 103.3,-96.2 				"/>
			</g>
			<g>
				<polygon points="193.3,-7.3 196.7,-3.9 196.7,-2.7 193.3,-6.1 				"/>
				<polygon points="183.3,-7.3 186.7,-3.9 186.7,-2.7 183.3,-6.1 				"/>
				<polygon points="173.3,-7.3 176.7,-3.9 176.7,-2.7 173.3,-6.1 				"/>
				<polygon points="163.3,-7.3 166.7,-3.9 166.7,-2.7 163.3,-6.1 				"/>
				<polygon points="153.3,-7.3 156.7,-3.9 156.7,-2.7 153.3,-6.1 				"/>
				<polygon points="143.3,-7.3 146.7,-3.9 146.7,-2.7 143.3,-6.1 				"/>
				<polygon points="133.3,-7.3 136.7,-3.9 136.7,-2.7 133.3,-6.1 				"/>
				<polygon points="123.3,-7.3 126.7,-3.9 126.7,-2.7 123.3,-6.1 				"/>
				<polygon points="113.3,-7.3 116.7,-3.9 116.7,-2.7 113.3,-6.1 				"/>
				<polygon points="103.3,-7.3 106.7,-3.9 106.7,-2.7 103.3,-6.1 				"/>
			</g>
			<g>
				<polygon points="193.3,-17.3 196.7,-13.9 196.7,-12.7 193.3,-16.1 				"/>
				<polygon points="183.3,-17.3 186.7,-13.9 186.7,-12.7 183.3,-16.1 				"/>
				<polygon points="173.3,-17.3 176.7,-13.9 176.7,-12.7 173.3,-16.1 				"/>
				<polygon points="163.3,-17.3 166.7,-13.9 166.7,-12.7 163.3,-16.1 				"/>
				<polygon points="153.3,-17.3 156.7,-13.9 156.7,-12.7 153.3,-16.1 				"/>
				<polygon points="143.3,-17.3 146.7,-13.9 146.7,-12.7 143.3,-16.1 				"/>
				<polygon points="133.3,-17.3 136.7,-13.9 136.7,-12.7 133.3,-16.1 				"/>
				<polygon points="123.3,-17.3 126.7,-13.9 126.7,-12.7 123.3,-16.1 				"/>
				<polygon points="113.3,-17.3 116.7,-13.9 116.7,-12.7 113.3,-16.1 				"/>
				<polygon points="103.3,-17.3 106.7,-13.9 106.7,-12.7 103.3,-16.1 				"/>
			</g>
			<g>
				<polygon points="193.3,-27.3 196.7,-23.9 196.7,-22.7 193.3,-26.2 				"/>
				<polygon points="183.3,-27.3 186.7,-23.9 186.7,-22.7 183.3,-26.2 				"/>
				<polygon points="173.3,-27.3 176.7,-23.9 176.7,-22.7 173.3,-26.2 				"/>
				<polygon points="163.3,-27.3 166.7,-23.9 166.7,-22.7 163.3,-26.2 				"/>
				<polygon points="153.3,-27.3 156.7,-23.9 156.7,-22.7 153.3,-26.2 				"/>
				<polygon points="143.3,-27.3 146.7,-23.9 146.7,-22.7 143.3,-26.2 				"/>
				<polygon points="133.3,-27.3 136.7,-23.9 136.7,-22.7 133.3,-26.2 				"/>
				<polygon points="123.3,-27.3 126.7,-23.9 126.7,-22.7 123.3,-26.2 				"/>
				<polygon points="113.3,-27.3 116.7,-23.9 116.7,-22.7 113.3,-26.2 				"/>
				<polygon points="103.3,-27.3 106.7,-23.9 106.7,-22.7 103.3,-26.2 				"/>
			</g>
			<g>
				<polygon points="193.3,-37.3 196.7,-33.9 196.7,-32.7 193.3,-36.2 				"/>
				<polygon points="183.3,-37.3 186.7,-33.9 186.7,-32.7 183.3,-36.2 				"/>
				<polygon points="173.3,-37.3 176.7,-33.9 176.7,-32.7 173.3,-36.2 				"/>
				<polygon points="163.3,-37.3 166.7,-33.9 166.7,-32.7 163.3,-36.2 				"/>
				<polygon points="153.3,-37.3 156.7,-33.9 156.7,-32.7 153.3,-36.2 				"/>
				<polygon points="143.3,-37.3 146.7,-33.9 146.7,-32.7 143.3,-36.2 				"/>
				<polygon points="133.3,-37.3 136.7,-33.9 136.7,-32.7 133.3,-36.2 				"/>
				<polygon points="123.3,-37.3 126.7,-33.9 126.7,-32.7 123.3,-36.2 				"/>
				<polygon points="113.3,-37.3 116.7,-33.9 116.7,-32.7 113.3,-36.2 				"/>
				<polygon points="103.3,-37.3 106.7,-33.9 106.7,-32.7 103.3,-36.2 				"/>
			</g>
			<g>
				<polygon points="193.3,-47.3 196.7,-43.9 196.7,-42.7 193.3,-46.2 				"/>
				<polygon points="183.3,-47.3 186.7,-43.9 186.7,-42.7 183.3,-46.2 				"/>
				<polygon points="173.3,-47.3 176.7,-43.9 176.7,-42.7 173.3,-46.2 				"/>
				<polygon points="163.3,-47.3 166.7,-43.9 166.7,-42.7 163.3,-46.2 				"/>
				<polygon points="153.3,-47.3 156.7,-43.9 156.7,-42.7 153.3,-46.2 				"/>
				<polygon points="143.3,-47.3 146.7,-43.9 146.7,-42.7 143.3,-46.2 				"/>
				<polygon points="133.3,-47.3 136.7,-43.9 136.7,-42.7 133.3,-46.2 				"/>
				<polygon points="123.3,-47.3 126.7,-43.9 126.7,-42.7 123.3,-46.2 				"/>
				<polygon points="113.3,-47.3 116.7,-43.9 116.7,-42.7 113.3,-46.2 				"/>
				<polygon points="103.3,-47.3 106.7,-43.9 106.7,-42.7 103.3,-46.2 				"/>
			</g>
			<rect x="100" y="-100" fill="none" width="100" height="100"/>
		</g>
	</g>
</g>
</svg>
