<?xml version="1.0" encoding="iso-8859-1"?>
<!-- Generator: Adobe Illustrator 22.1.0, SVG Export Plug-In . SVG Version: 6.00 Build 0)  -->
<svg version="1.1" xmlns="http://www.w3.org/2000/svg" xmlns:xlink="http://www.w3.org/1999/xlink" x="0px" y="0px" width="100px"
	 height="100px" viewBox="0 0 100 100" enable-background="new 0 0 100 100" xml:space="preserve">
<pattern  x="-50" y="-50" width="694.5" height="694.5" patternUnits="userSpaceOnUse" id="Sylvan_Pattern_1" viewBox="0 -694.5 694.5 694.5" overflow="visible">
	<g>
		<rect y="-694.5" fill="none" width="694.5" height="694.5"/>
		<g>
			<path fill="#231F20" d="M110-669.9L110-669.9c2.7,2.7,7.1,2.7,9.8,0l24.6-24.6h-19.6L110-679.7C107.3-677,107.3-672.6,110-669.9z
				"/>
			<path fill="#231F20" d="M249.5-669.9c2.7,2.7,7.1,2.7,9.8,0l24.6-24.6h-19.6l-14.7,14.7C246.8-677,246.8-672.6,249.5-669.9z"/>
			<path fill="#231F20" d="M238.7-650.3L238.7-650.3c2.7-2.7,2.7-7.1,0-9.8l-34.4-34.4h-19.6l44.2,44.2
				C231.6-647.6,236-647.6,238.7-650.3z"/>
			<path fill="#231F20" d="M99.2-650.3L99.2-650.3c2.7-2.7,2.7-7.1,0-9.8l-34.4-34.4H45.2l44.2,44.2
				C92.1-647.6,96.5-647.6,99.2-650.3z"/>
			<path fill="#231F20" d="M388-669.9c2.7,2.7,7.1,2.7,9.8,0l24.6-24.6h-19.6L388-679.7C385.3-677,385.3-672.6,388-669.9z"/>
			<path fill="#231F20" d="M525.5-669.9c2.7,2.7,7.1,2.7,9.8,0l24.6-24.6h-19.6l-14.8,14.8C522.8-677,522.8-672.6,525.5-669.9z"/>
			<path fill="#231F20" d="M515.7-650.3L515.7-650.3c2.7-2.7,2.7-7.1,0-9.8l-34.4-34.4h-19.6l44.2,44.2
				C508.6-647.6,513-647.6,515.7-650.3z"/>
			<path fill="#231F20" d="M378.2-650.3c2.7-2.7,2.7-7.1,0-9.8l-34.4-34.4h-19.6l44.2,44.2C371.1-647.6,375.5-647.6,378.2-650.3z"/>
			<path fill="#231F20" d="M665-669.9c2.7,2.7,7.1,2.7,9.8,0l19.6-19.6v-4.9h-14.7L665-679.7C662.3-677,662.3-672.6,665-669.9z"/>
			<polygon fill="#231F20" points="0,-694.5 0,-689.6 4.9,-694.5 			"/>
			<path fill="#231F20" d="M654.2-650.3c2.7-2.7,2.7-7.1,0-9.8l-34.4-34.4h-19.6l44.2,44.2C647.1-647.5,651.5-647.5,654.2-650.3z"/>
			<path fill="#231F20" d="M159.1-75.2L110-26.1c-2.7,2.7-2.7,7.1,0,9.8l0,0c2.7,2.7,7.1,2.7,9.8,0L169-65.4c2.7-2.7,2.7-7.1,0-9.8
				C166.2-77.9,161.8-77.9,159.1-75.2z"/>
			<path fill="#231F20" d="M298.6-75.2l-49.1,49.1c-2.7,2.7-2.7,7.1,0,9.8l0,0c2.7,2.7,7.1,2.7,9.8,0l49.1-49.1
				c2.7-2.7,2.7-7.1,0-9.8C305.7-77.9,301.3-77.9,298.6-75.2z"/>
			<path fill="#231F20" d="M238.7-6.5l-49.1-49.1c-2.7-2.7-7.1-2.7-9.8,0l0,0c-2.7,2.7-2.7,7.1,0,9.8L225.6,0h15
				C241.1-2.3,240.5-4.7,238.7-6.5z"/>
			<path fill="#231F20" d="M99.2-6.5L50.1-55.6c-2.7-2.7-7.1-2.7-9.8,0c-2.7,2.7-2.7,7.1,0,9.8L86,0h15C101.6-2.3,101-4.7,99.2-6.5z
				"/>
			<path fill="#231F20" d="M447-75.2c-2.7-2.7-7.1-2.7-9.8,0L388-26.1c-2.7,2.7-2.7,7.1,0,9.8c2.7,2.7,7.1,2.7,9.8,0L447-65.4
				C449.7-68.1,449.7-72.5,447-75.2L447-75.2z"/>
			<path fill="#231F20" d="M584.5-75.2c-2.7-2.7-7.1-2.7-9.8,0l-49.1,49.1c-2.7,2.7-2.7,7.1,0,9.8c2.7,2.7,7.1,2.7,9.8,0l49.1-49.1
				C587.2-68.1,587.2-72.5,584.5-75.2L584.5-75.2z"/>
			<path fill="#231F20" d="M515.7-6.5l-49.1-49.1c-2.7-2.7-7.1-2.7-9.8,0l0,0c-2.7,2.7-2.7,7.1,0,9.8L502.5,0h15
				C518.1-2.3,517.5-4.7,515.7-6.5z"/>
			<path fill="#231F20" d="M378.2-6.5l-49.1-49.1c-2.7-2.7-7.1-2.7-9.8,0c-2.7,2.7-2.7,7.1,0,9.8L365,0h15
				C380.6-2.3,379.9-4.7,378.2-6.5z"/>
			<path fill="#231F20" d="M665-16.3L665-16.3c2.7,2.7,7.1,2.7,9.8,0l19.6-19.6v-19.6L665-26.1C662.3-23.4,662.3-19,665-16.3z"/>
			<path fill="#231F20" d="M29.5-75.2c-2.7-2.7-7.1-2.7-9.8,0L0-55.6v19.6l29.5-29.5C32.2-68.1,32.2-72.5,29.5-75.2z"/>
			<path fill="#231F20" d="M654.2-6.4l-49.1-49.1c-2.7-2.7-7.1-2.7-9.8,0h0c-2.7,2.7-2.7,7.1,0,9.8L641,0h15.1
				C656.6-2.2,656-4.7,654.2-6.4z"/>
			<path fill="#231F20" d="M238.7-691.2L238.7-691.2c0.9-0.9,1.6-2.1,1.8-3.3h-15l3.3,3.3C231.6-688.5,236-688.5,238.7-691.2z"/>
			<path fill="#231F20" d="M99.2-691.2L99.2-691.2c1-1,1.6-2.1,1.8-3.3H86l3.3,3.3C92.1-688.4,96.5-688.4,99.2-691.2z"/>
			<path fill="#231F20" d="M515.7-691.1L515.7-691.1c1-1,1.6-2.1,1.8-3.3h-15l3.3,3.3C508.6-688.4,513-688.4,515.7-691.1z"/>
			<path fill="#231F20" d="M378.2-691.1c1-1,1.6-2.1,1.9-3.4h-15l3.4,3.4C371.1-688.4,375.5-688.4,378.2-691.1z"/>
			<path fill="#231F20" d="M654.2-691.1c1-1,1.6-2.1,1.9-3.4H641l3.4,3.4C647.1-688.4,651.5-688.4,654.2-691.1z"/>
			<path fill="#231F20" d="M159.1-688L110-638.9c-2.7,2.7-2.7,7.1,0,9.8l0,0c2.7,2.7,7.1,2.7,9.8,0l49.1-49.1c2.7-2.7,2.7-7.1,0-9.8
				C166.2-690.7,161.8-690.7,159.1-688z"/>
			<path fill="#231F20" d="M298.6-688l-49.1,49.1c-2.7,2.7-2.7,7.1,0,9.8c2.7,2.7,7.1,2.7,9.8,0l49.1-49.1c2.7-2.7,2.7-7.1,0-9.8
				C305.7-690.7,301.3-690.7,298.6-688z"/>
			<path fill="#231F20" d="M189.6-668.4c-2.7-2.7-7.1-2.7-9.8,0l0,0c-2.7,2.7-2.7,7.1,0,9.8l49.1,49.1c2.7,2.7,7.1,2.7,9.8,0l0,0
				c2.7-2.7,2.7-7.1,0-9.8L189.6-668.4z"/>
			<path fill="#231F20" d="M50.1-668.4c-2.7-2.7-7.1-2.7-9.8,0c-2.7,2.7-2.7,7.1,0,9.8l49.1,49.1c2.7,2.7,7.1,2.7,9.8,0h0
				c2.7-2.7,2.7-7.1,0-9.8L50.1-668.4z"/>
			<path fill="#231F20" d="M447-688c-2.7-2.7-7.1-2.7-9.8,0L388-638.9c-2.7,2.7-2.7,7.1,0,9.8c2.7,2.7,7.1,2.7,9.8,0l49.1-49.1
				C449.7-680.9,449.7-685.3,447-688L447-688z"/>
			<path fill="#231F20" d="M584.5-688c-2.7-2.7-7.1-2.7-9.8,0l-49.1,49.1c-2.7,2.7-2.7,7.1,0,9.8c2.7,2.7,7.1,2.7,9.8,0l49.1-49.1
				C587.2-680.9,587.2-685.3,584.5-688L584.5-688z"/>
			<path fill="#231F20" d="M466.6-668.4c-2.7-2.7-7.1-2.7-9.8,0v0c-2.7,2.7-2.7,7.1,0,9.8l49.1,49.1c2.7,2.7,7.1,2.7,9.8,0h0
				c2.7-2.7,2.7-7.1,0-9.8L466.6-668.4z"/>
			<path fill="#231F20" d="M329.1-668.4c-2.7-2.7-7.1-2.7-9.8,0c-2.7,2.7-2.7,7.1,0,9.8l49.1,49.1c2.7,2.7,7.1,2.7,9.8,0l0,0
				c2.7-2.7,2.7-7.1,0-9.8L329.1-668.4z"/>
			<path fill="#231F20" d="M665-629.1c2.7,2.7,7.1,2.7,9.8,0l19.6-19.6v-19.6L665-638.9C662.3-636.2,662.3-631.8,665-629.1z"/>
			<path fill="#231F20" d="M29.5-688c-2.7-2.7-7.1-2.7-9.8,0L0-668.4v19.6l29.5-29.5C32.2-680.9,32.2-685.3,29.5-688z"/>
			<path fill="#231F20" d="M605.1-668.3c-2.7-2.7-7.1-2.7-9.8,0h0c-2.7,2.7-2.7,7.1,0,9.8l49.1,49.1c2.7,2.7,7.1,2.7,9.8,0
				c2.7-2.7,2.7-7.1,0-9.8L605.1-668.3z"/>
			<path fill="#231F20" d="M159.1-647.1L110-598c-2.7,2.7-2.7,7.1,0,9.8l0,0c2.7,2.7,7.1,2.7,9.8,0l49.1-49.1c2.7-2.7,2.7-7.1,0-9.8
				C166.2-649.9,161.8-649.9,159.1-647.1z"/>
			<path fill="#231F20" d="M298.6-647.1L249.5-598c-2.7,2.7-2.7,7.1,0,9.8l0,0c2.7,2.7,7.1,2.7,9.8,0l49.1-49.1
				c2.7-2.7,2.7-7.1,0-9.8C305.7-649.9,301.3-649.9,298.6-647.1z"/>
			<path fill="#231F20" d="M189.6-627.5c-2.7-2.7-7.1-2.7-9.8,0c-2.7,2.7-2.7,7.1,0,9.8l49.1,49.1c2.7,2.7,7.1,2.7,9.8,0l0,0
				c2.7-2.7,2.7-7.1,0-9.8L189.6-627.5z"/>
			<path fill="#231F20" d="M50.1-627.5c-2.7-2.7-7.1-2.7-9.8,0l0,0c-2.7,2.7-2.7,7.1,0,9.8l49.1,49.1c2.7,2.7,7.1,2.7,9.8,0h0
				c2.7-2.7,2.7-7.1,0-9.8L50.1-627.5z"/>
			<path fill="#231F20" d="M447-647.1c-2.7-2.7-7.1-2.7-9.8,0L388-598c-2.7,2.7-2.7,7.1,0,9.8l0,0c2.7,2.7,7.1,2.7,9.8,0l49.1-49.1
				C449.7-640,449.7-644.4,447-647.1L447-647.1z"/>
			<path fill="#231F20" d="M584.5-647.1c-2.7-2.7-7.1-2.7-9.8,0L525.5-598c-2.7,2.7-2.7,7.1,0,9.8l0,0c2.7,2.7,7.1,2.7,9.8,0
				l49.1-49.1C587.2-640,587.2-644.4,584.5-647.1L584.5-647.1z"/>
			<path fill="#231F20" d="M466.6-627.5c-2.7-2.7-7.1-2.7-9.8,0c-2.7,2.7-2.7,7.1,0,9.8l49.1,49.1c2.7,2.7,7.1,2.7,9.8,0h0
				c2.7-2.7,2.7-7.1,0-9.8L466.6-627.5z"/>
			<path fill="#231F20" d="M329.1-627.5c-2.7-2.7-7.1-2.7-9.8,0c-2.7,2.7-2.7,7.1,0,9.8l49.1,49.1c2.7,2.7,7.1,2.7,9.8,0
				c2.7-2.7,2.7-7.1,0-9.8L329.1-627.5z"/>
			<path fill="#231F20" d="M665-588.2L665-588.2c2.7,2.7,7.1,2.7,9.8,0l19.6-19.6v-19.6L665-598C662.3-595.3,662.3-590.9,665-588.2z
				"/>
			<path fill="#231F20" d="M29.5-647.1c-2.7-2.7-7.1-2.7-9.8,0L0-627.5v19.6l29.5-29.5C32.2-640,32.2-644.4,29.5-647.1z"/>
			<path fill="#231F20" d="M605.1-627.5c-2.7-2.7-7.1-2.7-9.8,0h0c-2.7,2.7-2.7,7.1,0,9.8l49.1,49.1c2.7,2.7,7.1,2.7,9.8,0l0,0
				c2.7-2.7,2.7-7.1,0-9.8L605.1-627.5z"/>
			<path fill="#231F20" d="M169-606.3c-2.7-2.7-7.1-2.7-9.8,0L110-557.2c-2.7,2.7-2.7,7.1,0,9.8l0,0c2.7,2.7,7.1,2.7,9.8,0
				l49.1-49.1C171.7-599.2,171.7-603.6,169-606.3L169-606.3z"/>
			<path fill="#231F20" d="M308.4-606.3c-2.7-2.7-7.1-2.7-9.8,0l-49.1,49.1c-2.7,2.7-2.7,7.1,0,9.8c2.7,2.7,7.1,2.7,9.8,0l49.1-49.1
				C311.2-599.2,311.2-603.6,308.4-606.3L308.4-606.3z"/>
			<path fill="#231F20" d="M189.6-586.7c-2.7-2.7-7.1-2.7-9.8,0c-2.7,2.7-2.7,7.1,0,9.8l49.1,49.1c2.7,2.7,7.1,2.7,9.8,0l0,0
				c2.7-2.7,2.7-7.1,0-9.8L189.6-586.7z"/>
			<path fill="#231F20" d="M50.1-586.7c-2.7-2.7-7.1-2.7-9.8,0l0,0c-2.7,2.7-2.7,7.1,0,9.8l49.1,49.1c2.7,2.7,7.1,2.7,9.8,0h0
				c2.7-2.7,2.7-7.1,0-9.8L50.1-586.7z"/>
			<path fill="#231F20" d="M447-606.3c-2.7-2.7-7.1-2.7-9.8,0L388-557.2c-2.7,2.7-2.7,7.1,0,9.8c2.7,2.7,7.1,2.7,9.8,0l49.1-49.1
				C449.7-599.2,449.7-603.6,447-606.3L447-606.3z"/>
			<path fill="#231F20" d="M584.5-606.3c-2.7-2.7-7.1-2.7-9.8,0l-49.1,49.1c-2.7,2.7-2.7,7.1,0,9.8c2.7,2.7,7.1,2.7,9.8,0l49.1-49.1
				C587.2-599.2,587.2-603.6,584.5-606.3L584.5-606.3z"/>
			<path fill="#231F20" d="M466.6-586.7c-2.7-2.7-7.1-2.7-9.8,0c-2.7,2.7-2.7,7.1,0,9.8l49.1,49.1c2.7,2.7,7.1,2.7,9.8,0h0
				c2.7-2.7,2.7-7.1,0-9.8L466.6-586.7z"/>
			<path fill="#231F20" d="M329.1-586.6c-2.7-2.7-7.1-2.7-9.8,0v0c-2.7,2.7-2.7,7.1,0,9.8l49.1,49.1c2.7,2.7,7.1,2.7,9.8,0
				c2.7-2.7,2.7-7.1,0-9.8L329.1-586.6z"/>
			<path fill="#231F20" d="M665-547.4c2.7,2.7,7.1,2.7,9.8,0l19.6-19.6v-19.6L665-557.2C662.3-554.5,662.3-550.1,665-547.4z"/>
			<path fill="#231F20" d="M29.5-606.3L29.5-606.3c-2.7-2.7-7.1-2.7-9.8,0L0-586.6v19.6l29.5-29.5C32.2-599.2,32.2-603.6,29.5-606.3
				z"/>
			<path fill="#231F20" d="M605.1-586.6c-2.7-2.7-7.1-2.7-9.8,0h0c-2.7,2.7-2.7,7.1,0,9.8l49.1,49.1c2.7,2.7,7.1,2.7,9.8,0
				c2.7-2.7,2.7-7.1,0-9.8L605.1-586.6z"/>
			<path fill="#231F20" d="M159.1-565.4L110-516.3c-2.7,2.7-2.7,7.1,0,9.8l0,0c2.7,2.7,7.1,2.7,9.8,0l49.1-49.1
				c2.7-2.7,2.7-7.1,0-9.8C166.2-568.2,161.8-568.2,159.1-565.4z"/>
			<path fill="#231F20" d="M298.6-565.4l-49.1,49.1c-2.7,2.7-2.7,7.1,0,9.8c2.7,2.7,7.1,2.7,9.8,0l49.1-49.1c2.7-2.7,2.7-7.1,0-9.8
				C305.7-568.2,301.3-568.2,298.6-565.4z"/>
			<path fill="#231F20" d="M189.6-545.8c-2.7-2.7-7.1-2.7-9.8,0v0c-2.7,2.7-2.7,7.1,0,9.8l49.1,49.1c2.7,2.7,7.1,2.7,9.8,0l0,0
				c2.7-2.7,2.7-7.1,0-9.8L189.6-545.8z"/>
			<path fill="#231F20" d="M50.1-545.8c-2.7-2.7-7.1-2.7-9.8,0c-2.7,2.7-2.7,7.1,0,9.8l49.1,49.1c2.7,2.7,7.1,2.7,9.8,0h0
				c2.7-2.7,2.7-7.1,0-9.8L50.1-545.8z"/>
			<path fill="#231F20" d="M447-565.4c-2.7-2.7-7.1-2.7-9.8,0L388-516.3c-2.7,2.7-2.7,7.1,0,9.8c2.7,2.7,7.1,2.7,9.8,0l49.1-49.1
				C449.7-558.3,449.7-562.7,447-565.4L447-565.4z"/>
			<path fill="#231F20" d="M584.5-565.4c-2.7-2.7-7.1-2.7-9.8,0l-49.1,49.1c-2.7,2.7-2.7,7.1,0,9.8c2.7,2.7,7.1,2.7,9.8,0l49.1-49.1
				C587.2-558.3,587.2-562.7,584.5-565.4L584.5-565.4z"/>
			<path fill="#231F20" d="M466.6-545.8c-2.7-2.7-7.1-2.7-9.8,0c-2.7,2.7-2.7,7.1,0,9.8l49.1,49.1c2.7,2.7,7.1,2.7,9.8,0h0
				c2.7-2.7,2.7-7.1,0-9.8L466.6-545.8z"/>
			<path fill="#231F20" d="M329.1-545.8c-2.7-2.7-7.1-2.7-9.8,0c-2.7,2.7-2.7,7.1,0,9.8l49.1,49.1c2.7,2.7,7.1,2.7,9.8,0
				c2.7-2.7,2.7-7.1,0-9.8L329.1-545.8z"/>
			<path fill="#231F20" d="M665-506.5c2.7,2.7,7.1,2.7,9.8,0l19.6-19.6v-19.6L665-516.3C662.3-513.6,662.3-509.2,665-506.5z"/>
			<path fill="#231F20" d="M29.5-565.4c-2.7-2.7-7.1-2.7-9.8,0L0-545.8v19.6l29.5-29.5C32.2-558.3,32.2-562.7,29.5-565.4z"/>
			<path fill="#231F20" d="M605.1-545.8c-2.7-2.7-7.1-2.7-9.8,0h0c-2.7,2.7-2.7,7.1,0,9.8l49.1,49.1c2.7,2.7,7.1,2.7,9.8,0
				s2.7-7.1,0-9.8L605.1-545.8z"/>
			<path fill="#231F20" d="M159.1-524.6L110-475.5c-2.7,2.7-2.7,7.1,0,9.8l0,0c2.7,2.7,7.1,2.7,9.8,0l49.1-49.1
				c2.7-2.7,2.7-7.1,0-9.8C166.2-527.3,161.8-527.3,159.1-524.6z"/>
			<path fill="#231F20" d="M298.6-524.6l-49.1,49.1c-2.7,2.7-2.7,7.1,0,9.8l0,0c2.7,2.7,7.1,2.7,9.8,0l49.1-49.1
				c2.7-2.7,2.7-7.1,0-9.8C305.7-527.3,301.3-527.3,298.6-524.6z"/>
			<path fill="#231F20" d="M189.6-505c-2.7-2.7-7.1-2.7-9.8,0l0,0c-2.7,2.7-2.7,7.1,0,9.8l49.1,49.1c2.7,2.7,7.1,2.7,9.8,0l0,0
				c2.7-2.7,2.7-7.1,0-9.8L189.6-505z"/>
			<path fill="#231F20" d="M50.1-505c-2.7-2.7-7.1-2.7-9.8,0c-2.7,2.7-2.7,7.1,0,9.8L89.4-446c2.7,2.7,7.1,2.7,9.8,0h0
				c2.7-2.7,2.7-7.1,0-9.8L50.1-505z"/>
			<path fill="#231F20" d="M447-524.6c-2.7-2.7-7.1-2.7-9.8,0L388-475.5c-2.7,2.7-2.7,7.1,0,9.8c2.7,2.7,7.1,2.7,9.8,0l49.1-49.1
				C449.7-517.5,449.7-521.9,447-524.6L447-524.6z"/>
			<path fill="#231F20" d="M584.5-524.6c-2.7-2.7-7.1-2.7-9.8,0l-49.1,49.1c-2.7,2.7-2.7,7.1,0,9.8c2.7,2.7,7.1,2.7,9.8,0l49.1-49.1
				C587.2-517.5,587.2-521.9,584.5-524.6L584.5-524.6z"/>
			<path fill="#231F20" d="M466.6-505c-2.7-2.7-7.1-2.7-9.8,0l0,0c-2.7,2.7-2.7,7.1,0,9.8l49.1,49.1c2.7,2.7,7.1,2.7,9.8,0h0
				c2.7-2.7,2.7-7.1,0-9.8L466.6-505z"/>
			<path fill="#231F20" d="M329.1-504.9c-2.7-2.7-7.1-2.7-9.8,0c-2.7,2.7-2.7,7.1,0,9.8l49.1,49.1c2.7,2.7,7.1,2.7,9.8,0l0,0
				c2.7-2.7,2.7-7.1,0-9.8L329.1-504.9z"/>
			<path fill="#231F20" d="M665-465.7L665-465.7c2.7,2.7,7.1,2.7,9.8,0l19.6-19.6v-19.6L665-475.5
				C662.3-472.8,662.3-468.4,665-465.7z"/>
			<path fill="#231F20" d="M29.5-524.6c-2.7-2.7-7.1-2.7-9.8,0L0-504.9v19.6l29.5-29.5C32.2-517.5,32.2-521.9,29.5-524.6z"/>
			<path fill="#231F20" d="M605.1-504.9c-2.7-2.7-7.1-2.7-9.8,0h0c-2.7,2.7-2.7,7.1,0,9.8l49.1,49.1c2.7,2.7,7.1,2.7,9.8,0v0
				c2.7-2.7,2.7-7.1,0-9.8L605.1-504.9z"/>
			<path fill="#231F20" d="M159.1-483.7L110-434.6c-2.7,2.7-2.7,7.1,0,9.8l0,0c2.7,2.7,7.1,2.7,9.8,0l49.1-49.1
				c2.7-2.7,2.7-7.1,0-9.8C166.2-486.4,161.8-486.4,159.1-483.7z"/>
			<path fill="#231F20" d="M298.6-483.7l-49.1,49.1c-2.7,2.7-2.7,7.1,0,9.8l0,0c2.7,2.7,7.1,2.7,9.8,0l49.1-49.1
				c2.7-2.7,2.7-7.1,0-9.8C305.7-486.4,301.3-486.4,298.6-483.7z"/>
			<path fill="#231F20" d="M189.6-464.1c-2.7-2.7-7.1-2.7-9.8,0c-2.7,2.7-2.7,7.1,0,9.8l49.1,49.1c2.7,2.7,7.1,2.7,9.8,0l0,0
				c2.7-2.7,2.7-7.1,0-9.8L189.6-464.1z"/>
			<path fill="#231F20" d="M50.1-464.1c-2.7-2.7-7.1-2.7-9.8,0v0c-2.7,2.7-2.7,7.1,0,9.8l49.1,49.1c2.7,2.7,7.1,2.7,9.8,0h0
				c2.7-2.7,2.7-7.1,0-9.8L50.1-464.1z"/>
			<path fill="#231F20" d="M447-483.7c-2.7-2.7-7.1-2.7-9.8,0L388-434.6c-2.7,2.7-2.7,7.1,0,9.8l0,0c2.7,2.7,7.1,2.7,9.8,0
				l49.1-49.1C449.7-476.6,449.7-481,447-483.7L447-483.7z"/>
			<path fill="#231F20" d="M584.5-483.7c-2.7-2.7-7.1-2.7-9.8,0l-49.1,49.1c-2.7,2.7-2.7,7.1,0,9.8l0,0c2.7,2.7,7.1,2.7,9.8,0
				l49.1-49.1C587.2-476.6,587.2-481,584.5-483.7L584.5-483.7z"/>
			<path fill="#231F20" d="M466.6-464.1c-2.7-2.7-7.1-2.7-9.8,0c-2.7,2.7-2.7,7.1,0,9.8l49.1,49.1c2.7,2.7,7.1,2.7,9.8,0h0
				c2.7-2.7,2.7-7.1,0-9.8L466.6-464.1z"/>
			<path fill="#231F20" d="M329.1-464.1c-2.7-2.7-7.1-2.7-9.8,0l0,0c-2.7,2.7-2.7,7.1,0,9.8l49.1,49.1c2.7,2.7,7.1,2.7,9.8,0
				c2.7-2.7,2.7-7.1,0-9.8L329.1-464.1z"/>
			<path fill="#231F20" d="M665-424.8L665-424.8c2.7,2.7,7.1,2.7,9.8,0l19.6-19.6v-19.6L665-434.6
				C662.3-431.9,662.3-427.5,665-424.8z"/>
			<path fill="#231F20" d="M29.5-483.7c-2.7-2.7-7.1-2.7-9.8,0L0-464.1v19.6l29.5-29.5C32.2-476.6,32.2-481,29.5-483.7z"/>
			<path fill="#231F20" d="M605.1-464.1c-2.7-2.7-7.1-2.7-9.8,0h0c-2.7,2.7-2.7,7.1,0,9.8l49.1,49.1c2.7,2.7,7.1,2.7,9.8,0
				c2.7-2.7,2.7-7.1,0-9.8L605.1-464.1z"/>
			<path fill="#231F20" d="M169-442.9c-2.7-2.7-7.1-2.7-9.8,0L110-393.8c-2.7,2.7-2.7,7.1,0,9.8l0,0c2.7,2.7,7.1,2.7,9.8,0
				l49.1-49.1C171.7-435.8,171.7-440.2,169-442.9L169-442.9z"/>
			<path fill="#231F20" d="M308.4-442.9c-2.7-2.7-7.1-2.7-9.8,0l-49.1,49.1c-2.7,2.7-2.7,7.1,0,9.8c2.7,2.7,7.1,2.7,9.8,0l49.1-49.1
				C311.2-435.8,311.2-440.2,308.4-442.9L308.4-442.9z"/>
			<path fill="#231F20" d="M189.6-423.3c-2.7-2.7-7.1-2.7-9.8,0c-2.7,2.7-2.7,7.1,0,9.8l49.1,49.1c2.7,2.7,7.1,2.7,9.8,0l0,0
				c2.7-2.7,2.7-7.1,0-9.8L189.6-423.3z"/>
			<path fill="#231F20" d="M50.1-423.3c-2.7-2.7-7.1-2.7-9.8,0c-2.7,2.7-2.7,7.1,0,9.8l49.1,49.1c2.7,2.7,7.1,2.7,9.8,0h0
				c2.7-2.7,2.7-7.1,0-9.8L50.1-423.3z"/>
			<path fill="#231F20" d="M447-442.9c-2.7-2.7-7.1-2.7-9.8,0L388-393.8c-2.7,2.7-2.7,7.1,0,9.8c2.7,2.7,7.1,2.7,9.8,0L447-433
				C449.7-435.7,449.7-440.1,447-442.9L447-442.9z"/>
			<path fill="#231F20" d="M584.5-442.9c-2.7-2.7-7.1-2.7-9.8,0l-49.1,49.1c-2.7,2.7-2.7,7.1,0,9.8c2.7,2.7,7.1,2.7,9.8,0l49.1-49.1
				C587.2-435.7,587.2-440.1,584.5-442.9L584.5-442.9z"/>
			<path fill="#231F20" d="M466.6-423.3c-2.7-2.7-7.1-2.7-9.8,0c-2.7,2.7-2.7,7.1,0,9.8l49.1,49.1c2.7,2.7,7.1,2.7,9.8,0h0
				c2.7-2.7,2.7-7.1,0-9.8L466.6-423.3z"/>
			<path fill="#231F20" d="M329.1-423.2c-2.7-2.7-7.1-2.7-9.8,0v0c-2.7,2.7-2.7,7.1,0,9.8l49.1,49.1c2.7,2.7,7.1,2.7,9.8,0
				c2.7-2.7,2.7-7.1,0-9.8L329.1-423.2z"/>
			<path fill="#231F20" d="M665-384c2.7,2.7,7.1,2.7,9.8,0l19.6-19.6v-19.6L665-393.8C662.3-391.1,662.3-386.7,665-384z"/>
			<path fill="#231F20" d="M29.5-442.9L29.5-442.9c-2.7-2.7-7.1-2.7-9.8,0L0-423.2v19.6l29.5-29.5C32.2-435.8,32.2-440.2,29.5-442.9
				z"/>
			<path fill="#231F20" d="M605.1-423.2c-2.7-2.7-7.1-2.7-9.8,0h0c-2.7,2.7-2.7,7.1,0,9.8l49.1,49.1c2.7,2.7,7.1,2.7,9.8,0
				c2.7-2.7,2.7-7.1,0-9.8L605.1-423.2z"/>
			<path fill="#231F20" d="M159.1-402L110-352.9c-2.7,2.7-2.7,7.1,0,9.8l0,0c2.7,2.7,7.1,2.7,9.8,0l49.1-49.1c2.7-2.7,2.7-7.1,0-9.8
				C166.2-404.7,161.8-404.7,159.1-402z"/>
			<path fill="#231F20" d="M298.6-402l-49.1,49.1c-2.7,2.7-2.7,7.1,0,9.8c2.7,2.7,7.1,2.7,9.8,0l49.1-49.1c2.7-2.7,2.7-7.1,0-9.8
				C305.7-404.7,301.3-404.7,298.6-402z"/>
			<path fill="#231F20" d="M189.6-382.4c-2.7-2.7-7.1-2.7-9.8,0v0c-2.7,2.7-2.7,7.1,0,9.8l49.1,49.1c2.7,2.7,7.1,2.7,9.8,0l0,0
				c2.7-2.7,2.7-7.1,0-9.8L189.6-382.4z"/>
			<path fill="#231F20" d="M50.1-382.4c-2.7-2.7-7.1-2.7-9.8,0c-2.7,2.7-2.7,7.1,0,9.8l49.1,49.1c2.7,2.7,7.1,2.7,9.8,0h0
				c2.7-2.7,2.7-7.1,0-9.8L50.1-382.4z"/>
			<path fill="#231F20" d="M447-402c-2.7-2.7-7.1-2.7-9.8,0L388-352.9c-2.7,2.7-2.7,7.1,0,9.8c2.7,2.7,7.1,2.7,9.8,0l49.1-49.1
				C449.7-394.9,449.7-399.3,447-402L447-402z"/>
			<path fill="#231F20" d="M584.5-402c-2.7-2.7-7.1-2.7-9.8,0l-49.1,49.1c-2.7,2.7-2.7,7.1,0,9.8c2.7,2.7,7.1,2.7,9.8,0l49.1-49.1
				C587.2-394.9,587.2-399.3,584.5-402L584.5-402z"/>
			<path fill="#231F20" d="M466.6-382.4c-2.7-2.7-7.1-2.7-9.8,0l0,0c-2.7,2.7-2.7,7.1,0,9.8l49.1,49.1c2.7,2.7,7.1,2.7,9.8,0h0
				c2.7-2.7,2.7-7.1,0-9.8L466.6-382.4z"/>
			<path fill="#231F20" d="M329.1-382.4c-2.7-2.7-7.1-2.7-9.8,0c-2.7,2.7-2.7,7.1,0,9.8l49.1,49.1c2.7,2.7,7.1,2.7,9.8,0
				c2.7-2.7,2.7-7.1,0-9.8L329.1-382.4z"/>
			<path fill="#231F20" d="M665-343.1c2.7,2.7,7.1,2.7,9.8,0l19.6-19.6v-19.6L665-352.9C662.3-350.2,662.3-345.8,665-343.1z"/>
			<path fill="#231F20" d="M29.5-402c-2.7-2.7-7.1-2.7-9.8,0L0-382.4v19.6l29.5-29.5C32.2-394.9,32.2-399.3,29.5-402z"/>
			<path fill="#231F20" d="M605.1-382.4c-2.7-2.7-7.1-2.7-9.8,0h0c-2.7,2.7-2.7,7.1,0,9.8l49.1,49.1c2.7,2.7,7.1,2.7,9.8,0
				c2.7-2.7,2.7-7.1,0-9.8L605.1-382.4z"/>
			<path fill="#231F20" d="M159.1-361.2L110-312.1c-2.7,2.7-2.7,7.1,0,9.8l0,0c2.7,2.7,7.1,2.7,9.8,0l49.1-49.1
				c2.7-2.7,2.7-7.1,0-9.8C166.2-363.9,161.8-363.9,159.1-361.2z"/>
			<path fill="#231F20" d="M298.6-361.2l-49.1,49.1c-2.7,2.7-2.7,7.1,0,9.8l0,0c2.7,2.7,7.1,2.7,9.8,0l49.1-49.1
				c2.7-2.7,2.7-7.1,0-9.8C305.7-363.9,301.3-363.9,298.6-361.2z"/>
			<path fill="#231F20" d="M189.6-341.6c-2.7-2.7-7.1-2.7-9.8,0c-2.7,2.7-2.7,7.1,0,9.8l49.1,49.1c2.7,2.7,7.1,2.7,9.8,0l0,0
				c2.7-2.7,2.7-7.1,0-9.8L189.6-341.6z"/>
			<path fill="#231F20" d="M50.1-341.6c-2.7-2.7-7.1-2.7-9.8,0c-2.7,2.7-2.7,7.1,0,9.8l49.1,49.1c2.7,2.7,7.1,2.7,9.8,0h0
				c2.7-2.7,2.7-7.1,0-9.8L50.1-341.6z"/>
			<path fill="#231F20" d="M447-361.2c-2.7-2.7-7.1-2.7-9.8,0L388-312c-2.7,2.7-2.7,7.1,0,9.8v0c2.7,2.7,7.1,2.7,9.8,0l49.1-49.1
				C449.7-354,449.7-358.4,447-361.2L447-361.2z"/>
			<path fill="#231F20" d="M584.5-361.2c-2.7-2.7-7.1-2.7-9.8,0L525.5-312c-2.7,2.7-2.7,7.1,0,9.8v0c2.7,2.7,7.1,2.7,9.8,0
				l49.1-49.1C587.2-354,587.2-358.4,584.5-361.2L584.5-361.2z"/>
			<path fill="#231F20" d="M466.6-341.6c-2.7-2.7-7.1-2.7-9.8,0l0,0c-2.7,2.7-2.7,7.1,0,9.8l49.1,49.1c2.7,2.7,7.1,2.7,9.8,0h0
				c2.7-2.7,2.7-7.1,0-9.8L466.6-341.6z"/>
			<path fill="#231F20" d="M329.1-341.5c-2.7-2.7-7.1-2.7-9.8,0c-2.7,2.7-2.7,7.1,0,9.8l49.1,49.1c2.7,2.7,7.1,2.7,9.8,0l0,0
				c2.7-2.7,2.7-7.1,0-9.8L329.1-341.5z"/>
			<path fill="#231F20" d="M665-302.2L665-302.2c2.7,2.7,7.1,2.7,9.8,0l19.6-19.6v-19.6L665-312.1C662.3-309.4,662.3-305,665-302.2z
				"/>
			<path fill="#231F20" d="M29.5-361.2c-2.7-2.7-7.1-2.7-9.8,0L0-341.5v19.6l29.5-29.5C32.2-354.1,32.2-358.5,29.5-361.2z"/>
			<path fill="#231F20" d="M605.1-341.5c-2.7-2.7-7.1-2.7-9.8,0h0c-2.7,2.7-2.7,7.1,0,9.8l49.1,49.1c2.7,2.7,7.1,2.7,9.8,0v0
				c2.7-2.7,2.7-7.1,0-9.8L605.1-341.5z"/>
			<path fill="#231F20" d="M159.1-320.3L110-271.2c-2.7,2.7-2.7,7.1,0,9.8l0,0c2.7,2.7,7.1,2.7,9.8,0l49.1-49.1
				c2.7-2.7,2.7-7.1,0-9.8C166.2-323,161.8-323,159.1-320.3z"/>
			<path fill="#231F20" d="M298.6-320.3l-49.1,49.1c-2.7,2.7-2.7,7.1,0,9.8c2.7,2.7,7.1,2.7,9.8,0l49.1-49.1c2.7-2.7,2.7-7.1,0-9.8
				C305.7-323,301.3-323,298.6-320.3z"/>
			<path fill="#231F20" d="M189.6-300.7c-2.7-2.7-7.1-2.7-9.8,0c-2.7,2.7-2.7,7.1,0,9.8l49.1,49.1c2.7,2.7,7.1,2.7,9.8,0l0,0
				c2.7-2.7,2.7-7.1,0-9.8L189.6-300.7z"/>
			<path fill="#231F20" d="M50.1-300.7c-2.7-2.7-7.1-2.7-9.8,0v0c-2.7,2.7-2.7,7.1,0,9.8l49.1,49.1c2.7,2.7,7.1,2.7,9.8,0h0
				c2.7-2.7,2.7-7.1,0-9.8L50.1-300.7z"/>
			<path fill="#231F20" d="M447-320.3c-2.7-2.7-7.1-2.7-9.8,0L388-271.2c-2.7,2.7-2.7,7.1,0,9.8l0,0c2.7,2.7,7.1,2.7,9.8,0
				l49.1-49.1C449.7-313.2,449.7-317.6,447-320.3L447-320.3z"/>
			<path fill="#231F20" d="M584.5-320.3c-2.7-2.7-7.1-2.7-9.8,0l-49.1,49.1c-2.7,2.7-2.7,7.1,0,9.8l0,0c2.7,2.7,7.1,2.7,9.8,0
				l49.1-49.1C587.2-313.2,587.2-317.6,584.5-320.3L584.5-320.3z"/>
			<path fill="#231F20" d="M466.6-300.7c-2.7-2.7-7.1-2.7-9.8,0c-2.7,2.7-2.7,7.1,0,9.8l49.1,49.1c2.7,2.7,7.1,2.7,9.8,0h0
				c2.7-2.7,2.7-7.1,0-9.8L466.6-300.7z"/>
			<path fill="#231F20" d="M329.1-300.7c-2.7-2.7-7.1-2.7-9.8,0l0,0c-2.7,2.7-2.7,7.1,0,9.8l49.1,49.1c2.7,2.7,7.1,2.7,9.8,0
				c2.7-2.7,2.7-7.1,0-9.8L329.1-300.7z"/>
			<path fill="#231F20" d="M665-261.4c2.7,2.7,7.1,2.7,9.8,0l19.6-19.6v-19.6L665-271.2C662.3-268.5,662.3-264.1,665-261.4z"/>
			<path fill="#231F20" d="M29.5-320.3c-2.7-2.7-7.1-2.7-9.8,0L0-300.7v19.6l29.5-29.5C32.2-313.2,32.2-317.6,29.5-320.3z"/>
			<path fill="#231F20" d="M605.1-300.7c-2.7-2.7-7.1-2.7-9.8,0h0c-2.7,2.7-2.7,7.1,0,9.8l49.1,49.1c2.7,2.7,7.1,2.7,9.8,0
				c2.7-2.7,2.7-7.1,0-9.8L605.1-300.7z"/>
			<path fill="#231F20" d="M169-279.5c-2.7-2.7-7.1-2.7-9.8,0L110-230.4c-2.7,2.7-2.7,7.1,0,9.8l0,0c2.7,2.7,7.1,2.7,9.8,0
				l49.1-49.1C171.7-272.4,171.7-276.8,169-279.5L169-279.5z"/>
			<path fill="#231F20" d="M308.4-279.5c-2.7-2.7-7.1-2.7-9.8,0l-49.1,49.1c-2.7,2.7-2.7,7.1,0,9.8c2.7,2.7,7.1,2.7,9.8,0l49.1-49.1
				C311.2-272.4,311.2-276.8,308.4-279.5L308.4-279.5z"/>
			<path fill="#231F20" d="M189.6-259.9c-2.7-2.7-7.1-2.7-9.8,0c-2.7,2.7-2.7,7.1,0,9.8l49.1,49.1c2.7,2.7,7.1,2.7,9.8,0l0,0
				c2.7-2.7,2.7-7.1,0-9.8L189.6-259.9z"/>
			<path fill="#231F20" d="M50.1-259.9c-2.7-2.7-7.1-2.7-9.8,0c-2.7,2.7-2.7,7.1,0,9.8l49.1,49.1c2.7,2.7,7.1,2.7,9.8,0h0
				c2.7-2.7,2.7-7.1,0-9.8L50.1-259.9z"/>
			<path fill="#231F20" d="M447-279.5c-2.7-2.7-7.1-2.7-9.8,0L388-230.3c-2.7,2.7-2.7,7.1,0,9.8c2.7,2.7,7.1,2.7,9.8,0l49.1-49.1
				C449.7-272.3,449.7-276.7,447-279.5L447-279.5z"/>
			<path fill="#231F20" d="M584.5-279.5c-2.7-2.7-7.1-2.7-9.8,0l-49.1,49.1c-2.7,2.7-2.7,7.1,0,9.8c2.7,2.7,7.1,2.7,9.8,0l49.1-49.1
				C587.2-272.3,587.2-276.7,584.5-279.5L584.5-279.5z"/>
			<path fill="#231F20" d="M466.6-259.8c-2.7-2.7-7.1-2.7-9.8,0c-2.7,2.7-2.7,7.1,0,9.8l49.1,49.1c2.7,2.7,7.1,2.7,9.8,0h0
				c2.7-2.7,2.7-7.1,0-9.8L466.6-259.8z"/>
			<path fill="#231F20" d="M329.1-259.8c-2.7-2.7-7.1-2.7-9.8,0c-2.7,2.7-2.7,7.1,0,9.8l49.1,49.1c2.7,2.7,7.1,2.7,9.8,0
				s2.7-7.1,0-9.8L329.1-259.8z"/>
			<path fill="#231F20" d="M665-220.5c2.7,2.7,7.1,2.7,9.8,0l19.6-19.6v-19.6L665-230.4C662.3-227.7,662.3-223.3,665-220.5z"/>
			<path fill="#231F20" d="M29.5-279.5L29.5-279.5c-2.7-2.7-7.1-2.7-9.8,0L0-259.8v19.6l29.5-29.5C32.2-272.4,32.2-276.8,29.5-279.5
				z"/>
			<path fill="#231F20" d="M605.1-259.8c-2.7-2.7-7.1-2.7-9.8,0l0,0c-2.7,2.7-2.7,7.1,0,9.8l49.1,49.1c2.7,2.7,7.1,2.7,9.8,0
				c2.7-2.7,2.7-7.1,0-9.8L605.1-259.8z"/>
			<path fill="#231F20" d="M159.1-238.6L110-189.5c-2.7,2.7-2.7,7.1,0,9.8l0,0c2.7,2.7,7.1,2.7,9.8,0l49.1-49.1
				c2.7-2.7,2.7-7.1,0-9.8C166.2-241.3,161.8-241.3,159.1-238.6z"/>
			<path fill="#231F20" d="M298.6-238.6l-49.1,49.1c-2.7,2.7-2.7,7.1,0,9.8c2.7,2.7,7.1,2.7,9.8,0l49.1-49.1c2.7-2.7,2.7-7.1,0-9.8
				C305.7-241.3,301.3-241.3,298.6-238.6z"/>
			<path fill="#231F20" d="M189.6-219c-2.7-2.7-7.1-2.7-9.8,0l0,0c-2.7,2.7-2.7,7.1,0,9.8l49.1,49.1c2.7,2.7,7.1,2.7,9.8,0l0,0
				c2.7-2.7,2.7-7.1,0-9.8L189.6-219z"/>
			<path fill="#231F20" d="M50.1-219c-2.7-2.7-7.1-2.7-9.8,0c-2.7,2.7-2.7,7.1,0,9.8l49.1,49.1c2.7,2.7,7.1,2.7,9.8,0h0
				c2.7-2.7,2.7-7.1,0-9.8L50.1-219z"/>
			<path fill="#231F20" d="M447-238.6c-2.7-2.7-7.1-2.7-9.8,0L388-189.5c-2.7,2.7-2.7,7.1,0,9.8c2.7,2.7,7.1,2.7,9.8,0l49.1-49.1
				C449.7-231.5,449.7-235.9,447-238.6L447-238.6z"/>
			<path fill="#231F20" d="M584.5-238.6c-2.7-2.7-7.1-2.7-9.8,0l-49.1,49.1c-2.7,2.7-2.7,7.1,0,9.8c2.7,2.7,7.1,2.7,9.8,0l49.1-49.1
				C587.2-231.5,587.2-235.9,584.5-238.6L584.5-238.6z"/>
			<path fill="#231F20" d="M466.6-219c-2.7-2.7-7.1-2.7-9.8,0v0c-2.7,2.7-2.7,7.1,0,9.8l49.1,49.1c2.7,2.7,7.1,2.7,9.8,0h0
				c2.7-2.7,2.7-7.1,0-9.8L466.6-219z"/>
			<path fill="#231F20" d="M329.1-219c-2.7-2.7-7.1-2.7-9.8,0c-2.7,2.7-2.7,7.1,0,9.8l49.1,49.1c2.7,2.7,7.1,2.7,9.8,0l0,0
				c2.7-2.7,2.7-7.1,0-9.8L329.1-219z"/>
			<path fill="#231F20" d="M665-179.7c2.7,2.7,7.1,2.7,9.8,0l19.6-19.6V-219L665-189.5C662.3-186.8,662.3-182.4,665-179.7z"/>
			<path fill="#231F20" d="M29.5-238.6c-2.7-2.7-7.1-2.7-9.8,0L0-219v19.6l29.5-29.5C32.2-231.5,32.2-235.9,29.5-238.6z"/>
			<path fill="#231F20" d="M605.1-219c-2.7-2.7-7.1-2.7-9.8,0h0c-2.7,2.7-2.7,7.1,0,9.8l49.1,49.1c2.7,2.7,7.1,2.7,9.8,0
				c2.7-2.7,2.7-7.1,0-9.8L605.1-219z"/>
			<path fill="#231F20" d="M159.1-197.8L110-148.7c-2.7,2.7-2.7,7.1,0,9.8l0,0c2.7,2.7,7.1,2.7,9.8,0l49.1-49.1
				c2.7-2.7,2.7-7.1,0-9.8C166.2-200.5,161.8-200.5,159.1-197.8z"/>
			<path fill="#231F20" d="M298.6-197.8l-49.1,49.1c-2.7,2.7-2.7,7.1,0,9.8l0,0c2.7,2.7,7.1,2.7,9.8,0l49.1-49.1
				c2.7-2.7,2.7-7.1,0-9.8C305.7-200.5,301.3-200.5,298.6-197.8z"/>
			<path fill="#231F20" d="M189.6-178.2c-2.7-2.7-7.1-2.7-9.8,0c-2.7,2.7-2.7,7.1,0,9.8l49.1,49.1c2.7,2.7,7.1,2.7,9.8,0l0,0
				c2.7-2.7,2.7-7.1,0-9.8L189.6-178.2z"/>
			<path fill="#231F20" d="M50.1-178.1c-2.7-2.7-7.1-2.7-9.8,0l0,0c-2.7,2.7-2.7,7.1,0,9.8l49.1,49.1c2.7,2.7,7.1,2.7,9.8,0h0
				c2.7-2.7,2.7-7.1,0-9.8L50.1-178.1z"/>
			<path fill="#231F20" d="M447-197.7c-2.7-2.7-7.1-2.7-9.8,0L388-148.6c-2.7,2.7-2.7,7.1,0,9.8l0,0c2.7,2.7,7.1,2.7,9.8,0
				l49.1-49.1C449.7-190.6,449.7-195,447-197.7L447-197.7z"/>
			<path fill="#231F20" d="M584.5-197.7c-2.7-2.7-7.1-2.7-9.8,0l-49.1,49.1c-2.7,2.7-2.7,7.1,0,9.8l0,0c2.7,2.7,7.1,2.7,9.8,0
				l49.1-49.1C587.2-190.6,587.2-195,584.5-197.7L584.5-197.7z"/>
			<path fill="#231F20" d="M466.6-178.1c-2.7-2.7-7.1-2.7-9.8,0s-2.7,7.1,0,9.8l49.1,49.1c2.7,2.7,7.1,2.7,9.8,0h0
				c2.7-2.7,2.7-7.1,0-9.8L466.6-178.1z"/>
			<path fill="#231F20" d="M329.1-178.1c-2.7-2.7-7.1-2.7-9.8,0c-2.7,2.7-2.7,7.1,0,9.8l49.1,49.1c2.7,2.7,7.1,2.7,9.8,0
				c2.7-2.7,2.7-7.1,0-9.8L329.1-178.1z"/>
			<path fill="#231F20" d="M665-138.8L665-138.8c2.7,2.7,7.1,2.7,9.8,0l19.6-19.6v-19.6L665-148.7
				C662.3-145.9,662.3-141.6,665-138.8z"/>
			<path fill="#231F20" d="M29.5-197.8c-2.7-2.7-7.1-2.7-9.8,0L0-178.1v19.6l29.5-29.5C32.2-190.7,32.2-195.1,29.5-197.8z"/>
			<path fill="#231F20" d="M605.1-178.1c-2.7-2.7-7.1-2.7-9.8,0h0c-2.7,2.7-2.7,7.1,0,9.8l49.1,49.1c2.7,2.7,7.1,2.7,9.8,0v0
				c2.7-2.7,2.7-7.1,0-9.8L605.1-178.1z"/>
			<path fill="#231F20" d="M169-156.9c-2.7-2.7-7.1-2.7-9.8,0L110-107.8c-2.7,2.7-2.7,7.1,0,9.8l0,0c2.7,2.7,7.1,2.7,9.8,0
				l49.1-49.1C171.7-149.8,171.7-154.2,169-156.9L169-156.9z"/>
			<path fill="#231F20" d="M308.4-156.9c-2.7-2.7-7.1-2.7-9.8,0l-49.1,49.1c-2.7,2.7-2.7,7.1,0,9.8c2.7,2.7,7.1,2.7,9.8,0l49.1-49.1
				C311.2-149.8,311.2-154.2,308.4-156.9L308.4-156.9z"/>
			<path fill="#231F20" d="M189.6-137.3c-2.7-2.7-7.1-2.7-9.8,0c-2.7,2.7-2.7,7.1,0,9.8l49.1,49.1c2.7,2.7,7.1,2.7,9.8,0l0,0
				c2.7-2.7,2.7-7.1,0-9.8L189.6-137.3z"/>
			<path fill="#231F20" d="M50.1-137.3c-2.7-2.7-7.1-2.7-9.8,0c-2.7,2.7-2.7,7.1,0,9.8l49.1,49.1c2.7,2.7,7.1,2.7,9.8,0h0
				c2.7-2.7,2.7-7.1,0-9.8L50.1-137.3z"/>
			<path fill="#231F20" d="M447-156.9c-2.7-2.7-7.1-2.7-9.8,0L388-107.8c-2.7,2.7-2.7,7.1,0,9.8c2.7,2.7,7.1,2.7,9.8,0l49.1-49.1
				C449.7-149.8,449.7-154.2,447-156.9L447-156.9z"/>
			<path fill="#231F20" d="M584.5-156.9c-2.7-2.7-7.1-2.7-9.8,0l-49.1,49.1c-2.7,2.7-2.7,7.1,0,9.8c2.7,2.7,7.1,2.7,9.8,0l49.1-49.1
				C587.2-149.8,587.2-154.2,584.5-156.9L584.5-156.9z"/>
			<path fill="#231F20" d="M466.6-137.3c-2.7-2.7-7.1-2.7-9.8,0c-2.7,2.7-2.7,7.1,0,9.8l49.1,49.1c2.7,2.7,7.1,2.7,9.8,0l0,0
				c2.7-2.7,2.7-7.1,0-9.8L466.6-137.3z"/>
			<path fill="#231F20" d="M329.1-137.3c-2.7-2.7-7.1-2.7-9.8,0v0c-2.7,2.7-2.7,7.1,0,9.8l49.1,49.1c2.7,2.7,7.1,2.7,9.8,0
				c2.7-2.7,2.7-7.1,0-9.8L329.1-137.3z"/>
			<path fill="#231F20" d="M665-98c2.7,2.7,7.1,2.7,9.8,0l19.6-19.6v-19.6L665-107.8C662.3-105.1,662.3-100.7,665-98z"/>
			<path fill="#231F20" d="M29.5-156.9L29.5-156.9c-2.7-2.7-7.1-2.7-9.8,0L0-137.3v19.6l29.5-29.5C32.2-149.8,32.2-154.2,29.5-156.9
				z"/>
			<path fill="#231F20" d="M605.1-137.3c-2.7-2.7-7.1-2.7-9.8,0l0,0c-2.7,2.7-2.7,7.1,0,9.8l49.1,49.1c2.7,2.7,7.1,2.7,9.8,0
				c2.7-2.7,2.7-7.1,0-9.8L605.1-137.3z"/>
			<path fill="#231F20" d="M159.1-116.1L110-67c-2.7,2.7-2.7,7.1,0,9.8l0,0c2.7,2.7,7.1,2.7,9.8,0l49.1-49.1c2.7-2.7,2.7-7.1,0-9.8
				C166.2-118.8,161.8-118.8,159.1-116.1z"/>
			<path fill="#231F20" d="M298.6-116.1L249.5-67c-2.7,2.7-2.7,7.1,0,9.8c2.7,2.7,7.1,2.7,9.8,0l49.1-49.1c2.7-2.7,2.7-7.1,0-9.8
				C305.7-118.8,301.3-118.8,298.6-116.1z"/>
			<path fill="#231F20" d="M189.6-96.5c-2.7-2.7-7.1-2.7-9.8,0v0c-2.7,2.7-2.7,7.1,0,9.8l49.1,49.1c2.7,2.7,7.1,2.7,9.8,0l0,0
				c2.7-2.7,2.7-7.1,0-9.8L189.6-96.5z"/>
			<path fill="#231F20" d="M50.1-96.4c-2.7-2.7-7.1-2.7-9.8,0c-2.7,2.7-2.7,7.1,0,9.8l49.1,49.1c2.7,2.7,7.1,2.7,9.8,0l0,0
				c2.7-2.7,2.7-7.1,0-9.8L50.1-96.4z"/>
			<path fill="#231F20" d="M447-116c-2.7-2.7-7.1-2.7-9.8,0L388-66.9c-2.7,2.7-2.7,7.1,0,9.8c2.7,2.7,7.1,2.7,9.8,0l49.1-49.1
				C449.7-108.9,449.7-113.3,447-116L447-116z"/>
			<path fill="#231F20" d="M584.5-116c-2.7-2.7-7.1-2.7-9.8,0l-49.1,49.1c-2.7,2.7-2.7,7.1,0,9.8c2.7,2.7,7.1,2.7,9.8,0l49.1-49.1
				C587.2-108.9,587.2-113.3,584.5-116L584.5-116z"/>
			<path fill="#231F20" d="M466.6-96.4c-2.7-2.7-7.1-2.7-9.8,0c-2.7,2.7-2.7,7.1,0,9.8l49.1,49.1c2.7,2.7,7.1,2.7,9.8,0h0
				c2.7-2.7,2.7-7.1,0-9.8L466.6-96.4z"/>
			<path fill="#231F20" d="M329.1-96.4c-2.7-2.7-7.1-2.7-9.8,0c-2.7,2.7-2.7,7.1,0,9.8l49.1,49.1c2.7,2.7,7.1,2.7,9.8,0
				s2.7-7.1,0-9.8L329.1-96.4z"/>
			<path fill="#231F20" d="M665-57.1c2.7,2.7,7.1,2.7,9.8,0l19.6-19.6v-19.6L665-67C662.3-64.2,662.3-59.8,665-57.1z"/>
			<path fill="#231F20" d="M29.5-116.1c-2.7-2.7-7.1-2.7-9.8,0L0-96.4v19.6l29.5-29.5C32.2-109,32.2-113.4,29.5-116.1z"/>
			<path fill="#231F20" d="M605.1-96.4c-2.7-2.7-7.1-2.7-9.8,0h0c-2.7,2.7-2.7,7.1,0,9.8l49.1,49.1c2.7,2.7,7.1,2.7,9.8,0
				c2.7-2.7,2.7-7.1,0-9.8L605.1-96.4z"/>
			<path fill="#231F20" d="M169-34.4c-2.7-2.7-7.1-2.7-9.8,0L124.8,0h19.6L169-24.5C171.7-27.3,171.7-31.6,169-34.4z"/>
			<path fill="#231F20" d="M308.4-34.4c-2.7-2.7-7.1-2.7-9.8,0L264.3,0h19.6l24.5-24.5C311.2-27.3,311.2-31.6,308.4-34.4z"/>
			<path fill="#231F20" d="M179.8-14.8c-2.7,2.7-2.7,7.1,0,9.8l4.9,4.9h19.6l-14.8-14.8C186.9-17.5,182.5-17.5,179.8-14.8z"/>
			<path fill="#231F20" d="M40.3-14.7L40.3-14.7c-2.7,2.7-2.7,7.1,0,9.8L45.2,0h19.6L50.1-14.7C47.4-17.5,43-17.5,40.3-14.7z"/>
			<path fill="#231F20" d="M447-34.3L447-34.3c-2.7-2.7-7.1-2.7-9.8,0L402.8,0h19.6L447-24.5C449.7-27.2,449.7-31.6,447-34.3z"/>
			<path fill="#231F20" d="M584.5-34.3L584.5-34.3c-2.7-2.7-7.1-2.7-9.8,0L540.3,0h19.6l24.5-24.5C587.2-27.2,587.2-31.6,584.5-34.3
				z"/>
			<path fill="#231F20" d="M456.8-14.7c-2.7,2.7-2.7,7.1,0,9.8l4.9,4.9h19.6l-14.7-14.7C463.9-17.4,459.5-17.4,456.8-14.7z"/>
			<path fill="#231F20" d="M319.3-14.7L319.3-14.7c-2.7,2.7-2.7,7.1,0,9.8l4.9,4.9h19.6l-14.7-14.7C326.4-17.4,322-17.4,319.3-14.7z
				"/>
			<polygon fill="#231F20" points="694.5,-14.7 679.8,0 694.5,0 			"/>
			<path fill="#231F20" d="M29.5-34.4c-2.7-2.7-7.1-2.7-9.8,0L0-14.7V0h4.9l24.5-24.5C32.2-27.3,32.2-31.6,29.5-34.4z"/>
			<path fill="#231F20" d="M595.3-14.7L595.3-14.7c-2.7,2.7-2.7,7.1,0,9.8l4.9,4.9h19.6l-14.7-14.7C602.4-17.4,598-17.4,595.3-14.7z
				"/>
		</g>
	</g>
</pattern>
<g id="_x2014_&#xCE;&#xD3;&#xC8;_x5F_1" display="none">
	<rect x="-50" y="-50" display="inline" fill="url(#Sylvan_Pattern_1)" width="2126" height="1417.3"/>
	<rect x="2328.1" y="442.7" display="inline" fill="url(#Sylvan_Pattern_1)" width="432" height="432"/>
</g>
<g id="Layer_2">
	<g>
		<g>
			<defs>
				<rect id="SVGID_1_" width="100" height="100"/>
			</defs>
			<clipPath id="SVGID_2_">
				<use xlink:href="#SVGID_1_"  overflow="visible"/>
			</clipPath>
			<g clip-path="url(#SVGID_2_)">
				<rect x="-50" y="-50" fill="none" width="694.5" height="694.5"/>
				<g>
					<path fill="#231F20" d="M60-25.4L60-25.4c2.7,2.7,7.1,2.7,9.8,0L94.4-50H74.8L60-35.3C57.3-32.5,57.3-28.1,60-25.4z"/>
					<path fill="#231F20" d="M199.5-25.4c2.7,2.7,7.1,2.7,9.8,0L233.9-50h-19.6l-14.7,14.7C196.8-32.5,196.8-28.1,199.5-25.4z"/>
					<path fill="#231F20" d="M188.7-5.8L188.7-5.8c2.7-2.7,2.7-7.1,0-9.8L154.3-50h-19.6l44.2,44.2C181.6-3.1,186-3.1,188.7-5.8z"/>
					<path fill="#231F20" d="M49.2-5.8L49.2-5.8c2.7-2.7,2.7-7.1,0-9.8L14.8-50H-4.8L39.4-5.8C42.1-3.1,46.5-3.1,49.2-5.8z"/>
					<path fill="#231F20" d="M338-25.4c2.7,2.7,7.1,2.7,9.8,0L372.4-50h-19.6L338-35.2C335.3-32.5,335.3-28.1,338-25.4z"/>
					<path fill="#231F20" d="M475.5-25.4c2.7,2.7,7.1,2.7,9.8,0L509.9-50h-19.6l-14.8,14.8C472.8-32.5,472.8-28.1,475.5-25.4z"/>
					<path fill="#231F20" d="M465.7-5.8L465.7-5.8c2.7-2.7,2.7-7.1,0-9.8L431.3-50h-19.6l44.2,44.2C458.6-3.1,463-3.1,465.7-5.8z"/>
					<path fill="#231F20" d="M328.2-5.8c2.7-2.7,2.7-7.1,0-9.8L293.8-50h-19.6l44.2,44.2C321.1-3.1,325.5-3.1,328.2-5.8z"/>
					<path fill="#231F20" d="M615-25.4c2.7,2.7,7.1,2.7,9.8,0l19.6-19.6V-50h-14.7L615-35.3C612.3-32.5,612.3-28.1,615-25.4z"/>
					<polygon fill="#231F20" points="-50,-50 -50,-45.1 -45.1,-50 					"/>
					<path fill="#231F20" d="M604.2-5.8c2.7-2.7,2.7-7.1,0-9.8L569.8-50h-19.6l44.2,44.2C597.1-3.1,601.5-3.1,604.2-5.8z"/>
					<path fill="#231F20" d="M109.1,569.3L60,618.4c-2.7,2.7-2.7,7.1,0,9.8l0,0c2.7,2.7,7.1,2.7,9.8,0l49.1-49.1
						c2.7-2.7,2.7-7.1,0-9.8C116.2,566.6,111.8,566.6,109.1,569.3z"/>
					<path fill="#231F20" d="M248.6,569.3l-49.1,49.1c-2.7,2.7-2.7,7.1,0,9.8l0,0c2.7,2.7,7.1,2.7,9.8,0l49.1-49.1
						c2.7-2.7,2.7-7.1,0-9.8C255.7,566.6,251.3,566.6,248.6,569.3z"/>
					<path fill="#231F20" d="M188.7,638l-49.1-49.1c-2.7-2.7-7.1-2.7-9.8,0l0,0c-2.7,2.7-2.7,7.1,0,9.8l45.8,45.8h15
						C191.1,642.2,190.5,639.8,188.7,638z"/>
					<path fill="#231F20" d="M49.2,638L0.1,588.9c-2.7-2.7-7.1-2.7-9.8,0c-2.7,2.7-2.7,7.1,0,9.8L36,644.5h15
						C51.6,642.2,51,639.8,49.2,638z"/>
					<path fill="#231F20" d="M397,569.3c-2.7-2.7-7.1-2.7-9.8,0L338,618.4c-2.7,2.7-2.7,7.1,0,9.8c2.7,2.7,7.1,2.7,9.8,0l49.1-49.1
						C399.7,576.4,399.7,572,397,569.3L397,569.3z"/>
					<path fill="#231F20" d="M534.5,569.3c-2.7-2.7-7.1-2.7-9.8,0l-49.1,49.1c-2.7,2.7-2.7,7.1,0,9.8c2.7,2.7,7.1,2.7,9.8,0
						l49.1-49.1C537.2,576.4,537.2,572,534.5,569.3L534.5,569.3z"/>
					<path fill="#231F20" d="M465.7,638l-49.1-49.1c-2.7-2.7-7.1-2.7-9.8,0l0,0c-2.7,2.7-2.7,7.1,0,9.8l45.8,45.8h15
						C468.1,642.2,467.5,639.8,465.7,638z"/>
					<path fill="#231F20" d="M328.2,638l-49.1-49.1c-2.7-2.7-7.1-2.7-9.8,0c-2.7,2.7-2.7,7.1,0,9.8l45.7,45.7h15
						C330.6,642.2,329.9,639.8,328.2,638z"/>
					<path fill="#231F20" d="M615,628.2L615,628.2c2.7,2.7,7.1,2.7,9.8,0l19.6-19.6v-19.6L615,618.4
						C612.3,621.1,612.3,625.5,615,628.2z"/>
					<path fill="#231F20" d="M-20.5,569.3c-2.7-2.7-7.1-2.7-9.8,0L-50,588.9v19.6l29.5-29.5C-17.8,576.4-17.8,572-20.5,569.3z"/>
					<path fill="#231F20" d="M604.2,638.1l-49.1-49.1c-2.7-2.7-7.1-2.7-9.8,0h0c-2.7,2.7-2.7,7.1,0,9.8l45.7,45.7h15.1
						C606.6,642.2,606,639.8,604.2,638.1z"/>
					<path fill="#231F20" d="M188.7-46.7L188.7-46.7c0.9-0.9,1.6-2.1,1.8-3.3h-15l3.3,3.3C181.6-44,186-44,188.7-46.7z"/>
					<path fill="#231F20" d="M49.2-46.7L49.2-46.7c1-1,1.6-2.1,1.8-3.3H36l3.3,3.3C42.1-43.9,46.5-43.9,49.2-46.7z"/>
					<path fill="#231F20" d="M465.7-46.7L465.7-46.7c1-1,1.6-2.1,1.8-3.3h-15l3.3,3.3C458.6-43.9,463-43.9,465.7-46.7z"/>
					<path fill="#231F20" d="M328.2-46.6c1-1,1.6-2.1,1.9-3.4h-15l3.4,3.4C321.1-43.9,325.5-43.9,328.2-46.6z"/>
					<path fill="#231F20" d="M604.2-46.6c1-1,1.6-2.1,1.9-3.4H591l3.4,3.4C597.1-43.9,601.5-43.9,604.2-46.6z"/>
					<path fill="#231F20" d="M109.1-43.5L60,5.6c-2.7,2.7-2.7,7.1,0,9.8l0,0c2.7,2.7,7.1,2.7,9.8,0L119-33.7c2.7-2.7,2.7-7.1,0-9.8
						C116.2-46.2,111.8-46.2,109.1-43.5z"/>
					<path fill="#231F20" d="M248.6-43.5L199.5,5.6c-2.7,2.7-2.7,7.1,0,9.8c2.7,2.7,7.1,2.7,9.8,0l49.1-49.1c2.7-2.7,2.7-7.1,0-9.8
						C255.7-46.2,251.3-46.2,248.6-43.5z"/>
					<path fill="#231F20" d="M139.6-23.9c-2.7-2.7-7.1-2.7-9.8,0l0,0c-2.7,2.7-2.7,7.1,0,9.8L178.9,35c2.7,2.7,7.1,2.7,9.8,0l0,0
						c2.7-2.7,2.7-7.1,0-9.8L139.6-23.9z"/>
					<path fill="#231F20" d="M0.1-23.9c-2.7-2.7-7.1-2.7-9.8,0c-2.7,2.7-2.7,7.1,0,9.8L39.4,35c2.7,2.7,7.1,2.7,9.8,0h0
						c2.7-2.7,2.7-7.1,0-9.8L0.1-23.9z"/>
					<path fill="#231F20" d="M397-43.5c-2.7-2.7-7.1-2.7-9.8,0L338,5.6c-2.7,2.7-2.7,7.1,0,9.8c2.7,2.7,7.1,2.7,9.8,0L397-33.7
						C399.7-36.4,399.7-40.8,397-43.5L397-43.5z"/>
					<path fill="#231F20" d="M534.5-43.5c-2.7-2.7-7.1-2.7-9.8,0L475.5,5.6c-2.7,2.7-2.7,7.1,0,9.8c2.7,2.7,7.1,2.7,9.8,0l49.1-49.1
						C537.2-36.4,537.2-40.8,534.5-43.5L534.5-43.5z"/>
					<path fill="#231F20" d="M416.6-23.9c-2.7-2.7-7.1-2.7-9.8,0v0c-2.7,2.7-2.7,7.1,0,9.8L455.9,35c2.7,2.7,7.1,2.7,9.8,0h0
						c2.7-2.7,2.7-7.1,0-9.8L416.6-23.9z"/>
					<path fill="#231F20" d="M279.1-23.9c-2.7-2.7-7.1-2.7-9.8,0c-2.7,2.7-2.7,7.1,0,9.8l49.1,49.1c2.7,2.7,7.1,2.7,9.8,0l0,0
						c2.7-2.7,2.7-7.1,0-9.8L279.1-23.9z"/>
					<path fill="#231F20" d="M615,15.4c2.7,2.7,7.1,2.7,9.8,0l19.6-19.6v-19.6L615,5.6C612.3,8.3,612.3,12.7,615,15.4z"/>
					<path fill="#231F20" d="M-20.5-43.5c-2.7-2.7-7.1-2.7-9.8,0L-50-23.9v19.6l29.5-29.5C-17.8-36.4-17.8-40.8-20.5-43.5z"/>
					<path fill="#231F20" d="M555.1-23.8c-2.7-2.7-7.1-2.7-9.8,0h0c-2.7,2.7-2.7,7.1,0,9.8l49.1,49.1c2.7,2.7,7.1,2.7,9.8,0
						c2.7-2.7,2.7-7.1,0-9.8L555.1-23.8z"/>
					<path fill="#231F20" d="M109.1-2.7L60,46.5c-2.7,2.7-2.7,7.1,0,9.8l0,0c2.7,2.7,7.1,2.7,9.8,0L119,7.2c2.7-2.7,2.7-7.1,0-9.8
						C116.2-5.4,111.8-5.4,109.1-2.7z"/>
					<path fill="#231F20" d="M248.6-2.7l-49.1,49.1c-2.7,2.7-2.7,7.1,0,9.8l0,0c2.7,2.7,7.1,2.7,9.8,0l49.1-49.1
						c2.7-2.7,2.7-7.1,0-9.8C255.7-5.4,251.3-5.4,248.6-2.7z"/>
					<path fill="#231F20" d="M139.6,16.9c-2.7-2.7-7.1-2.7-9.8,0c-2.7,2.7-2.7,7.1,0,9.8l49.1,49.1c2.7,2.7,7.1,2.7,9.8,0l0,0
						c2.7-2.7,2.7-7.1,0-9.8L139.6,16.9z"/>
					<path fill="#231F20" d="M0.1,17c-2.7-2.7-7.1-2.7-9.8,0l0,0c-2.7,2.7-2.7,7.1,0,9.8l49.1,49.1c2.7,2.7,7.1,2.7,9.8,0h0
						c2.7-2.7,2.7-7.1,0-9.8L0.1,17z"/>
					<path fill="#231F20" d="M397-2.6c-2.7-2.7-7.1-2.7-9.8,0L338,46.5c-2.7,2.7-2.7,7.1,0,9.8l0,0c2.7,2.7,7.1,2.7,9.8,0L397,7.2
						C399.7,4.5,399.7,0.1,397-2.6L397-2.6z"/>
					<path fill="#231F20" d="M534.5-2.6c-2.7-2.7-7.1-2.7-9.8,0l-49.1,49.1c-2.7,2.7-2.7,7.1,0,9.8l0,0c2.7,2.7,7.1,2.7,9.8,0
						l49.1-49.1C537.2,4.5,537.2,0.1,534.5-2.6L534.5-2.6z"/>
					<path fill="#231F20" d="M416.6,17c-2.7-2.7-7.1-2.7-9.8,0c-2.7,2.7-2.7,7.1,0,9.8l49.1,49.1c2.7,2.7,7.1,2.7,9.8,0h0
						c2.7-2.7,2.7-7.1,0-9.8L416.6,17z"/>
					<path fill="#231F20" d="M279.1,17c-2.7-2.7-7.1-2.7-9.8,0c-2.7,2.7-2.7,7.1,0,9.8l49.1,49.1c2.7,2.7,7.1,2.7,9.8,0
						c2.7-2.7,2.7-7.1,0-9.8L279.1,17z"/>
					<path fill="#231F20" d="M615,56.3L615,56.3c2.7,2.7,7.1,2.7,9.8,0l19.6-19.6V17L615,46.5C612.3,49.2,612.3,53.6,615,56.3z"/>
					<path fill="#231F20" d="M-20.5-2.7c-2.7-2.7-7.1-2.7-9.8,0L-50,17v19.6l29.5-29.5C-17.8,4.5-17.8,0.1-20.5-2.7z"/>
					<path fill="#231F20" d="M555.1,17c-2.7-2.7-7.1-2.7-9.8,0h0c-2.7,2.7-2.7,7.1,0,9.8l49.1,49.1c2.7,2.7,7.1,2.7,9.8,0l0,0
						c2.7-2.7,2.7-7.1,0-9.8L555.1,17z"/>
					<path fill="#231F20" d="M119,38.2c-2.7-2.7-7.1-2.7-9.8,0L60,87.3c-2.7,2.7-2.7,7.1,0,9.8l0,0c2.7,2.7,7.1,2.7,9.8,0L119,48
						C121.7,45.3,121.7,40.9,119,38.2L119,38.2z"/>
					<path fill="#231F20" d="M258.4,38.2c-2.7-2.7-7.1-2.7-9.8,0l-49.1,49.1c-2.7,2.7-2.7,7.1,0,9.8c2.7,2.7,7.1,2.7,9.8,0L258.4,48
						C261.2,45.3,261.2,40.9,258.4,38.2L258.4,38.2z"/>
					<path fill="#231F20" d="M139.6,57.8c-2.7-2.7-7.1-2.7-9.8,0c-2.7,2.7-2.7,7.1,0,9.8l49.1,49.1c2.7,2.7,7.1,2.7,9.8,0l0,0
						c2.7-2.7,2.7-7.1,0-9.8L139.6,57.8z"/>
					<path fill="#231F20" d="M0.1,57.8c-2.7-2.7-7.1-2.7-9.8,0l0,0c-2.7,2.7-2.7,7.1,0,9.8l49.1,49.1c2.7,2.7,7.1,2.7,9.8,0h0
						c2.7-2.7,2.7-7.1,0-9.8L0.1,57.8z"/>
					<path fill="#231F20" d="M397,38.2c-2.7-2.7-7.1-2.7-9.8,0L338,87.3c-2.7,2.7-2.7,7.1,0,9.8c2.7,2.7,7.1,2.7,9.8,0L397,48
						C399.7,45.3,399.7,40.9,397,38.2L397,38.2z"/>
					<path fill="#231F20" d="M534.5,38.2c-2.7-2.7-7.1-2.7-9.8,0l-49.1,49.1c-2.7,2.7-2.7,7.1,0,9.8c2.7,2.7,7.1,2.7,9.8,0L534.5,48
						C537.2,45.3,537.2,40.9,534.5,38.2L534.5,38.2z"/>
					<path fill="#231F20" d="M416.6,57.8c-2.7-2.7-7.1-2.7-9.8,0c-2.7,2.7-2.7,7.1,0,9.8l49.1,49.1c2.7,2.7,7.1,2.7,9.8,0h0
						c2.7-2.7,2.7-7.1,0-9.8L416.6,57.8z"/>
					<path fill="#231F20" d="M279.1,57.8c-2.7-2.7-7.1-2.7-9.8,0v0c-2.7,2.7-2.7,7.1,0,9.8l49.1,49.1c2.7,2.7,7.1,2.7,9.8,0
						c2.7-2.7,2.7-7.1,0-9.8L279.1,57.8z"/>
					<path fill="#231F20" d="M615,97.1c2.7,2.7,7.1,2.7,9.8,0l19.6-19.6V57.8L615,87.3C612.3,90,612.3,94.4,615,97.1z"/>
					<path fill="#231F20" d="M-20.5,38.2L-20.5,38.2c-2.7-2.7-7.1-2.7-9.8,0L-50,57.8v19.6L-20.5,48C-17.8,45.3-17.8,40.9-20.5,38.2
						z"/>
					<path fill="#231F20" d="M555.1,57.9c-2.7-2.7-7.1-2.7-9.8,0h0c-2.7,2.7-2.7,7.1,0,9.8l49.1,49.1c2.7,2.7,7.1,2.7,9.8,0
						c2.7-2.7,2.7-7.1,0-9.8L555.1,57.9z"/>
					<path fill="#231F20" d="M109.1,79L60,128.2c-2.7,2.7-2.7,7.1,0,9.8l0,0c2.7,2.7,7.1,2.7,9.8,0L119,88.9c2.7-2.7,2.7-7.1,0-9.8
						C116.2,76.3,111.8,76.3,109.1,79z"/>
					<path fill="#231F20" d="M248.6,79l-49.1,49.1c-2.7,2.7-2.7,7.1,0,9.8c2.7,2.7,7.1,2.7,9.8,0l49.1-49.1c2.7-2.7,2.7-7.1,0-9.8
						C255.7,76.3,251.3,76.3,248.6,79z"/>
					<path fill="#231F20" d="M139.6,98.7c-2.7-2.7-7.1-2.7-9.8,0v0c-2.7,2.7-2.7,7.1,0,9.8l49.1,49.1c2.7,2.7,7.1,2.7,9.8,0l0,0
						c2.7-2.7,2.7-7.1,0-9.8L139.6,98.7z"/>
					<path fill="#231F20" d="M0.1,98.7C-2.6,96-7,96-9.7,98.7c-2.7,2.7-2.7,7.1,0,9.8l49.1,49.1c2.7,2.7,7.1,2.7,9.8,0h0
						c2.7-2.7,2.7-7.1,0-9.8L0.1,98.7z"/>
					<path fill="#231F20" d="M397,79.1c-2.7-2.7-7.1-2.7-9.8,0L338,128.2c-2.7,2.7-2.7,7.1,0,9.8c2.7,2.7,7.1,2.7,9.8,0L397,88.9
						C399.7,86.2,399.7,81.8,397,79.1L397,79.1z"/>
					<path fill="#231F20" d="M534.5,79.1c-2.7-2.7-7.1-2.7-9.8,0l-49.1,49.1c-2.7,2.7-2.7,7.1,0,9.8c2.7,2.7,7.1,2.7,9.8,0
						l49.1-49.1C537.2,86.2,537.2,81.8,534.5,79.1L534.5,79.1z"/>
					<path fill="#231F20" d="M416.6,98.7c-2.7-2.7-7.1-2.7-9.8,0c-2.7,2.7-2.7,7.1,0,9.8l49.1,49.1c2.7,2.7,7.1,2.7,9.8,0h0
						c2.7-2.7,2.7-7.1,0-9.8L416.6,98.7z"/>
					<path fill="#231F20" d="M279.1,98.7c-2.7-2.7-7.1-2.7-9.8,0c-2.7,2.7-2.7,7.1,0,9.8l49.1,49.1c2.7,2.7,7.1,2.7,9.8,0
						c2.7-2.7,2.7-7.1,0-9.8L279.1,98.7z"/>
					<path fill="#231F20" d="M615,138c2.7,2.7,7.1,2.7,9.8,0l19.6-19.6V98.7L615,128.2C612.3,130.9,612.3,135.3,615,138z"/>
					<path fill="#231F20" d="M-20.5,79c-2.7-2.7-7.1-2.7-9.8,0L-50,98.7v19.6l29.5-29.5C-17.8,86.2-17.8,81.8-20.5,79z"/>
					<path fill="#231F20" d="M555.1,98.7c-2.7-2.7-7.1-2.7-9.8,0h0c-2.7,2.7-2.7,7.1,0,9.8l49.1,49.1c2.7,2.7,7.1,2.7,9.8,0
						c2.7-2.7,2.7-7.1,0-9.8L555.1,98.7z"/>
					<path fill="#231F20" d="M109.1,119.9L60,169c-2.7,2.7-2.7,7.1,0,9.8l0,0c2.7,2.7,7.1,2.7,9.8,0l49.1-49.1
						c2.7-2.7,2.7-7.1,0-9.8C116.2,117.2,111.8,117.2,109.1,119.9z"/>
					<path fill="#231F20" d="M248.6,119.9L199.5,169c-2.7,2.7-2.7,7.1,0,9.8l0,0c2.7,2.7,7.1,2.7,9.8,0l49.1-49.1
						c2.7-2.7,2.7-7.1,0-9.8C255.7,117.2,251.3,117.2,248.6,119.9z"/>
					<path fill="#231F20" d="M139.6,139.5c-2.7-2.7-7.1-2.7-9.8,0l0,0c-2.7,2.7-2.7,7.1,0,9.8l49.1,49.1c2.7,2.7,7.1,2.7,9.8,0l0,0
						c2.7-2.7,2.7-7.1,0-9.8L139.6,139.5z"/>
					<path fill="#231F20" d="M0.1,139.5c-2.7-2.7-7.1-2.7-9.8,0c-2.7,2.7-2.7,7.1,0,9.8l49.1,49.1c2.7,2.7,7.1,2.7,9.8,0h0
						c2.7-2.7,2.7-7.1,0-9.8L0.1,139.5z"/>
					<path fill="#231F20" d="M397,119.9c-2.7-2.7-7.1-2.7-9.8,0L338,169c-2.7,2.7-2.7,7.1,0,9.8c2.7,2.7,7.1,2.7,9.8,0l49.1-49.1
						C399.7,127,399.7,122.6,397,119.9L397,119.9z"/>
					<path fill="#231F20" d="M534.5,119.9c-2.7-2.7-7.1-2.7-9.8,0L475.5,169c-2.7,2.7-2.7,7.1,0,9.8c2.7,2.7,7.1,2.7,9.8,0
						l49.1-49.1C537.2,127,537.2,122.6,534.5,119.9L534.5,119.9z"/>
					<path fill="#231F20" d="M416.6,139.5c-2.7-2.7-7.1-2.7-9.8,0l0,0c-2.7,2.7-2.7,7.1,0,9.8l49.1,49.1c2.7,2.7,7.1,2.7,9.8,0h0
						c2.7-2.7,2.7-7.1,0-9.8L416.6,139.5z"/>
					<path fill="#231F20" d="M279.1,139.5c-2.7-2.7-7.1-2.7-9.8,0c-2.7,2.7-2.7,7.1,0,9.8l49.1,49.1c2.7,2.7,7.1,2.7,9.8,0l0,0
						c2.7-2.7,2.7-7.1,0-9.8L279.1,139.5z"/>
					<path fill="#231F20" d="M615,178.8L615,178.8c2.7,2.7,7.1,2.7,9.8,0l19.6-19.6v-19.6L615,169
						C612.3,171.7,612.3,176.1,615,178.8z"/>
					<path fill="#231F20" d="M-20.5,119.9c-2.7-2.7-7.1-2.7-9.8,0L-50,139.5v19.6l29.5-29.5C-17.8,127-17.8,122.6-20.5,119.9z"/>
					<path fill="#231F20" d="M555.1,139.6c-2.7-2.7-7.1-2.7-9.8,0h0c-2.7,2.7-2.7,7.1,0,9.8l49.1,49.1c2.7,2.7,7.1,2.7,9.8,0v0
						c2.7-2.7,2.7-7.1,0-9.8L555.1,139.6z"/>
					<path fill="#231F20" d="M109.1,160.8L60,209.9c-2.7,2.7-2.7,7.1,0,9.8l0,0c2.7,2.7,7.1,2.7,9.8,0l49.1-49.1
						c2.7-2.7,2.7-7.1,0-9.8C116.2,158,111.8,158,109.1,160.8z"/>
					<path fill="#231F20" d="M248.6,160.8l-49.1,49.1c-2.7,2.7-2.7,7.1,0,9.8l0,0c2.7,2.7,7.1,2.7,9.8,0l49.1-49.1
						c2.7-2.7,2.7-7.1,0-9.8C255.7,158,251.3,158,248.6,160.8z"/>
					<path fill="#231F20" d="M139.6,180.4c-2.7-2.7-7.1-2.7-9.8,0c-2.7,2.7-2.7,7.1,0,9.8l49.1,49.1c2.7,2.7,7.1,2.7,9.8,0l0,0
						c2.7-2.7,2.7-7.1,0-9.8L139.6,180.4z"/>
					<path fill="#231F20" d="M0.1,180.4c-2.7-2.7-7.1-2.7-9.8,0v0c-2.7,2.7-2.7,7.1,0,9.8l49.1,49.1c2.7,2.7,7.1,2.7,9.8,0h0
						c2.7-2.7,2.7-7.1,0-9.8L0.1,180.4z"/>
					<path fill="#231F20" d="M397,160.8c-2.7-2.7-7.1-2.7-9.8,0L338,209.9c-2.7,2.7-2.7,7.1,0,9.8l0,0c2.7,2.7,7.1,2.7,9.8,0
						l49.1-49.1C399.7,167.9,399.7,163.5,397,160.8L397,160.8z"/>
					<path fill="#231F20" d="M534.5,160.8c-2.7-2.7-7.1-2.7-9.8,0l-49.1,49.1c-2.7,2.7-2.7,7.1,0,9.8l0,0c2.7,2.7,7.1,2.7,9.8,0
						l49.1-49.1C537.2,167.9,537.2,163.5,534.5,160.8L534.5,160.8z"/>
					<path fill="#231F20" d="M416.6,180.4c-2.7-2.7-7.1-2.7-9.8,0c-2.7,2.7-2.7,7.1,0,9.8l49.1,49.1c2.7,2.7,7.1,2.7,9.8,0h0
						c2.7-2.7,2.7-7.1,0-9.8L416.6,180.4z"/>
					<path fill="#231F20" d="M279.1,180.4c-2.7-2.7-7.1-2.7-9.8,0l0,0c-2.7,2.7-2.7,7.1,0,9.8l49.1,49.1c2.7,2.7,7.1,2.7,9.8,0
						c2.7-2.7,2.7-7.1,0-9.8L279.1,180.4z"/>
					<path fill="#231F20" d="M615,219.7L615,219.7c2.7,2.7,7.1,2.7,9.8,0l19.6-19.6v-19.6L615,209.9
						C612.3,212.6,612.3,217,615,219.7z"/>
					<path fill="#231F20" d="M-20.5,160.8c-2.7-2.7-7.1-2.7-9.8,0L-50,180.4V200l29.5-29.5C-17.8,167.9-17.8,163.5-20.5,160.8z"/>
					<path fill="#231F20" d="M555.1,180.4c-2.7-2.7-7.1-2.7-9.8,0h0c-2.7,2.7-2.7,7.1,0,9.8l49.1,49.1c2.7,2.7,7.1,2.7,9.8,0
						c2.7-2.7,2.7-7.1,0-9.8L555.1,180.4z"/>
					<path fill="#231F20" d="M119,201.6c-2.7-2.7-7.1-2.7-9.8,0L60,250.7c-2.7,2.7-2.7,7.1,0,9.8l0,0c2.7,2.7,7.1,2.7,9.8,0
						l49.1-49.1C121.7,208.7,121.7,204.3,119,201.6L119,201.6z"/>
					<path fill="#231F20" d="M258.4,201.6c-2.7-2.7-7.1-2.7-9.8,0l-49.1,49.1c-2.7,2.7-2.7,7.1,0,9.8c2.7,2.7,7.1,2.7,9.8,0
						l49.1-49.1C261.2,208.7,261.2,204.3,258.4,201.6L258.4,201.6z"/>
					<path fill="#231F20" d="M139.6,221.2c-2.7-2.7-7.1-2.7-9.8,0c-2.7,2.7-2.7,7.1,0,9.8l49.1,49.1c2.7,2.7,7.1,2.7,9.8,0l0,0
						c2.7-2.7,2.7-7.1,0-9.8L139.6,221.2z"/>
					<path fill="#231F20" d="M0.1,221.2c-2.7-2.7-7.1-2.7-9.8,0c-2.7,2.7-2.7,7.1,0,9.8l49.1,49.1c2.7,2.7,7.1,2.7,9.8,0h0
						c2.7-2.7,2.7-7.1,0-9.8L0.1,221.2z"/>
					<path fill="#231F20" d="M397,201.6c-2.7-2.7-7.1-2.7-9.8,0L338,250.7c-2.7,2.7-2.7,7.1,0,9.8c2.7,2.7,7.1,2.7,9.8,0l49.1-49.1
						C399.7,208.7,399.7,204.3,397,201.6L397,201.6z"/>
					<path fill="#231F20" d="M534.5,201.6c-2.7-2.7-7.1-2.7-9.8,0l-49.1,49.1c-2.7,2.7-2.7,7.1,0,9.8c2.7,2.7,7.1,2.7,9.8,0
						l49.1-49.1C537.2,208.7,537.2,204.3,534.5,201.6L534.5,201.6z"/>
					<path fill="#231F20" d="M416.6,221.2c-2.7-2.7-7.1-2.7-9.8,0c-2.7,2.7-2.7,7.1,0,9.8l49.1,49.1c2.7,2.7,7.1,2.7,9.8,0h0
						c2.7-2.7,2.7-7.1,0-9.8L416.6,221.2z"/>
					<path fill="#231F20" d="M279.1,221.2c-2.7-2.7-7.1-2.7-9.8,0v0c-2.7,2.7-2.7,7.1,0,9.8l49.1,49.1c2.7,2.7,7.1,2.7,9.8,0
						c2.7-2.7,2.7-7.1,0-9.8L279.1,221.2z"/>
					<path fill="#231F20" d="M615,260.5c2.7,2.7,7.1,2.7,9.8,0l19.6-19.6v-19.6L615,250.7C612.3,253.4,612.3,257.8,615,260.5z"/>
					<path fill="#231F20" d="M-20.5,201.6L-20.5,201.6c-2.7-2.7-7.1-2.7-9.8,0L-50,221.2v19.6l29.5-29.5
						C-17.8,208.7-17.8,204.3-20.5,201.6z"/>
					<path fill="#231F20" d="M555.1,221.3c-2.7-2.7-7.1-2.7-9.8,0h0c-2.7,2.7-2.7,7.1,0,9.8l49.1,49.1c2.7,2.7,7.1,2.7,9.8,0
						c2.7-2.7,2.7-7.1,0-9.8L555.1,221.3z"/>
					<path fill="#231F20" d="M109.1,242.5L60,291.6c-2.7,2.7-2.7,7.1,0,9.8l0,0c2.7,2.7,7.1,2.7,9.8,0l49.1-49.1
						c2.7-2.7,2.7-7.1,0-9.8C116.2,239.7,111.8,239.7,109.1,242.5z"/>
					<path fill="#231F20" d="M248.6,242.5l-49.1,49.1c-2.7,2.7-2.7,7.1,0,9.8c2.7,2.7,7.1,2.7,9.8,0l49.1-49.1
						c2.7-2.7,2.7-7.1,0-9.8C255.7,239.7,251.3,239.7,248.6,242.5z"/>
					<path fill="#231F20" d="M139.6,262.1c-2.7-2.7-7.1-2.7-9.8,0v0c-2.7,2.7-2.7,7.1,0,9.8l49.1,49.1c2.7,2.7,7.1,2.7,9.8,0l0,0
						c2.7-2.7,2.7-7.1,0-9.8L139.6,262.1z"/>
					<path fill="#231F20" d="M0.1,262.1c-2.7-2.7-7.1-2.7-9.8,0c-2.7,2.7-2.7,7.1,0,9.8L39.4,321c2.7,2.7,7.1,2.7,9.8,0h0
						c2.7-2.7,2.7-7.1,0-9.8L0.1,262.1z"/>
					<path fill="#231F20" d="M397,242.5c-2.7-2.7-7.1-2.7-9.8,0L338,291.6c-2.7,2.7-2.7,7.1,0,9.8c2.7,2.7,7.1,2.7,9.8,0l49.1-49.1
						C399.7,249.6,399.7,245.2,397,242.5L397,242.5z"/>
					<path fill="#231F20" d="M534.5,242.5c-2.7-2.7-7.1-2.7-9.8,0l-49.1,49.1c-2.7,2.7-2.7,7.1,0,9.8c2.7,2.7,7.1,2.7,9.8,0
						l49.1-49.1C537.2,249.6,537.2,245.2,534.5,242.5L534.5,242.5z"/>
					<path fill="#231F20" d="M416.6,262.1c-2.7-2.7-7.1-2.7-9.8,0l0,0c-2.7,2.7-2.7,7.1,0,9.8l49.1,49.1c2.7,2.7,7.1,2.7,9.8,0h0
						c2.7-2.7,2.7-7.1,0-9.8L416.6,262.1z"/>
					<path fill="#231F20" d="M279.1,262.1c-2.7-2.7-7.1-2.7-9.8,0c-2.7,2.7-2.7,7.1,0,9.8l49.1,49.1c2.7,2.7,7.1,2.7,9.8,0
						c2.7-2.7,2.7-7.1,0-9.8L279.1,262.1z"/>
					<path fill="#231F20" d="M615,301.4c2.7,2.7,7.1,2.7,9.8,0l19.6-19.6v-19.6L615,291.6C612.3,294.3,612.3,298.7,615,301.4z"/>
					<path fill="#231F20" d="M-20.5,242.5c-2.7-2.7-7.1-2.7-9.8,0L-50,262.1v19.6l29.5-29.5C-17.8,249.6-17.8,245.2-20.5,242.5z"/>
					<path fill="#231F20" d="M555.1,262.1c-2.7-2.7-7.1-2.7-9.8,0h0c-2.7,2.7-2.7,7.1,0,9.8l49.1,49.1c2.7,2.7,7.1,2.7,9.8,0
						c2.7-2.7,2.7-7.1,0-9.8L555.1,262.1z"/>
					<path fill="#231F20" d="M109.1,283.3L60,332.4c-2.7,2.7-2.7,7.1,0,9.8l0,0c2.7,2.7,7.1,2.7,9.8,0l49.1-49.1
						c2.7-2.7,2.7-7.1,0-9.8C116.2,280.6,111.8,280.6,109.1,283.3z"/>
					<path fill="#231F20" d="M248.6,283.3l-49.1,49.1c-2.7,2.7-2.7,7.1,0,9.8l0,0c2.7,2.7,7.1,2.7,9.8,0l49.1-49.1
						c2.7-2.7,2.7-7.1,0-9.8C255.7,280.6,251.3,280.6,248.6,283.3z"/>
					<path fill="#231F20" d="M139.6,302.9c-2.7-2.7-7.1-2.7-9.8,0c-2.7,2.7-2.7,7.1,0,9.8l49.1,49.1c2.7,2.7,7.1,2.7,9.8,0l0,0
						c2.7-2.7,2.7-7.1,0-9.8L139.6,302.9z"/>
					<path fill="#231F20" d="M0.1,302.9c-2.7-2.7-7.1-2.7-9.8,0c-2.7,2.7-2.7,7.1,0,9.8l49.1,49.1c2.7,2.7,7.1,2.7,9.8,0h0
						c2.7-2.7,2.7-7.1,0-9.8L0.1,302.9z"/>
					<path fill="#231F20" d="M397,283.3c-2.7-2.7-7.1-2.7-9.8,0L338,332.4c-2.7,2.7-2.7,7.1,0,9.8v0c2.7,2.7,7.1,2.7,9.8,0
						l49.1-49.1C399.7,290.4,399.7,286,397,283.3L397,283.3z"/>
					<path fill="#231F20" d="M534.5,283.3c-2.7-2.7-7.1-2.7-9.8,0l-49.1,49.1c-2.7,2.7-2.7,7.1,0,9.8v0c2.7,2.7,7.1,2.7,9.8,0
						l49.1-49.1C537.2,290.4,537.2,286,534.5,283.3L534.5,283.3z"/>
					<path fill="#231F20" d="M416.6,302.9c-2.7-2.7-7.1-2.7-9.8,0l0,0c-2.7,2.7-2.7,7.1,0,9.8l49.1,49.1c2.7,2.7,7.1,2.7,9.8,0h0
						c2.7-2.7,2.7-7.1,0-9.8L416.6,302.9z"/>
					<path fill="#231F20" d="M279.1,303c-2.7-2.7-7.1-2.7-9.8,0c-2.7,2.7-2.7,7.1,0,9.8l49.1,49.1c2.7,2.7,7.1,2.7,9.8,0l0,0
						c2.7-2.7,2.7-7.1,0-9.8L279.1,303z"/>
					<path fill="#231F20" d="M615,342.2L615,342.2c2.7,2.7,7.1,2.7,9.8,0l19.6-19.6V303L615,332.4
						C612.3,335.1,612.3,339.5,615,342.2z"/>
					<path fill="#231F20" d="M-20.5,283.3c-2.7-2.7-7.1-2.7-9.8,0L-50,303v19.6l29.5-29.5C-17.8,290.4-17.8,286-20.5,283.3z"/>
					<path fill="#231F20" d="M555.1,303c-2.7-2.7-7.1-2.7-9.8,0h0c-2.7,2.7-2.7,7.1,0,9.8l49.1,49.1c2.7,2.7,7.1,2.7,9.8,0v0
						c2.7-2.7,2.7-7.1,0-9.8L555.1,303z"/>
					<path fill="#231F20" d="M109.1,324.2L60,373.3c-2.7,2.7-2.7,7.1,0,9.8l0,0c2.7,2.7,7.1,2.7,9.8,0L119,334
						c2.7-2.7,2.7-7.1,0-9.8C116.2,321.5,111.8,321.5,109.1,324.2z"/>
					<path fill="#231F20" d="M248.6,324.2l-49.1,49.1c-2.7,2.7-2.7,7.1,0,9.8c2.7,2.7,7.1,2.7,9.8,0l49.1-49.1
						c2.7-2.7,2.7-7.1,0-9.8C255.7,321.5,251.3,321.5,248.6,324.2z"/>
					<path fill="#231F20" d="M139.6,343.8c-2.7-2.7-7.1-2.7-9.8,0c-2.7,2.7-2.7,7.1,0,9.8l49.1,49.1c2.7,2.7,7.1,2.7,9.8,0l0,0
						c2.7-2.7,2.7-7.1,0-9.8L139.6,343.8z"/>
					<path fill="#231F20" d="M0.1,343.8c-2.7-2.7-7.1-2.7-9.8,0v0c-2.7,2.7-2.7,7.1,0,9.8l49.1,49.1c2.7,2.7,7.1,2.7,9.8,0h0
						c2.7-2.7,2.7-7.1,0-9.8L0.1,343.8z"/>
					<path fill="#231F20" d="M397,324.2c-2.7-2.7-7.1-2.7-9.8,0L338,373.3c-2.7,2.7-2.7,7.1,0,9.8l0,0c2.7,2.7,7.1,2.7,9.8,0
						L397,334C399.7,331.3,399.7,326.9,397,324.2L397,324.2z"/>
					<path fill="#231F20" d="M534.5,324.2c-2.7-2.7-7.1-2.7-9.8,0l-49.1,49.1c-2.7,2.7-2.7,7.1,0,9.8l0,0c2.7,2.7,7.1,2.7,9.8,0
						l49.1-49.1C537.2,331.3,537.2,326.9,534.5,324.2L534.5,324.2z"/>
					<path fill="#231F20" d="M416.6,343.8c-2.7-2.7-7.1-2.7-9.8,0c-2.7,2.7-2.7,7.1,0,9.8l49.1,49.1c2.7,2.7,7.1,2.7,9.8,0h0
						c2.7-2.7,2.7-7.1,0-9.8L416.6,343.8z"/>
					<path fill="#231F20" d="M279.1,343.8c-2.7-2.7-7.1-2.7-9.8,0l0,0c-2.7,2.7-2.7,7.1,0,9.8l49.1,49.1c2.7,2.7,7.1,2.7,9.8,0
						c2.7-2.7,2.7-7.1,0-9.8L279.1,343.8z"/>
					<path fill="#231F20" d="M615,383.1c2.7,2.7,7.1,2.7,9.8,0l19.6-19.6v-19.6L615,373.3C612.3,376,612.3,380.4,615,383.1z"/>
					<path fill="#231F20" d="M-20.5,324.2c-2.7-2.7-7.1-2.7-9.8,0L-50,343.8v19.6l29.5-29.5C-17.8,331.3-17.8,326.9-20.5,324.2z"/>
					<path fill="#231F20" d="M555.1,343.8c-2.7-2.7-7.1-2.7-9.8,0h0c-2.7,2.7-2.7,7.1,0,9.8l49.1,49.1c2.7,2.7,7.1,2.7,9.8,0
						c2.7-2.7,2.7-7.1,0-9.8L555.1,343.8z"/>
					<path fill="#231F20" d="M119,365c-2.7-2.7-7.1-2.7-9.8,0L60,414.1c-2.7,2.7-2.7,7.1,0,9.8l0,0c2.7,2.7,7.1,2.7,9.8,0l49.1-49.1
						C121.7,372.1,121.7,367.7,119,365L119,365z"/>
					<path fill="#231F20" d="M258.4,365c-2.7-2.7-7.1-2.7-9.8,0l-49.1,49.1c-2.7,2.7-2.7,7.1,0,9.8c2.7,2.7,7.1,2.7,9.8,0l49.1-49.1
						C261.2,372.1,261.2,367.7,258.4,365L258.4,365z"/>
					<path fill="#231F20" d="M139.6,384.6c-2.7-2.7-7.1-2.7-9.8,0c-2.7,2.7-2.7,7.1,0,9.8l49.1,49.1c2.7,2.7,7.1,2.7,9.8,0l0,0
						c2.7-2.7,2.7-7.1,0-9.8L139.6,384.6z"/>
					<path fill="#231F20" d="M0.1,384.6c-2.7-2.7-7.1-2.7-9.8,0c-2.7,2.7-2.7,7.1,0,9.8l49.1,49.1c2.7,2.7,7.1,2.7,9.8,0h0
						c2.7-2.7,2.7-7.1,0-9.8L0.1,384.6z"/>
					<path fill="#231F20" d="M397,365c-2.7-2.7-7.1-2.7-9.8,0L338,414.1c-2.7,2.7-2.7,7.1,0,9.8c2.7,2.7,7.1,2.7,9.8,0l49.1-49.1
						C399.7,372.1,399.7,367.8,397,365L397,365z"/>
					<path fill="#231F20" d="M534.5,365c-2.7-2.7-7.1-2.7-9.8,0l-49.1,49.1c-2.7,2.7-2.7,7.1,0,9.8c2.7,2.7,7.1,2.7,9.8,0l49.1-49.1
						C537.2,372.1,537.2,367.8,534.5,365L534.5,365z"/>
					<path fill="#231F20" d="M416.6,384.6c-2.7-2.7-7.1-2.7-9.8,0c-2.7,2.7-2.7,7.1,0,9.8l49.1,49.1c2.7,2.7,7.1,2.7,9.8,0h0
						c2.7-2.7,2.7-7.1,0-9.8L416.6,384.6z"/>
					<path fill="#231F20" d="M279.1,384.7c-2.7-2.7-7.1-2.7-9.8,0c-2.7,2.7-2.7,7.1,0,9.8l49.1,49.1c2.7,2.7,7.1,2.7,9.8,0
						s2.7-7.1,0-9.8L279.1,384.7z"/>
					<path fill="#231F20" d="M615,423.9c2.7,2.7,7.1,2.7,9.8,0l19.6-19.6v-19.6L615,414.1C612.3,416.8,612.3,421.2,615,423.9z"/>
					<path fill="#231F20" d="M-20.5,365L-20.5,365c-2.7-2.7-7.1-2.7-9.8,0L-50,384.7v19.6l29.5-29.5
						C-17.8,372.1-17.8,367.7-20.5,365z"/>
					<path fill="#231F20" d="M555.1,384.7c-2.7-2.7-7.1-2.7-9.8,0l0,0c-2.7,2.7-2.7,7.1,0,9.8l49.1,49.1c2.7,2.7,7.1,2.7,9.8,0
						c2.7-2.7,2.7-7.1,0-9.8L555.1,384.7z"/>
					<path fill="#231F20" d="M109.1,405.9L60,455c-2.7,2.7-2.7,7.1,0,9.8l0,0c2.7,2.7,7.1,2.7,9.8,0l49.1-49.1
						c2.7-2.7,2.7-7.1,0-9.8C116.2,403.2,111.8,403.2,109.1,405.9z"/>
					<path fill="#231F20" d="M248.6,405.9L199.5,455c-2.7,2.7-2.7,7.1,0,9.8c2.7,2.7,7.1,2.7,9.8,0l49.1-49.1c2.7-2.7,2.7-7.1,0-9.8
						C255.7,403.2,251.3,403.2,248.6,405.9z"/>
					<path fill="#231F20" d="M139.6,425.5c-2.7-2.7-7.1-2.7-9.8,0l0,0c-2.7,2.7-2.7,7.1,0,9.8l49.1,49.1c2.7,2.7,7.1,2.7,9.8,0l0,0
						c2.7-2.7,2.7-7.1,0-9.8L139.6,425.5z"/>
					<path fill="#231F20" d="M0.1,425.5c-2.7-2.7-7.1-2.7-9.8,0c-2.7,2.7-2.7,7.1,0,9.8l49.1,49.1c2.7,2.7,7.1,2.7,9.8,0h0
						c2.7-2.7,2.7-7.1,0-9.8L0.1,425.5z"/>
					<path fill="#231F20" d="M397,405.9c-2.7-2.7-7.1-2.7-9.8,0L338,455c-2.7,2.7-2.7,7.1,0,9.8c2.7,2.7,7.1,2.7,9.8,0l49.1-49.1
						C399.7,413,399.7,408.6,397,405.9L397,405.9z"/>
					<path fill="#231F20" d="M534.5,405.9c-2.7-2.7-7.1-2.7-9.8,0L475.5,455c-2.7,2.7-2.7,7.1,0,9.8c2.7,2.7,7.1,2.7,9.8,0
						l49.1-49.1C537.2,413,537.2,408.6,534.5,405.9L534.5,405.9z"/>
					<path fill="#231F20" d="M416.6,425.5c-2.7-2.7-7.1-2.7-9.8,0v0c-2.7,2.7-2.7,7.1,0,9.8l49.1,49.1c2.7,2.7,7.1,2.7,9.8,0h0
						c2.7-2.7,2.7-7.1,0-9.8L416.6,425.5z"/>
					<path fill="#231F20" d="M279.1,425.5c-2.7-2.7-7.1-2.7-9.8,0c-2.7,2.7-2.7,7.1,0,9.8l49.1,49.1c2.7,2.7,7.1,2.7,9.8,0l0,0
						c2.7-2.7,2.7-7.1,0-9.8L279.1,425.5z"/>
					<path fill="#231F20" d="M615,464.8c2.7,2.7,7.1,2.7,9.8,0l19.6-19.6v-19.6L615,455C612.3,457.7,612.3,462.1,615,464.8z"/>
					<path fill="#231F20" d="M-20.5,405.9c-2.7-2.7-7.1-2.7-9.8,0L-50,425.5v19.6l29.5-29.5C-17.8,413-17.8,408.6-20.5,405.9z"/>
					<path fill="#231F20" d="M555.1,425.5c-2.7-2.7-7.1-2.7-9.8,0h0c-2.7,2.7-2.7,7.1,0,9.8l49.1,49.1c2.7,2.7,7.1,2.7,9.8,0
						c2.7-2.7,2.7-7.1,0-9.8L555.1,425.5z"/>
					<path fill="#231F20" d="M109.1,446.7L60,495.8c-2.7,2.7-2.7,7.1,0,9.8l0,0c2.7,2.7,7.1,2.7,9.8,0l49.1-49.1
						c2.7-2.7,2.7-7.1,0-9.8C116.2,444,111.8,444,109.1,446.7z"/>
					<path fill="#231F20" d="M248.6,446.7l-49.1,49.1c-2.7,2.7-2.7,7.1,0,9.8l0,0c2.7,2.7,7.1,2.7,9.8,0l49.1-49.1
						c2.7-2.7,2.7-7.1,0-9.8C255.7,444,251.3,444,248.6,446.7z"/>
					<path fill="#231F20" d="M139.6,466.3c-2.7-2.7-7.1-2.7-9.8,0c-2.7,2.7-2.7,7.1,0,9.8l49.1,49.1c2.7,2.7,7.1,2.7,9.8,0l0,0
						c2.7-2.7,2.7-7.1,0-9.8L139.6,466.3z"/>
					<path fill="#231F20" d="M0.1,466.3c-2.7-2.7-7.1-2.7-9.8,0l0,0c-2.7,2.7-2.7,7.1,0,9.8l49.1,49.1c2.7,2.7,7.1,2.7,9.8,0h0
						c2.7-2.7,2.7-7.1,0-9.8L0.1,466.3z"/>
					<path fill="#231F20" d="M397,446.7c-2.7-2.7-7.1-2.7-9.8,0L338,495.9c-2.7,2.7-2.7,7.1,0,9.8l0,0c2.7,2.7,7.1,2.7,9.8,0
						l49.1-49.1C399.7,453.9,399.7,449.5,397,446.7L397,446.7z"/>
					<path fill="#231F20" d="M534.5,446.7c-2.7-2.7-7.1-2.7-9.8,0l-49.1,49.1c-2.7,2.7-2.7,7.1,0,9.8l0,0c2.7,2.7,7.1,2.7,9.8,0
						l49.1-49.1C537.2,453.9,537.2,449.5,534.5,446.7L534.5,446.7z"/>
					<path fill="#231F20" d="M416.6,466.3c-2.7-2.7-7.1-2.7-9.8,0c-2.7,2.7-2.7,7.1,0,9.8l49.1,49.1c2.7,2.7,7.1,2.7,9.8,0h0
						c2.7-2.7,2.7-7.1,0-9.8L416.6,466.3z"/>
					<path fill="#231F20" d="M279.1,466.4c-2.7-2.7-7.1-2.7-9.8,0c-2.7,2.7-2.7,7.1,0,9.8l49.1,49.1c2.7,2.7,7.1,2.7,9.8,0
						c2.7-2.7,2.7-7.1,0-9.8L279.1,466.4z"/>
					<path fill="#231F20" d="M615,505.6L615,505.6c2.7,2.7,7.1,2.7,9.8,0l19.6-19.6v-19.6L615,495.8
						C612.3,498.5,612.3,502.9,615,505.6z"/>
					<path fill="#231F20" d="M-20.5,446.7c-2.7-2.7-7.1-2.7-9.8,0L-50,466.4V486l29.5-29.5C-17.8,453.8-17.8,449.4-20.5,446.7z"/>
					<path fill="#231F20" d="M555.1,466.4c-2.7-2.7-7.1-2.7-9.8,0h0c-2.7,2.7-2.7,7.1,0,9.8l49.1,49.1c2.7,2.7,7.1,2.7,9.8,0v0
						c2.7-2.7,2.7-7.1,0-9.8L555.1,466.4z"/>
					<path fill="#231F20" d="M119,487.6c-2.7-2.7-7.1-2.7-9.8,0L60,536.7c-2.7,2.7-2.7,7.1,0,9.8l0,0c2.7,2.7,7.1,2.7,9.8,0
						l49.1-49.1C121.7,494.7,121.7,490.3,119,487.6L119,487.6z"/>
					<path fill="#231F20" d="M258.4,487.6c-2.7-2.7-7.1-2.7-9.8,0l-49.1,49.1c-2.7,2.7-2.7,7.1,0,9.8c2.7,2.7,7.1,2.7,9.8,0
						l49.1-49.1C261.2,494.7,261.2,490.3,258.4,487.6L258.4,487.6z"/>
					<path fill="#231F20" d="M139.6,507.2c-2.7-2.7-7.1-2.7-9.8,0c-2.7,2.7-2.7,7.1,0,9.8l49.1,49.1c2.7,2.7,7.1,2.7,9.8,0l0,0
						c2.7-2.7,2.7-7.1,0-9.8L139.6,507.2z"/>
					<path fill="#231F20" d="M0.1,507.2c-2.7-2.7-7.1-2.7-9.8,0c-2.7,2.7-2.7,7.1,0,9.8l49.1,49.1c2.7,2.7,7.1,2.7,9.8,0h0
						c2.7-2.7,2.7-7.1,0-9.8L0.1,507.2z"/>
					<path fill="#231F20" d="M397,487.6c-2.7-2.7-7.1-2.7-9.8,0L338,536.7c-2.7,2.7-2.7,7.1,0,9.8c2.7,2.7,7.1,2.7,9.8,0l49.1-49.1
						C399.7,494.7,399.7,490.3,397,487.6L397,487.6z"/>
					<path fill="#231F20" d="M534.5,487.6c-2.7-2.7-7.1-2.7-9.8,0l-49.1,49.1c-2.7,2.7-2.7,7.1,0,9.8c2.7,2.7,7.1,2.7,9.8,0
						l49.1-49.1C537.2,494.7,537.2,490.3,534.5,487.6L534.5,487.6z"/>
					<path fill="#231F20" d="M416.6,507.2c-2.7-2.7-7.1-2.7-9.8,0c-2.7,2.7-2.7,7.1,0,9.8l49.1,49.1c2.7,2.7,7.1,2.7,9.8,0l0,0
						c2.7-2.7,2.7-7.1,0-9.8L416.6,507.2z"/>
					<path fill="#231F20" d="M279.1,507.2c-2.7-2.7-7.1-2.7-9.8,0v0c-2.7,2.7-2.7,7.1,0,9.8l49.1,49.1c2.7,2.7,7.1,2.7,9.8,0
						s2.7-7.1,0-9.8L279.1,507.2z"/>
					<path fill="#231F20" d="M615,546.5c2.7,2.7,7.1,2.7,9.8,0l19.6-19.6v-19.6L615,536.7C612.3,539.4,612.3,543.8,615,546.5z"/>
					<path fill="#231F20" d="M-20.5,487.6L-20.5,487.6c-2.7-2.7-7.1-2.7-9.8,0L-50,507.2v19.6l29.5-29.5
						C-17.8,494.7-17.8,490.3-20.5,487.6z"/>
					<path fill="#231F20" d="M555.1,507.2c-2.7-2.7-7.1-2.7-9.8,0l0,0c-2.7,2.7-2.7,7.1,0,9.8l49.1,49.1c2.7,2.7,7.1,2.7,9.8,0
						s2.7-7.1,0-9.8L555.1,507.2z"/>
					<path fill="#231F20" d="M109.1,528.4L60,577.5c-2.7,2.7-2.7,7.1,0,9.8l0,0c2.7,2.7,7.1,2.7,9.8,0l49.1-49.1
						c2.7-2.7,2.7-7.1,0-9.8C116.2,525.7,111.8,525.7,109.1,528.4z"/>
					<path fill="#231F20" d="M248.6,528.4l-49.1,49.1c-2.7,2.7-2.7,7.1,0,9.8c2.7,2.7,7.1,2.7,9.8,0l49.1-49.1
						c2.7-2.7,2.7-7.1,0-9.8C255.7,525.7,251.3,525.7,248.6,528.4z"/>
					<path fill="#231F20" d="M139.6,548c-2.7-2.7-7.1-2.7-9.8,0v0c-2.7,2.7-2.7,7.1,0,9.8l49.1,49.1c2.7,2.7,7.1,2.7,9.8,0l0,0
						c2.7-2.7,2.7-7.1,0-9.8L139.6,548z"/>
					<path fill="#231F20" d="M0.1,548c-2.7-2.7-7.1-2.7-9.8,0c-2.7,2.7-2.7,7.1,0,9.8L39.4,607c2.7,2.7,7.1,2.7,9.8,0l0,0
						c2.7-2.7,2.7-7.1,0-9.8L0.1,548z"/>
					<path fill="#231F20" d="M397,528.4c-2.7-2.7-7.1-2.7-9.8,0L338,577.6c-2.7,2.7-2.7,7.1,0,9.8c2.7,2.7,7.1,2.7,9.8,0l49.1-49.1
						C399.7,535.6,399.7,531.2,397,528.4L397,528.4z"/>
					<path fill="#231F20" d="M534.5,528.4c-2.7-2.7-7.1-2.7-9.8,0l-49.1,49.1c-2.7,2.7-2.7,7.1,0,9.8c2.7,2.7,7.1,2.7,9.8,0
						l49.1-49.1C537.2,535.6,537.2,531.2,534.5,528.4L534.5,528.4z"/>
					<path fill="#231F20" d="M416.6,548.1c-2.7-2.7-7.1-2.7-9.8,0c-2.7,2.7-2.7,7.1,0,9.8l49.1,49.1c2.7,2.7,7.1,2.7,9.8,0h0
						c2.7-2.7,2.7-7.1,0-9.8L416.6,548.1z"/>
					<path fill="#231F20" d="M279.1,548.1c-2.7-2.7-7.1-2.7-9.8,0c-2.7,2.7-2.7,7.1,0,9.8l49.1,49.1c2.7,2.7,7.1,2.7,9.8,0
						c2.7-2.7,2.7-7.1,0-9.8L279.1,548.1z"/>
					<path fill="#231F20" d="M615,587.4c2.7,2.7,7.1,2.7,9.8,0l19.6-19.6v-19.6L615,577.5C612.3,580.2,612.3,584.6,615,587.4z"/>
					<path fill="#231F20" d="M-20.5,528.4c-2.7-2.7-7.1-2.7-9.8,0L-50,548.1v19.6l29.5-29.5C-17.8,535.5-17.8,531.1-20.5,528.4z"/>
					<path fill="#231F20" d="M555.1,548.1c-2.7-2.7-7.1-2.7-9.8,0h0c-2.7,2.7-2.7,7.1,0,9.8l49.1,49.1c2.7,2.7,7.1,2.7,9.8,0
						c2.7-2.7,2.7-7.1,0-9.8L555.1,548.1z"/>
					<path fill="#231F20" d="M119,610.1c-2.7-2.7-7.1-2.7-9.8,0l-34.4,34.4h19.6L119,620C121.7,617.2,121.7,612.8,119,610.1z"/>
					<path fill="#231F20" d="M258.4,610.1c-2.7-2.7-7.1-2.7-9.8,0l-34.4,34.4h19.6l24.5-24.5C261.2,617.2,261.2,612.8,258.4,610.1z"
						/>
					<path fill="#231F20" d="M129.8,629.7c-2.7,2.7-2.7,7.1,0,9.8l4.9,4.9h19.6l-14.8-14.8C136.9,627,132.5,627,129.8,629.7z"/>
					<path fill="#231F20" d="M-9.7,629.7L-9.7,629.7c-2.7,2.7-2.7,7.1,0,9.8l4.9,4.9h19.6L0.1,629.7C-2.6,627-7,627-9.7,629.7z"/>
					<path fill="#231F20" d="M397,610.2L397,610.2c-2.7-2.7-7.1-2.7-9.8,0l-34.3,34.3h19.6L397,620
						C399.7,617.3,399.7,612.9,397,610.2z"/>
					<path fill="#231F20" d="M534.5,610.2L534.5,610.2c-2.7-2.7-7.1-2.7-9.8,0l-34.3,34.3h19.6l24.5-24.5
						C537.2,617.3,537.2,612.9,534.5,610.2z"/>
					<path fill="#231F20" d="M406.8,629.8c-2.7,2.7-2.7,7.1,0,9.8l4.9,4.9h19.6l-14.7-14.7C413.9,627,409.5,627,406.8,629.8z"/>
					<path fill="#231F20" d="M269.3,629.8L269.3,629.8c-2.7,2.7-2.7,7.1,0,9.8l4.9,4.9h19.6l-14.7-14.7
						C276.4,627.1,272,627.1,269.3,629.8z"/>
					<polygon fill="#231F20" points="644.5,629.8 629.8,644.5 644.5,644.5 					"/>
					<path fill="#231F20" d="M-20.5,610.1c-2.7-2.7-7.1-2.7-9.8,0L-50,629.8v14.7h4.9l24.5-24.5C-17.8,617.2-17.8,612.8-20.5,610.1z
						"/>
					<path fill="#231F20" d="M545.3,629.8L545.3,629.8c-2.7,2.7-2.7,7.1,0,9.8l4.9,4.9h19.6l-14.7-14.7
						C552.4,627.1,548,627.1,545.3,629.8z"/>
				</g>
			</g>
		</g>
	</g>
</g>
</svg>