<?xml version="1.0" encoding="utf-8"?>
<!-- Generator: Adobe Illustrator 23.0.4, SVG Export Plug-In . SVG Version: 6.00 Build 0)  -->
<svg version="1.1" id="Layer_1" xmlns="http://www.w3.org/2000/svg" xmlns:xlink="http://www.w3.org/1999/xlink" x="0px" y="0px"
	 viewBox="0 0 100 100" style="enable-background:new 0 0 100 100;" xml:space="preserve">
<style type="text/css">
	.st0{clip-path:url(#background_2_);}
</style>
<g>
	<defs>
		<rect id="background_1_" x="0" width="100" height="100"/>
	</defs>
	<clipPath id="background_2_">
		<use xlink:href="#background_1_"  style="overflow:visible;"/>
	</clipPath>
	<g class="st0">
		<g id="dots_1_">
			<path d="M85.9,8.4c1.4,0,2.5-1.1,2.5-2.5c0-1.4-1.1-2.5-2.5-2.5c-1.4,0-2.5,1.1-2.5,2.5C83.3,7.2,84.5,8.4,85.9,8.4z"/>
			<path d="M95.9,18.4c1.4,0,2.5-1.1,2.5-2.5c0-1.4-1.1-2.5-2.5-2.5c-1.4,0-2.5,1.1-2.5,2.5C93.3,17.2,94.5,18.4,95.9,18.4z"/>
			<path d="M65.9,8.4c1.4,0,2.5-1.1,2.5-2.5c0-1.4-1.1-2.5-2.5-2.5c-1.4,0-2.5,1.1-2.5,2.5C63.3,7.2,64.5,8.4,65.9,8.4z"/>
			<path d="M75.9,18.4c1.4,0,2.5-1.1,2.5-2.5c0-1.4-1.1-2.5-2.5-2.5c-1.4,0-2.5,1.1-2.5,2.5C73.3,17.2,74.5,18.4,75.9,18.4z"/>
			<path d="M85.9,28.4c1.4,0,2.5-1.1,2.5-2.5c0-1.4-1.1-2.5-2.5-2.5c-1.4,0-2.5,1.1-2.5,2.5C83.3,27.2,84.5,28.4,85.9,28.4z"/>
			<path d="M95.9,38.4c1.4,0,2.5-1.1,2.5-2.5c0-1.4-1.1-2.5-2.5-2.5c-1.4,0-2.5,1.1-2.5,2.5C93.3,37.2,94.5,38.4,95.9,38.4z"/>
			<path d="M45.9,8.4c1.4,0,2.5-1.1,2.5-2.5c0-1.4-1.1-2.5-2.5-2.5c-1.4,0-2.5,1.1-2.5,2.5C43.3,7.2,44.5,8.4,45.9,8.4z"/>
			<path d="M55.9,18.4c1.4,0,2.5-1.1,2.5-2.5c0-1.4-1.1-2.5-2.5-2.5c-1.4,0-2.5,1.1-2.5,2.5C53.3,17.2,54.5,18.4,55.9,18.4z"/>
			<path d="M65.9,28.4c1.4,0,2.5-1.1,2.5-2.5c0-1.4-1.1-2.5-2.5-2.5c-1.4,0-2.5,1.1-2.5,2.5C63.3,27.2,64.5,28.4,65.9,28.4z"/>
			<path d="M75.9,38.4c1.4,0,2.5-1.1,2.5-2.5c0-1.4-1.1-2.5-2.5-2.5c-1.4,0-2.5,1.1-2.5,2.5C73.3,37.2,74.5,38.4,75.9,38.4z"/>
			<path d="M85.9,48.4c1.4,0,2.5-1.1,2.5-2.5c0-1.4-1.1-2.5-2.5-2.5c-1.4,0-2.5,1.1-2.5,2.5C83.3,47.2,84.5,48.4,85.9,48.4z"/>
			<path d="M95.9,58.4c1.4,0,2.5-1.1,2.5-2.5c0-1.4-1.1-2.5-2.5-2.5c-1.4,0-2.5,1.1-2.5,2.5C93.3,57.2,94.5,58.4,95.9,58.4z"/>
			<path d="M25.9,8.4c1.4,0,2.5-1.1,2.5-2.5c0-1.4-1.1-2.5-2.5-2.5c-1.4,0-2.5,1.1-2.5,2.5C23.3,7.2,24.5,8.4,25.9,8.4z"/>
			<path d="M35.9,18.4c1.4,0,2.5-1.1,2.5-2.5c0-1.4-1.1-2.5-2.5-2.5c-1.4,0-2.5,1.1-2.5,2.5C33.3,17.2,34.5,18.4,35.9,18.4z"/>
			<path d="M45.9,28.4c1.4,0,2.5-1.1,2.5-2.5c0-1.4-1.1-2.5-2.5-2.5c-1.4,0-2.5,1.1-2.5,2.5C43.3,27.2,44.5,28.4,45.9,28.4z"/>
			<path d="M55.9,38.4c1.4,0,2.5-1.1,2.5-2.5c0-1.4-1.1-2.5-2.5-2.5c-1.4,0-2.5,1.1-2.5,2.5C53.3,37.2,54.5,38.4,55.9,38.4z"/>
			<path d="M65.9,48.4c1.4,0,2.5-1.1,2.5-2.5c0-1.4-1.1-2.5-2.5-2.5c-1.4,0-2.5,1.1-2.5,2.5C63.3,47.2,64.5,48.4,65.9,48.4z"/>
			<path d="M75.9,58.4c1.4,0,2.5-1.1,2.5-2.5c0-1.4-1.1-2.5-2.5-2.5c-1.4,0-2.5,1.1-2.5,2.5C73.3,57.2,74.5,58.4,75.9,58.4z"/>
			<path d="M85.9,68.4c1.4,0,2.5-1.1,2.5-2.5c0-1.4-1.1-2.5-2.5-2.5c-1.4,0-2.5,1.1-2.5,2.5C83.3,67.2,84.5,68.4,85.9,68.4z"/>
			<path d="M95.9,78.4c1.4,0,2.5-1.1,2.5-2.5c0-1.4-1.1-2.5-2.5-2.5c-1.4,0-2.5,1.1-2.5,2.5C93.3,77.2,94.5,78.4,95.9,78.4z"/>
			<path d="M5.9,8.4c1.4,0,2.5-1.1,2.5-2.5c0-1.4-1.1-2.5-2.5-2.5c-1.4,0-2.5,1.1-2.5,2.5C3.3,7.2,4.5,8.4,5.9,8.4z"/>
			<path d="M15.9,18.4c1.4,0,2.5-1.1,2.5-2.5c0-1.4-1.1-2.5-2.5-2.5c-1.4,0-2.5,1.1-2.5,2.5C13.3,17.2,14.5,18.4,15.9,18.4z"/>
			<path d="M25.9,28.4c1.4,0,2.5-1.1,2.5-2.5c0-1.4-1.1-2.5-2.5-2.5c-1.4,0-2.5,1.1-2.5,2.5C23.3,27.2,24.5,28.4,25.9,28.4z"/>
			<path d="M35.9,38.4c1.4,0,2.5-1.1,2.5-2.5c0-1.4-1.1-2.5-2.5-2.5c-1.4,0-2.5,1.1-2.5,2.5C33.3,37.2,34.5,38.4,35.9,38.4z"/>
			<path d="M45.9,48.4c1.4,0,2.5-1.1,2.5-2.5c0-1.4-1.1-2.5-2.5-2.5c-1.4,0-2.5,1.1-2.5,2.5C43.3,47.2,44.5,48.4,45.9,48.4z"/>
			<path d="M55.9,58.4c1.4,0,2.5-1.1,2.5-2.5c0-1.4-1.1-2.5-2.5-2.5c-1.4,0-2.5,1.1-2.5,2.5C53.3,57.2,54.5,58.4,55.9,58.4z"/>
			<path d="M65.9,68.4c1.4,0,2.5-1.1,2.5-2.5c0-1.4-1.1-2.5-2.5-2.5c-1.4,0-2.5,1.1-2.5,2.5C63.3,67.2,64.5,68.4,65.9,68.4z"/>
			<path d="M75.9,78.4c1.4,0,2.5-1.1,2.5-2.5c0-1.4-1.1-2.5-2.5-2.5c-1.4,0-2.5,1.1-2.5,2.5C73.3,77.2,74.5,78.4,75.9,78.4z"/>
			<path d="M85.9,88.4c1.4,0,2.5-1.1,2.5-2.5c0-1.4-1.1-2.5-2.5-2.5c-1.4,0-2.5,1.1-2.5,2.5C83.3,87.2,84.5,88.4,85.9,88.4z"/>
			<path d="M95.9,98.4c1.4,0,2.5-1.1,2.5-2.5c0-1.4-1.1-2.5-2.5-2.5c-1.4,0-2.5,1.1-2.5,2.5C93.3,97.2,94.5,98.4,95.9,98.4z"/>
			<path d="M5.9,28.4c1.4,0,2.5-1.1,2.5-2.5c0-1.4-1.1-2.5-2.5-2.5c-1.4,0-2.5,1.1-2.5,2.5C3.3,27.2,4.5,28.4,5.9,28.4z"/>
			<path d="M15.9,38.4c1.4,0,2.5-1.1,2.5-2.5c0-1.4-1.1-2.5-2.5-2.5c-1.4,0-2.5,1.1-2.5,2.5C13.3,37.2,14.5,38.4,15.9,38.4z"/>
			<path d="M25.9,48.4c1.4,0,2.5-1.1,2.5-2.5c0-1.4-1.1-2.5-2.5-2.5c-1.4,0-2.5,1.1-2.5,2.5C23.3,47.2,24.5,48.4,25.9,48.4z"/>
			<path d="M35.9,58.4c1.4,0,2.5-1.1,2.5-2.5c0-1.4-1.1-2.5-2.5-2.5c-1.4,0-2.5,1.1-2.5,2.5C33.3,57.2,34.5,58.4,35.9,58.4z"/>
			<path d="M45.9,68.4c1.4,0,2.5-1.1,2.5-2.5c0-1.4-1.1-2.5-2.5-2.5c-1.4,0-2.5,1.1-2.5,2.5C43.3,67.2,44.5,68.4,45.9,68.4z"/>
			<path d="M55.9,78.4c1.4,0,2.5-1.1,2.5-2.5c0-1.4-1.1-2.5-2.5-2.5c-1.4,0-2.5,1.1-2.5,2.5C53.3,77.2,54.5,78.4,55.9,78.4z"/>
			<circle cx="65.9" cy="85.9" r="2.5"/>
			<path d="M75.9,98.4c1.4,0,2.5-1.1,2.5-2.5c0-1.4-1.1-2.5-2.5-2.5c-1.4,0-2.5,1.1-2.5,2.5C73.3,97.2,74.5,98.4,75.9,98.4z"/>
			<path d="M5.9,48.4c1.4,0,2.5-1.1,2.5-2.5c0-1.4-1.1-2.5-2.5-2.5c-1.4,0-2.5,1.1-2.5,2.5C3.3,47.2,4.5,48.4,5.9,48.4z"/>
			<path d="M15.9,58.4c1.4,0,2.5-1.1,2.5-2.5c0-1.4-1.1-2.5-2.5-2.5c-1.4,0-2.5,1.1-2.5,2.5C13.3,57.2,14.5,58.4,15.9,58.4z"/>
			<path d="M25.9,68.4c1.4,0,2.5-1.1,2.5-2.5c0-1.4-1.1-2.5-2.5-2.5c-1.4,0-2.5,1.1-2.5,2.5C23.3,67.2,24.5,68.4,25.9,68.4z"/>
			<path d="M35.9,78.4c1.4,0,2.5-1.1,2.5-2.5c0-1.4-1.1-2.5-2.5-2.5c-1.4,0-2.5,1.1-2.5,2.5C33.3,77.2,34.5,78.4,35.9,78.4z"/>
			<path d="M45.9,88.4c1.4,0,2.5-1.1,2.5-2.5c0-1.4-1.1-2.5-2.5-2.5c-1.4,0-2.5,1.1-2.5,2.5C43.3,87.2,44.5,88.4,45.9,88.4z"/>
			<path d="M55.9,98.4c1.4,0,2.5-1.1,2.5-2.5c0-1.4-1.1-2.5-2.5-2.5c-1.4,0-2.5,1.1-2.5,2.5C53.3,97.2,54.5,98.4,55.9,98.4z"/>
			<path d="M5.9,68.4c1.4,0,2.5-1.1,2.5-2.5c0-1.4-1.1-2.5-2.5-2.5c-1.4,0-2.5,1.1-2.5,2.5C3.3,67.2,4.5,68.4,5.9,68.4z"/>
			<path d="M15.9,78.4c1.4,0,2.5-1.1,2.5-2.5c0-1.4-1.1-2.5-2.5-2.5c-1.4,0-2.5,1.1-2.5,2.5C13.3,77.2,14.5,78.4,15.9,78.4z"/>
			<path d="M25.9,88.4c1.4,0,2.5-1.1,2.5-2.5c0-1.4-1.1-2.5-2.5-2.5c-1.4,0-2.5,1.1-2.5,2.5C23.3,87.2,24.5,88.4,25.9,88.4z"/>
			<path d="M35.9,98.4c1.4,0,2.5-1.1,2.5-2.5c0-1.4-1.1-2.5-2.5-2.5c-1.4,0-2.5,1.1-2.5,2.5C33.3,97.2,34.5,98.4,35.9,98.4z"/>
			<path d="M5.9,88.4c1.4,0,2.5-1.1,2.5-2.5c0-1.4-1.1-2.5-2.5-2.5c-1.4,0-2.5,1.1-2.5,2.5C3.3,87.2,4.5,88.4,5.9,88.4z"/>
			<path d="M15.9,98.4c1.4,0,2.5-1.1,2.5-2.5c0-1.4-1.1-2.5-2.5-2.5c-1.4,0-2.5,1.1-2.5,2.5C13.3,97.2,14.5,98.4,15.9,98.4z"/>
		</g>
		<g id="dots_3_">
			<path d="M-14.1,8.4c1.4,0,2.5-1.1,2.5-2.5c0-1.4-1.1-2.5-2.5-2.5c-1.4,0-2.5,1.1-2.5,2.5C-16.7,7.2-15.5,8.4-14.1,8.4z"/>
			<path d="M-4.1,18.4c1.4,0,2.5-1.1,2.5-2.5c0-1.4-1.1-2.5-2.5-2.5c-1.4,0-2.5,1.1-2.5,2.5C-6.7,17.2-5.5,18.4-4.1,18.4z"/>
			<path d="M-34.1,8.4c1.4,0,2.5-1.1,2.5-2.5c0-1.4-1.1-2.5-2.5-2.5s-2.5,1.1-2.5,2.5C-36.7,7.2-35.5,8.4-34.1,8.4z"/>
			<path d="M-24.1,18.4c1.4,0,2.5-1.1,2.5-2.5c0-1.4-1.1-2.5-2.5-2.5c-1.4,0-2.5,1.1-2.5,2.5C-26.7,17.2-25.5,18.4-24.1,18.4z"/>
			<path d="M-14.1,28.4c1.4,0,2.5-1.1,2.5-2.5c0-1.4-1.1-2.5-2.5-2.5c-1.4,0-2.5,1.1-2.5,2.5C-16.7,27.2-15.5,28.4-14.1,28.4z"/>
			<path d="M-4.1,38.4c1.4,0,2.5-1.1,2.5-2.5c0-1.4-1.1-2.5-2.5-2.5c-1.4,0-2.5,1.1-2.5,2.5C-6.7,37.2-5.5,38.4-4.1,38.4z"/>
			<path d="M-54.1,8.4c1.4,0,2.5-1.1,2.5-2.5c0-1.4-1.1-2.5-2.5-2.5c-1.4,0-2.5,1.1-2.5,2.5C-56.7,7.2-55.5,8.4-54.1,8.4z"/>
			<path d="M-44.1,18.4c1.4,0,2.5-1.1,2.5-2.5c0-1.4-1.1-2.5-2.5-2.5c-1.4,0-2.5,1.1-2.5,2.5C-46.7,17.2-45.5,18.4-44.1,18.4z"/>
			<path d="M-34.1,28.4c1.4,0,2.5-1.1,2.5-2.5c0-1.4-1.1-2.5-2.5-2.5s-2.5,1.1-2.5,2.5C-36.7,27.2-35.5,28.4-34.1,28.4z"/>
			<path d="M-24.1,38.4c1.4,0,2.5-1.1,2.5-2.5c0-1.4-1.1-2.5-2.5-2.5c-1.4,0-2.5,1.1-2.5,2.5C-26.7,37.2-25.5,38.4-24.1,38.4z"/>
			<path d="M-14.1,48.4c1.4,0,2.5-1.1,2.5-2.5c0-1.4-1.1-2.5-2.5-2.5c-1.4,0-2.5,1.1-2.5,2.5C-16.7,47.2-15.5,48.4-14.1,48.4z"/>
			<path d="M-4.1,58.4c1.4,0,2.5-1.1,2.5-2.5c0-1.4-1.1-2.5-2.5-2.5c-1.4,0-2.5,1.1-2.5,2.5C-6.7,57.2-5.5,58.4-4.1,58.4z"/>
			<path d="M-74.1,8.4c1.4,0,2.5-1.1,2.5-2.5c0-1.4-1.1-2.5-2.5-2.5c-1.4,0-2.5,1.1-2.5,2.5C-76.7,7.2-75.5,8.4-74.1,8.4z"/>
			<path d="M-64.1,18.4c1.4,0,2.5-1.1,2.5-2.5c0-1.4-1.1-2.5-2.5-2.5c-1.4,0-2.5,1.1-2.5,2.5C-66.7,17.2-65.5,18.4-64.1,18.4z"/>
			<path d="M-54.1,28.4c1.4,0,2.5-1.1,2.5-2.5c0-1.4-1.1-2.5-2.5-2.5c-1.4,0-2.5,1.1-2.5,2.5C-56.7,27.2-55.5,28.4-54.1,28.4z"/>
			<path d="M-44.1,38.4c1.4,0,2.5-1.1,2.5-2.5c0-1.4-1.1-2.5-2.5-2.5c-1.4,0-2.5,1.1-2.5,2.5C-46.7,37.2-45.5,38.4-44.1,38.4z"/>
			<path d="M-34.1,48.4c1.4,0,2.5-1.1,2.5-2.5c0-1.4-1.1-2.5-2.5-2.5s-2.5,1.1-2.5,2.5C-36.7,47.2-35.5,48.4-34.1,48.4z"/>
			<path d="M-24.1,58.4c1.4,0,2.5-1.1,2.5-2.5c0-1.4-1.1-2.5-2.5-2.5c-1.4,0-2.5,1.1-2.5,2.5C-26.7,57.2-25.5,58.4-24.1,58.4z"/>
			<path d="M-14.1,68.4c1.4,0,2.5-1.1,2.5-2.5c0-1.4-1.1-2.5-2.5-2.5c-1.4,0-2.5,1.1-2.5,2.5C-16.7,67.2-15.5,68.4-14.1,68.4z"/>
			<path d="M-4.1,78.4c1.4,0,2.5-1.1,2.5-2.5c0-1.4-1.1-2.5-2.5-2.5c-1.4,0-2.5,1.1-2.5,2.5C-6.7,77.2-5.5,78.4-4.1,78.4z"/>
			<path d="M-94.1,8.4c1.4,0,2.5-1.1,2.5-2.5c0-1.4-1.1-2.5-2.5-2.5c-1.4,0-2.5,1.1-2.5,2.5C-96.7,7.2-95.5,8.4-94.1,8.4z"/>
			<path d="M-84.1,18.4c1.4,0,2.5-1.1,2.5-2.5c0-1.4-1.1-2.5-2.5-2.5c-1.4,0-2.5,1.1-2.5,2.5C-86.7,17.2-85.5,18.4-84.1,18.4z"/>
			<path d="M-74.1,28.4c1.4,0,2.5-1.1,2.5-2.5c0-1.4-1.1-2.5-2.5-2.5c-1.4,0-2.5,1.1-2.5,2.5C-76.7,27.2-75.5,28.4-74.1,28.4z"/>
			<path d="M-64.1,38.4c1.4,0,2.5-1.1,2.5-2.5c0-1.4-1.1-2.5-2.5-2.5c-1.4,0-2.5,1.1-2.5,2.5C-66.7,37.2-65.5,38.4-64.1,38.4z"/>
			<path d="M-54.1,48.4c1.4,0,2.5-1.1,2.5-2.5c0-1.4-1.1-2.5-2.5-2.5c-1.4,0-2.5,1.1-2.5,2.5C-56.7,47.2-55.5,48.4-54.1,48.4z"/>
			<path d="M-44.1,58.4c1.4,0,2.5-1.1,2.5-2.5c0-1.4-1.1-2.5-2.5-2.5c-1.4,0-2.5,1.1-2.5,2.5C-46.7,57.2-45.5,58.4-44.1,58.4z"/>
			<path d="M-34.1,68.4c1.4,0,2.5-1.1,2.5-2.5c0-1.4-1.1-2.5-2.5-2.5s-2.5,1.1-2.5,2.5C-36.7,67.2-35.5,68.4-34.1,68.4z"/>
			<path d="M-24.1,78.4c1.4,0,2.5-1.1,2.5-2.5c0-1.4-1.1-2.5-2.5-2.5c-1.4,0-2.5,1.1-2.5,2.5C-26.7,77.2-25.5,78.4-24.1,78.4z"/>
			<path d="M-14.1,88.4c1.4,0,2.5-1.1,2.5-2.5c0-1.4-1.1-2.5-2.5-2.5c-1.4,0-2.5,1.1-2.5,2.5C-16.7,87.2-15.5,88.4-14.1,88.4z"/>
			<path d="M-4.1,98.4c1.4,0,2.5-1.1,2.5-2.5c0-1.4-1.1-2.5-2.5-2.5c-1.4,0-2.5,1.1-2.5,2.5C-6.7,97.2-5.5,98.4-4.1,98.4z"/>
			<path d="M-94.1,28.4c1.4,0,2.5-1.1,2.5-2.5c0-1.4-1.1-2.5-2.5-2.5c-1.4,0-2.5,1.1-2.5,2.5C-96.7,27.2-95.5,28.4-94.1,28.4z"/>
			<path d="M-84.1,38.4c1.4,0,2.5-1.1,2.5-2.5c0-1.4-1.1-2.5-2.5-2.5c-1.4,0-2.5,1.1-2.5,2.5C-86.7,37.2-85.5,38.4-84.1,38.4z"/>
			<path d="M-74.1,48.4c1.4,0,2.5-1.1,2.5-2.5c0-1.4-1.1-2.5-2.5-2.5c-1.4,0-2.5,1.1-2.5,2.5C-76.7,47.2-75.5,48.4-74.1,48.4z"/>
			<path d="M-64.1,58.4c1.4,0,2.5-1.1,2.5-2.5c0-1.4-1.1-2.5-2.5-2.5c-1.4,0-2.5,1.1-2.5,2.5C-66.7,57.2-65.5,58.4-64.1,58.4z"/>
			<path d="M-54.1,68.4c1.4,0,2.5-1.1,2.5-2.5c0-1.4-1.1-2.5-2.5-2.5c-1.4,0-2.5,1.1-2.5,2.5C-56.7,67.2-55.5,68.4-54.1,68.4z"/>
			<path d="M-44.1,78.4c1.4,0,2.5-1.1,2.5-2.5c0-1.4-1.1-2.5-2.5-2.5c-1.4,0-2.5,1.1-2.5,2.5C-46.7,77.2-45.5,78.4-44.1,78.4z"/>
			<circle cx="-34.1" cy="85.9" r="2.5"/>
			<path d="M-24.1,98.4c1.4,0,2.5-1.1,2.5-2.5c0-1.4-1.1-2.5-2.5-2.5c-1.4,0-2.5,1.1-2.5,2.5C-26.7,97.2-25.5,98.4-24.1,98.4z"/>
			<path d="M-94.1,48.4c1.4,0,2.5-1.1,2.5-2.5c0-1.4-1.1-2.5-2.5-2.5c-1.4,0-2.5,1.1-2.5,2.5C-96.7,47.2-95.5,48.4-94.1,48.4z"/>
			<path d="M-84.1,58.4c1.4,0,2.5-1.1,2.5-2.5c0-1.4-1.1-2.5-2.5-2.5c-1.4,0-2.5,1.1-2.5,2.5C-86.7,57.2-85.5,58.4-84.1,58.4z"/>
			<path d="M-74.1,68.4c1.4,0,2.5-1.1,2.5-2.5c0-1.4-1.1-2.5-2.5-2.5c-1.4,0-2.5,1.1-2.5,2.5C-76.7,67.2-75.5,68.4-74.1,68.4z"/>
			<path d="M-64.1,78.4c1.4,0,2.5-1.1,2.5-2.5c0-1.4-1.1-2.5-2.5-2.5c-1.4,0-2.5,1.1-2.5,2.5C-66.7,77.2-65.5,78.4-64.1,78.4z"/>
			<path d="M-54.1,88.4c1.4,0,2.5-1.1,2.5-2.5c0-1.4-1.1-2.5-2.5-2.5c-1.4,0-2.5,1.1-2.5,2.5C-56.7,87.2-55.5,88.4-54.1,88.4z"/>
			<path d="M-44.1,98.4c1.4,0,2.5-1.1,2.5-2.5c0-1.4-1.1-2.5-2.5-2.5c-1.4,0-2.5,1.1-2.5,2.5C-46.7,97.2-45.5,98.4-44.1,98.4z"/>
			<path d="M-94.1,68.4c1.4,0,2.5-1.1,2.5-2.5c0-1.4-1.1-2.5-2.5-2.5c-1.4,0-2.5,1.1-2.5,2.5C-96.7,67.2-95.5,68.4-94.1,68.4z"/>
			<path d="M-84.1,78.4c1.4,0,2.5-1.1,2.5-2.5c0-1.4-1.1-2.5-2.5-2.5c-1.4,0-2.5,1.1-2.5,2.5C-86.7,77.2-85.5,78.4-84.1,78.4z"/>
			<path d="M-74.1,88.4c1.4,0,2.5-1.1,2.5-2.5c0-1.4-1.1-2.5-2.5-2.5c-1.4,0-2.5,1.1-2.5,2.5C-76.7,87.2-75.5,88.4-74.1,88.4z"/>
			<path d="M-64.1,98.4c1.4,0,2.5-1.1,2.5-2.5c0-1.4-1.1-2.5-2.5-2.5c-1.4,0-2.5,1.1-2.5,2.5C-66.7,97.2-65.5,98.4-64.1,98.4z"/>
			<path d="M-94.1,88.4c1.4,0,2.5-1.1,2.5-2.5c0-1.4-1.1-2.5-2.5-2.5c-1.4,0-2.5,1.1-2.5,2.5C-96.7,87.2-95.5,88.4-94.1,88.4z"/>
			<path d="M-84.1,98.4c1.4,0,2.5-1.1,2.5-2.5c0-1.4-1.1-2.5-2.5-2.5c-1.4,0-2.5,1.1-2.5,2.5C-86.7,97.2-85.5,98.4-84.1,98.4z"/>
		</g>
		<g id="dots_2_">
			<path d="M185.9,8.4c1.4,0,2.5-1.1,2.5-2.5c0-1.4-1.1-2.5-2.5-2.5c-1.4,0-2.5,1.1-2.5,2.5C183.3,7.2,184.5,8.4,185.9,8.4z"/>
			<path d="M195.9,18.4c1.4,0,2.5-1.1,2.5-2.5c0-1.4-1.1-2.5-2.5-2.5c-1.4,0-2.5,1.1-2.5,2.5C193.3,17.2,194.5,18.4,195.9,18.4z"/>
			<path d="M165.9,8.4c1.4,0,2.5-1.1,2.5-2.5c0-1.4-1.1-2.5-2.5-2.5c-1.4,0-2.5,1.1-2.5,2.5C163.3,7.2,164.5,8.4,165.9,8.4z"/>
			<path d="M175.9,18.4c1.4,0,2.5-1.1,2.5-2.5c0-1.4-1.1-2.5-2.5-2.5c-1.4,0-2.5,1.1-2.5,2.5C173.3,17.2,174.5,18.4,175.9,18.4z"/>
			<path d="M185.9,28.4c1.4,0,2.5-1.1,2.5-2.5c0-1.4-1.1-2.5-2.5-2.5c-1.4,0-2.5,1.1-2.5,2.5C183.3,27.2,184.5,28.4,185.9,28.4z"/>
			<path d="M195.9,38.4c1.4,0,2.5-1.1,2.5-2.5c0-1.4-1.1-2.5-2.5-2.5c-1.4,0-2.5,1.1-2.5,2.5C193.3,37.2,194.5,38.4,195.9,38.4z"/>
			<path d="M145.9,8.4c1.4,0,2.5-1.1,2.5-2.5c0-1.4-1.1-2.5-2.5-2.5c-1.4,0-2.5,1.1-2.5,2.5C143.3,7.2,144.5,8.4,145.9,8.4z"/>
			<path d="M155.9,18.4c1.4,0,2.5-1.1,2.5-2.5c0-1.4-1.1-2.5-2.5-2.5c-1.4,0-2.5,1.1-2.5,2.5C153.3,17.2,154.5,18.4,155.9,18.4z"/>
			<path d="M165.9,28.4c1.4,0,2.5-1.1,2.5-2.5c0-1.4-1.1-2.5-2.5-2.5c-1.4,0-2.5,1.1-2.5,2.5C163.3,27.2,164.5,28.4,165.9,28.4z"/>
			<path d="M175.9,38.4c1.4,0,2.5-1.1,2.5-2.5c0-1.4-1.1-2.5-2.5-2.5c-1.4,0-2.5,1.1-2.5,2.5C173.3,37.2,174.5,38.4,175.9,38.4z"/>
			<path d="M185.9,48.4c1.4,0,2.5-1.1,2.5-2.5c0-1.4-1.1-2.5-2.5-2.5c-1.4,0-2.5,1.1-2.5,2.5C183.3,47.2,184.5,48.4,185.9,48.4z"/>
			<path d="M195.9,58.4c1.4,0,2.5-1.1,2.5-2.5c0-1.4-1.1-2.5-2.5-2.5c-1.4,0-2.5,1.1-2.5,2.5C193.3,57.2,194.5,58.4,195.9,58.4z"/>
			<path d="M125.9,8.4c1.4,0,2.5-1.1,2.5-2.5c0-1.4-1.1-2.5-2.5-2.5c-1.4,0-2.5,1.1-2.5,2.5C123.3,7.2,124.5,8.4,125.9,8.4z"/>
			<path d="M135.9,18.4c1.4,0,2.5-1.1,2.5-2.5c0-1.4-1.1-2.5-2.5-2.5c-1.4,0-2.5,1.1-2.5,2.5C133.3,17.2,134.5,18.4,135.9,18.4z"/>
			<path d="M145.9,28.4c1.4,0,2.5-1.1,2.5-2.5c0-1.4-1.1-2.5-2.5-2.5c-1.4,0-2.5,1.1-2.5,2.5C143.3,27.2,144.5,28.4,145.9,28.4z"/>
			<path d="M155.9,38.4c1.4,0,2.5-1.1,2.5-2.5c0-1.4-1.1-2.5-2.5-2.5c-1.4,0-2.5,1.1-2.5,2.5C153.3,37.2,154.5,38.4,155.9,38.4z"/>
			<path d="M165.9,48.4c1.4,0,2.5-1.1,2.5-2.5c0-1.4-1.1-2.5-2.5-2.5c-1.4,0-2.5,1.1-2.5,2.5C163.3,47.2,164.5,48.4,165.9,48.4z"/>
			<path d="M175.9,58.4c1.4,0,2.5-1.1,2.5-2.5c0-1.4-1.1-2.5-2.5-2.5c-1.4,0-2.5,1.1-2.5,2.5C173.3,57.2,174.5,58.4,175.9,58.4z"/>
			<path d="M185.9,68.4c1.4,0,2.5-1.1,2.5-2.5c0-1.4-1.1-2.5-2.5-2.5c-1.4,0-2.5,1.1-2.5,2.5C183.3,67.2,184.5,68.4,185.9,68.4z"/>
			<path d="M195.9,78.4c1.4,0,2.5-1.1,2.5-2.5c0-1.4-1.1-2.5-2.5-2.5c-1.4,0-2.5,1.1-2.5,2.5C193.3,77.2,194.5,78.4,195.9,78.4z"/>
			<path d="M105.9,8.4c1.4,0,2.5-1.1,2.5-2.5c0-1.4-1.1-2.5-2.5-2.5c-1.4,0-2.5,1.1-2.5,2.5C103.3,7.2,104.5,8.4,105.9,8.4z"/>
			<path d="M115.9,18.4c1.4,0,2.5-1.1,2.5-2.5c0-1.4-1.1-2.5-2.5-2.5c-1.4,0-2.5,1.1-2.5,2.5C113.3,17.2,114.5,18.4,115.9,18.4z"/>
			<path d="M125.9,28.4c1.4,0,2.5-1.1,2.5-2.5c0-1.4-1.1-2.5-2.5-2.5c-1.4,0-2.5,1.1-2.5,2.5C123.3,27.2,124.5,28.4,125.9,28.4z"/>
			<path d="M135.9,38.4c1.4,0,2.5-1.1,2.5-2.5c0-1.4-1.1-2.5-2.5-2.5c-1.4,0-2.5,1.1-2.5,2.5C133.3,37.2,134.5,38.4,135.9,38.4z"/>
			<path d="M145.9,48.4c1.4,0,2.5-1.1,2.5-2.5c0-1.4-1.1-2.5-2.5-2.5c-1.4,0-2.5,1.1-2.5,2.5C143.3,47.2,144.5,48.4,145.9,48.4z"/>
			<path d="M155.9,58.4c1.4,0,2.5-1.1,2.5-2.5c0-1.4-1.1-2.5-2.5-2.5c-1.4,0-2.5,1.1-2.5,2.5C153.3,57.2,154.5,58.4,155.9,58.4z"/>
			<path d="M165.9,68.4c1.4,0,2.5-1.1,2.5-2.5c0-1.4-1.1-2.5-2.5-2.5c-1.4,0-2.5,1.1-2.5,2.5C163.3,67.2,164.5,68.4,165.9,68.4z"/>
			<path d="M175.9,78.4c1.4,0,2.5-1.1,2.5-2.5c0-1.4-1.1-2.5-2.5-2.5c-1.4,0-2.5,1.1-2.5,2.5C173.3,77.2,174.5,78.4,175.9,78.4z"/>
			<path d="M185.9,88.4c1.4,0,2.5-1.1,2.5-2.5c0-1.4-1.1-2.5-2.5-2.5c-1.4,0-2.5,1.1-2.5,2.5C183.3,87.2,184.5,88.4,185.9,88.4z"/>
			<path d="M195.9,98.4c1.4,0,2.5-1.1,2.5-2.5c0-1.4-1.1-2.5-2.5-2.5c-1.4,0-2.5,1.1-2.5,2.5C193.3,97.2,194.5,98.4,195.9,98.4z"/>
			<path d="M105.9,28.4c1.4,0,2.5-1.1,2.5-2.5c0-1.4-1.1-2.5-2.5-2.5c-1.4,0-2.5,1.1-2.5,2.5C103.3,27.2,104.5,28.4,105.9,28.4z"/>
			<path d="M115.9,38.4c1.4,0,2.5-1.1,2.5-2.5c0-1.4-1.1-2.5-2.5-2.5c-1.4,0-2.5,1.1-2.5,2.5C113.3,37.2,114.5,38.4,115.9,38.4z"/>
			<path d="M125.9,48.4c1.4,0,2.5-1.1,2.5-2.5c0-1.4-1.1-2.5-2.5-2.5c-1.4,0-2.5,1.1-2.5,2.5C123.3,47.2,124.5,48.4,125.9,48.4z"/>
			<path d="M135.9,58.4c1.4,0,2.5-1.1,2.5-2.5c0-1.4-1.1-2.5-2.5-2.5c-1.4,0-2.5,1.1-2.5,2.5C133.3,57.2,134.5,58.4,135.9,58.4z"/>
			<path d="M145.9,68.4c1.4,0,2.5-1.1,2.5-2.5c0-1.4-1.1-2.5-2.5-2.5c-1.4,0-2.5,1.1-2.5,2.5C143.3,67.2,144.5,68.4,145.9,68.4z"/>
			<path d="M155.9,78.4c1.4,0,2.5-1.1,2.5-2.5c0-1.4-1.1-2.5-2.5-2.5c-1.4,0-2.5,1.1-2.5,2.5C153.3,77.2,154.5,78.4,155.9,78.4z"/>
			<circle cx="165.9" cy="85.9" r="2.5"/>
			<path d="M175.9,98.4c1.4,0,2.5-1.1,2.5-2.5c0-1.4-1.1-2.5-2.5-2.5c-1.4,0-2.5,1.1-2.5,2.5C173.3,97.2,174.5,98.4,175.9,98.4z"/>
			<path d="M105.9,48.4c1.4,0,2.5-1.1,2.5-2.5c0-1.4-1.1-2.5-2.5-2.5c-1.4,0-2.5,1.1-2.5,2.5C103.3,47.2,104.5,48.4,105.9,48.4z"/>
			<path d="M115.9,58.4c1.4,0,2.5-1.1,2.5-2.5c0-1.4-1.1-2.5-2.5-2.5c-1.4,0-2.5,1.1-2.5,2.5C113.3,57.2,114.5,58.4,115.9,58.4z"/>
			<path d="M125.9,68.4c1.4,0,2.5-1.1,2.5-2.5c0-1.4-1.1-2.5-2.5-2.5c-1.4,0-2.5,1.1-2.5,2.5C123.3,67.2,124.5,68.4,125.9,68.4z"/>
			<path d="M135.9,78.4c1.4,0,2.5-1.1,2.5-2.5c0-1.4-1.1-2.5-2.5-2.5c-1.4,0-2.5,1.1-2.5,2.5C133.3,77.2,134.5,78.4,135.9,78.4z"/>
			<path d="M145.9,88.4c1.4,0,2.5-1.1,2.5-2.5c0-1.4-1.1-2.5-2.5-2.5c-1.4,0-2.5,1.1-2.5,2.5C143.3,87.2,144.5,88.4,145.9,88.4z"/>
			<path d="M155.9,98.4c1.4,0,2.5-1.1,2.5-2.5c0-1.4-1.1-2.5-2.5-2.5c-1.4,0-2.5,1.1-2.5,2.5C153.3,97.2,154.5,98.4,155.9,98.4z"/>
			<path d="M105.9,68.4c1.4,0,2.5-1.1,2.5-2.5c0-1.4-1.1-2.5-2.5-2.5c-1.4,0-2.5,1.1-2.5,2.5C103.3,67.2,104.5,68.4,105.9,68.4z"/>
			<path d="M115.9,78.4c1.4,0,2.5-1.1,2.5-2.5c0-1.4-1.1-2.5-2.5-2.5c-1.4,0-2.5,1.1-2.5,2.5C113.3,77.2,114.5,78.4,115.9,78.4z"/>
			<path d="M125.9,88.4c1.4,0,2.5-1.1,2.5-2.5c0-1.4-1.1-2.5-2.5-2.5c-1.4,0-2.5,1.1-2.5,2.5C123.3,87.2,124.5,88.4,125.9,88.4z"/>
			<path d="M135.9,98.4c1.4,0,2.5-1.1,2.5-2.5c0-1.4-1.1-2.5-2.5-2.5c-1.4,0-2.5,1.1-2.5,2.5C133.3,97.2,134.5,98.4,135.9,98.4z"/>
			<path d="M105.9,88.4c1.4,0,2.5-1.1,2.5-2.5c0-1.4-1.1-2.5-2.5-2.5c-1.4,0-2.5,1.1-2.5,2.5C103.3,87.2,104.5,88.4,105.9,88.4z"/>
			<path d="M115.9,98.4c1.4,0,2.5-1.1,2.5-2.5c0-1.4-1.1-2.5-2.5-2.5c-1.4,0-2.5,1.1-2.5,2.5C113.3,97.2,114.5,98.4,115.9,98.4z"/>
		</g>
		<g id="dots_9_">
			<path d="M85.9-91.6c1.4,0,2.5-1.1,2.5-2.5c0-1.4-1.1-2.5-2.5-2.5c-1.4,0-2.5,1.1-2.5,2.5C83.3-92.8,84.5-91.6,85.9-91.6z"/>
			<path d="M95.9-81.6c1.4,0,2.5-1.1,2.5-2.5c0-1.4-1.1-2.5-2.5-2.5c-1.4,0-2.5,1.1-2.5,2.5C93.3-82.8,94.5-81.6,95.9-81.6z"/>
			<path d="M65.9-91.6c1.4,0,2.5-1.1,2.5-2.5c0-1.4-1.1-2.5-2.5-2.5c-1.4,0-2.5,1.1-2.5,2.5C63.3-92.8,64.5-91.6,65.9-91.6z"/>
			<path d="M75.9-81.6c1.4,0,2.5-1.1,2.5-2.5c0-1.4-1.1-2.5-2.5-2.5c-1.4,0-2.5,1.1-2.5,2.5C73.3-82.8,74.5-81.6,75.9-81.6z"/>
			<path d="M85.9-71.6c1.4,0,2.5-1.1,2.5-2.5c0-1.4-1.1-2.5-2.5-2.5c-1.4,0-2.5,1.1-2.5,2.5C83.3-72.8,84.5-71.6,85.9-71.6z"/>
			<path d="M95.9-61.6c1.4,0,2.5-1.1,2.5-2.5c0-1.4-1.1-2.5-2.5-2.5c-1.4,0-2.5,1.1-2.5,2.5C93.3-62.8,94.5-61.6,95.9-61.6z"/>
			<path d="M45.9-91.6c1.4,0,2.5-1.1,2.5-2.5c0-1.4-1.1-2.5-2.5-2.5c-1.4,0-2.5,1.1-2.5,2.5C43.3-92.8,44.5-91.6,45.9-91.6z"/>
			<path d="M55.9-81.6c1.4,0,2.5-1.1,2.5-2.5c0-1.4-1.1-2.5-2.5-2.5c-1.4,0-2.5,1.1-2.5,2.5C53.3-82.8,54.5-81.6,55.9-81.6z"/>
			<path d="M65.9-71.6c1.4,0,2.5-1.1,2.5-2.5c0-1.4-1.1-2.5-2.5-2.5c-1.4,0-2.5,1.1-2.5,2.5C63.3-72.8,64.5-71.6,65.9-71.6z"/>
			<path d="M75.9-61.6c1.4,0,2.5-1.1,2.5-2.5c0-1.4-1.1-2.5-2.5-2.5c-1.4,0-2.5,1.1-2.5,2.5C73.3-62.8,74.5-61.6,75.9-61.6z"/>
			<path d="M85.9-51.6c1.4,0,2.5-1.1,2.5-2.5c0-1.4-1.1-2.5-2.5-2.5c-1.4,0-2.5,1.1-2.5,2.5C83.3-52.8,84.5-51.6,85.9-51.6z"/>
			<path d="M95.9-41.6c1.4,0,2.5-1.1,2.5-2.5c0-1.4-1.1-2.5-2.5-2.5c-1.4,0-2.5,1.1-2.5,2.5C93.3-42.8,94.5-41.6,95.9-41.6z"/>
			<path d="M25.9-91.6c1.4,0,2.5-1.1,2.5-2.5c0-1.4-1.1-2.5-2.5-2.5c-1.4,0-2.5,1.1-2.5,2.5C23.3-92.8,24.5-91.6,25.9-91.6z"/>
			<path d="M35.9-81.6c1.4,0,2.5-1.1,2.5-2.5c0-1.4-1.1-2.5-2.5-2.5c-1.4,0-2.5,1.1-2.5,2.5C33.3-82.8,34.5-81.6,35.9-81.6z"/>
			<path d="M45.9-71.6c1.4,0,2.5-1.1,2.5-2.5c0-1.4-1.1-2.5-2.5-2.5c-1.4,0-2.5,1.1-2.5,2.5C43.3-72.8,44.5-71.6,45.9-71.6z"/>
			<path d="M55.9-61.6c1.4,0,2.5-1.1,2.5-2.5c0-1.4-1.1-2.5-2.5-2.5c-1.4,0-2.5,1.1-2.5,2.5C53.3-62.8,54.5-61.6,55.9-61.6z"/>
			<path d="M65.9-51.6c1.4,0,2.5-1.1,2.5-2.5c0-1.4-1.1-2.5-2.5-2.5c-1.4,0-2.5,1.1-2.5,2.5C63.3-52.8,64.5-51.6,65.9-51.6z"/>
			<path d="M75.9-41.6c1.4,0,2.5-1.1,2.5-2.5c0-1.4-1.1-2.5-2.5-2.5c-1.4,0-2.5,1.1-2.5,2.5C73.3-42.8,74.5-41.6,75.9-41.6z"/>
			<path d="M85.9-31.6c1.4,0,2.5-1.1,2.5-2.5c0-1.4-1.1-2.5-2.5-2.5c-1.4,0-2.5,1.1-2.5,2.5C83.3-32.8,84.5-31.6,85.9-31.6z"/>
			<path d="M95.9-21.6c1.4,0,2.5-1.1,2.5-2.5c0-1.4-1.1-2.5-2.5-2.5c-1.4,0-2.5,1.1-2.5,2.5C93.3-22.8,94.5-21.6,95.9-21.6z"/>
			<path d="M5.9-91.6c1.4,0,2.5-1.1,2.5-2.5c0-1.4-1.1-2.5-2.5-2.5c-1.4,0-2.5,1.1-2.5,2.5C3.3-92.8,4.5-91.6,5.9-91.6z"/>
			<path d="M15.9-81.6c1.4,0,2.5-1.1,2.5-2.5c0-1.4-1.1-2.5-2.5-2.5c-1.4,0-2.5,1.1-2.5,2.5C13.3-82.8,14.5-81.6,15.9-81.6z"/>
			<path d="M25.9-71.6c1.4,0,2.5-1.1,2.5-2.5c0-1.4-1.1-2.5-2.5-2.5c-1.4,0-2.5,1.1-2.5,2.5C23.3-72.8,24.5-71.6,25.9-71.6z"/>
			<path d="M35.9-61.6c1.4,0,2.5-1.1,2.5-2.5c0-1.4-1.1-2.5-2.5-2.5c-1.4,0-2.5,1.1-2.5,2.5C33.3-62.8,34.5-61.6,35.9-61.6z"/>
			<path d="M45.9-51.6c1.4,0,2.5-1.1,2.5-2.5c0-1.4-1.1-2.5-2.5-2.5c-1.4,0-2.5,1.1-2.5,2.5C43.3-52.8,44.5-51.6,45.9-51.6z"/>
			<path d="M55.9-41.6c1.4,0,2.5-1.1,2.5-2.5c0-1.4-1.1-2.5-2.5-2.5c-1.4,0-2.5,1.1-2.5,2.5C53.3-42.8,54.5-41.6,55.9-41.6z"/>
			<path d="M65.9-31.6c1.4,0,2.5-1.1,2.5-2.5c0-1.4-1.1-2.5-2.5-2.5c-1.4,0-2.5,1.1-2.5,2.5C63.3-32.8,64.5-31.6,65.9-31.6z"/>
			<path d="M75.9-21.6c1.4,0,2.5-1.1,2.5-2.5c0-1.4-1.1-2.5-2.5-2.5c-1.4,0-2.5,1.1-2.5,2.5C73.3-22.8,74.5-21.6,75.9-21.6z"/>
			<path d="M85.9-11.6c1.4,0,2.5-1.1,2.5-2.5c0-1.4-1.1-2.5-2.5-2.5c-1.4,0-2.5,1.1-2.5,2.5C83.3-12.8,84.5-11.6,85.9-11.6z"/>
			<path d="M95.9-1.6c1.4,0,2.5-1.1,2.5-2.5c0-1.4-1.1-2.5-2.5-2.5c-1.4,0-2.5,1.1-2.5,2.5C93.3-2.8,94.5-1.6,95.9-1.6z"/>
			<path d="M5.9-71.6c1.4,0,2.5-1.1,2.5-2.5c0-1.4-1.1-2.5-2.5-2.5c-1.4,0-2.5,1.1-2.5,2.5C3.3-72.8,4.5-71.6,5.9-71.6z"/>
			<path d="M15.9-61.6c1.4,0,2.5-1.1,2.5-2.5c0-1.4-1.1-2.5-2.5-2.5c-1.4,0-2.5,1.1-2.5,2.5C13.3-62.8,14.5-61.6,15.9-61.6z"/>
			<path d="M25.9-51.6c1.4,0,2.5-1.1,2.5-2.5c0-1.4-1.1-2.5-2.5-2.5c-1.4,0-2.5,1.1-2.5,2.5C23.3-52.8,24.5-51.6,25.9-51.6z"/>
			<path d="M35.9-41.6c1.4,0,2.5-1.1,2.5-2.5c0-1.4-1.1-2.5-2.5-2.5c-1.4,0-2.5,1.1-2.5,2.5C33.3-42.8,34.5-41.6,35.9-41.6z"/>
			<path d="M45.9-31.6c1.4,0,2.5-1.1,2.5-2.5c0-1.4-1.1-2.5-2.5-2.5c-1.4,0-2.5,1.1-2.5,2.5C43.3-32.8,44.5-31.6,45.9-31.6z"/>
			<path d="M55.9-21.6c1.4,0,2.5-1.1,2.5-2.5c0-1.4-1.1-2.5-2.5-2.5c-1.4,0-2.5,1.1-2.5,2.5C53.3-22.8,54.5-21.6,55.9-21.6z"/>
			<circle cx="65.9" cy="-14.1" r="2.5"/>
			<path d="M75.9-1.6c1.4,0,2.5-1.1,2.5-2.5c0-1.4-1.1-2.5-2.5-2.5c-1.4,0-2.5,1.1-2.5,2.5C73.3-2.8,74.5-1.6,75.9-1.6z"/>
			<path d="M5.9-51.6c1.4,0,2.5-1.1,2.5-2.5c0-1.4-1.1-2.5-2.5-2.5c-1.4,0-2.5,1.1-2.5,2.5C3.3-52.8,4.5-51.6,5.9-51.6z"/>
			<path d="M15.9-41.6c1.4,0,2.5-1.1,2.5-2.5c0-1.4-1.1-2.5-2.5-2.5c-1.4,0-2.5,1.1-2.5,2.5C13.3-42.8,14.5-41.6,15.9-41.6z"/>
			<path d="M25.9-31.6c1.4,0,2.5-1.1,2.5-2.5c0-1.4-1.1-2.5-2.5-2.5c-1.4,0-2.5,1.1-2.5,2.5C23.3-32.8,24.5-31.6,25.9-31.6z"/>
			<path d="M35.9-21.6c1.4,0,2.5-1.1,2.5-2.5c0-1.4-1.1-2.5-2.5-2.5c-1.4,0-2.5,1.1-2.5,2.5C33.3-22.8,34.5-21.6,35.9-21.6z"/>
			<path d="M45.9-11.6c1.4,0,2.5-1.1,2.5-2.5c0-1.4-1.1-2.5-2.5-2.5c-1.4,0-2.5,1.1-2.5,2.5C43.3-12.8,44.5-11.6,45.9-11.6z"/>
			<path d="M55.9-1.6c1.4,0,2.5-1.1,2.5-2.5c0-1.4-1.1-2.5-2.5-2.5c-1.4,0-2.5,1.1-2.5,2.5C53.3-2.8,54.5-1.6,55.9-1.6z"/>
			<path d="M5.9-31.6c1.4,0,2.5-1.1,2.5-2.5c0-1.4-1.1-2.5-2.5-2.5c-1.4,0-2.5,1.1-2.5,2.5C3.3-32.8,4.5-31.6,5.9-31.6z"/>
			<path d="M15.9-21.6c1.4,0,2.5-1.1,2.5-2.5c0-1.4-1.1-2.5-2.5-2.5c-1.4,0-2.5,1.1-2.5,2.5C13.3-22.8,14.5-21.6,15.9-21.6z"/>
			<path d="M25.9-11.6c1.4,0,2.5-1.1,2.5-2.5c0-1.4-1.1-2.5-2.5-2.5c-1.4,0-2.5,1.1-2.5,2.5C23.3-12.8,24.5-11.6,25.9-11.6z"/>
			<path d="M35.9-1.6c1.4,0,2.5-1.1,2.5-2.5c0-1.4-1.1-2.5-2.5-2.5c-1.4,0-2.5,1.1-2.5,2.5C33.3-2.8,34.5-1.6,35.9-1.6z"/>
			<path d="M5.9-11.6c1.4,0,2.5-1.1,2.5-2.5c0-1.4-1.1-2.5-2.5-2.5c-1.4,0-2.5,1.1-2.5,2.5C3.3-12.8,4.5-11.6,5.9-11.6z"/>
			<path d="M15.9-1.6c1.4,0,2.5-1.1,2.5-2.5c0-1.4-1.1-2.5-2.5-2.5c-1.4,0-2.5,1.1-2.5,2.5C13.3-2.8,14.5-1.6,15.9-1.6z"/>
		</g>
		<g id="dots_8_">
			<path d="M-14.1-91.6c1.4,0,2.5-1.1,2.5-2.5c0-1.4-1.1-2.5-2.5-2.5c-1.4,0-2.5,1.1-2.5,2.5C-16.7-92.8-15.5-91.6-14.1-91.6z"/>
			<path d="M-4.1-81.6c1.4,0,2.5-1.1,2.5-2.5c0-1.4-1.1-2.5-2.5-2.5c-1.4,0-2.5,1.1-2.5,2.5C-6.7-82.8-5.5-81.6-4.1-81.6z"/>
			<path d="M-34.1-91.6c1.4,0,2.5-1.1,2.5-2.5c0-1.4-1.1-2.5-2.5-2.5s-2.5,1.1-2.5,2.5C-36.7-92.8-35.5-91.6-34.1-91.6z"/>
			<path d="M-24.1-81.6c1.4,0,2.5-1.1,2.5-2.5c0-1.4-1.1-2.5-2.5-2.5c-1.4,0-2.5,1.1-2.5,2.5C-26.7-82.8-25.5-81.6-24.1-81.6z"/>
			<path d="M-14.1-71.6c1.4,0,2.5-1.1,2.5-2.5c0-1.4-1.1-2.5-2.5-2.5c-1.4,0-2.5,1.1-2.5,2.5C-16.7-72.8-15.5-71.6-14.1-71.6z"/>
			<path d="M-4.1-61.6c1.4,0,2.5-1.1,2.5-2.5c0-1.4-1.1-2.5-2.5-2.5c-1.4,0-2.5,1.1-2.5,2.5C-6.7-62.8-5.5-61.6-4.1-61.6z"/>
			<path d="M-54.1-91.6c1.4,0,2.5-1.1,2.5-2.5c0-1.4-1.1-2.5-2.5-2.5c-1.4,0-2.5,1.1-2.5,2.5C-56.7-92.8-55.5-91.6-54.1-91.6z"/>
			<path d="M-44.1-81.6c1.4,0,2.5-1.1,2.5-2.5c0-1.4-1.1-2.5-2.5-2.5c-1.4,0-2.5,1.1-2.5,2.5C-46.7-82.8-45.5-81.6-44.1-81.6z"/>
			<path d="M-34.1-71.6c1.4,0,2.5-1.1,2.5-2.5c0-1.4-1.1-2.5-2.5-2.5s-2.5,1.1-2.5,2.5C-36.7-72.8-35.5-71.6-34.1-71.6z"/>
			<path d="M-24.1-61.6c1.4,0,2.5-1.1,2.5-2.5c0-1.4-1.1-2.5-2.5-2.5c-1.4,0-2.5,1.1-2.5,2.5C-26.7-62.8-25.5-61.6-24.1-61.6z"/>
			<path d="M-14.1-51.6c1.4,0,2.5-1.1,2.5-2.5c0-1.4-1.1-2.5-2.5-2.5c-1.4,0-2.5,1.1-2.5,2.5C-16.7-52.8-15.5-51.6-14.1-51.6z"/>
			<path d="M-4.1-41.6c1.4,0,2.5-1.1,2.5-2.5c0-1.4-1.1-2.5-2.5-2.5c-1.4,0-2.5,1.1-2.5,2.5C-6.7-42.8-5.5-41.6-4.1-41.6z"/>
			<path d="M-74.1-91.6c1.4,0,2.5-1.1,2.5-2.5c0-1.4-1.1-2.5-2.5-2.5c-1.4,0-2.5,1.1-2.5,2.5C-76.7-92.8-75.5-91.6-74.1-91.6z"/>
			<path d="M-64.1-81.6c1.4,0,2.5-1.1,2.5-2.5c0-1.4-1.1-2.5-2.5-2.5c-1.4,0-2.5,1.1-2.5,2.5C-66.7-82.8-65.5-81.6-64.1-81.6z"/>
			<path d="M-54.1-71.6c1.4,0,2.5-1.1,2.5-2.5c0-1.4-1.1-2.5-2.5-2.5c-1.4,0-2.5,1.1-2.5,2.5C-56.7-72.8-55.5-71.6-54.1-71.6z"/>
			<path d="M-44.1-61.6c1.4,0,2.5-1.1,2.5-2.5c0-1.4-1.1-2.5-2.5-2.5c-1.4,0-2.5,1.1-2.5,2.5C-46.7-62.8-45.5-61.6-44.1-61.6z"/>
			<path d="M-34.1-51.6c1.4,0,2.5-1.1,2.5-2.5c0-1.4-1.1-2.5-2.5-2.5s-2.5,1.1-2.5,2.5C-36.7-52.8-35.5-51.6-34.1-51.6z"/>
			<path d="M-24.1-41.6c1.4,0,2.5-1.1,2.5-2.5c0-1.4-1.1-2.5-2.5-2.5c-1.4,0-2.5,1.1-2.5,2.5C-26.7-42.8-25.5-41.6-24.1-41.6z"/>
			<path d="M-14.1-31.6c1.4,0,2.5-1.1,2.5-2.5c0-1.4-1.1-2.5-2.5-2.5c-1.4,0-2.5,1.1-2.5,2.5C-16.7-32.8-15.5-31.6-14.1-31.6z"/>
			<path d="M-4.1-21.6c1.4,0,2.5-1.1,2.5-2.5c0-1.4-1.1-2.5-2.5-2.5c-1.4,0-2.5,1.1-2.5,2.5C-6.7-22.8-5.5-21.6-4.1-21.6z"/>
			<path d="M-94.1-91.6c1.4,0,2.5-1.1,2.5-2.5c0-1.4-1.1-2.5-2.5-2.5c-1.4,0-2.5,1.1-2.5,2.5C-96.7-92.8-95.5-91.6-94.1-91.6z"/>
			<path d="M-84.1-81.6c1.4,0,2.5-1.1,2.5-2.5c0-1.4-1.1-2.5-2.5-2.5c-1.4,0-2.5,1.1-2.5,2.5C-86.7-82.8-85.5-81.6-84.1-81.6z"/>
			<path d="M-74.1-71.6c1.4,0,2.5-1.1,2.5-2.5c0-1.4-1.1-2.5-2.5-2.5c-1.4,0-2.5,1.1-2.5,2.5C-76.7-72.8-75.5-71.6-74.1-71.6z"/>
			<path d="M-64.1-61.6c1.4,0,2.5-1.1,2.5-2.5c0-1.4-1.1-2.5-2.5-2.5c-1.4,0-2.5,1.1-2.5,2.5C-66.7-62.8-65.5-61.6-64.1-61.6z"/>
			<path d="M-54.1-51.6c1.4,0,2.5-1.1,2.5-2.5c0-1.4-1.1-2.5-2.5-2.5c-1.4,0-2.5,1.1-2.5,2.5C-56.7-52.8-55.5-51.6-54.1-51.6z"/>
			<path d="M-44.1-41.6c1.4,0,2.5-1.1,2.5-2.5c0-1.4-1.1-2.5-2.5-2.5c-1.4,0-2.5,1.1-2.5,2.5C-46.7-42.8-45.5-41.6-44.1-41.6z"/>
			<path d="M-34.1-31.6c1.4,0,2.5-1.1,2.5-2.5c0-1.4-1.1-2.5-2.5-2.5s-2.5,1.1-2.5,2.5C-36.7-32.8-35.5-31.6-34.1-31.6z"/>
			<path d="M-24.1-21.6c1.4,0,2.5-1.1,2.5-2.5c0-1.4-1.1-2.5-2.5-2.5c-1.4,0-2.5,1.1-2.5,2.5C-26.7-22.8-25.5-21.6-24.1-21.6z"/>
			<path d="M-14.1-11.6c1.4,0,2.5-1.1,2.5-2.5c0-1.4-1.1-2.5-2.5-2.5c-1.4,0-2.5,1.1-2.5,2.5C-16.7-12.8-15.5-11.6-14.1-11.6z"/>
			<path d="M-4.1-1.6c1.4,0,2.5-1.1,2.5-2.5c0-1.4-1.1-2.5-2.5-2.5c-1.4,0-2.5,1.1-2.5,2.5C-6.7-2.8-5.5-1.6-4.1-1.6z"/>
			<path d="M-94.1-71.6c1.4,0,2.5-1.1,2.5-2.5c0-1.4-1.1-2.5-2.5-2.5c-1.4,0-2.5,1.1-2.5,2.5C-96.7-72.8-95.5-71.6-94.1-71.6z"/>
			<path d="M-84.1-61.6c1.4,0,2.5-1.1,2.5-2.5c0-1.4-1.1-2.5-2.5-2.5c-1.4,0-2.5,1.1-2.5,2.5C-86.7-62.8-85.5-61.6-84.1-61.6z"/>
			<path d="M-74.1-51.6c1.4,0,2.5-1.1,2.5-2.5c0-1.4-1.1-2.5-2.5-2.5c-1.4,0-2.5,1.1-2.5,2.5C-76.7-52.8-75.5-51.6-74.1-51.6z"/>
			<path d="M-64.1-41.6c1.4,0,2.5-1.1,2.5-2.5c0-1.4-1.1-2.5-2.5-2.5c-1.4,0-2.5,1.1-2.5,2.5C-66.7-42.8-65.5-41.6-64.1-41.6z"/>
			<path d="M-54.1-31.6c1.4,0,2.5-1.1,2.5-2.5c0-1.4-1.1-2.5-2.5-2.5c-1.4,0-2.5,1.1-2.5,2.5C-56.7-32.8-55.5-31.6-54.1-31.6z"/>
			<path d="M-44.1-21.6c1.4,0,2.5-1.1,2.5-2.5c0-1.4-1.1-2.5-2.5-2.5c-1.4,0-2.5,1.1-2.5,2.5C-46.7-22.8-45.5-21.6-44.1-21.6z"/>
			<circle cx="-34.1" cy="-14.1" r="2.5"/>
			<path d="M-24.1-1.6c1.4,0,2.5-1.1,2.5-2.5c0-1.4-1.1-2.5-2.5-2.5c-1.4,0-2.5,1.1-2.5,2.5C-26.7-2.8-25.5-1.6-24.1-1.6z"/>
			<path d="M-94.1-51.6c1.4,0,2.5-1.1,2.5-2.5c0-1.4-1.1-2.5-2.5-2.5c-1.4,0-2.5,1.1-2.5,2.5C-96.7-52.8-95.5-51.6-94.1-51.6z"/>
			<path d="M-84.1-41.6c1.4,0,2.5-1.1,2.5-2.5c0-1.4-1.1-2.5-2.5-2.5c-1.4,0-2.5,1.1-2.5,2.5C-86.7-42.8-85.5-41.6-84.1-41.6z"/>
			<path d="M-74.1-31.6c1.4,0,2.5-1.1,2.5-2.5c0-1.4-1.1-2.5-2.5-2.5c-1.4,0-2.5,1.1-2.5,2.5C-76.7-32.8-75.5-31.6-74.1-31.6z"/>
			<path d="M-64.1-21.6c1.4,0,2.5-1.1,2.5-2.5c0-1.4-1.1-2.5-2.5-2.5c-1.4,0-2.5,1.1-2.5,2.5C-66.7-22.8-65.5-21.6-64.1-21.6z"/>
			<path d="M-54.1-11.6c1.4,0,2.5-1.1,2.5-2.5c0-1.4-1.1-2.5-2.5-2.5c-1.4,0-2.5,1.1-2.5,2.5C-56.7-12.8-55.5-11.6-54.1-11.6z"/>
			<path d="M-44.1-1.6c1.4,0,2.5-1.1,2.5-2.5c0-1.4-1.1-2.5-2.5-2.5c-1.4,0-2.5,1.1-2.5,2.5C-46.7-2.8-45.5-1.6-44.1-1.6z"/>
			<path d="M-94.1-31.6c1.4,0,2.5-1.1,2.5-2.5c0-1.4-1.1-2.5-2.5-2.5c-1.4,0-2.5,1.1-2.5,2.5C-96.7-32.8-95.5-31.6-94.1-31.6z"/>
			<path d="M-84.1-21.6c1.4,0,2.5-1.1,2.5-2.5c0-1.4-1.1-2.5-2.5-2.5c-1.4,0-2.5,1.1-2.5,2.5C-86.7-22.8-85.5-21.6-84.1-21.6z"/>
			<path d="M-74.1-11.6c1.4,0,2.5-1.1,2.5-2.5c0-1.4-1.1-2.5-2.5-2.5c-1.4,0-2.5,1.1-2.5,2.5C-76.7-12.8-75.5-11.6-74.1-11.6z"/>
			<path d="M-64.1-1.6c1.4,0,2.5-1.1,2.5-2.5c0-1.4-1.1-2.5-2.5-2.5c-1.4,0-2.5,1.1-2.5,2.5C-66.7-2.8-65.5-1.6-64.1-1.6z"/>
			<path d="M-94.1-11.6c1.4,0,2.5-1.1,2.5-2.5c0-1.4-1.1-2.5-2.5-2.5c-1.4,0-2.5,1.1-2.5,2.5C-96.7-12.8-95.5-11.6-94.1-11.6z"/>
			<path d="M-84.1-1.6c1.4,0,2.5-1.1,2.5-2.5c0-1.4-1.1-2.5-2.5-2.5c-1.4,0-2.5,1.1-2.5,2.5C-86.7-2.8-85.5-1.6-84.1-1.6z"/>
		</g>
		<g id="dots_7_">
			<path d="M185.9-91.6c1.4,0,2.5-1.1,2.5-2.5c0-1.4-1.1-2.5-2.5-2.5c-1.4,0-2.5,1.1-2.5,2.5C183.3-92.8,184.5-91.6,185.9-91.6z"/>
			<path d="M195.9-81.6c1.4,0,2.5-1.1,2.5-2.5c0-1.4-1.1-2.5-2.5-2.5c-1.4,0-2.5,1.1-2.5,2.5C193.3-82.8,194.5-81.6,195.9-81.6z"/>
			<path d="M165.9-91.6c1.4,0,2.5-1.1,2.5-2.5c0-1.4-1.1-2.5-2.5-2.5c-1.4,0-2.5,1.1-2.5,2.5C163.3-92.8,164.5-91.6,165.9-91.6z"/>
			<path d="M175.9-81.6c1.4,0,2.5-1.1,2.5-2.5c0-1.4-1.1-2.5-2.5-2.5c-1.4,0-2.5,1.1-2.5,2.5C173.3-82.8,174.5-81.6,175.9-81.6z"/>
			<path d="M185.9-71.6c1.4,0,2.5-1.1,2.5-2.5c0-1.4-1.1-2.5-2.5-2.5c-1.4,0-2.5,1.1-2.5,2.5C183.3-72.8,184.5-71.6,185.9-71.6z"/>
			<path d="M195.9-61.6c1.4,0,2.5-1.1,2.5-2.5c0-1.4-1.1-2.5-2.5-2.5c-1.4,0-2.5,1.1-2.5,2.5C193.3-62.8,194.5-61.6,195.9-61.6z"/>
			<path d="M145.9-91.6c1.4,0,2.5-1.1,2.5-2.5c0-1.4-1.1-2.5-2.5-2.5c-1.4,0-2.5,1.1-2.5,2.5C143.3-92.8,144.5-91.6,145.9-91.6z"/>
			<path d="M155.9-81.6c1.4,0,2.5-1.1,2.5-2.5c0-1.4-1.1-2.5-2.5-2.5c-1.4,0-2.5,1.1-2.5,2.5C153.3-82.8,154.5-81.6,155.9-81.6z"/>
			<path d="M165.9-71.6c1.4,0,2.5-1.1,2.5-2.5c0-1.4-1.1-2.5-2.5-2.5c-1.4,0-2.5,1.1-2.5,2.5C163.3-72.8,164.5-71.6,165.9-71.6z"/>
			<path d="M175.9-61.6c1.4,0,2.5-1.1,2.5-2.5c0-1.4-1.1-2.5-2.5-2.5c-1.4,0-2.5,1.1-2.5,2.5C173.3-62.8,174.5-61.6,175.9-61.6z"/>
			<path d="M185.9-51.6c1.4,0,2.5-1.1,2.5-2.5c0-1.4-1.1-2.5-2.5-2.5c-1.4,0-2.5,1.1-2.5,2.5C183.3-52.8,184.5-51.6,185.9-51.6z"/>
			<path d="M195.9-41.6c1.4,0,2.5-1.1,2.5-2.5c0-1.4-1.1-2.5-2.5-2.5c-1.4,0-2.5,1.1-2.5,2.5C193.3-42.8,194.5-41.6,195.9-41.6z"/>
			<path d="M125.9-91.6c1.4,0,2.5-1.1,2.5-2.5c0-1.4-1.1-2.5-2.5-2.5c-1.4,0-2.5,1.1-2.5,2.5C123.3-92.8,124.5-91.6,125.9-91.6z"/>
			<path d="M135.9-81.6c1.4,0,2.5-1.1,2.5-2.5c0-1.4-1.1-2.5-2.5-2.5c-1.4,0-2.5,1.1-2.5,2.5C133.3-82.8,134.5-81.6,135.9-81.6z"/>
			<path d="M145.9-71.6c1.4,0,2.5-1.1,2.5-2.5c0-1.4-1.1-2.5-2.5-2.5c-1.4,0-2.5,1.1-2.5,2.5C143.3-72.8,144.5-71.6,145.9-71.6z"/>
			<path d="M155.9-61.6c1.4,0,2.5-1.1,2.5-2.5c0-1.4-1.1-2.5-2.5-2.5c-1.4,0-2.5,1.1-2.5,2.5C153.3-62.8,154.5-61.6,155.9-61.6z"/>
			<path d="M165.9-51.6c1.4,0,2.5-1.1,2.5-2.5c0-1.4-1.1-2.5-2.5-2.5c-1.4,0-2.5,1.1-2.5,2.5C163.3-52.8,164.5-51.6,165.9-51.6z"/>
			<path d="M175.9-41.6c1.4,0,2.5-1.1,2.5-2.5c0-1.4-1.1-2.5-2.5-2.5c-1.4,0-2.5,1.1-2.5,2.5C173.3-42.8,174.5-41.6,175.9-41.6z"/>
			<path d="M185.9-31.6c1.4,0,2.5-1.1,2.5-2.5c0-1.4-1.1-2.5-2.5-2.5c-1.4,0-2.5,1.1-2.5,2.5C183.3-32.8,184.5-31.6,185.9-31.6z"/>
			<path d="M195.9-21.6c1.4,0,2.5-1.1,2.5-2.5c0-1.4-1.1-2.5-2.5-2.5c-1.4,0-2.5,1.1-2.5,2.5C193.3-22.8,194.5-21.6,195.9-21.6z"/>
			<path d="M105.9-91.6c1.4,0,2.5-1.1,2.5-2.5c0-1.4-1.1-2.5-2.5-2.5c-1.4,0-2.5,1.1-2.5,2.5C103.3-92.8,104.5-91.6,105.9-91.6z"/>
			<path d="M115.9-81.6c1.4,0,2.5-1.1,2.5-2.5c0-1.4-1.1-2.5-2.5-2.5c-1.4,0-2.5,1.1-2.5,2.5C113.3-82.8,114.5-81.6,115.9-81.6z"/>
			<path d="M125.9-71.6c1.4,0,2.5-1.1,2.5-2.5c0-1.4-1.1-2.5-2.5-2.5c-1.4,0-2.5,1.1-2.5,2.5C123.3-72.8,124.5-71.6,125.9-71.6z"/>
			<path d="M135.9-61.6c1.4,0,2.5-1.1,2.5-2.5c0-1.4-1.1-2.5-2.5-2.5c-1.4,0-2.5,1.1-2.5,2.5C133.3-62.8,134.5-61.6,135.9-61.6z"/>
			<path d="M145.9-51.6c1.4,0,2.5-1.1,2.5-2.5c0-1.4-1.1-2.5-2.5-2.5c-1.4,0-2.5,1.1-2.5,2.5C143.3-52.8,144.5-51.6,145.9-51.6z"/>
			<path d="M155.9-41.6c1.4,0,2.5-1.1,2.5-2.5c0-1.4-1.1-2.5-2.5-2.5c-1.4,0-2.5,1.1-2.5,2.5C153.3-42.8,154.5-41.6,155.9-41.6z"/>
			<path d="M165.9-31.6c1.4,0,2.5-1.1,2.5-2.5c0-1.4-1.1-2.5-2.5-2.5c-1.4,0-2.5,1.1-2.5,2.5C163.3-32.8,164.5-31.6,165.9-31.6z"/>
			<path d="M175.9-21.6c1.4,0,2.5-1.1,2.5-2.5c0-1.4-1.1-2.5-2.5-2.5c-1.4,0-2.5,1.1-2.5,2.5C173.3-22.8,174.5-21.6,175.9-21.6z"/>
			<path d="M185.9-11.6c1.4,0,2.5-1.1,2.5-2.5c0-1.4-1.1-2.5-2.5-2.5c-1.4,0-2.5,1.1-2.5,2.5C183.3-12.8,184.5-11.6,185.9-11.6z"/>
			<path d="M195.9-1.6c1.4,0,2.5-1.1,2.5-2.5c0-1.4-1.1-2.5-2.5-2.5c-1.4,0-2.5,1.1-2.5,2.5C193.3-2.8,194.5-1.6,195.9-1.6z"/>
			<path d="M105.9-71.6c1.4,0,2.5-1.1,2.5-2.5c0-1.4-1.1-2.5-2.5-2.5c-1.4,0-2.5,1.1-2.5,2.5C103.3-72.8,104.5-71.6,105.9-71.6z"/>
			<path d="M115.9-61.6c1.4,0,2.5-1.1,2.5-2.5c0-1.4-1.1-2.5-2.5-2.5c-1.4,0-2.5,1.1-2.5,2.5C113.3-62.8,114.5-61.6,115.9-61.6z"/>
			<path d="M125.9-51.6c1.4,0,2.5-1.1,2.5-2.5c0-1.4-1.1-2.5-2.5-2.5c-1.4,0-2.5,1.1-2.5,2.5C123.3-52.8,124.5-51.6,125.9-51.6z"/>
			<path d="M135.9-41.6c1.4,0,2.5-1.1,2.5-2.5c0-1.4-1.1-2.5-2.5-2.5c-1.4,0-2.5,1.1-2.5,2.5C133.3-42.8,134.5-41.6,135.9-41.6z"/>
			<path d="M145.9-31.6c1.4,0,2.5-1.1,2.5-2.5c0-1.4-1.1-2.5-2.5-2.5c-1.4,0-2.5,1.1-2.5,2.5C143.3-32.8,144.5-31.6,145.9-31.6z"/>
			<path d="M155.9-21.6c1.4,0,2.5-1.1,2.5-2.5c0-1.4-1.1-2.5-2.5-2.5c-1.4,0-2.5,1.1-2.5,2.5C153.3-22.8,154.5-21.6,155.9-21.6z"/>
			<circle cx="165.9" cy="-14.1" r="2.5"/>
			<path d="M175.9-1.6c1.4,0,2.5-1.1,2.5-2.5c0-1.4-1.1-2.5-2.5-2.5c-1.4,0-2.5,1.1-2.5,2.5C173.3-2.8,174.5-1.6,175.9-1.6z"/>
			<path d="M105.9-51.6c1.4,0,2.5-1.1,2.5-2.5c0-1.4-1.1-2.5-2.5-2.5c-1.4,0-2.5,1.1-2.5,2.5C103.3-52.8,104.5-51.6,105.9-51.6z"/>
			<path d="M115.9-41.6c1.4,0,2.5-1.1,2.5-2.5c0-1.4-1.1-2.5-2.5-2.5c-1.4,0-2.5,1.1-2.5,2.5C113.3-42.8,114.5-41.6,115.9-41.6z"/>
			<path d="M125.9-31.6c1.4,0,2.5-1.1,2.5-2.5c0-1.4-1.1-2.5-2.5-2.5c-1.4,0-2.5,1.1-2.5,2.5C123.3-32.8,124.5-31.6,125.9-31.6z"/>
			<path d="M135.9-21.6c1.4,0,2.5-1.1,2.5-2.5c0-1.4-1.1-2.5-2.5-2.5c-1.4,0-2.5,1.1-2.5,2.5C133.3-22.8,134.5-21.6,135.9-21.6z"/>
			<path d="M145.9-11.6c1.4,0,2.5-1.1,2.5-2.5c0-1.4-1.1-2.5-2.5-2.5c-1.4,0-2.5,1.1-2.5,2.5C143.3-12.8,144.5-11.6,145.9-11.6z"/>
			<path d="M155.9-1.6c1.4,0,2.5-1.1,2.5-2.5c0-1.4-1.1-2.5-2.5-2.5c-1.4,0-2.5,1.1-2.5,2.5C153.3-2.8,154.5-1.6,155.9-1.6z"/>
			<path d="M105.9-31.6c1.4,0,2.5-1.1,2.5-2.5c0-1.4-1.1-2.5-2.5-2.5c-1.4,0-2.5,1.1-2.5,2.5C103.3-32.8,104.5-31.6,105.9-31.6z"/>
			<path d="M115.9-21.6c1.4,0,2.5-1.1,2.5-2.5c0-1.4-1.1-2.5-2.5-2.5c-1.4,0-2.5,1.1-2.5,2.5C113.3-22.8,114.5-21.6,115.9-21.6z"/>
			<path d="M125.9-11.6c1.4,0,2.5-1.1,2.5-2.5c0-1.4-1.1-2.5-2.5-2.5c-1.4,0-2.5,1.1-2.5,2.5C123.3-12.8,124.5-11.6,125.9-11.6z"/>
			<path d="M135.9-1.6c1.4,0,2.5-1.1,2.5-2.5c0-1.4-1.1-2.5-2.5-2.5c-1.4,0-2.5,1.1-2.5,2.5C133.3-2.8,134.5-1.6,135.9-1.6z"/>
			<path d="M105.9-11.6c1.4,0,2.5-1.1,2.5-2.5c0-1.4-1.1-2.5-2.5-2.5c-1.4,0-2.5,1.1-2.5,2.5C103.3-12.8,104.5-11.6,105.9-11.6z"/>
			<path d="M115.9-1.6c1.4,0,2.5-1.1,2.5-2.5c0-1.4-1.1-2.5-2.5-2.5c-1.4,0-2.5,1.1-2.5,2.5C113.3-2.8,114.5-1.6,115.9-1.6z"/>
		</g>
		<g id="dots_6_">
			<path d="M85.9,108.4c1.4,0,2.5-1.1,2.5-2.5c0-1.4-1.1-2.5-2.5-2.5c-1.4,0-2.5,1.1-2.5,2.5C83.3,107.2,84.5,108.4,85.9,108.4z"/>
			<path d="M95.9,118.4c1.4,0,2.5-1.1,2.5-2.5c0-1.4-1.1-2.5-2.5-2.5c-1.4,0-2.5,1.1-2.5,2.5C93.3,117.2,94.5,118.4,95.9,118.4z"/>
			<path d="M65.9,108.4c1.4,0,2.5-1.1,2.5-2.5c0-1.4-1.1-2.5-2.5-2.5c-1.4,0-2.5,1.1-2.5,2.5C63.3,107.2,64.5,108.4,65.9,108.4z"/>
			<path d="M75.9,118.4c1.4,0,2.5-1.1,2.5-2.5c0-1.4-1.1-2.5-2.5-2.5c-1.4,0-2.5,1.1-2.5,2.5C73.3,117.2,74.5,118.4,75.9,118.4z"/>
			<path d="M85.9,128.4c1.4,0,2.5-1.1,2.5-2.5c0-1.4-1.1-2.5-2.5-2.5c-1.4,0-2.5,1.1-2.5,2.5C83.3,127.2,84.5,128.4,85.9,128.4z"/>
			<path d="M95.9,138.4c1.4,0,2.5-1.1,2.5-2.5c0-1.4-1.1-2.5-2.5-2.5c-1.4,0-2.5,1.1-2.5,2.5C93.3,137.2,94.5,138.4,95.9,138.4z"/>
			<path d="M45.9,108.4c1.4,0,2.5-1.1,2.5-2.5c0-1.4-1.1-2.5-2.5-2.5c-1.4,0-2.5,1.1-2.5,2.5C43.3,107.2,44.5,108.4,45.9,108.4z"/>
			<path d="M55.9,118.4c1.4,0,2.5-1.1,2.5-2.5c0-1.4-1.1-2.5-2.5-2.5c-1.4,0-2.5,1.1-2.5,2.5C53.3,117.2,54.5,118.4,55.9,118.4z"/>
			<path d="M65.9,128.4c1.4,0,2.5-1.1,2.5-2.5c0-1.4-1.1-2.5-2.5-2.5c-1.4,0-2.5,1.1-2.5,2.5C63.3,127.2,64.5,128.4,65.9,128.4z"/>
			<path d="M75.9,138.4c1.4,0,2.5-1.1,2.5-2.5c0-1.4-1.1-2.5-2.5-2.5c-1.4,0-2.5,1.1-2.5,2.5C73.3,137.2,74.5,138.4,75.9,138.4z"/>
			<path d="M85.9,148.4c1.4,0,2.5-1.1,2.5-2.5c0-1.4-1.1-2.5-2.5-2.5c-1.4,0-2.5,1.1-2.5,2.5C83.3,147.2,84.5,148.4,85.9,148.4z"/>
			<path d="M95.9,158.4c1.4,0,2.5-1.1,2.5-2.5c0-1.4-1.1-2.5-2.5-2.5c-1.4,0-2.5,1.1-2.5,2.5C93.3,157.2,94.5,158.4,95.9,158.4z"/>
			<path d="M25.9,108.4c1.4,0,2.5-1.1,2.5-2.5c0-1.4-1.1-2.5-2.5-2.5c-1.4,0-2.5,1.1-2.5,2.5C23.3,107.2,24.5,108.4,25.9,108.4z"/>
			<path d="M35.9,118.4c1.4,0,2.5-1.1,2.5-2.5c0-1.4-1.1-2.5-2.5-2.5c-1.4,0-2.5,1.1-2.5,2.5C33.3,117.2,34.5,118.4,35.9,118.4z"/>
			<path d="M45.9,128.4c1.4,0,2.5-1.1,2.5-2.5c0-1.4-1.1-2.5-2.5-2.5c-1.4,0-2.5,1.1-2.5,2.5C43.3,127.2,44.5,128.4,45.9,128.4z"/>
			<path d="M55.9,138.4c1.4,0,2.5-1.1,2.5-2.5c0-1.4-1.1-2.5-2.5-2.5c-1.4,0-2.5,1.1-2.5,2.5C53.3,137.2,54.5,138.4,55.9,138.4z"/>
			<path d="M65.9,148.4c1.4,0,2.5-1.1,2.5-2.5c0-1.4-1.1-2.5-2.5-2.5c-1.4,0-2.5,1.1-2.5,2.5C63.3,147.2,64.5,148.4,65.9,148.4z"/>
			<path d="M75.9,158.4c1.4,0,2.5-1.1,2.5-2.5c0-1.4-1.1-2.5-2.5-2.5c-1.4,0-2.5,1.1-2.5,2.5C73.3,157.2,74.5,158.4,75.9,158.4z"/>
			<path d="M85.9,168.4c1.4,0,2.5-1.1,2.5-2.5c0-1.4-1.1-2.5-2.5-2.5c-1.4,0-2.5,1.1-2.5,2.5C83.3,167.2,84.5,168.4,85.9,168.4z"/>
			<path d="M95.9,178.4c1.4,0,2.5-1.1,2.5-2.5c0-1.4-1.1-2.5-2.5-2.5c-1.4,0-2.5,1.1-2.5,2.5C93.3,177.2,94.5,178.4,95.9,178.4z"/>
			<path d="M5.9,108.4c1.4,0,2.5-1.1,2.5-2.5c0-1.4-1.1-2.5-2.5-2.5c-1.4,0-2.5,1.1-2.5,2.5C3.3,107.2,4.5,108.4,5.9,108.4z"/>
			<path d="M15.9,118.4c1.4,0,2.5-1.1,2.5-2.5c0-1.4-1.1-2.5-2.5-2.5c-1.4,0-2.5,1.1-2.5,2.5C13.3,117.2,14.5,118.4,15.9,118.4z"/>
			<path d="M25.9,128.4c1.4,0,2.5-1.1,2.5-2.5c0-1.4-1.1-2.5-2.5-2.5c-1.4,0-2.5,1.1-2.5,2.5C23.3,127.2,24.5,128.4,25.9,128.4z"/>
			<path d="M35.9,138.4c1.4,0,2.5-1.1,2.5-2.5c0-1.4-1.1-2.5-2.5-2.5c-1.4,0-2.5,1.1-2.5,2.5C33.3,137.2,34.5,138.4,35.9,138.4z"/>
			<path d="M45.9,148.4c1.4,0,2.5-1.1,2.5-2.5c0-1.4-1.1-2.5-2.5-2.5c-1.4,0-2.5,1.1-2.5,2.5C43.3,147.2,44.5,148.4,45.9,148.4z"/>
			<path d="M55.9,158.4c1.4,0,2.5-1.1,2.5-2.5c0-1.4-1.1-2.5-2.5-2.5c-1.4,0-2.5,1.1-2.5,2.5C53.3,157.2,54.5,158.4,55.9,158.4z"/>
			<path d="M65.9,168.4c1.4,0,2.5-1.1,2.5-2.5c0-1.4-1.1-2.5-2.5-2.5c-1.4,0-2.5,1.1-2.5,2.5C63.3,167.2,64.5,168.4,65.9,168.4z"/>
			<path d="M75.9,178.4c1.4,0,2.5-1.1,2.5-2.5c0-1.4-1.1-2.5-2.5-2.5c-1.4,0-2.5,1.1-2.5,2.5C73.3,177.2,74.5,178.4,75.9,178.4z"/>
			<path d="M85.9,188.4c1.4,0,2.5-1.1,2.5-2.5c0-1.4-1.1-2.5-2.5-2.5c-1.4,0-2.5,1.1-2.5,2.5C83.3,187.2,84.5,188.4,85.9,188.4z"/>
			<path d="M95.9,198.4c1.4,0,2.5-1.1,2.5-2.5c0-1.4-1.1-2.5-2.5-2.5c-1.4,0-2.5,1.1-2.5,2.5C93.3,197.2,94.5,198.4,95.9,198.4z"/>
			<path d="M5.9,128.4c1.4,0,2.5-1.1,2.5-2.5c0-1.4-1.1-2.5-2.5-2.5c-1.4,0-2.5,1.1-2.5,2.5C3.3,127.2,4.5,128.4,5.9,128.4z"/>
			<path d="M15.9,138.4c1.4,0,2.5-1.1,2.5-2.5c0-1.4-1.1-2.5-2.5-2.5c-1.4,0-2.5,1.1-2.5,2.5C13.3,137.2,14.5,138.4,15.9,138.4z"/>
			<path d="M25.9,148.4c1.4,0,2.5-1.1,2.5-2.5c0-1.4-1.1-2.5-2.5-2.5c-1.4,0-2.5,1.1-2.5,2.5C23.3,147.2,24.5,148.4,25.9,148.4z"/>
			<path d="M35.9,158.4c1.4,0,2.5-1.1,2.5-2.5c0-1.4-1.1-2.5-2.5-2.5c-1.4,0-2.5,1.1-2.5,2.5C33.3,157.2,34.5,158.4,35.9,158.4z"/>
			<path d="M45.9,168.4c1.4,0,2.5-1.1,2.5-2.5c0-1.4-1.1-2.5-2.5-2.5c-1.4,0-2.5,1.1-2.5,2.5C43.3,167.2,44.5,168.4,45.9,168.4z"/>
			<path d="M55.9,178.4c1.4,0,2.5-1.1,2.5-2.5c0-1.4-1.1-2.5-2.5-2.5c-1.4,0-2.5,1.1-2.5,2.5C53.3,177.2,54.5,178.4,55.9,178.4z"/>
			<circle cx="65.9" cy="185.9" r="2.5"/>
			<path d="M75.9,198.4c1.4,0,2.5-1.1,2.5-2.5c0-1.4-1.1-2.5-2.5-2.5c-1.4,0-2.5,1.1-2.5,2.5C73.3,197.2,74.5,198.4,75.9,198.4z"/>
			<path d="M5.9,148.4c1.4,0,2.5-1.1,2.5-2.5c0-1.4-1.1-2.5-2.5-2.5c-1.4,0-2.5,1.1-2.5,2.5C3.3,147.2,4.5,148.4,5.9,148.4z"/>
			<path d="M15.9,158.4c1.4,0,2.5-1.1,2.5-2.5c0-1.4-1.1-2.5-2.5-2.5c-1.4,0-2.5,1.1-2.5,2.5C13.3,157.2,14.5,158.4,15.9,158.4z"/>
			<path d="M25.9,168.4c1.4,0,2.5-1.1,2.5-2.5c0-1.4-1.1-2.5-2.5-2.5c-1.4,0-2.5,1.1-2.5,2.5C23.3,167.2,24.5,168.4,25.9,168.4z"/>
			<path d="M35.9,178.4c1.4,0,2.5-1.1,2.5-2.5c0-1.4-1.1-2.5-2.5-2.5c-1.4,0-2.5,1.1-2.5,2.5C33.3,177.2,34.5,178.4,35.9,178.4z"/>
			<path d="M45.9,188.4c1.4,0,2.5-1.1,2.5-2.5c0-1.4-1.1-2.5-2.5-2.5c-1.4,0-2.5,1.1-2.5,2.5C43.3,187.2,44.5,188.4,45.9,188.4z"/>
			<path d="M55.9,198.4c1.4,0,2.5-1.1,2.5-2.5c0-1.4-1.1-2.5-2.5-2.5c-1.4,0-2.5,1.1-2.5,2.5C53.3,197.2,54.5,198.4,55.9,198.4z"/>
			<path d="M5.9,168.4c1.4,0,2.5-1.1,2.5-2.5c0-1.4-1.1-2.5-2.5-2.5c-1.4,0-2.5,1.1-2.5,2.5C3.3,167.2,4.5,168.4,5.9,168.4z"/>
			<path d="M15.9,178.4c1.4,0,2.5-1.1,2.5-2.5c0-1.4-1.1-2.5-2.5-2.5c-1.4,0-2.5,1.1-2.5,2.5C13.3,177.2,14.5,178.4,15.9,178.4z"/>
			<path d="M25.9,188.4c1.4,0,2.5-1.1,2.5-2.5c0-1.4-1.1-2.5-2.5-2.5c-1.4,0-2.5,1.1-2.5,2.5C23.3,187.2,24.5,188.4,25.9,188.4z"/>
			<path d="M35.9,198.4c1.4,0,2.5-1.1,2.5-2.5c0-1.4-1.1-2.5-2.5-2.5c-1.4,0-2.5,1.1-2.5,2.5C33.3,197.2,34.5,198.4,35.9,198.4z"/>
			<path d="M5.9,188.4c1.4,0,2.5-1.1,2.5-2.5c0-1.4-1.1-2.5-2.5-2.5c-1.4,0-2.5,1.1-2.5,2.5C3.3,187.2,4.5,188.4,5.9,188.4z"/>
			<path d="M15.9,198.4c1.4,0,2.5-1.1,2.5-2.5c0-1.4-1.1-2.5-2.5-2.5c-1.4,0-2.5,1.1-2.5,2.5C13.3,197.2,14.5,198.4,15.9,198.4z"/>
		</g>
		<g id="dots_5_">
			<path d="M-14.1,108.4c1.4,0,2.5-1.1,2.5-2.5c0-1.4-1.1-2.5-2.5-2.5c-1.4,0-2.5,1.1-2.5,2.5C-16.7,107.2-15.5,108.4-14.1,108.4z"
				/>
			<path d="M-4.1,118.4c1.4,0,2.5-1.1,2.5-2.5c0-1.4-1.1-2.5-2.5-2.5c-1.4,0-2.5,1.1-2.5,2.5C-6.7,117.2-5.5,118.4-4.1,118.4z"/>
			<path d="M-34.1,108.4c1.4,0,2.5-1.1,2.5-2.5c0-1.4-1.1-2.5-2.5-2.5s-2.5,1.1-2.5,2.5C-36.7,107.2-35.5,108.4-34.1,108.4z"/>
			<path d="M-24.1,118.4c1.4,0,2.5-1.1,2.5-2.5c0-1.4-1.1-2.5-2.5-2.5c-1.4,0-2.5,1.1-2.5,2.5C-26.7,117.2-25.5,118.4-24.1,118.4z"
				/>
			<path d="M-14.1,128.4c1.4,0,2.5-1.1,2.5-2.5c0-1.4-1.1-2.5-2.5-2.5c-1.4,0-2.5,1.1-2.5,2.5C-16.7,127.2-15.5,128.4-14.1,128.4z"
				/>
			<path d="M-4.1,138.4c1.4,0,2.5-1.1,2.5-2.5c0-1.4-1.1-2.5-2.5-2.5c-1.4,0-2.5,1.1-2.5,2.5C-6.7,137.2-5.5,138.4-4.1,138.4z"/>
			<path d="M-54.1,108.4c1.4,0,2.5-1.1,2.5-2.5c0-1.4-1.1-2.5-2.5-2.5c-1.4,0-2.5,1.1-2.5,2.5C-56.7,107.2-55.5,108.4-54.1,108.4z"
				/>
			<path d="M-44.1,118.4c1.4,0,2.5-1.1,2.5-2.5c0-1.4-1.1-2.5-2.5-2.5c-1.4,0-2.5,1.1-2.5,2.5C-46.7,117.2-45.5,118.4-44.1,118.4z"
				/>
			<path d="M-34.1,128.4c1.4,0,2.5-1.1,2.5-2.5c0-1.4-1.1-2.5-2.5-2.5s-2.5,1.1-2.5,2.5C-36.7,127.2-35.5,128.4-34.1,128.4z"/>
			<path d="M-24.1,138.4c1.4,0,2.5-1.1,2.5-2.5c0-1.4-1.1-2.5-2.5-2.5c-1.4,0-2.5,1.1-2.5,2.5C-26.7,137.2-25.5,138.4-24.1,138.4z"
				/>
			<path d="M-14.1,148.4c1.4,0,2.5-1.1,2.5-2.5c0-1.4-1.1-2.5-2.5-2.5c-1.4,0-2.5,1.1-2.5,2.5C-16.7,147.2-15.5,148.4-14.1,148.4z"
				/>
			<path d="M-4.1,158.4c1.4,0,2.5-1.1,2.5-2.5c0-1.4-1.1-2.5-2.5-2.5c-1.4,0-2.5,1.1-2.5,2.5C-6.7,157.2-5.5,158.4-4.1,158.4z"/>
			<path d="M-74.1,108.4c1.4,0,2.5-1.1,2.5-2.5c0-1.4-1.1-2.5-2.5-2.5c-1.4,0-2.5,1.1-2.5,2.5C-76.7,107.2-75.5,108.4-74.1,108.4z"
				/>
			<path d="M-64.1,118.4c1.4,0,2.5-1.1,2.5-2.5c0-1.4-1.1-2.5-2.5-2.5c-1.4,0-2.5,1.1-2.5,2.5C-66.7,117.2-65.5,118.4-64.1,118.4z"
				/>
			<path d="M-54.1,128.4c1.4,0,2.5-1.1,2.5-2.5c0-1.4-1.1-2.5-2.5-2.5c-1.4,0-2.5,1.1-2.5,2.5C-56.7,127.2-55.5,128.4-54.1,128.4z"
				/>
			<path d="M-44.1,138.4c1.4,0,2.5-1.1,2.5-2.5c0-1.4-1.1-2.5-2.5-2.5c-1.4,0-2.5,1.1-2.5,2.5C-46.7,137.2-45.5,138.4-44.1,138.4z"
				/>
			<path d="M-34.1,148.4c1.4,0,2.5-1.1,2.5-2.5c0-1.4-1.1-2.5-2.5-2.5s-2.5,1.1-2.5,2.5C-36.7,147.2-35.5,148.4-34.1,148.4z"/>
			<path d="M-24.1,158.4c1.4,0,2.5-1.1,2.5-2.5c0-1.4-1.1-2.5-2.5-2.5c-1.4,0-2.5,1.1-2.5,2.5C-26.7,157.2-25.5,158.4-24.1,158.4z"
				/>
			<path d="M-14.1,168.4c1.4,0,2.5-1.1,2.5-2.5c0-1.4-1.1-2.5-2.5-2.5c-1.4,0-2.5,1.1-2.5,2.5C-16.7,167.2-15.5,168.4-14.1,168.4z"
				/>
			<path d="M-4.1,178.4c1.4,0,2.5-1.1,2.5-2.5c0-1.4-1.1-2.5-2.5-2.5c-1.4,0-2.5,1.1-2.5,2.5C-6.7,177.2-5.5,178.4-4.1,178.4z"/>
			<path d="M-94.1,108.4c1.4,0,2.5-1.1,2.5-2.5c0-1.4-1.1-2.5-2.5-2.5c-1.4,0-2.5,1.1-2.5,2.5C-96.7,107.2-95.5,108.4-94.1,108.4z"
				/>
			<path d="M-84.1,118.4c1.4,0,2.5-1.1,2.5-2.5c0-1.4-1.1-2.5-2.5-2.5c-1.4,0-2.5,1.1-2.5,2.5C-86.7,117.2-85.5,118.4-84.1,118.4z"
				/>
			<path d="M-74.1,128.4c1.4,0,2.5-1.1,2.5-2.5c0-1.4-1.1-2.5-2.5-2.5c-1.4,0-2.5,1.1-2.5,2.5C-76.7,127.2-75.5,128.4-74.1,128.4z"
				/>
			<path d="M-64.1,138.4c1.4,0,2.5-1.1,2.5-2.5c0-1.4-1.1-2.5-2.5-2.5c-1.4,0-2.5,1.1-2.5,2.5C-66.7,137.2-65.5,138.4-64.1,138.4z"
				/>
			<path d="M-54.1,148.4c1.4,0,2.5-1.1,2.5-2.5c0-1.4-1.1-2.5-2.5-2.5c-1.4,0-2.5,1.1-2.5,2.5C-56.7,147.2-55.5,148.4-54.1,148.4z"
				/>
			<path d="M-44.1,158.4c1.4,0,2.5-1.1,2.5-2.5c0-1.4-1.1-2.5-2.5-2.5c-1.4,0-2.5,1.1-2.5,2.5C-46.7,157.2-45.5,158.4-44.1,158.4z"
				/>
			<path d="M-34.1,168.4c1.4,0,2.5-1.1,2.5-2.5c0-1.4-1.1-2.5-2.5-2.5s-2.5,1.1-2.5,2.5C-36.7,167.2-35.5,168.4-34.1,168.4z"/>
			<path d="M-24.1,178.4c1.4,0,2.5-1.1,2.5-2.5c0-1.4-1.1-2.5-2.5-2.5c-1.4,0-2.5,1.1-2.5,2.5C-26.7,177.2-25.5,178.4-24.1,178.4z"
				/>
			<path d="M-14.1,188.4c1.4,0,2.5-1.1,2.5-2.5c0-1.4-1.1-2.5-2.5-2.5c-1.4,0-2.5,1.1-2.5,2.5C-16.7,187.2-15.5,188.4-14.1,188.4z"
				/>
			<path d="M-4.1,198.4c1.4,0,2.5-1.1,2.5-2.5c0-1.4-1.1-2.5-2.5-2.5c-1.4,0-2.5,1.1-2.5,2.5C-6.7,197.2-5.5,198.4-4.1,198.4z"/>
			<path d="M-94.1,128.4c1.4,0,2.5-1.1,2.5-2.5c0-1.4-1.1-2.5-2.5-2.5c-1.4,0-2.5,1.1-2.5,2.5C-96.7,127.2-95.5,128.4-94.1,128.4z"
				/>
			<path d="M-84.1,138.4c1.4,0,2.5-1.1,2.5-2.5c0-1.4-1.1-2.5-2.5-2.5c-1.4,0-2.5,1.1-2.5,2.5C-86.7,137.2-85.5,138.4-84.1,138.4z"
				/>
			<path d="M-74.1,148.4c1.4,0,2.5-1.1,2.5-2.5c0-1.4-1.1-2.5-2.5-2.5c-1.4,0-2.5,1.1-2.5,2.5C-76.7,147.2-75.5,148.4-74.1,148.4z"
				/>
			<path d="M-64.1,158.4c1.4,0,2.5-1.1,2.5-2.5c0-1.4-1.1-2.5-2.5-2.5c-1.4,0-2.5,1.1-2.5,2.5C-66.7,157.2-65.5,158.4-64.1,158.4z"
				/>
			<path d="M-54.1,168.4c1.4,0,2.5-1.1,2.5-2.5c0-1.4-1.1-2.5-2.5-2.5c-1.4,0-2.5,1.1-2.5,2.5C-56.7,167.2-55.5,168.4-54.1,168.4z"
				/>
			<path d="M-44.1,178.4c1.4,0,2.5-1.1,2.5-2.5c0-1.4-1.1-2.5-2.5-2.5c-1.4,0-2.5,1.1-2.5,2.5C-46.7,177.2-45.5,178.4-44.1,178.4z"
				/>
			<circle cx="-34.1" cy="185.9" r="2.5"/>
			<path d="M-24.1,198.4c1.4,0,2.5-1.1,2.5-2.5c0-1.4-1.1-2.5-2.5-2.5c-1.4,0-2.5,1.1-2.5,2.5C-26.7,197.2-25.5,198.4-24.1,198.4z"
				/>
			<path d="M-94.1,148.4c1.4,0,2.5-1.1,2.5-2.5c0-1.4-1.1-2.5-2.5-2.5c-1.4,0-2.5,1.1-2.5,2.5C-96.7,147.2-95.5,148.4-94.1,148.4z"
				/>
			<path d="M-84.1,158.4c1.4,0,2.5-1.1,2.5-2.5c0-1.4-1.1-2.5-2.5-2.5c-1.4,0-2.5,1.1-2.5,2.5C-86.7,157.2-85.5,158.4-84.1,158.4z"
				/>
			<path d="M-74.1,168.4c1.4,0,2.5-1.1,2.5-2.5c0-1.4-1.1-2.5-2.5-2.5c-1.4,0-2.5,1.1-2.5,2.5C-76.7,167.2-75.5,168.4-74.1,168.4z"
				/>
			<path d="M-64.1,178.4c1.4,0,2.5-1.1,2.5-2.5c0-1.4-1.1-2.5-2.5-2.5c-1.4,0-2.5,1.1-2.5,2.5C-66.7,177.2-65.5,178.4-64.1,178.4z"
				/>
			<path d="M-54.1,188.4c1.4,0,2.5-1.1,2.5-2.5c0-1.4-1.1-2.5-2.5-2.5c-1.4,0-2.5,1.1-2.5,2.5C-56.7,187.2-55.5,188.4-54.1,188.4z"
				/>
			<path d="M-44.1,198.4c1.4,0,2.5-1.1,2.5-2.5c0-1.4-1.1-2.5-2.5-2.5c-1.4,0-2.5,1.1-2.5,2.5C-46.7,197.2-45.5,198.4-44.1,198.4z"
				/>
			<path d="M-94.1,168.4c1.4,0,2.5-1.1,2.5-2.5c0-1.4-1.1-2.5-2.5-2.5c-1.4,0-2.5,1.1-2.5,2.5C-96.7,167.2-95.5,168.4-94.1,168.4z"
				/>
			<path d="M-84.1,178.4c1.4,0,2.5-1.1,2.5-2.5c0-1.4-1.1-2.5-2.5-2.5c-1.4,0-2.5,1.1-2.5,2.5C-86.7,177.2-85.5,178.4-84.1,178.4z"
				/>
			<path d="M-74.1,188.4c1.4,0,2.5-1.1,2.5-2.5c0-1.4-1.1-2.5-2.5-2.5c-1.4,0-2.5,1.1-2.5,2.5C-76.7,187.2-75.5,188.4-74.1,188.4z"
				/>
			<path d="M-64.1,198.4c1.4,0,2.5-1.1,2.5-2.5c0-1.4-1.1-2.5-2.5-2.5c-1.4,0-2.5,1.1-2.5,2.5C-66.7,197.2-65.5,198.4-64.1,198.4z"
				/>
			<path d="M-94.1,188.4c1.4,0,2.5-1.1,2.5-2.5c0-1.4-1.1-2.5-2.5-2.5c-1.4,0-2.5,1.1-2.5,2.5C-96.7,187.2-95.5,188.4-94.1,188.4z"
				/>
			<path d="M-84.1,198.4c1.4,0,2.5-1.1,2.5-2.5c0-1.4-1.1-2.5-2.5-2.5c-1.4,0-2.5,1.1-2.5,2.5C-86.7,197.2-85.5,198.4-84.1,198.4z"
				/>
		</g>
		<g id="dots_4_">
			<path d="M185.9,108.4c1.4,0,2.5-1.1,2.5-2.5c0-1.4-1.1-2.5-2.5-2.5c-1.4,0-2.5,1.1-2.5,2.5C183.3,107.2,184.5,108.4,185.9,108.4z
				"/>
			<path d="M195.9,118.4c1.4,0,2.5-1.1,2.5-2.5c0-1.4-1.1-2.5-2.5-2.5c-1.4,0-2.5,1.1-2.5,2.5C193.3,117.2,194.5,118.4,195.9,118.4z
				"/>
			<path d="M165.9,108.4c1.4,0,2.5-1.1,2.5-2.5c0-1.4-1.1-2.5-2.5-2.5c-1.4,0-2.5,1.1-2.5,2.5C163.3,107.2,164.5,108.4,165.9,108.4z
				"/>
			<path d="M175.9,118.4c1.4,0,2.5-1.1,2.5-2.5c0-1.4-1.1-2.5-2.5-2.5c-1.4,0-2.5,1.1-2.5,2.5C173.3,117.2,174.5,118.4,175.9,118.4z
				"/>
			<path d="M185.9,128.4c1.4,0,2.5-1.1,2.5-2.5c0-1.4-1.1-2.5-2.5-2.5c-1.4,0-2.5,1.1-2.5,2.5C183.3,127.2,184.5,128.4,185.9,128.4z
				"/>
			<path d="M195.9,138.4c1.4,0,2.5-1.1,2.5-2.5c0-1.4-1.1-2.5-2.5-2.5c-1.4,0-2.5,1.1-2.5,2.5C193.3,137.2,194.5,138.4,195.9,138.4z
				"/>
			<path d="M145.9,108.4c1.4,0,2.5-1.1,2.5-2.5c0-1.4-1.1-2.5-2.5-2.5c-1.4,0-2.5,1.1-2.5,2.5C143.3,107.2,144.5,108.4,145.9,108.4z
				"/>
			<path d="M155.9,118.4c1.4,0,2.5-1.1,2.5-2.5c0-1.4-1.1-2.5-2.5-2.5c-1.4,0-2.5,1.1-2.5,2.5C153.3,117.2,154.5,118.4,155.9,118.4z
				"/>
			<path d="M165.9,128.4c1.4,0,2.5-1.1,2.5-2.5c0-1.4-1.1-2.5-2.5-2.5c-1.4,0-2.5,1.1-2.5,2.5C163.3,127.2,164.5,128.4,165.9,128.4z
				"/>
			<path d="M175.9,138.4c1.4,0,2.5-1.1,2.5-2.5c0-1.4-1.1-2.5-2.5-2.5c-1.4,0-2.5,1.1-2.5,2.5C173.3,137.2,174.5,138.4,175.9,138.4z
				"/>
			<path d="M185.9,148.4c1.4,0,2.5-1.1,2.5-2.5c0-1.4-1.1-2.5-2.5-2.5c-1.4,0-2.5,1.1-2.5,2.5C183.3,147.2,184.5,148.4,185.9,148.4z
				"/>
			<path d="M195.9,158.4c1.4,0,2.5-1.1,2.5-2.5c0-1.4-1.1-2.5-2.5-2.5c-1.4,0-2.5,1.1-2.5,2.5C193.3,157.2,194.5,158.4,195.9,158.4z
				"/>
			<path d="M125.9,108.4c1.4,0,2.5-1.1,2.5-2.5c0-1.4-1.1-2.5-2.5-2.5c-1.4,0-2.5,1.1-2.5,2.5C123.3,107.2,124.5,108.4,125.9,108.4z
				"/>
			<path d="M135.9,118.4c1.4,0,2.5-1.1,2.5-2.5c0-1.4-1.1-2.5-2.5-2.5c-1.4,0-2.5,1.1-2.5,2.5C133.3,117.2,134.5,118.4,135.9,118.4z
				"/>
			<path d="M145.9,128.4c1.4,0,2.5-1.1,2.5-2.5c0-1.4-1.1-2.5-2.5-2.5c-1.4,0-2.5,1.1-2.5,2.5C143.3,127.2,144.5,128.4,145.9,128.4z
				"/>
			<path d="M155.9,138.4c1.4,0,2.5-1.1,2.5-2.5c0-1.4-1.1-2.5-2.5-2.5c-1.4,0-2.5,1.1-2.5,2.5C153.3,137.2,154.5,138.4,155.9,138.4z
				"/>
			<path d="M165.9,148.4c1.4,0,2.5-1.1,2.5-2.5c0-1.4-1.1-2.5-2.5-2.5c-1.4,0-2.5,1.1-2.5,2.5C163.3,147.2,164.5,148.4,165.9,148.4z
				"/>
			<path d="M175.9,158.4c1.4,0,2.5-1.1,2.5-2.5c0-1.4-1.1-2.5-2.5-2.5c-1.4,0-2.5,1.1-2.5,2.5C173.3,157.2,174.5,158.4,175.9,158.4z
				"/>
			<path d="M185.9,168.4c1.4,0,2.5-1.1,2.5-2.5c0-1.4-1.1-2.5-2.5-2.5c-1.4,0-2.5,1.1-2.5,2.5C183.3,167.2,184.5,168.4,185.9,168.4z
				"/>
			<path d="M195.9,178.4c1.4,0,2.5-1.1,2.5-2.5c0-1.4-1.1-2.5-2.5-2.5c-1.4,0-2.5,1.1-2.5,2.5C193.3,177.2,194.5,178.4,195.9,178.4z
				"/>
			<path d="M105.9,108.4c1.4,0,2.5-1.1,2.5-2.5c0-1.4-1.1-2.5-2.5-2.5c-1.4,0-2.5,1.1-2.5,2.5C103.3,107.2,104.5,108.4,105.9,108.4z
				"/>
			<path d="M115.9,118.4c1.4,0,2.5-1.1,2.5-2.5c0-1.4-1.1-2.5-2.5-2.5c-1.4,0-2.5,1.1-2.5,2.5C113.3,117.2,114.5,118.4,115.9,118.4z
				"/>
			<path d="M125.9,128.4c1.4,0,2.5-1.1,2.5-2.5c0-1.4-1.1-2.5-2.5-2.5c-1.4,0-2.5,1.1-2.5,2.5C123.3,127.2,124.5,128.4,125.9,128.4z
				"/>
			<path d="M135.9,138.4c1.4,0,2.5-1.1,2.5-2.5c0-1.4-1.1-2.5-2.5-2.5c-1.4,0-2.5,1.1-2.5,2.5C133.3,137.2,134.5,138.4,135.9,138.4z
				"/>
			<path d="M145.9,148.4c1.4,0,2.5-1.1,2.5-2.5c0-1.4-1.1-2.5-2.5-2.5c-1.4,0-2.5,1.1-2.5,2.5C143.3,147.2,144.5,148.4,145.9,148.4z
				"/>
			<path d="M155.9,158.4c1.4,0,2.5-1.1,2.5-2.5c0-1.4-1.1-2.5-2.5-2.5c-1.4,0-2.5,1.1-2.5,2.5C153.3,157.2,154.5,158.4,155.9,158.4z
				"/>
			<path d="M165.9,168.4c1.4,0,2.5-1.1,2.5-2.5c0-1.4-1.1-2.5-2.5-2.5c-1.4,0-2.5,1.1-2.5,2.5C163.3,167.2,164.5,168.4,165.9,168.4z
				"/>
			<path d="M175.9,178.4c1.4,0,2.5-1.1,2.5-2.5c0-1.4-1.1-2.5-2.5-2.5c-1.4,0-2.5,1.1-2.5,2.5C173.3,177.2,174.5,178.4,175.9,178.4z
				"/>
			<path d="M185.9,188.4c1.4,0,2.5-1.1,2.5-2.5c0-1.4-1.1-2.5-2.5-2.5c-1.4,0-2.5,1.1-2.5,2.5C183.3,187.2,184.5,188.4,185.9,188.4z
				"/>
			<path d="M195.9,198.4c1.4,0,2.5-1.1,2.5-2.5c0-1.4-1.1-2.5-2.5-2.5c-1.4,0-2.5,1.1-2.5,2.5C193.3,197.2,194.5,198.4,195.9,198.4z
				"/>
			<path d="M105.9,128.4c1.4,0,2.5-1.1,2.5-2.5c0-1.4-1.1-2.5-2.5-2.5c-1.4,0-2.5,1.1-2.5,2.5C103.3,127.2,104.5,128.4,105.9,128.4z
				"/>
			<path d="M115.9,138.4c1.4,0,2.5-1.1,2.5-2.5c0-1.4-1.1-2.5-2.5-2.5c-1.4,0-2.5,1.1-2.5,2.5C113.3,137.2,114.5,138.4,115.9,138.4z
				"/>
			<path d="M125.9,148.4c1.4,0,2.5-1.1,2.5-2.5c0-1.4-1.1-2.5-2.5-2.5c-1.4,0-2.5,1.1-2.5,2.5C123.3,147.2,124.5,148.4,125.9,148.4z
				"/>
			<path d="M135.9,158.4c1.4,0,2.5-1.1,2.5-2.5c0-1.4-1.1-2.5-2.5-2.5c-1.4,0-2.5,1.1-2.5,2.5C133.3,157.2,134.5,158.4,135.9,158.4z
				"/>
			<path d="M145.9,168.4c1.4,0,2.5-1.1,2.5-2.5c0-1.4-1.1-2.5-2.5-2.5c-1.4,0-2.5,1.1-2.5,2.5C143.3,167.2,144.5,168.4,145.9,168.4z
				"/>
			<path d="M155.9,178.4c1.4,0,2.5-1.1,2.5-2.5c0-1.4-1.1-2.5-2.5-2.5c-1.4,0-2.5,1.1-2.5,2.5C153.3,177.2,154.5,178.4,155.9,178.4z
				"/>
			<circle cx="165.9" cy="185.9" r="2.5"/>
			<path d="M175.9,198.4c1.4,0,2.5-1.1,2.5-2.5c0-1.4-1.1-2.5-2.5-2.5c-1.4,0-2.5,1.1-2.5,2.5C173.3,197.2,174.5,198.4,175.9,198.4z
				"/>
			<path d="M105.9,148.4c1.4,0,2.5-1.1,2.5-2.5c0-1.4-1.1-2.5-2.5-2.5c-1.4,0-2.5,1.1-2.5,2.5C103.3,147.2,104.5,148.4,105.9,148.4z
				"/>
			<path d="M115.9,158.4c1.4,0,2.5-1.1,2.5-2.5c0-1.4-1.1-2.5-2.5-2.5c-1.4,0-2.5,1.1-2.5,2.5C113.3,157.2,114.5,158.4,115.9,158.4z
				"/>
			<path d="M125.9,168.4c1.4,0,2.5-1.1,2.5-2.5c0-1.4-1.1-2.5-2.5-2.5c-1.4,0-2.5,1.1-2.5,2.5C123.3,167.2,124.5,168.4,125.9,168.4z
				"/>
			<path d="M135.9,178.4c1.4,0,2.5-1.1,2.5-2.5c0-1.4-1.1-2.5-2.5-2.5c-1.4,0-2.5,1.1-2.5,2.5C133.3,177.2,134.5,178.4,135.9,178.4z
				"/>
			<path d="M145.9,188.4c1.4,0,2.5-1.1,2.5-2.5c0-1.4-1.1-2.5-2.5-2.5c-1.4,0-2.5,1.1-2.5,2.5C143.3,187.2,144.5,188.4,145.9,188.4z
				"/>
			<path d="M155.9,198.4c1.4,0,2.5-1.1,2.5-2.5c0-1.4-1.1-2.5-2.5-2.5c-1.4,0-2.5,1.1-2.5,2.5C153.3,197.2,154.5,198.4,155.9,198.4z
				"/>
			<path d="M105.9,168.4c1.4,0,2.5-1.1,2.5-2.5c0-1.4-1.1-2.5-2.5-2.5c-1.4,0-2.5,1.1-2.5,2.5C103.3,167.2,104.5,168.4,105.9,168.4z
				"/>
			<path d="M115.9,178.4c1.4,0,2.5-1.1,2.5-2.5c0-1.4-1.1-2.5-2.5-2.5c-1.4,0-2.5,1.1-2.5,2.5C113.3,177.2,114.5,178.4,115.9,178.4z
				"/>
			<path d="M125.9,188.4c1.4,0,2.5-1.1,2.5-2.5c0-1.4-1.1-2.5-2.5-2.5c-1.4,0-2.5,1.1-2.5,2.5C123.3,187.2,124.5,188.4,125.9,188.4z
				"/>
			<path d="M135.9,198.4c1.4,0,2.5-1.1,2.5-2.5c0-1.4-1.1-2.5-2.5-2.5c-1.4,0-2.5,1.1-2.5,2.5C133.3,197.2,134.5,198.4,135.9,198.4z
				"/>
			<path d="M105.9,188.4c1.4,0,2.5-1.1,2.5-2.5c0-1.4-1.1-2.5-2.5-2.5c-1.4,0-2.5,1.1-2.5,2.5C103.3,187.2,104.5,188.4,105.9,188.4z
				"/>
			<path d="M115.9,198.4c1.4,0,2.5-1.1,2.5-2.5c0-1.4-1.1-2.5-2.5-2.5c-1.4,0-2.5,1.1-2.5,2.5C113.3,197.2,114.5,198.4,115.9,198.4z
				"/>
		</g>
	</g>
</g>
</svg>
