<?xml version="1.0" encoding="iso-8859-1"?>
<!-- Generator: Adobe Illustrator 22.1.0, SVG Export Plug-In . SVG Version: 6.00 Build 0)  -->
<svg version="1.1" id="Layer_1" xmlns="http://www.w3.org/2000/svg" xmlns:xlink="http://www.w3.org/1999/xlink" x="0px" y="0px"
	 width="100px" height="100px" viewBox="0 0 100 100" enable-background="new 0 0 100 100" xml:space="preserve">
<g>
	<defs>
		<rect id="SVGID_1_" x="0" y="0" width="100" height="100"/>
	</defs>
	<clipPath id="SVGID_2_">
		<use xlink:href="#SVGID_1_"  overflow="visible"/>
	</clipPath>
	<g clip-path="url(#SVGID_2_)">
		<g>
			<defs>
				<rect id="SVGID_3_" x="0" y="0" width="100" height="100"/>
			</defs>
			<clipPath id="SVGID_4_">
				<use xlink:href="#SVGID_3_"  overflow="visible"/>
			</clipPath>
			<g clip-path="url(#SVGID_4_)">
				<g>
					<g>
						<path d="M28.5,8.5H11.5V-8.5h16.9V8.5z M13.2,6.8h13.7V-6.8H13.2V6.8z"/>
					</g>
					<g>
						<path d="M24.9,4.9l-9.8,0v-9.8h9.8V4.9z M16.7,3.3h6.6v-6.6l-6.6,0V3.3z"/>
					</g>
				</g>
				<g>
					<g>
						<path d="M48.5,8.5H31.5V-8.5h16.9V8.5z M33.2,6.8h13.7V-6.8H33.2V6.8z"/>
					</g>
					<g>
						<path d="M44.9,4.9l-9.8,0v-9.8h9.8V4.9z M36.7,3.3h6.6v-6.6l-6.6,0V3.3z"/>
					</g>
				</g>
				<g>
					<g>
						<path d="M68.5,8.5H51.5V-8.5h16.9V8.5z M53.2,6.8h13.7V-6.8H53.2V6.8z"/>
					</g>
					<g>
						<path d="M64.9,4.9l-9.8,0v-9.8h9.8V4.9z M56.7,3.3h6.6v-6.6l-6.6,0V3.3z"/>
					</g>
				</g>
				<g>
					<g>
						<path d="M88.5,8.5H71.5V-8.5h16.9V8.5z M73.2,6.8h13.7V-6.8H73.2V6.8z"/>
					</g>
					<g>
						<path d="M84.9,4.9l-9.8,0v-9.8h9.8V4.9z M76.7,3.3h6.6v-6.6l-6.6,0V3.3z"/>
					</g>
				</g>
				<g>
					<g>
						<path d="M28.5,108.5H11.5V91.5h16.9V108.5z M13.2,106.8h13.7V93.2H13.2V106.8z"/>
					</g>
					<g>
						<path d="M24.9,104.9l-9.8,0v-9.8h9.8V104.9z M16.7,103.3h6.6v-6.6l-6.6,0V103.3z"/>
					</g>
				</g>
				<g>
					<g>
						<path d="M48.5,108.5H31.5V91.5h16.9V108.5z M33.2,106.8h13.7V93.2H33.2V106.8z"/>
					</g>
					<g>
						<path d="M44.9,104.9l-9.8,0v-9.8h9.8V104.9z M36.7,103.3h6.6v-6.6l-6.6,0V103.3z"/>
					</g>
				</g>
				<g>
					<g>
						<path d="M68.5,108.5H51.5V91.5h16.9V108.5z M53.2,106.8h13.7V93.2H53.2V106.8z"/>
					</g>
					<g>
						<path d="M64.9,104.9l-9.8,0v-9.8h9.8V104.9z M56.7,103.3h6.6v-6.6l-6.6,0V103.3z"/>
					</g>
				</g>
				<g>
					<g>
						<path d="M88.5,108.5H71.5V91.5h16.9V108.5z M73.2,106.8h13.7V93.2H73.2V106.8z"/>
					</g>
					<g>
						<path d="M84.9,104.9l-9.8,0v-9.8h9.8V104.9z M76.7,103.3h6.6v-6.6l-6.6,0V103.3z"/>
					</g>
				</g>
				<g>
					<g>
						<g>
							<path d="M108.5,8.5H91.5V-8.5h16.9V8.5z M93.2,6.8h13.7V-6.8H93.2V6.8z"/>
						</g>
						<g>
							<path d="M104.9,4.9l-9.8,0v-9.8h9.8V4.9z M96.7,3.3h6.6v-6.6l-6.6,0V3.3z"/>
						</g>
					</g>
				</g>
				<g>
					<g>
						<g>
							<path d="M8.5,108.5H-8.5V91.5H8.5V108.5z M-6.8,106.8H6.8V93.2H-6.8V106.8z"/>
						</g>
						<g>
							<path d="M4.9,104.9l-9.8,0v-9.8h9.8V104.9z M-3.3,103.3h6.6v-6.6l-6.6,0V103.3z"/>
						</g>
					</g>
				</g>
				<g>
					<g>
						<g>
							<path d="M108.5,108.5H91.5V91.5h16.9V108.5z M93.2,106.8h13.7V93.2H93.2V106.8z"/>
						</g>
						<g>
							<path d="M104.9,104.9l-9.8,0v-9.8h9.8V104.9z M96.7,103.3h6.6v-6.6l-6.6,0V103.3z"/>
						</g>
					</g>
				</g>
				<g>
					<g>
						<g>
							<path d="M8.5,8.5H-8.5V-8.5H8.5V8.5z M-6.8,6.8H6.8V-6.8H-6.8V6.8z"/>
						</g>
						<g>
							<path d="M4.9,4.9l-9.8,0v-9.8h9.8V4.9z M-3.3,3.3h6.6v-6.6l-6.6,0V3.3z"/>
						</g>
					</g>
				</g>
				<g>
					<g>
						<path d="M28.5,28.5H11.5V11.5h16.9V28.5z M13.2,26.9h13.7V13.2H13.2V26.9z"/>
					</g>
					<g>
						<path d="M24.9,24.9l-9.8,0v-9.8h9.8V24.9z M16.7,23.3h6.6v-6.6l-6.6,0V23.3z"/>
					</g>
				</g>
				<g>
					<g>
						<path d="M48.5,28.5H31.5V11.5h16.9V28.5z M33.2,26.9h13.7V13.2H33.2V26.9z"/>
					</g>
					<g>
						<path d="M44.9,24.9l-9.8,0v-9.8h9.8V24.9z M36.7,23.3h6.6v-6.6l-6.6,0V23.3z"/>
					</g>
				</g>
				<g>
					<g>
						<path d="M68.5,28.5H51.5V11.5h16.9V28.5z M53.2,26.9h13.7V13.2H53.2V26.9z"/>
					</g>
					<g>
						<path d="M64.9,24.9l-9.8,0v-9.8h9.8V24.9z M56.7,23.3h6.6v-6.6l-6.6,0V23.3z"/>
					</g>
				</g>
				<g>
					<g>
						<path d="M88.5,28.5H71.5V11.5h16.9V28.5z M73.2,26.9h13.7V13.2H73.2V26.9z"/>
					</g>
					<g>
						<path d="M84.9,24.9l-9.8,0v-9.8h9.8V24.9z M76.7,23.3h6.6v-6.6l-6.6,0V23.3z"/>
					</g>
				</g>
				<g>
					<g>
						<g>
							<path d="M108.5,28.5H91.5V11.5h16.9V28.5z M93.2,26.9h13.7V13.2H93.2V26.9z"/>
						</g>
						<g>
							<path d="M104.9,24.9l-9.8,0v-9.8h9.8V24.9z M96.7,23.3h6.6v-6.6l-6.6,0V23.3z"/>
						</g>
					</g>
				</g>
				<g>
					<g>
						<g>
							<path d="M8.5,28.5H-8.5V11.5H8.5V28.5z M-6.8,26.9H6.8V13.2H-6.8V26.9z"/>
						</g>
						<g>
							<path d="M4.9,24.9l-9.8,0v-9.8h9.8V24.9z M-3.3,23.3h6.6v-6.6l-6.6,0V23.3z"/>
						</g>
					</g>
				</g>
				<g>
					<g>
						<path d="M28.5,48.5H11.5V31.5h16.9V48.5z M13.2,46.9h13.7V33.2H13.2V46.9z"/>
					</g>
					<g>
						<path d="M24.9,44.9l-9.8,0v-9.8h9.8V44.9z M16.7,43.3h6.6v-6.6l-6.6,0V43.3z"/>
					</g>
				</g>
				<g>
					<g>
						<path d="M48.5,48.5H31.5V31.5h16.9V48.5z M33.2,46.9h13.7V33.2H33.2V46.9z"/>
					</g>
					<g>
						<path d="M44.9,44.9l-9.8,0v-9.8h9.8V44.9z M36.7,43.3h6.6v-6.6l-6.6,0V43.3z"/>
					</g>
				</g>
				<g>
					<g>
						<path d="M68.5,48.5H51.5V31.5h16.9V48.5z M53.2,46.9h13.7V33.2H53.2V46.9z"/>
					</g>
					<g>
						<path d="M64.9,44.9l-9.8,0v-9.8h9.8V44.9z M56.7,43.3h6.6v-6.6l-6.6,0V43.3z"/>
					</g>
				</g>
				<g>
					<g>
						<path d="M88.5,48.5H71.5V31.5h16.9V48.5z M73.2,46.9h13.7V33.2H73.2V46.9z"/>
					</g>
					<g>
						<path d="M84.9,44.9l-9.8,0v-9.8h9.8V44.9z M76.7,43.3h6.6v-6.6l-6.6,0V43.3z"/>
					</g>
				</g>
				<g>
					<g>
						<g>
							<path d="M108.5,48.5H91.5V31.5h16.9V48.5z M93.2,46.9h13.7V33.2H93.2V46.9z"/>
						</g>
						<g>
							<path d="M104.9,44.9l-9.8,0v-9.8h9.8V44.9z M96.7,43.3h6.6v-6.6l-6.6,0V43.3z"/>
						</g>
					</g>
				</g>
				<g>
					<g>
						<g>
							<path d="M8.5,48.5H-8.5V31.5H8.5V48.5z M-6.8,46.9H6.8V33.2H-6.8V46.9z"/>
						</g>
						<g>
							<path d="M4.9,44.9l-9.8,0v-9.8h9.8V44.9z M-3.3,43.3h6.6v-6.6l-6.6,0V43.3z"/>
						</g>
					</g>
				</g>
				<g>
					<g>
						<path d="M28.5,68.5H11.5V51.5h16.9V68.5z M13.2,66.8h13.7V53.2H13.2V66.8z"/>
					</g>
					<g>
						<path d="M24.9,64.9l-9.8,0v-9.8h9.8V64.9z M16.7,63.3h6.6v-6.6l-6.6,0V63.3z"/>
					</g>
				</g>
				<g>
					<g>
						<path d="M48.5,68.5H31.5V51.5h16.9V68.5z M33.2,66.8h13.7V53.2H33.2V66.8z"/>
					</g>
					<g>
						<path d="M44.9,64.9l-9.8,0v-9.8h9.8V64.9z M36.7,63.3h6.6v-6.6l-6.6,0V63.3z"/>
					</g>
				</g>
				<g>
					<g>
						<path d="M68.5,68.5H51.5V51.5h16.9V68.5z M53.2,66.8h13.7V53.2H53.2V66.8z"/>
					</g>
					<g>
						<path d="M64.9,64.9l-9.8,0v-9.8h9.8V64.9z M56.7,63.3h6.6v-6.6l-6.6,0V63.3z"/>
					</g>
				</g>
				<g>
					<g>
						<path d="M88.5,68.5H71.5V51.5h16.9V68.5z M73.2,66.8h13.7V53.2H73.2V66.8z"/>
					</g>
					<g>
						<path d="M84.9,64.9l-9.8,0v-9.8h9.8V64.9z M76.7,63.3h6.6v-6.6l-6.6,0V63.3z"/>
					</g>
				</g>
				<g>
					<g>
						<g>
							<path d="M108.5,68.5H91.5V51.5h16.9V68.5z M93.2,66.8h13.7V53.2H93.2V66.8z"/>
						</g>
						<g>
							<path d="M104.9,64.9l-9.8,0v-9.8h9.8V64.9z M96.7,63.3h6.6v-6.6l-6.6,0V63.3z"/>
						</g>
					</g>
				</g>
				<g>
					<g>
						<g>
							<path d="M8.5,68.5H-8.5V51.5H8.5V68.5z M-6.8,66.8H6.8V53.2H-6.8V66.8z"/>
						</g>
						<g>
							<path d="M4.9,64.9l-9.8,0v-9.8h9.8V64.9z M-3.3,63.3h6.6v-6.6l-6.6,0V63.3z"/>
						</g>
					</g>
				</g>
				<g>
					<g>
						<path d="M28.5,88.5H11.5V71.5h16.9V88.5z M13.2,86.9h13.7V73.2H13.2V86.9z"/>
					</g>
					<g>
						<path d="M24.9,84.9l-9.8,0v-9.8h9.8V84.9z M16.7,83.3h6.6v-6.6l-6.6,0V83.3z"/>
					</g>
				</g>
				<g>
					<g>
						<path d="M48.5,88.5H31.5V71.5h16.9V88.5z M33.2,86.9h13.7V73.2H33.2V86.9z"/>
					</g>
					<g>
						<path d="M44.9,84.9l-9.8,0v-9.8h9.8V84.9z M36.7,83.3h6.6v-6.6l-6.6,0V83.3z"/>
					</g>
				</g>
				<g>
					<g>
						<path d="M68.5,88.5H51.5V71.5h16.9V88.5z M53.2,86.9h13.7V73.2H53.2V86.9z"/>
					</g>
					<g>
						<path d="M64.9,84.9l-9.8,0v-9.8h9.8V84.9z M56.7,83.3h6.6v-6.6l-6.6,0V83.3z"/>
					</g>
				</g>
				<g>
					<g>
						<path d="M88.5,88.5H71.5V71.5h16.9V88.5z M73.2,86.9h13.7V73.2H73.2V86.9z"/>
					</g>
					<g>
						<path d="M84.9,84.9l-9.8,0v-9.8h9.8V84.9z M76.7,83.3h6.6v-6.6l-6.6,0V83.3z"/>
					</g>
				</g>
				<g>
					<g>
						<g>
							<path d="M108.5,88.5H91.5V71.5h16.9V88.5z M93.2,86.9h13.7V73.2H93.2V86.9z"/>
						</g>
						<g>
							<path d="M104.9,84.9l-9.8,0v-9.8h9.8V84.9z M96.7,83.3h6.6v-6.6l-6.6,0V83.3z"/>
						</g>
					</g>
				</g>
				<g>
					<g>
						<g>
							<path d="M8.5,88.5H-8.5V71.5H8.5V88.5z M-6.8,86.9H6.8V73.2H-6.8V86.9z"/>
						</g>
						<g>
							<path d="M4.9,84.9l-9.8,0v-9.8h9.8V84.9z M-3.3,83.3h6.6v-6.6l-6.6,0V83.3z"/>
						</g>
					</g>
				</g>
			</g>
		</g>
		<g>
			<defs>
				<rect id="SVGID_5_" x="-100" y="0" width="100" height="100"/>
			</defs>
			<clipPath id="SVGID_6_">
				<use xlink:href="#SVGID_5_"  overflow="visible"/>
			</clipPath>
			<g clip-path="url(#SVGID_6_)">
				<g>
					<g>
						<path d="M-71.5,8.5h-16.9V-8.5h16.9V8.5z M-86.8,6.8h13.7V-6.8h-13.7V6.8z"/>
					</g>
					<g>
						<path d="M-75.1,4.9l-9.8,0v-9.8h9.8V4.9z M-83.3,3.3h6.6v-6.6l-6.6,0V3.3z"/>
					</g>
				</g>
				<g>
					<g>
						<path d="M-51.5,8.5h-16.9V-8.5h16.9V8.5z M-66.8,6.8h13.7V-6.8h-13.7V6.8z"/>
					</g>
					<g>
						<path d="M-55.1,4.9l-9.8,0v-9.8h9.8V4.9z M-63.3,3.3h6.6v-6.6l-6.6,0V3.3z"/>
					</g>
				</g>
				<g>
					<g>
						<path d="M-31.5,8.5h-16.9V-8.5h16.9V8.5z M-46.8,6.8h13.7V-6.8h-13.7V6.8z"/>
					</g>
					<g>
						<path d="M-35.1,4.9l-9.8,0v-9.8h9.8V4.9z M-43.3,3.3h6.6v-6.6l-6.6,0V3.3z"/>
					</g>
				</g>
				<g>
					<g>
						<path d="M-11.5,8.5h-16.9V-8.5h16.9V8.5z M-26.8,6.8h13.7V-6.8h-13.7V6.8z"/>
					</g>
					<g>
						<path d="M-15.1,4.9l-9.8,0v-9.8h9.8V4.9z M-23.3,3.3h6.6v-6.6l-6.6,0V3.3z"/>
					</g>
				</g>
				<g>
					<g>
						<path d="M-71.5,108.5h-16.9V91.5h16.9V108.5z M-86.8,106.8h13.7V93.2h-13.7V106.8z"/>
					</g>
					<g>
						<path d="M-75.1,104.9l-9.8,0v-9.8h9.8V104.9z M-83.3,103.3h6.6v-6.6l-6.6,0V103.3z"/>
					</g>
				</g>
				<g>
					<g>
						<path d="M-51.5,108.5h-16.9V91.5h16.9V108.5z M-66.8,106.8h13.7V93.2h-13.7V106.8z"/>
					</g>
					<g>
						<path d="M-55.1,104.9l-9.8,0v-9.8h9.8V104.9z M-63.3,103.3h6.6v-6.6l-6.6,0V103.3z"/>
					</g>
				</g>
				<g>
					<g>
						<path d="M-31.5,108.5h-16.9V91.5h16.9V108.5z M-46.8,106.8h13.7V93.2h-13.7V106.8z"/>
					</g>
					<g>
						<path d="M-35.1,104.9l-9.8,0v-9.8h9.8V104.9z M-43.3,103.3h6.6v-6.6l-6.6,0V103.3z"/>
					</g>
				</g>
				<g>
					<g>
						<path d="M-11.5,108.5h-16.9V91.5h16.9V108.5z M-26.8,106.8h13.7V93.2h-13.7V106.8z"/>
					</g>
					<g>
						<path d="M-15.1,104.9l-9.8,0v-9.8h9.8V104.9z M-23.3,103.3h6.6v-6.6l-6.6,0V103.3z"/>
					</g>
				</g>
				<g>
					<g>
						<g>
							<path d="M8.5,8.5H-8.5V-8.5H8.5V8.5z M-6.8,6.8H6.8V-6.8H-6.8V6.8z"/>
						</g>
						<g>
							<path d="M4.9,4.9l-9.8,0v-9.8h9.8V4.9z M-3.3,3.3h6.6v-6.6l-6.6,0V3.3z"/>
						</g>
					</g>
				</g>
				<g>
					<g>
						<g>
							<path d="M-91.5,108.5h-16.9V91.5h16.9V108.5z M-106.8,106.8h13.7V93.2h-13.7V106.8z"/>
						</g>
						<g>
							<path d="M-95.1,104.9l-9.8,0v-9.8h9.8V104.9z M-103.3,103.3h6.6v-6.6l-6.6,0V103.3z"/>
						</g>
					</g>
				</g>
				<g>
					<g>
						<g>
							<path d="M8.5,108.5H-8.5V91.5H8.5V108.5z M-6.8,106.8H6.8V93.2H-6.8V106.8z"/>
						</g>
						<g>
							<path d="M4.9,104.9l-9.8,0v-9.8h9.8V104.9z M-3.3,103.3h6.6v-6.6l-6.6,0V103.3z"/>
						</g>
					</g>
				</g>
				<g>
					<g>
						<g>
							<path d="M-91.5,8.5h-16.9V-8.5h16.9V8.5z M-106.8,6.8h13.7V-6.8h-13.7V6.8z"/>
						</g>
						<g>
							<path d="M-95.1,4.9l-9.8,0v-9.8h9.8V4.9z M-103.3,3.3h6.6v-6.6l-6.6,0V3.3z"/>
						</g>
					</g>
				</g>
				<g>
					<g>
						<path d="M-71.5,28.5h-16.9V11.5h16.9V28.5z M-86.8,26.9h13.7V13.2h-13.7V26.9z"/>
					</g>
					<g>
						<path d="M-75.1,24.9l-9.8,0v-9.8h9.8V24.9z M-83.3,23.3h6.6v-6.6l-6.6,0V23.3z"/>
					</g>
				</g>
				<g>
					<g>
						<path d="M-51.5,28.5h-16.9V11.5h16.9V28.5z M-66.8,26.9h13.7V13.2h-13.7V26.9z"/>
					</g>
					<g>
						<path d="M-55.1,24.9l-9.8,0v-9.8h9.8V24.9z M-63.3,23.3h6.6v-6.6l-6.6,0V23.3z"/>
					</g>
				</g>
				<g>
					<g>
						<path d="M-31.5,28.5h-16.9V11.5h16.9V28.5z M-46.8,26.9h13.7V13.2h-13.7V26.9z"/>
					</g>
					<g>
						<path d="M-35.1,24.9l-9.8,0v-9.8h9.8V24.9z M-43.3,23.3h6.6v-6.6l-6.6,0V23.3z"/>
					</g>
				</g>
				<g>
					<g>
						<path d="M-11.5,28.5h-16.9V11.5h16.9V28.5z M-26.8,26.9h13.7V13.2h-13.7V26.9z"/>
					</g>
					<g>
						<path d="M-15.1,24.9l-9.8,0v-9.8h9.8V24.9z M-23.3,23.3h6.6v-6.6l-6.6,0V23.3z"/>
					</g>
				</g>
				<g>
					<g>
						<g>
							<path d="M8.5,28.5H-8.5V11.5H8.5V28.5z M-6.8,26.9H6.8V13.2H-6.8V26.9z"/>
						</g>
						<g>
							<path d="M4.9,24.9l-9.8,0v-9.8h9.8V24.9z M-3.3,23.3h6.6v-6.6l-6.6,0V23.3z"/>
						</g>
					</g>
				</g>
				<g>
					<g>
						<g>
							<path d="M-91.5,28.5h-16.9V11.5h16.9V28.5z M-106.8,26.9h13.7V13.2h-13.7V26.9z"/>
						</g>
						<g>
							<path d="M-95.1,24.9l-9.8,0v-9.8h9.8V24.9z M-103.3,23.3h6.6v-6.6l-6.6,0V23.3z"/>
						</g>
					</g>
				</g>
				<g>
					<g>
						<path d="M-71.5,48.5h-16.9V31.5h16.9V48.5z M-86.8,46.9h13.7V33.2h-13.7V46.9z"/>
					</g>
					<g>
						<path d="M-75.1,44.9l-9.8,0v-9.8h9.8V44.9z M-83.3,43.3h6.6v-6.6l-6.6,0V43.3z"/>
					</g>
				</g>
				<g>
					<g>
						<path d="M-51.5,48.5h-16.9V31.5h16.9V48.5z M-66.8,46.9h13.7V33.2h-13.7V46.9z"/>
					</g>
					<g>
						<path d="M-55.1,44.9l-9.8,0v-9.8h9.8V44.9z M-63.3,43.3h6.6v-6.6l-6.6,0V43.3z"/>
					</g>
				</g>
				<g>
					<g>
						<path d="M-31.5,48.5h-16.9V31.5h16.9V48.5z M-46.8,46.9h13.7V33.2h-13.7V46.9z"/>
					</g>
					<g>
						<path d="M-35.1,44.9l-9.8,0v-9.8h9.8V44.9z M-43.3,43.3h6.6v-6.6l-6.6,0V43.3z"/>
					</g>
				</g>
				<g>
					<g>
						<path d="M-11.5,48.5h-16.9V31.5h16.9V48.5z M-26.8,46.9h13.7V33.2h-13.7V46.9z"/>
					</g>
					<g>
						<path d="M-15.1,44.9l-9.8,0v-9.8h9.8V44.9z M-23.3,43.3h6.6v-6.6l-6.6,0V43.3z"/>
					</g>
				</g>
				<g>
					<g>
						<g>
							<path d="M8.5,48.5H-8.5V31.5H8.5V48.5z M-6.8,46.9H6.8V33.2H-6.8V46.9z"/>
						</g>
						<g>
							<path d="M4.9,44.9l-9.8,0v-9.8h9.8V44.9z M-3.3,43.3h6.6v-6.6l-6.6,0V43.3z"/>
						</g>
					</g>
				</g>
				<g>
					<g>
						<g>
							<path d="M-91.5,48.5h-16.9V31.5h16.9V48.5z M-106.8,46.9h13.7V33.2h-13.7V46.9z"/>
						</g>
						<g>
							<path d="M-95.1,44.9l-9.8,0v-9.8h9.8V44.9z M-103.3,43.3h6.6v-6.6l-6.6,0V43.3z"/>
						</g>
					</g>
				</g>
				<g>
					<g>
						<path d="M-71.5,68.5h-16.9V51.5h16.9V68.5z M-86.8,66.8h13.7V53.2h-13.7V66.8z"/>
					</g>
					<g>
						<path d="M-75.1,64.9l-9.8,0v-9.8h9.8V64.9z M-83.3,63.3h6.6v-6.6l-6.6,0V63.3z"/>
					</g>
				</g>
				<g>
					<g>
						<path d="M-51.5,68.5h-16.9V51.5h16.9V68.5z M-66.8,66.8h13.7V53.2h-13.7V66.8z"/>
					</g>
					<g>
						<path d="M-55.1,64.9l-9.8,0v-9.8h9.8V64.9z M-63.3,63.3h6.6v-6.6l-6.6,0V63.3z"/>
					</g>
				</g>
				<g>
					<g>
						<path d="M-31.5,68.5h-16.9V51.5h16.9V68.5z M-46.8,66.8h13.7V53.2h-13.7V66.8z"/>
					</g>
					<g>
						<path d="M-35.1,64.9l-9.8,0v-9.8h9.8V64.9z M-43.3,63.3h6.6v-6.6l-6.6,0V63.3z"/>
					</g>
				</g>
				<g>
					<g>
						<path d="M-11.5,68.5h-16.9V51.5h16.9V68.5z M-26.8,66.8h13.7V53.2h-13.7V66.8z"/>
					</g>
					<g>
						<path d="M-15.1,64.9l-9.8,0v-9.8h9.8V64.9z M-23.3,63.3h6.6v-6.6l-6.6,0V63.3z"/>
					</g>
				</g>
				<g>
					<g>
						<g>
							<path d="M8.5,68.5H-8.5V51.5H8.5V68.5z M-6.8,66.8H6.8V53.2H-6.8V66.8z"/>
						</g>
						<g>
							<path d="M4.9,64.9l-9.8,0v-9.8h9.8V64.9z M-3.3,63.3h6.6v-6.6l-6.6,0V63.3z"/>
						</g>
					</g>
				</g>
				<g>
					<g>
						<g>
							<path d="M-91.5,68.5h-16.9V51.5h16.9V68.5z M-106.8,66.8h13.7V53.2h-13.7V66.8z"/>
						</g>
						<g>
							<path d="M-95.1,64.9l-9.8,0v-9.8h9.8V64.9z M-103.3,63.3h6.6v-6.6l-6.6,0V63.3z"/>
						</g>
					</g>
				</g>
				<g>
					<g>
						<path d="M-71.5,88.5h-16.9V71.5h16.9V88.5z M-86.8,86.9h13.7V73.2h-13.7V86.9z"/>
					</g>
					<g>
						<path d="M-75.1,84.9l-9.8,0v-9.8h9.8V84.9z M-83.3,83.3h6.6v-6.6l-6.6,0V83.3z"/>
					</g>
				</g>
				<g>
					<g>
						<path d="M-51.5,88.5h-16.9V71.5h16.9V88.5z M-66.8,86.9h13.7V73.2h-13.7V86.9z"/>
					</g>
					<g>
						<path d="M-55.1,84.9l-9.8,0v-9.8h9.8V84.9z M-63.3,83.3h6.6v-6.6l-6.6,0V83.3z"/>
					</g>
				</g>
				<g>
					<g>
						<path d="M-31.5,88.5h-16.9V71.5h16.9V88.5z M-46.8,86.9h13.7V73.2h-13.7V86.9z"/>
					</g>
					<g>
						<path d="M-35.1,84.9l-9.8,0v-9.8h9.8V84.9z M-43.3,83.3h6.6v-6.6l-6.6,0V83.3z"/>
					</g>
				</g>
				<g>
					<g>
						<path d="M-11.5,88.5h-16.9V71.5h16.9V88.5z M-26.8,86.9h13.7V73.2h-13.7V86.9z"/>
					</g>
					<g>
						<path d="M-15.1,84.9l-9.8,0v-9.8h9.8V84.9z M-23.3,83.3h6.6v-6.6l-6.6,0V83.3z"/>
					</g>
				</g>
				<g>
					<g>
						<g>
							<path d="M8.5,88.5H-8.5V71.5H8.5V88.5z M-6.8,86.9H6.8V73.2H-6.8V86.9z"/>
						</g>
						<g>
							<path d="M4.9,84.9l-9.8,0v-9.8h9.8V84.9z M-3.3,83.3h6.6v-6.6l-6.6,0V83.3z"/>
						</g>
					</g>
				</g>
				<g>
					<g>
						<g>
							<path d="M-91.5,88.5h-16.9V71.5h16.9V88.5z M-106.8,86.9h13.7V73.2h-13.7V86.9z"/>
						</g>
						<g>
							<path d="M-95.1,84.9l-9.8,0v-9.8h9.8V84.9z M-103.3,83.3h6.6v-6.6l-6.6,0V83.3z"/>
						</g>
					</g>
				</g>
			</g>
		</g>
		<g>
			<defs>
				<rect id="SVGID_7_" x="100" y="0" width="100" height="100"/>
			</defs>
			<clipPath id="SVGID_8_">
				<use xlink:href="#SVGID_7_"  overflow="visible"/>
			</clipPath>
			<g clip-path="url(#SVGID_8_)">
				<g>
					<g>
						<path d="M128.5,8.5h-16.9V-8.5h16.9V8.5z M113.2,6.8h13.7V-6.8h-13.7V6.8z"/>
					</g>
					<g>
						<path d="M124.9,4.9l-9.8,0v-9.8h9.8V4.9z M116.7,3.3h6.6v-6.6l-6.6,0V3.3z"/>
					</g>
				</g>
				<g>
					<g>
						<path d="M148.5,8.5h-16.9V-8.5h16.9V8.5z M133.2,6.8h13.7V-6.8h-13.7V6.8z"/>
					</g>
					<g>
						<path d="M144.9,4.9l-9.8,0v-9.8h9.8V4.9z M136.7,3.3h6.6v-6.6l-6.6,0V3.3z"/>
					</g>
				</g>
				<g>
					<g>
						<path d="M168.5,8.5h-16.9V-8.5h16.9V8.5z M153.2,6.8h13.7V-6.8h-13.7V6.8z"/>
					</g>
					<g>
						<path d="M164.9,4.9l-9.8,0v-9.8h9.8V4.9z M156.7,3.3h6.6v-6.6l-6.6,0V3.3z"/>
					</g>
				</g>
				<g>
					<g>
						<path d="M188.5,8.5h-16.9V-8.5h16.9V8.5z M173.2,6.8h13.7V-6.8h-13.7V6.8z"/>
					</g>
					<g>
						<path d="M184.9,4.9l-9.8,0v-9.8h9.8V4.9z M176.7,3.3h6.6v-6.6l-6.6,0V3.3z"/>
					</g>
				</g>
				<g>
					<g>
						<path d="M128.5,108.5h-16.9V91.5h16.9V108.5z M113.2,106.8h13.7V93.2h-13.7V106.8z"/>
					</g>
					<g>
						<path d="M124.9,104.9l-9.8,0v-9.8h9.8V104.9z M116.7,103.3h6.6v-6.6l-6.6,0V103.3z"/>
					</g>
				</g>
				<g>
					<g>
						<path d="M148.5,108.5h-16.9V91.5h16.9V108.5z M133.2,106.8h13.7V93.2h-13.7V106.8z"/>
					</g>
					<g>
						<path d="M144.9,104.9l-9.8,0v-9.8h9.8V104.9z M136.7,103.3h6.6v-6.6l-6.6,0V103.3z"/>
					</g>
				</g>
				<g>
					<g>
						<path d="M168.5,108.5h-16.9V91.5h16.9V108.5z M153.2,106.8h13.7V93.2h-13.7V106.8z"/>
					</g>
					<g>
						<path d="M164.9,104.9l-9.8,0v-9.8h9.8V104.9z M156.7,103.3h6.6v-6.6l-6.6,0V103.3z"/>
					</g>
				</g>
				<g>
					<g>
						<path d="M188.5,108.5h-16.9V91.5h16.9V108.5z M173.2,106.8h13.7V93.2h-13.7V106.8z"/>
					</g>
					<g>
						<path d="M184.9,104.9l-9.8,0v-9.8h9.8V104.9z M176.7,103.3h6.6v-6.6l-6.6,0V103.3z"/>
					</g>
				</g>
				<g>
					<g>
						<g>
							<path d="M208.5,8.5h-16.9V-8.5h16.9V8.5z M193.2,6.8h13.7V-6.8h-13.7V6.8z"/>
						</g>
						<g>
							<path d="M204.9,4.9l-9.8,0v-9.8h9.8V4.9z M196.7,3.3h6.6v-6.6l-6.6,0V3.3z"/>
						</g>
					</g>
				</g>
				<g>
					<g>
						<g>
							<path d="M108.5,108.5H91.5V91.5h16.9V108.5z M93.2,106.8h13.7V93.2H93.2V106.8z"/>
						</g>
						<g>
							<path d="M104.9,104.9l-9.8,0v-9.8h9.8V104.9z M96.7,103.3h6.6v-6.6l-6.6,0V103.3z"/>
						</g>
					</g>
				</g>
				<g>
					<g>
						<g>
							<path d="M208.5,108.5h-16.9V91.5h16.9V108.5z M193.2,106.8h13.7V93.2h-13.7V106.8z"/>
						</g>
						<g>
							<path d="M204.9,104.9l-9.8,0v-9.8h9.8V104.9z M196.7,103.3h6.6v-6.6l-6.6,0V103.3z"/>
						</g>
					</g>
				</g>
				<g>
					<g>
						<g>
							<path d="M108.5,8.5H91.5V-8.5h16.9V8.5z M93.2,6.8h13.7V-6.8H93.2V6.8z"/>
						</g>
						<g>
							<path d="M104.9,4.9l-9.8,0v-9.8h9.8V4.9z M96.7,3.3h6.6v-6.6l-6.6,0V3.3z"/>
						</g>
					</g>
				</g>
				<g>
					<g>
						<path d="M128.5,28.5h-16.9V11.5h16.9V28.5z M113.2,26.9h13.7V13.2h-13.7V26.9z"/>
					</g>
					<g>
						<path d="M124.9,24.9l-9.8,0v-9.8h9.8V24.9z M116.7,23.3h6.6v-6.6l-6.6,0V23.3z"/>
					</g>
				</g>
				<g>
					<g>
						<path d="M148.5,28.5h-16.9V11.5h16.9V28.5z M133.2,26.9h13.7V13.2h-13.7V26.9z"/>
					</g>
					<g>
						<path d="M144.9,24.9l-9.8,0v-9.8h9.8V24.9z M136.7,23.3h6.6v-6.6l-6.6,0V23.3z"/>
					</g>
				</g>
				<g>
					<g>
						<path d="M168.5,28.5h-16.9V11.5h16.9V28.5z M153.2,26.9h13.7V13.2h-13.7V26.9z"/>
					</g>
					<g>
						<path d="M164.9,24.9l-9.8,0v-9.8h9.8V24.9z M156.7,23.3h6.6v-6.6l-6.6,0V23.3z"/>
					</g>
				</g>
				<g>
					<g>
						<path d="M188.5,28.5h-16.9V11.5h16.9V28.5z M173.2,26.9h13.7V13.2h-13.7V26.9z"/>
					</g>
					<g>
						<path d="M184.9,24.9l-9.8,0v-9.8h9.8V24.9z M176.7,23.3h6.6v-6.6l-6.6,0V23.3z"/>
					</g>
				</g>
				<g>
					<g>
						<g>
							<path d="M208.5,28.5h-16.9V11.5h16.9V28.5z M193.2,26.9h13.7V13.2h-13.7V26.9z"/>
						</g>
						<g>
							<path d="M204.9,24.9l-9.8,0v-9.8h9.8V24.9z M196.7,23.3h6.6v-6.6l-6.6,0V23.3z"/>
						</g>
					</g>
				</g>
				<g>
					<g>
						<g>
							<path d="M108.5,28.5H91.5V11.5h16.9V28.5z M93.2,26.9h13.7V13.2H93.2V26.9z"/>
						</g>
						<g>
							<path d="M104.9,24.9l-9.8,0v-9.8h9.8V24.9z M96.7,23.3h6.6v-6.6l-6.6,0V23.3z"/>
						</g>
					</g>
				</g>
				<g>
					<g>
						<path d="M128.5,48.5h-16.9V31.5h16.9V48.5z M113.2,46.9h13.7V33.2h-13.7V46.9z"/>
					</g>
					<g>
						<path d="M124.9,44.9l-9.8,0v-9.8h9.8V44.9z M116.7,43.3h6.6v-6.6l-6.6,0V43.3z"/>
					</g>
				</g>
				<g>
					<g>
						<path d="M148.5,48.5h-16.9V31.5h16.9V48.5z M133.2,46.9h13.7V33.2h-13.7V46.9z"/>
					</g>
					<g>
						<path d="M144.9,44.9l-9.8,0v-9.8h9.8V44.9z M136.7,43.3h6.6v-6.6l-6.6,0V43.3z"/>
					</g>
				</g>
				<g>
					<g>
						<path d="M168.5,48.5h-16.9V31.5h16.9V48.5z M153.2,46.9h13.7V33.2h-13.7V46.9z"/>
					</g>
					<g>
						<path d="M164.9,44.9l-9.8,0v-9.8h9.8V44.9z M156.7,43.3h6.6v-6.6l-6.6,0V43.3z"/>
					</g>
				</g>
				<g>
					<g>
						<path d="M188.5,48.5h-16.9V31.5h16.9V48.5z M173.2,46.9h13.7V33.2h-13.7V46.9z"/>
					</g>
					<g>
						<path d="M184.9,44.9l-9.8,0v-9.8h9.8V44.9z M176.7,43.3h6.6v-6.6l-6.6,0V43.3z"/>
					</g>
				</g>
				<g>
					<g>
						<g>
							<path d="M208.5,48.5h-16.9V31.5h16.9V48.5z M193.2,46.9h13.7V33.2h-13.7V46.9z"/>
						</g>
						<g>
							<path d="M204.9,44.9l-9.8,0v-9.8h9.8V44.9z M196.7,43.3h6.6v-6.6l-6.6,0V43.3z"/>
						</g>
					</g>
				</g>
				<g>
					<g>
						<g>
							<path d="M108.5,48.5H91.5V31.5h16.9V48.5z M93.2,46.9h13.7V33.2H93.2V46.9z"/>
						</g>
						<g>
							<path d="M104.9,44.9l-9.8,0v-9.8h9.8V44.9z M96.7,43.3h6.6v-6.6l-6.6,0V43.3z"/>
						</g>
					</g>
				</g>
				<g>
					<g>
						<path d="M128.5,68.5h-16.9V51.5h16.9V68.5z M113.2,66.8h13.7V53.2h-13.7V66.8z"/>
					</g>
					<g>
						<path d="M124.9,64.9l-9.8,0v-9.8h9.8V64.9z M116.7,63.3h6.6v-6.6l-6.6,0V63.3z"/>
					</g>
				</g>
				<g>
					<g>
						<path d="M148.5,68.5h-16.9V51.5h16.9V68.5z M133.2,66.8h13.7V53.2h-13.7V66.8z"/>
					</g>
					<g>
						<path d="M144.9,64.9l-9.8,0v-9.8h9.8V64.9z M136.7,63.3h6.6v-6.6l-6.6,0V63.3z"/>
					</g>
				</g>
				<g>
					<g>
						<path d="M168.5,68.5h-16.9V51.5h16.9V68.5z M153.2,66.8h13.7V53.2h-13.7V66.8z"/>
					</g>
					<g>
						<path d="M164.9,64.9l-9.8,0v-9.8h9.8V64.9z M156.7,63.3h6.6v-6.6l-6.6,0V63.3z"/>
					</g>
				</g>
				<g>
					<g>
						<path d="M188.5,68.5h-16.9V51.5h16.9V68.5z M173.2,66.8h13.7V53.2h-13.7V66.8z"/>
					</g>
					<g>
						<path d="M184.9,64.9l-9.8,0v-9.8h9.8V64.9z M176.7,63.3h6.6v-6.6l-6.6,0V63.3z"/>
					</g>
				</g>
				<g>
					<g>
						<g>
							<path d="M208.5,68.5h-16.9V51.5h16.9V68.5z M193.2,66.8h13.7V53.2h-13.7V66.8z"/>
						</g>
						<g>
							<path d="M204.9,64.9l-9.8,0v-9.8h9.8V64.9z M196.7,63.3h6.6v-6.6l-6.6,0V63.3z"/>
						</g>
					</g>
				</g>
				<g>
					<g>
						<g>
							<path d="M108.5,68.5H91.5V51.5h16.9V68.5z M93.2,66.8h13.7V53.2H93.2V66.8z"/>
						</g>
						<g>
							<path d="M104.9,64.9l-9.8,0v-9.8h9.8V64.9z M96.7,63.3h6.6v-6.6l-6.6,0V63.3z"/>
						</g>
					</g>
				</g>
				<g>
					<g>
						<path d="M128.5,88.5h-16.9V71.5h16.9V88.5z M113.2,86.9h13.7V73.2h-13.7V86.9z"/>
					</g>
					<g>
						<path d="M124.9,84.9l-9.8,0v-9.8h9.8V84.9z M116.7,83.3h6.6v-6.6l-6.6,0V83.3z"/>
					</g>
				</g>
				<g>
					<g>
						<path d="M148.5,88.5h-16.9V71.5h16.9V88.5z M133.2,86.9h13.7V73.2h-13.7V86.9z"/>
					</g>
					<g>
						<path d="M144.9,84.9l-9.8,0v-9.8h9.8V84.9z M136.7,83.3h6.6v-6.6l-6.6,0V83.3z"/>
					</g>
				</g>
				<g>
					<g>
						<path d="M168.5,88.5h-16.9V71.5h16.9V88.5z M153.2,86.9h13.7V73.2h-13.7V86.9z"/>
					</g>
					<g>
						<path d="M164.9,84.9l-9.8,0v-9.8h9.8V84.9z M156.7,83.3h6.6v-6.6l-6.6,0V83.3z"/>
					</g>
				</g>
				<g>
					<g>
						<path d="M188.5,88.5h-16.9V71.5h16.9V88.5z M173.2,86.9h13.7V73.2h-13.7V86.9z"/>
					</g>
					<g>
						<path d="M184.9,84.9l-9.8,0v-9.8h9.8V84.9z M176.7,83.3h6.6v-6.6l-6.6,0V83.3z"/>
					</g>
				</g>
				<g>
					<g>
						<g>
							<path d="M208.5,88.5h-16.9V71.5h16.9V88.5z M193.2,86.9h13.7V73.2h-13.7V86.9z"/>
						</g>
						<g>
							<path d="M204.9,84.9l-9.8,0v-9.8h9.8V84.9z M196.7,83.3h6.6v-6.6l-6.6,0V83.3z"/>
						</g>
					</g>
				</g>
				<g>
					<g>
						<g>
							<path d="M108.5,88.5H91.5V71.5h16.9V88.5z M93.2,86.9h13.7V73.2H93.2V86.9z"/>
						</g>
						<g>
							<path d="M104.9,84.9l-9.8,0v-9.8h9.8V84.9z M96.7,83.3h6.6v-6.6l-6.6,0V83.3z"/>
						</g>
					</g>
				</g>
			</g>
		</g>
		<g>
			<defs>
				<rect id="SVGID_9_" x="0" y="-100" width="100" height="100"/>
			</defs>
			<clipPath id="SVGID_10_">
				<use xlink:href="#SVGID_9_"  overflow="visible"/>
			</clipPath>
			<g clip-path="url(#SVGID_10_)">
				<g>
					<g>
						<path d="M28.5-91.5H11.5v-16.9h16.9V-91.5z M13.2-93.2h13.7v-13.7H13.2V-93.2z"/>
					</g>
					<g>
						<path d="M24.9-95.1l-9.8,0v-9.8h9.8V-95.1z M16.7-96.7h6.6v-6.6l-6.6,0V-96.7z"/>
					</g>
				</g>
				<g>
					<g>
						<path d="M48.5-91.5H31.5v-16.9h16.9V-91.5z M33.2-93.2h13.7v-13.7H33.2V-93.2z"/>
					</g>
					<g>
						<path d="M44.9-95.1l-9.8,0v-9.8h9.8V-95.1z M36.7-96.7h6.6v-6.6l-6.6,0V-96.7z"/>
					</g>
				</g>
				<g>
					<g>
						<path d="M68.5-91.5H51.5v-16.9h16.9V-91.5z M53.2-93.2h13.7v-13.7H53.2V-93.2z"/>
					</g>
					<g>
						<path d="M64.9-95.1l-9.8,0v-9.8h9.8V-95.1z M56.7-96.7h6.6v-6.6l-6.6,0V-96.7z"/>
					</g>
				</g>
				<g>
					<g>
						<path d="M88.5-91.5H71.5v-16.9h16.9V-91.5z M73.2-93.2h13.7v-13.7H73.2V-93.2z"/>
					</g>
					<g>
						<path d="M84.9-95.1l-9.8,0v-9.8h9.8V-95.1z M76.7-96.7h6.6v-6.6l-6.6,0V-96.7z"/>
					</g>
				</g>
				<g>
					<g>
						<path d="M28.5,8.5H11.5V-8.5h16.9V8.5z M13.2,6.8h13.7V-6.8H13.2V6.8z"/>
					</g>
					<g>
						<path d="M24.9,4.9l-9.8,0v-9.8h9.8V4.9z M16.7,3.3h6.6v-6.6l-6.6,0V3.3z"/>
					</g>
				</g>
				<g>
					<g>
						<path d="M48.5,8.5H31.5V-8.5h16.9V8.5z M33.2,6.8h13.7V-6.8H33.2V6.8z"/>
					</g>
					<g>
						<path d="M44.9,4.9l-9.8,0v-9.8h9.8V4.9z M36.7,3.3h6.6v-6.6l-6.6,0V3.3z"/>
					</g>
				</g>
				<g>
					<g>
						<path d="M68.5,8.5H51.5V-8.5h16.9V8.5z M53.2,6.8h13.7V-6.8H53.2V6.8z"/>
					</g>
					<g>
						<path d="M64.9,4.9l-9.8,0v-9.8h9.8V4.9z M56.7,3.3h6.6v-6.6l-6.6,0V3.3z"/>
					</g>
				</g>
				<g>
					<g>
						<path d="M88.5,8.5H71.5V-8.5h16.9V8.5z M73.2,6.8h13.7V-6.8H73.2V6.8z"/>
					</g>
					<g>
						<path d="M84.9,4.9l-9.8,0v-9.8h9.8V4.9z M76.7,3.3h6.6v-6.6l-6.6,0V3.3z"/>
					</g>
				</g>
				<g>
					<g>
						<g>
							<path d="M108.5-91.5H91.5v-16.9h16.9V-91.5z M93.2-93.2h13.7v-13.7H93.2V-93.2z"/>
						</g>
						<g>
							<path d="M104.9-95.1l-9.8,0v-9.8h9.8V-95.1z M96.7-96.7h6.6v-6.6l-6.6,0V-96.7z"/>
						</g>
					</g>
				</g>
				<g>
					<g>
						<g>
							<path d="M8.5,8.5H-8.5V-8.5H8.5V8.5z M-6.8,6.8H6.8V-6.8H-6.8V6.8z"/>
						</g>
						<g>
							<path d="M4.9,4.9l-9.8,0v-9.8h9.8V4.9z M-3.3,3.3h6.6v-6.6l-6.6,0V3.3z"/>
						</g>
					</g>
				</g>
				<g>
					<g>
						<g>
							<path d="M108.5,8.5H91.5V-8.5h16.9V8.5z M93.2,6.8h13.7V-6.8H93.2V6.8z"/>
						</g>
						<g>
							<path d="M104.9,4.9l-9.8,0v-9.8h9.8V4.9z M96.7,3.3h6.6v-6.6l-6.6,0V3.3z"/>
						</g>
					</g>
				</g>
				<g>
					<g>
						<g>
							<path d="M8.5-91.5H-8.5v-16.9H8.5V-91.5z M-6.8-93.2H6.8v-13.7H-6.8V-93.2z"/>
						</g>
						<g>
							<path d="M4.9-95.1l-9.8,0v-9.8h9.8V-95.1z M-3.3-96.7h6.6v-6.6l-6.6,0V-96.7z"/>
						</g>
					</g>
				</g>
				<g>
					<g>
						<path d="M28.5-71.5H11.5v-16.9h16.9V-71.5z M13.2-73.1h13.7v-13.7H13.2V-73.1z"/>
					</g>
					<g>
						<path d="M24.9-75.1l-9.8,0v-9.8h9.8V-75.1z M16.7-76.7h6.6v-6.6l-6.6,0V-76.7z"/>
					</g>
				</g>
				<g>
					<g>
						<path d="M48.5-71.5H31.5v-16.9h16.9V-71.5z M33.2-73.1h13.7v-13.7H33.2V-73.1z"/>
					</g>
					<g>
						<path d="M44.9-75.1l-9.8,0v-9.8h9.8V-75.1z M36.7-76.7h6.6v-6.6l-6.6,0V-76.7z"/>
					</g>
				</g>
				<g>
					<g>
						<path d="M68.5-71.5H51.5v-16.9h16.9V-71.5z M53.2-73.1h13.7v-13.7H53.2V-73.1z"/>
					</g>
					<g>
						<path d="M64.9-75.1l-9.8,0v-9.8h9.8V-75.1z M56.7-76.7h6.6v-6.6l-6.6,0V-76.7z"/>
					</g>
				</g>
				<g>
					<g>
						<path d="M88.5-71.5H71.5v-16.9h16.9V-71.5z M73.2-73.1h13.7v-13.7H73.2V-73.1z"/>
					</g>
					<g>
						<path d="M84.9-75.1l-9.8,0v-9.8h9.8V-75.1z M76.7-76.7h6.6v-6.6l-6.6,0V-76.7z"/>
					</g>
				</g>
				<g>
					<g>
						<g>
							<path d="M108.5-71.5H91.5v-16.9h16.9V-71.5z M93.2-73.1h13.7v-13.7H93.2V-73.1z"/>
						</g>
						<g>
							<path d="M104.9-75.1l-9.8,0v-9.8h9.8V-75.1z M96.7-76.7h6.6v-6.6l-6.6,0V-76.7z"/>
						</g>
					</g>
				</g>
				<g>
					<g>
						<g>
							<path d="M8.5-71.5H-8.5v-16.9H8.5V-71.5z M-6.8-73.1H6.8v-13.7H-6.8V-73.1z"/>
						</g>
						<g>
							<path d="M4.9-75.1l-9.8,0v-9.8h9.8V-75.1z M-3.3-76.7h6.6v-6.6l-6.6,0V-76.7z"/>
						</g>
					</g>
				</g>
				<g>
					<g>
						<path d="M28.5-51.5H11.5v-16.9h16.9V-51.5z M13.2-53.1h13.7v-13.7H13.2V-53.1z"/>
					</g>
					<g>
						<path d="M24.9-55.1l-9.8,0v-9.8h9.8V-55.1z M16.7-56.7h6.6v-6.6l-6.6,0V-56.7z"/>
					</g>
				</g>
				<g>
					<g>
						<path d="M48.5-51.5H31.5v-16.9h16.9V-51.5z M33.2-53.1h13.7v-13.7H33.2V-53.1z"/>
					</g>
					<g>
						<path d="M44.9-55.1l-9.8,0v-9.8h9.8V-55.1z M36.7-56.7h6.6v-6.6l-6.6,0V-56.7z"/>
					</g>
				</g>
				<g>
					<g>
						<path d="M68.5-51.5H51.5v-16.9h16.9V-51.5z M53.2-53.1h13.7v-13.7H53.2V-53.1z"/>
					</g>
					<g>
						<path d="M64.9-55.1l-9.8,0v-9.8h9.8V-55.1z M56.7-56.7h6.6v-6.6l-6.6,0V-56.7z"/>
					</g>
				</g>
				<g>
					<g>
						<path d="M88.5-51.5H71.5v-16.9h16.9V-51.5z M73.2-53.1h13.7v-13.7H73.2V-53.1z"/>
					</g>
					<g>
						<path d="M84.9-55.1l-9.8,0v-9.8h9.8V-55.1z M76.7-56.7h6.6v-6.6l-6.6,0V-56.7z"/>
					</g>
				</g>
				<g>
					<g>
						<g>
							<path d="M108.5-51.5H91.5v-16.9h16.9V-51.5z M93.2-53.1h13.7v-13.7H93.2V-53.1z"/>
						</g>
						<g>
							<path d="M104.9-55.1l-9.8,0v-9.8h9.8V-55.1z M96.7-56.7h6.6v-6.6l-6.6,0V-56.7z"/>
						</g>
					</g>
				</g>
				<g>
					<g>
						<g>
							<path d="M8.5-51.5H-8.5v-16.9H8.5V-51.5z M-6.8-53.1H6.8v-13.7H-6.8V-53.1z"/>
						</g>
						<g>
							<path d="M4.9-55.1l-9.8,0v-9.8h9.8V-55.1z M-3.3-56.7h6.6v-6.6l-6.6,0V-56.7z"/>
						</g>
					</g>
				</g>
				<g>
					<g>
						<path d="M28.5-31.5H11.5v-16.9h16.9V-31.5z M13.2-33.2h13.7v-13.7H13.2V-33.2z"/>
					</g>
					<g>
						<path d="M24.9-35.1l-9.8,0v-9.8h9.8V-35.1z M16.7-36.7h6.6v-6.6l-6.6,0V-36.7z"/>
					</g>
				</g>
				<g>
					<g>
						<path d="M48.5-31.5H31.5v-16.9h16.9V-31.5z M33.2-33.2h13.7v-13.7H33.2V-33.2z"/>
					</g>
					<g>
						<path d="M44.9-35.1l-9.8,0v-9.8h9.8V-35.1z M36.7-36.7h6.6v-6.6l-6.6,0V-36.7z"/>
					</g>
				</g>
				<g>
					<g>
						<path d="M68.5-31.5H51.5v-16.9h16.9V-31.5z M53.2-33.2h13.7v-13.7H53.2V-33.2z"/>
					</g>
					<g>
						<path d="M64.9-35.1l-9.8,0v-9.8h9.8V-35.1z M56.7-36.7h6.6v-6.6l-6.6,0V-36.7z"/>
					</g>
				</g>
				<g>
					<g>
						<path d="M88.5-31.5H71.5v-16.9h16.9V-31.5z M73.2-33.2h13.7v-13.7H73.2V-33.2z"/>
					</g>
					<g>
						<path d="M84.9-35.1l-9.8,0v-9.8h9.8V-35.1z M76.7-36.7h6.6v-6.6l-6.6,0V-36.7z"/>
					</g>
				</g>
				<g>
					<g>
						<g>
							<path d="M108.5-31.5H91.5v-16.9h16.9V-31.5z M93.2-33.2h13.7v-13.7H93.2V-33.2z"/>
						</g>
						<g>
							<path d="M104.9-35.1l-9.8,0v-9.8h9.8V-35.1z M96.7-36.7h6.6v-6.6l-6.6,0V-36.7z"/>
						</g>
					</g>
				</g>
				<g>
					<g>
						<g>
							<path d="M8.5-31.5H-8.5v-16.9H8.5V-31.5z M-6.8-33.2H6.8v-13.7H-6.8V-33.2z"/>
						</g>
						<g>
							<path d="M4.9-35.1l-9.8,0v-9.8h9.8V-35.1z M-3.3-36.7h6.6v-6.6l-6.6,0V-36.7z"/>
						</g>
					</g>
				</g>
				<g>
					<g>
						<path d="M28.5-11.5H11.5v-16.9h16.9V-11.5z M13.2-13.1h13.7v-13.7H13.2V-13.1z"/>
					</g>
					<g>
						<path d="M24.9-15.1l-9.8,0v-9.8h9.8V-15.1z M16.7-16.7h6.6v-6.6l-6.6,0V-16.7z"/>
					</g>
				</g>
				<g>
					<g>
						<path d="M48.5-11.5H31.5v-16.9h16.9V-11.5z M33.2-13.1h13.7v-13.7H33.2V-13.1z"/>
					</g>
					<g>
						<path d="M44.9-15.1l-9.8,0v-9.8h9.8V-15.1z M36.7-16.7h6.6v-6.6l-6.6,0V-16.7z"/>
					</g>
				</g>
				<g>
					<g>
						<path d="M68.5-11.5H51.5v-16.9h16.9V-11.5z M53.2-13.1h13.7v-13.7H53.2V-13.1z"/>
					</g>
					<g>
						<path d="M64.9-15.1l-9.8,0v-9.8h9.8V-15.1z M56.7-16.7h6.6v-6.6l-6.6,0V-16.7z"/>
					</g>
				</g>
				<g>
					<g>
						<path d="M88.5-11.5H71.5v-16.9h16.9V-11.5z M73.2-13.1h13.7v-13.7H73.2V-13.1z"/>
					</g>
					<g>
						<path d="M84.9-15.1l-9.8,0v-9.8h9.8V-15.1z M76.7-16.7h6.6v-6.6l-6.6,0V-16.7z"/>
					</g>
				</g>
				<g>
					<g>
						<g>
							<path d="M108.5-11.5H91.5v-16.9h16.9V-11.5z M93.2-13.1h13.7v-13.7H93.2V-13.1z"/>
						</g>
						<g>
							<path d="M104.9-15.1l-9.8,0v-9.8h9.8V-15.1z M96.7-16.7h6.6v-6.6l-6.6,0V-16.7z"/>
						</g>
					</g>
				</g>
				<g>
					<g>
						<g>
							<path d="M8.5-11.5H-8.5v-16.9H8.5V-11.5z M-6.8-13.1H6.8v-13.7H-6.8V-13.1z"/>
						</g>
						<g>
							<path d="M4.9-15.1l-9.8,0v-9.8h9.8V-15.1z M-3.3-16.7h6.6v-6.6l-6.6,0V-16.7z"/>
						</g>
					</g>
				</g>
			</g>
		</g>
		<g>
			<defs>
				<rect id="SVGID_11_" x="-100" y="-100" width="100" height="100"/>
			</defs>
			<clipPath id="SVGID_12_">
				<use xlink:href="#SVGID_11_"  overflow="visible"/>
			</clipPath>
			<g clip-path="url(#SVGID_12_)">
				<g>
					<g>
						<path d="M-71.5-91.5h-16.9v-16.9h16.9V-91.5z M-86.8-93.2h13.7v-13.7h-13.7V-93.2z"/>
					</g>
					<g>
						<path d="M-75.1-95.1l-9.8,0v-9.8h9.8V-95.1z M-83.3-96.7h6.6v-6.6l-6.6,0V-96.7z"/>
					</g>
				</g>
				<g>
					<g>
						<path d="M-51.5-91.5h-16.9v-16.9h16.9V-91.5z M-66.8-93.2h13.7v-13.7h-13.7V-93.2z"/>
					</g>
					<g>
						<path d="M-55.1-95.1l-9.8,0v-9.8h9.8V-95.1z M-63.3-96.7h6.6v-6.6l-6.6,0V-96.7z"/>
					</g>
				</g>
				<g>
					<g>
						<path d="M-31.5-91.5h-16.9v-16.9h16.9V-91.5z M-46.8-93.2h13.7v-13.7h-13.7V-93.2z"/>
					</g>
					<g>
						<path d="M-35.1-95.1l-9.8,0v-9.8h9.8V-95.1z M-43.3-96.7h6.6v-6.6l-6.6,0V-96.7z"/>
					</g>
				</g>
				<g>
					<g>
						<path d="M-11.5-91.5h-16.9v-16.9h16.9V-91.5z M-26.8-93.2h13.7v-13.7h-13.7V-93.2z"/>
					</g>
					<g>
						<path d="M-15.1-95.1l-9.8,0v-9.8h9.8V-95.1z M-23.3-96.7h6.6v-6.6l-6.6,0V-96.7z"/>
					</g>
				</g>
				<g>
					<g>
						<path d="M-71.5,8.5h-16.9V-8.5h16.9V8.5z M-86.8,6.8h13.7V-6.8h-13.7V6.8z"/>
					</g>
					<g>
						<path d="M-75.1,4.9l-9.8,0v-9.8h9.8V4.9z M-83.3,3.3h6.6v-6.6l-6.6,0V3.3z"/>
					</g>
				</g>
				<g>
					<g>
						<path d="M-51.5,8.5h-16.9V-8.5h16.9V8.5z M-66.8,6.8h13.7V-6.8h-13.7V6.8z"/>
					</g>
					<g>
						<path d="M-55.1,4.9l-9.8,0v-9.8h9.8V4.9z M-63.3,3.3h6.6v-6.6l-6.6,0V3.3z"/>
					</g>
				</g>
				<g>
					<g>
						<path d="M-31.5,8.5h-16.9V-8.5h16.9V8.5z M-46.8,6.8h13.7V-6.8h-13.7V6.8z"/>
					</g>
					<g>
						<path d="M-35.1,4.9l-9.8,0v-9.8h9.8V4.9z M-43.3,3.3h6.6v-6.6l-6.6,0V3.3z"/>
					</g>
				</g>
				<g>
					<g>
						<path d="M-11.5,8.5h-16.9V-8.5h16.9V8.5z M-26.8,6.8h13.7V-6.8h-13.7V6.8z"/>
					</g>
					<g>
						<path d="M-15.1,4.9l-9.8,0v-9.8h9.8V4.9z M-23.3,3.3h6.6v-6.6l-6.6,0V3.3z"/>
					</g>
				</g>
				<g>
					<g>
						<g>
							<path d="M8.5-91.5H-8.5v-16.9H8.5V-91.5z M-6.8-93.2H6.8v-13.7H-6.8V-93.2z"/>
						</g>
						<g>
							<path d="M4.9-95.1l-9.8,0v-9.8h9.8V-95.1z M-3.3-96.7h6.6v-6.6l-6.6,0V-96.7z"/>
						</g>
					</g>
				</g>
				<g>
					<g>
						<g>
							<path d="M-91.5,8.5h-16.9V-8.5h16.9V8.5z M-106.8,6.8h13.7V-6.8h-13.7V6.8z"/>
						</g>
						<g>
							<path d="M-95.1,4.9l-9.8,0v-9.8h9.8V4.9z M-103.3,3.3h6.6v-6.6l-6.6,0V3.3z"/>
						</g>
					</g>
				</g>
				<g>
					<g>
						<g>
							<path d="M8.5,8.5H-8.5V-8.5H8.5V8.5z M-6.8,6.8H6.8V-6.8H-6.8V6.8z"/>
						</g>
						<g>
							<path d="M4.9,4.9l-9.8,0v-9.8h9.8V4.9z M-3.3,3.3h6.6v-6.6l-6.6,0V3.3z"/>
						</g>
					</g>
				</g>
				<g>
					<g>
						<g>
							<path d="M-91.5-91.5h-16.9v-16.9h16.9V-91.5z M-106.8-93.2h13.7v-13.7h-13.7V-93.2z"/>
						</g>
						<g>
							<path d="M-95.1-95.1l-9.8,0v-9.8h9.8V-95.1z M-103.3-96.7h6.6v-6.6l-6.6,0V-96.7z"/>
						</g>
					</g>
				</g>
				<g>
					<g>
						<path d="M-71.5-71.5h-16.9v-16.9h16.9V-71.5z M-86.8-73.1h13.7v-13.7h-13.7V-73.1z"/>
					</g>
					<g>
						<path d="M-75.1-75.1l-9.8,0v-9.8h9.8V-75.1z M-83.3-76.7h6.6v-6.6l-6.6,0V-76.7z"/>
					</g>
				</g>
				<g>
					<g>
						<path d="M-51.5-71.5h-16.9v-16.9h16.9V-71.5z M-66.8-73.1h13.7v-13.7h-13.7V-73.1z"/>
					</g>
					<g>
						<path d="M-55.1-75.1l-9.8,0v-9.8h9.8V-75.1z M-63.3-76.7h6.6v-6.6l-6.6,0V-76.7z"/>
					</g>
				</g>
				<g>
					<g>
						<path d="M-31.5-71.5h-16.9v-16.9h16.9V-71.5z M-46.8-73.1h13.7v-13.7h-13.7V-73.1z"/>
					</g>
					<g>
						<path d="M-35.1-75.1l-9.8,0v-9.8h9.8V-75.1z M-43.3-76.7h6.6v-6.6l-6.6,0V-76.7z"/>
					</g>
				</g>
				<g>
					<g>
						<path d="M-11.5-71.5h-16.9v-16.9h16.9V-71.5z M-26.8-73.1h13.7v-13.7h-13.7V-73.1z"/>
					</g>
					<g>
						<path d="M-15.1-75.1l-9.8,0v-9.8h9.8V-75.1z M-23.3-76.7h6.6v-6.6l-6.6,0V-76.7z"/>
					</g>
				</g>
				<g>
					<g>
						<g>
							<path d="M8.5-71.5H-8.5v-16.9H8.5V-71.5z M-6.8-73.1H6.8v-13.7H-6.8V-73.1z"/>
						</g>
						<g>
							<path d="M4.9-75.1l-9.8,0v-9.8h9.8V-75.1z M-3.3-76.7h6.6v-6.6l-6.6,0V-76.7z"/>
						</g>
					</g>
				</g>
				<g>
					<g>
						<g>
							<path d="M-91.5-71.5h-16.9v-16.9h16.9V-71.5z M-106.8-73.1h13.7v-13.7h-13.7V-73.1z"/>
						</g>
						<g>
							<path d="M-95.1-75.1l-9.8,0v-9.8h9.8V-75.1z M-103.3-76.7h6.6v-6.6l-6.6,0V-76.7z"/>
						</g>
					</g>
				</g>
				<g>
					<g>
						<path d="M-71.5-51.5h-16.9v-16.9h16.9V-51.5z M-86.8-53.1h13.7v-13.7h-13.7V-53.1z"/>
					</g>
					<g>
						<path d="M-75.1-55.1l-9.8,0v-9.8h9.8V-55.1z M-83.3-56.7h6.6v-6.6l-6.6,0V-56.7z"/>
					</g>
				</g>
				<g>
					<g>
						<path d="M-51.5-51.5h-16.9v-16.9h16.9V-51.5z M-66.8-53.1h13.7v-13.7h-13.7V-53.1z"/>
					</g>
					<g>
						<path d="M-55.1-55.1l-9.8,0v-9.8h9.8V-55.1z M-63.3-56.7h6.6v-6.6l-6.6,0V-56.7z"/>
					</g>
				</g>
				<g>
					<g>
						<path d="M-31.5-51.5h-16.9v-16.9h16.9V-51.5z M-46.8-53.1h13.7v-13.7h-13.7V-53.1z"/>
					</g>
					<g>
						<path d="M-35.1-55.1l-9.8,0v-9.8h9.8V-55.1z M-43.3-56.7h6.6v-6.6l-6.6,0V-56.7z"/>
					</g>
				</g>
				<g>
					<g>
						<path d="M-11.5-51.5h-16.9v-16.9h16.9V-51.5z M-26.8-53.1h13.7v-13.7h-13.7V-53.1z"/>
					</g>
					<g>
						<path d="M-15.1-55.1l-9.8,0v-9.8h9.8V-55.1z M-23.3-56.7h6.6v-6.6l-6.6,0V-56.7z"/>
					</g>
				</g>
				<g>
					<g>
						<g>
							<path d="M8.5-51.5H-8.5v-16.9H8.5V-51.5z M-6.8-53.1H6.8v-13.7H-6.8V-53.1z"/>
						</g>
						<g>
							<path d="M4.9-55.1l-9.8,0v-9.8h9.8V-55.1z M-3.3-56.7h6.6v-6.6l-6.6,0V-56.7z"/>
						</g>
					</g>
				</g>
				<g>
					<g>
						<g>
							<path d="M-91.5-51.5h-16.9v-16.9h16.9V-51.5z M-106.8-53.1h13.7v-13.7h-13.7V-53.1z"/>
						</g>
						<g>
							<path d="M-95.1-55.1l-9.8,0v-9.8h9.8V-55.1z M-103.3-56.7h6.6v-6.6l-6.6,0V-56.7z"/>
						</g>
					</g>
				</g>
				<g>
					<g>
						<path d="M-71.5-31.5h-16.9v-16.9h16.9V-31.5z M-86.8-33.2h13.7v-13.7h-13.7V-33.2z"/>
					</g>
					<g>
						<path d="M-75.1-35.1l-9.8,0v-9.8h9.8V-35.1z M-83.3-36.7h6.6v-6.6l-6.6,0V-36.7z"/>
					</g>
				</g>
				<g>
					<g>
						<path d="M-51.5-31.5h-16.9v-16.9h16.9V-31.5z M-66.8-33.2h13.7v-13.7h-13.7V-33.2z"/>
					</g>
					<g>
						<path d="M-55.1-35.1l-9.8,0v-9.8h9.8V-35.1z M-63.3-36.7h6.6v-6.6l-6.6,0V-36.7z"/>
					</g>
				</g>
				<g>
					<g>
						<path d="M-31.5-31.5h-16.9v-16.9h16.9V-31.5z M-46.8-33.2h13.7v-13.7h-13.7V-33.2z"/>
					</g>
					<g>
						<path d="M-35.1-35.1l-9.8,0v-9.8h9.8V-35.1z M-43.3-36.7h6.6v-6.6l-6.6,0V-36.7z"/>
					</g>
				</g>
				<g>
					<g>
						<path d="M-11.5-31.5h-16.9v-16.9h16.9V-31.5z M-26.8-33.2h13.7v-13.7h-13.7V-33.2z"/>
					</g>
					<g>
						<path d="M-15.1-35.1l-9.8,0v-9.8h9.8V-35.1z M-23.3-36.7h6.6v-6.6l-6.6,0V-36.7z"/>
					</g>
				</g>
				<g>
					<g>
						<g>
							<path d="M8.5-31.5H-8.5v-16.9H8.5V-31.5z M-6.8-33.2H6.8v-13.7H-6.8V-33.2z"/>
						</g>
						<g>
							<path d="M4.9-35.1l-9.8,0v-9.8h9.8V-35.1z M-3.3-36.7h6.6v-6.6l-6.6,0V-36.7z"/>
						</g>
					</g>
				</g>
				<g>
					<g>
						<g>
							<path d="M-91.5-31.5h-16.9v-16.9h16.9V-31.5z M-106.8-33.2h13.7v-13.7h-13.7V-33.2z"/>
						</g>
						<g>
							<path d="M-95.1-35.1l-9.8,0v-9.8h9.8V-35.1z M-103.3-36.7h6.6v-6.6l-6.6,0V-36.7z"/>
						</g>
					</g>
				</g>
				<g>
					<g>
						<path d="M-71.5-11.5h-16.9v-16.9h16.9V-11.5z M-86.8-13.1h13.7v-13.7h-13.7V-13.1z"/>
					</g>
					<g>
						<path d="M-75.1-15.1l-9.8,0v-9.8h9.8V-15.1z M-83.3-16.7h6.6v-6.6l-6.6,0V-16.7z"/>
					</g>
				</g>
				<g>
					<g>
						<path d="M-51.5-11.5h-16.9v-16.9h16.9V-11.5z M-66.8-13.1h13.7v-13.7h-13.7V-13.1z"/>
					</g>
					<g>
						<path d="M-55.1-15.1l-9.8,0v-9.8h9.8V-15.1z M-63.3-16.7h6.6v-6.6l-6.6,0V-16.7z"/>
					</g>
				</g>
				<g>
					<g>
						<path d="M-31.5-11.5h-16.9v-16.9h16.9V-11.5z M-46.8-13.1h13.7v-13.7h-13.7V-13.1z"/>
					</g>
					<g>
						<path d="M-35.1-15.1l-9.8,0v-9.8h9.8V-15.1z M-43.3-16.7h6.6v-6.6l-6.6,0V-16.7z"/>
					</g>
				</g>
				<g>
					<g>
						<path d="M-11.5-11.5h-16.9v-16.9h16.9V-11.5z M-26.8-13.1h13.7v-13.7h-13.7V-13.1z"/>
					</g>
					<g>
						<path d="M-15.1-15.1l-9.8,0v-9.8h9.8V-15.1z M-23.3-16.7h6.6v-6.6l-6.6,0V-16.7z"/>
					</g>
				</g>
				<g>
					<g>
						<g>
							<path d="M8.5-11.5H-8.5v-16.9H8.5V-11.5z M-6.8-13.1H6.8v-13.7H-6.8V-13.1z"/>
						</g>
						<g>
							<path d="M4.9-15.1l-9.8,0v-9.8h9.8V-15.1z M-3.3-16.7h6.6v-6.6l-6.6,0V-16.7z"/>
						</g>
					</g>
				</g>
				<g>
					<g>
						<g>
							<path d="M-91.5-11.5h-16.9v-16.9h16.9V-11.5z M-106.8-13.1h13.7v-13.7h-13.7V-13.1z"/>
						</g>
						<g>
							<path d="M-95.1-15.1l-9.8,0v-9.8h9.8V-15.1z M-103.3-16.7h6.6v-6.6l-6.6,0V-16.7z"/>
						</g>
					</g>
				</g>
			</g>
		</g>
		<g>
			<defs>
				<rect id="SVGID_13_" x="100" y="-100" width="100" height="100"/>
			</defs>
			<clipPath id="SVGID_14_">
				<use xlink:href="#SVGID_13_"  overflow="visible"/>
			</clipPath>
			<g clip-path="url(#SVGID_14_)">
				<g>
					<g>
						<path d="M128.5-91.5h-16.9v-16.9h16.9V-91.5z M113.2-93.2h13.7v-13.7h-13.7V-93.2z"/>
					</g>
					<g>
						<path d="M124.9-95.1l-9.8,0v-9.8h9.8V-95.1z M116.7-96.7h6.6v-6.6l-6.6,0V-96.7z"/>
					</g>
				</g>
				<g>
					<g>
						<path d="M148.5-91.5h-16.9v-16.9h16.9V-91.5z M133.2-93.2h13.7v-13.7h-13.7V-93.2z"/>
					</g>
					<g>
						<path d="M144.9-95.1l-9.8,0v-9.8h9.8V-95.1z M136.7-96.7h6.6v-6.6l-6.6,0V-96.7z"/>
					</g>
				</g>
				<g>
					<g>
						<path d="M168.5-91.5h-16.9v-16.9h16.9V-91.5z M153.2-93.2h13.7v-13.7h-13.7V-93.2z"/>
					</g>
					<g>
						<path d="M164.9-95.1l-9.8,0v-9.8h9.8V-95.1z M156.7-96.7h6.6v-6.6l-6.6,0V-96.7z"/>
					</g>
				</g>
				<g>
					<g>
						<path d="M188.5-91.5h-16.9v-16.9h16.9V-91.5z M173.2-93.2h13.7v-13.7h-13.7V-93.2z"/>
					</g>
					<g>
						<path d="M184.9-95.1l-9.8,0v-9.8h9.8V-95.1z M176.7-96.7h6.6v-6.6l-6.6,0V-96.7z"/>
					</g>
				</g>
				<g>
					<g>
						<path d="M128.5,8.5h-16.9V-8.5h16.9V8.5z M113.2,6.8h13.7V-6.8h-13.7V6.8z"/>
					</g>
					<g>
						<path d="M124.9,4.9l-9.8,0v-9.8h9.8V4.9z M116.7,3.3h6.6v-6.6l-6.6,0V3.3z"/>
					</g>
				</g>
				<g>
					<g>
						<path d="M148.5,8.5h-16.9V-8.5h16.9V8.5z M133.2,6.8h13.7V-6.8h-13.7V6.8z"/>
					</g>
					<g>
						<path d="M144.9,4.9l-9.8,0v-9.8h9.8V4.9z M136.7,3.3h6.6v-6.6l-6.6,0V3.3z"/>
					</g>
				</g>
				<g>
					<g>
						<path d="M168.5,8.5h-16.9V-8.5h16.9V8.5z M153.2,6.8h13.7V-6.8h-13.7V6.8z"/>
					</g>
					<g>
						<path d="M164.9,4.9l-9.8,0v-9.8h9.8V4.9z M156.7,3.3h6.6v-6.6l-6.6,0V3.3z"/>
					</g>
				</g>
				<g>
					<g>
						<path d="M188.5,8.5h-16.9V-8.5h16.9V8.5z M173.2,6.8h13.7V-6.8h-13.7V6.8z"/>
					</g>
					<g>
						<path d="M184.9,4.9l-9.8,0v-9.8h9.8V4.9z M176.7,3.3h6.6v-6.6l-6.6,0V3.3z"/>
					</g>
				</g>
				<g>
					<g>
						<g>
							<path d="M208.5-91.5h-16.9v-16.9h16.9V-91.5z M193.2-93.2h13.7v-13.7h-13.7V-93.2z"/>
						</g>
						<g>
							<path d="M204.9-95.1l-9.8,0v-9.8h9.8V-95.1z M196.7-96.7h6.6v-6.6l-6.6,0V-96.7z"/>
						</g>
					</g>
				</g>
				<g>
					<g>
						<g>
							<path d="M108.5,8.5H91.5V-8.5h16.9V8.5z M93.2,6.8h13.7V-6.8H93.2V6.8z"/>
						</g>
						<g>
							<path d="M104.9,4.9l-9.8,0v-9.8h9.8V4.9z M96.7,3.3h6.6v-6.6l-6.6,0V3.3z"/>
						</g>
					</g>
				</g>
				<g>
					<g>
						<g>
							<path d="M208.5,8.5h-16.9V-8.5h16.9V8.5z M193.2,6.8h13.7V-6.8h-13.7V6.8z"/>
						</g>
						<g>
							<path d="M204.9,4.9l-9.8,0v-9.8h9.8V4.9z M196.7,3.3h6.6v-6.6l-6.6,0V3.3z"/>
						</g>
					</g>
				</g>
				<g>
					<g>
						<g>
							<path d="M108.5-91.5H91.5v-16.9h16.9V-91.5z M93.2-93.2h13.7v-13.7H93.2V-93.2z"/>
						</g>
						<g>
							<path d="M104.9-95.1l-9.8,0v-9.8h9.8V-95.1z M96.7-96.7h6.6v-6.6l-6.6,0V-96.7z"/>
						</g>
					</g>
				</g>
				<g>
					<g>
						<path d="M128.5-71.5h-16.9v-16.9h16.9V-71.5z M113.2-73.1h13.7v-13.7h-13.7V-73.1z"/>
					</g>
					<g>
						<path d="M124.9-75.1l-9.8,0v-9.8h9.8V-75.1z M116.7-76.7h6.6v-6.6l-6.6,0V-76.7z"/>
					</g>
				</g>
				<g>
					<g>
						<path d="M148.5-71.5h-16.9v-16.9h16.9V-71.5z M133.2-73.1h13.7v-13.7h-13.7V-73.1z"/>
					</g>
					<g>
						<path d="M144.9-75.1l-9.8,0v-9.8h9.8V-75.1z M136.7-76.7h6.6v-6.6l-6.6,0V-76.7z"/>
					</g>
				</g>
				<g>
					<g>
						<path d="M168.5-71.5h-16.9v-16.9h16.9V-71.5z M153.2-73.1h13.7v-13.7h-13.7V-73.1z"/>
					</g>
					<g>
						<path d="M164.9-75.1l-9.8,0v-9.8h9.8V-75.1z M156.7-76.7h6.6v-6.6l-6.6,0V-76.7z"/>
					</g>
				</g>
				<g>
					<g>
						<path d="M188.5-71.5h-16.9v-16.9h16.9V-71.5z M173.2-73.1h13.7v-13.7h-13.7V-73.1z"/>
					</g>
					<g>
						<path d="M184.9-75.1l-9.8,0v-9.8h9.8V-75.1z M176.7-76.7h6.6v-6.6l-6.6,0V-76.7z"/>
					</g>
				</g>
				<g>
					<g>
						<g>
							<path d="M208.5-71.5h-16.9v-16.9h16.9V-71.5z M193.2-73.1h13.7v-13.7h-13.7V-73.1z"/>
						</g>
						<g>
							<path d="M204.9-75.1l-9.8,0v-9.8h9.8V-75.1z M196.7-76.7h6.6v-6.6l-6.6,0V-76.7z"/>
						</g>
					</g>
				</g>
				<g>
					<g>
						<g>
							<path d="M108.5-71.5H91.5v-16.9h16.9V-71.5z M93.2-73.1h13.7v-13.7H93.2V-73.1z"/>
						</g>
						<g>
							<path d="M104.9-75.1l-9.8,0v-9.8h9.8V-75.1z M96.7-76.7h6.6v-6.6l-6.6,0V-76.7z"/>
						</g>
					</g>
				</g>
				<g>
					<g>
						<path d="M128.5-51.5h-16.9v-16.9h16.9V-51.5z M113.2-53.1h13.7v-13.7h-13.7V-53.1z"/>
					</g>
					<g>
						<path d="M124.9-55.1l-9.8,0v-9.8h9.8V-55.1z M116.7-56.7h6.6v-6.6l-6.6,0V-56.7z"/>
					</g>
				</g>
				<g>
					<g>
						<path d="M148.5-51.5h-16.9v-16.9h16.9V-51.5z M133.2-53.1h13.7v-13.7h-13.7V-53.1z"/>
					</g>
					<g>
						<path d="M144.9-55.1l-9.8,0v-9.8h9.8V-55.1z M136.7-56.7h6.6v-6.6l-6.6,0V-56.7z"/>
					</g>
				</g>
				<g>
					<g>
						<path d="M168.5-51.5h-16.9v-16.9h16.9V-51.5z M153.2-53.1h13.7v-13.7h-13.7V-53.1z"/>
					</g>
					<g>
						<path d="M164.9-55.1l-9.8,0v-9.8h9.8V-55.1z M156.7-56.7h6.6v-6.6l-6.6,0V-56.7z"/>
					</g>
				</g>
				<g>
					<g>
						<path d="M188.5-51.5h-16.9v-16.9h16.9V-51.5z M173.2-53.1h13.7v-13.7h-13.7V-53.1z"/>
					</g>
					<g>
						<path d="M184.9-55.1l-9.8,0v-9.8h9.8V-55.1z M176.7-56.7h6.6v-6.6l-6.6,0V-56.7z"/>
					</g>
				</g>
				<g>
					<g>
						<g>
							<path d="M208.5-51.5h-16.9v-16.9h16.9V-51.5z M193.2-53.1h13.7v-13.7h-13.7V-53.1z"/>
						</g>
						<g>
							<path d="M204.9-55.1l-9.8,0v-9.8h9.8V-55.1z M196.7-56.7h6.6v-6.6l-6.6,0V-56.7z"/>
						</g>
					</g>
				</g>
				<g>
					<g>
						<g>
							<path d="M108.5-51.5H91.5v-16.9h16.9V-51.5z M93.2-53.1h13.7v-13.7H93.2V-53.1z"/>
						</g>
						<g>
							<path d="M104.9-55.1l-9.8,0v-9.8h9.8V-55.1z M96.7-56.7h6.6v-6.6l-6.6,0V-56.7z"/>
						</g>
					</g>
				</g>
				<g>
					<g>
						<path d="M128.5-31.5h-16.9v-16.9h16.9V-31.5z M113.2-33.2h13.7v-13.7h-13.7V-33.2z"/>
					</g>
					<g>
						<path d="M124.9-35.1l-9.8,0v-9.8h9.8V-35.1z M116.7-36.7h6.6v-6.6l-6.6,0V-36.7z"/>
					</g>
				</g>
				<g>
					<g>
						<path d="M148.5-31.5h-16.9v-16.9h16.9V-31.5z M133.2-33.2h13.7v-13.7h-13.7V-33.2z"/>
					</g>
					<g>
						<path d="M144.9-35.1l-9.8,0v-9.8h9.8V-35.1z M136.7-36.7h6.6v-6.6l-6.6,0V-36.7z"/>
					</g>
				</g>
				<g>
					<g>
						<path d="M168.5-31.5h-16.9v-16.9h16.9V-31.5z M153.2-33.2h13.7v-13.7h-13.7V-33.2z"/>
					</g>
					<g>
						<path d="M164.9-35.1l-9.8,0v-9.8h9.8V-35.1z M156.7-36.7h6.6v-6.6l-6.6,0V-36.7z"/>
					</g>
				</g>
				<g>
					<g>
						<path d="M188.5-31.5h-16.9v-16.9h16.9V-31.5z M173.2-33.2h13.7v-13.7h-13.7V-33.2z"/>
					</g>
					<g>
						<path d="M184.9-35.1l-9.8,0v-9.8h9.8V-35.1z M176.7-36.7h6.6v-6.6l-6.6,0V-36.7z"/>
					</g>
				</g>
				<g>
					<g>
						<g>
							<path d="M208.5-31.5h-16.9v-16.9h16.9V-31.5z M193.2-33.2h13.7v-13.7h-13.7V-33.2z"/>
						</g>
						<g>
							<path d="M204.9-35.1l-9.8,0v-9.8h9.8V-35.1z M196.7-36.7h6.6v-6.6l-6.6,0V-36.7z"/>
						</g>
					</g>
				</g>
				<g>
					<g>
						<g>
							<path d="M108.5-31.5H91.5v-16.9h16.9V-31.5z M93.2-33.2h13.7v-13.7H93.2V-33.2z"/>
						</g>
						<g>
							<path d="M104.9-35.1l-9.8,0v-9.8h9.8V-35.1z M96.7-36.7h6.6v-6.6l-6.6,0V-36.7z"/>
						</g>
					</g>
				</g>
				<g>
					<g>
						<path d="M128.5-11.5h-16.9v-16.9h16.9V-11.5z M113.2-13.1h13.7v-13.7h-13.7V-13.1z"/>
					</g>
					<g>
						<path d="M124.9-15.1l-9.8,0v-9.8h9.8V-15.1z M116.7-16.7h6.6v-6.6l-6.6,0V-16.7z"/>
					</g>
				</g>
				<g>
					<g>
						<path d="M148.5-11.5h-16.9v-16.9h16.9V-11.5z M133.2-13.1h13.7v-13.7h-13.7V-13.1z"/>
					</g>
					<g>
						<path d="M144.9-15.1l-9.8,0v-9.8h9.8V-15.1z M136.7-16.7h6.6v-6.6l-6.6,0V-16.7z"/>
					</g>
				</g>
				<g>
					<g>
						<path d="M168.5-11.5h-16.9v-16.9h16.9V-11.5z M153.2-13.1h13.7v-13.7h-13.7V-13.1z"/>
					</g>
					<g>
						<path d="M164.9-15.1l-9.8,0v-9.8h9.8V-15.1z M156.7-16.7h6.6v-6.6l-6.6,0V-16.7z"/>
					</g>
				</g>
				<g>
					<g>
						<path d="M188.5-11.5h-16.9v-16.9h16.9V-11.5z M173.2-13.1h13.7v-13.7h-13.7V-13.1z"/>
					</g>
					<g>
						<path d="M184.9-15.1l-9.8,0v-9.8h9.8V-15.1z M176.7-16.7h6.6v-6.6l-6.6,0V-16.7z"/>
					</g>
				</g>
				<g>
					<g>
						<g>
							<path d="M208.5-11.5h-16.9v-16.9h16.9V-11.5z M193.2-13.1h13.7v-13.7h-13.7V-13.1z"/>
						</g>
						<g>
							<path d="M204.9-15.1l-9.8,0v-9.8h9.8V-15.1z M196.7-16.7h6.6v-6.6l-6.6,0V-16.7z"/>
						</g>
					</g>
				</g>
				<g>
					<g>
						<g>
							<path d="M108.5-11.5H91.5v-16.9h16.9V-11.5z M93.2-13.1h13.7v-13.7H93.2V-13.1z"/>
						</g>
						<g>
							<path d="M104.9-15.1l-9.8,0v-9.8h9.8V-15.1z M96.7-16.7h6.6v-6.6l-6.6,0V-16.7z"/>
						</g>
					</g>
				</g>
			</g>
		</g>
		<g>
			<defs>
				<rect id="SVGID_15_" x="0" y="100" width="100" height="100"/>
			</defs>
			<clipPath id="SVGID_16_">
				<use xlink:href="#SVGID_15_"  overflow="visible"/>
			</clipPath>
			<g clip-path="url(#SVGID_16_)">
				<g>
					<g>
						<path d="M28.5,108.5H11.5V91.5h16.9V108.5z M13.2,106.8h13.7V93.2H13.2V106.8z"/>
					</g>
					<g>
						<path d="M24.9,104.9l-9.8,0v-9.8h9.8V104.9z M16.7,103.3h6.6v-6.6l-6.6,0V103.3z"/>
					</g>
				</g>
				<g>
					<g>
						<path d="M48.5,108.5H31.5V91.5h16.9V108.5z M33.2,106.8h13.7V93.2H33.2V106.8z"/>
					</g>
					<g>
						<path d="M44.9,104.9l-9.8,0v-9.8h9.8V104.9z M36.7,103.3h6.6v-6.6l-6.6,0V103.3z"/>
					</g>
				</g>
				<g>
					<g>
						<path d="M68.5,108.5H51.5V91.5h16.9V108.5z M53.2,106.8h13.7V93.2H53.2V106.8z"/>
					</g>
					<g>
						<path d="M64.9,104.9l-9.8,0v-9.8h9.8V104.9z M56.7,103.3h6.6v-6.6l-6.6,0V103.3z"/>
					</g>
				</g>
				<g>
					<g>
						<path d="M88.5,108.5H71.5V91.5h16.9V108.5z M73.2,106.8h13.7V93.2H73.2V106.8z"/>
					</g>
					<g>
						<path d="M84.9,104.9l-9.8,0v-9.8h9.8V104.9z M76.7,103.3h6.6v-6.6l-6.6,0V103.3z"/>
					</g>
				</g>
				<g>
					<g>
						<path d="M28.5,208.5H11.5v-16.9h16.9V208.5z M13.2,206.8h13.7v-13.7H13.2V206.8z"/>
					</g>
					<g>
						<path d="M24.9,204.9l-9.8,0v-9.8h9.8V204.9z M16.7,203.3h6.6v-6.6l-6.6,0V203.3z"/>
					</g>
				</g>
				<g>
					<g>
						<path d="M48.5,208.5H31.5v-16.9h16.9V208.5z M33.2,206.8h13.7v-13.7H33.2V206.8z"/>
					</g>
					<g>
						<path d="M44.9,204.9l-9.8,0v-9.8h9.8V204.9z M36.7,203.3h6.6v-6.6l-6.6,0V203.3z"/>
					</g>
				</g>
				<g>
					<g>
						<path d="M68.5,208.5H51.5v-16.9h16.9V208.5z M53.2,206.8h13.7v-13.7H53.2V206.8z"/>
					</g>
					<g>
						<path d="M64.9,204.9l-9.8,0v-9.8h9.8V204.9z M56.7,203.3h6.6v-6.6l-6.6,0V203.3z"/>
					</g>
				</g>
				<g>
					<g>
						<path d="M88.5,208.5H71.5v-16.9h16.9V208.5z M73.2,206.8h13.7v-13.7H73.2V206.8z"/>
					</g>
					<g>
						<path d="M84.9,204.9l-9.8,0v-9.8h9.8V204.9z M76.7,203.3h6.6v-6.6l-6.6,0V203.3z"/>
					</g>
				</g>
				<g>
					<g>
						<g>
							<path d="M108.5,108.5H91.5V91.5h16.9V108.5z M93.2,106.8h13.7V93.2H93.2V106.8z"/>
						</g>
						<g>
							<path d="M104.9,104.9l-9.8,0v-9.8h9.8V104.9z M96.7,103.3h6.6v-6.6l-6.6,0V103.3z"/>
						</g>
					</g>
				</g>
				<g>
					<g>
						<g>
							<path d="M8.5,208.5H-8.5v-16.9H8.5V208.5z M-6.8,206.8H6.8v-13.7H-6.8V206.8z"/>
						</g>
						<g>
							<path d="M4.9,204.9l-9.8,0v-9.8h9.8V204.9z M-3.3,203.3h6.6v-6.6l-6.6,0V203.3z"/>
						</g>
					</g>
				</g>
				<g>
					<g>
						<g>
							<path d="M108.5,208.5H91.5v-16.9h16.9V208.5z M93.2,206.8h13.7v-13.7H93.2V206.8z"/>
						</g>
						<g>
							<path d="M104.9,204.9l-9.8,0v-9.8h9.8V204.9z M96.7,203.3h6.6v-6.6l-6.6,0V203.3z"/>
						</g>
					</g>
				</g>
				<g>
					<g>
						<g>
							<path d="M8.5,108.5H-8.5V91.5H8.5V108.5z M-6.8,106.8H6.8V93.2H-6.8V106.8z"/>
						</g>
						<g>
							<path d="M4.9,104.9l-9.8,0v-9.8h9.8V104.9z M-3.3,103.3h6.6v-6.6l-6.6,0V103.3z"/>
						</g>
					</g>
				</g>
				<g>
					<g>
						<path d="M28.5,128.5H11.5v-16.9h16.9V128.5z M13.2,126.9h13.7v-13.7H13.2V126.9z"/>
					</g>
					<g>
						<path d="M24.9,124.9l-9.8,0v-9.8h9.8V124.9z M16.7,123.3h6.6v-6.6l-6.6,0V123.3z"/>
					</g>
				</g>
				<g>
					<g>
						<path d="M48.5,128.5H31.5v-16.9h16.9V128.5z M33.2,126.9h13.7v-13.7H33.2V126.9z"/>
					</g>
					<g>
						<path d="M44.9,124.9l-9.8,0v-9.8h9.8V124.9z M36.7,123.3h6.6v-6.6l-6.6,0V123.3z"/>
					</g>
				</g>
				<g>
					<g>
						<path d="M68.5,128.5H51.5v-16.9h16.9V128.5z M53.2,126.9h13.7v-13.7H53.2V126.9z"/>
					</g>
					<g>
						<path d="M64.9,124.9l-9.8,0v-9.8h9.8V124.9z M56.7,123.3h6.6v-6.6l-6.6,0V123.3z"/>
					</g>
				</g>
				<g>
					<g>
						<path d="M88.5,128.5H71.5v-16.9h16.9V128.5z M73.2,126.9h13.7v-13.7H73.2V126.9z"/>
					</g>
					<g>
						<path d="M84.9,124.9l-9.8,0v-9.8h9.8V124.9z M76.7,123.3h6.6v-6.6l-6.6,0V123.3z"/>
					</g>
				</g>
				<g>
					<g>
						<g>
							<path d="M108.5,128.5H91.5v-16.9h16.9V128.5z M93.2,126.9h13.7v-13.7H93.2V126.9z"/>
						</g>
						<g>
							<path d="M104.9,124.9l-9.8,0v-9.8h9.8V124.9z M96.7,123.3h6.6v-6.6l-6.6,0V123.3z"/>
						</g>
					</g>
				</g>
				<g>
					<g>
						<g>
							<path d="M8.5,128.5H-8.5v-16.9H8.5V128.5z M-6.8,126.9H6.8v-13.7H-6.8V126.9z"/>
						</g>
						<g>
							<path d="M4.9,124.9l-9.8,0v-9.8h9.8V124.9z M-3.3,123.3h6.6v-6.6l-6.6,0V123.3z"/>
						</g>
					</g>
				</g>
				<g>
					<g>
						<path d="M28.5,148.5H11.5v-16.9h16.9V148.5z M13.2,146.9h13.7v-13.7H13.2V146.9z"/>
					</g>
					<g>
						<path d="M24.9,144.9l-9.8,0v-9.8h9.8V144.9z M16.7,143.3h6.6v-6.6l-6.6,0V143.3z"/>
					</g>
				</g>
				<g>
					<g>
						<path d="M48.5,148.5H31.5v-16.9h16.9V148.5z M33.2,146.9h13.7v-13.7H33.2V146.9z"/>
					</g>
					<g>
						<path d="M44.9,144.9l-9.8,0v-9.8h9.8V144.9z M36.7,143.3h6.6v-6.6l-6.6,0V143.3z"/>
					</g>
				</g>
				<g>
					<g>
						<path d="M68.5,148.5H51.5v-16.9h16.9V148.5z M53.2,146.9h13.7v-13.7H53.2V146.9z"/>
					</g>
					<g>
						<path d="M64.9,144.9l-9.8,0v-9.8h9.8V144.9z M56.7,143.3h6.6v-6.6l-6.6,0V143.3z"/>
					</g>
				</g>
				<g>
					<g>
						<path d="M88.5,148.5H71.5v-16.9h16.9V148.5z M73.2,146.9h13.7v-13.7H73.2V146.9z"/>
					</g>
					<g>
						<path d="M84.9,144.9l-9.8,0v-9.8h9.8V144.9z M76.7,143.3h6.6v-6.6l-6.6,0V143.3z"/>
					</g>
				</g>
				<g>
					<g>
						<g>
							<path d="M108.5,148.5H91.5v-16.9h16.9V148.5z M93.2,146.9h13.7v-13.7H93.2V146.9z"/>
						</g>
						<g>
							<path d="M104.9,144.9l-9.8,0v-9.8h9.8V144.9z M96.7,143.3h6.6v-6.6l-6.6,0V143.3z"/>
						</g>
					</g>
				</g>
				<g>
					<g>
						<g>
							<path d="M8.5,148.5H-8.5v-16.9H8.5V148.5z M-6.8,146.9H6.8v-13.7H-6.8V146.9z"/>
						</g>
						<g>
							<path d="M4.9,144.9l-9.8,0v-9.8h9.8V144.9z M-3.3,143.3h6.6v-6.6l-6.6,0V143.3z"/>
						</g>
					</g>
				</g>
				<g>
					<g>
						<path d="M28.5,168.5H11.5v-16.9h16.9V168.5z M13.2,166.8h13.7v-13.7H13.2V166.8z"/>
					</g>
					<g>
						<path d="M24.9,164.9l-9.8,0v-9.8h9.8V164.9z M16.7,163.3h6.6v-6.6l-6.6,0V163.3z"/>
					</g>
				</g>
				<g>
					<g>
						<path d="M48.5,168.5H31.5v-16.9h16.9V168.5z M33.2,166.8h13.7v-13.7H33.2V166.8z"/>
					</g>
					<g>
						<path d="M44.9,164.9l-9.8,0v-9.8h9.8V164.9z M36.7,163.3h6.6v-6.6l-6.6,0V163.3z"/>
					</g>
				</g>
				<g>
					<g>
						<path d="M68.5,168.5H51.5v-16.9h16.9V168.5z M53.2,166.8h13.7v-13.7H53.2V166.8z"/>
					</g>
					<g>
						<path d="M64.9,164.9l-9.8,0v-9.8h9.8V164.9z M56.7,163.3h6.6v-6.6l-6.6,0V163.3z"/>
					</g>
				</g>
				<g>
					<g>
						<path d="M88.5,168.5H71.5v-16.9h16.9V168.5z M73.2,166.8h13.7v-13.7H73.2V166.8z"/>
					</g>
					<g>
						<path d="M84.9,164.9l-9.8,0v-9.8h9.8V164.9z M76.7,163.3h6.6v-6.6l-6.6,0V163.3z"/>
					</g>
				</g>
				<g>
					<g>
						<g>
							<path d="M108.5,168.5H91.5v-16.9h16.9V168.5z M93.2,166.8h13.7v-13.7H93.2V166.8z"/>
						</g>
						<g>
							<path d="M104.9,164.9l-9.8,0v-9.8h9.8V164.9z M96.7,163.3h6.6v-6.6l-6.6,0V163.3z"/>
						</g>
					</g>
				</g>
				<g>
					<g>
						<g>
							<path d="M8.5,168.5H-8.5v-16.9H8.5V168.5z M-6.8,166.8H6.8v-13.7H-6.8V166.8z"/>
						</g>
						<g>
							<path d="M4.9,164.9l-9.8,0v-9.8h9.8V164.9z M-3.3,163.3h6.6v-6.6l-6.6,0V163.3z"/>
						</g>
					</g>
				</g>
				<g>
					<g>
						<path d="M28.5,188.5H11.5v-16.9h16.9V188.5z M13.2,186.9h13.7v-13.7H13.2V186.9z"/>
					</g>
					<g>
						<path d="M24.9,184.9l-9.8,0v-9.8h9.8V184.9z M16.7,183.3h6.6v-6.6l-6.6,0V183.3z"/>
					</g>
				</g>
				<g>
					<g>
						<path d="M48.5,188.5H31.5v-16.9h16.9V188.5z M33.2,186.9h13.7v-13.7H33.2V186.9z"/>
					</g>
					<g>
						<path d="M44.9,184.9l-9.8,0v-9.8h9.8V184.9z M36.7,183.3h6.6v-6.6l-6.6,0V183.3z"/>
					</g>
				</g>
				<g>
					<g>
						<path d="M68.5,188.5H51.5v-16.9h16.9V188.5z M53.2,186.9h13.7v-13.7H53.2V186.9z"/>
					</g>
					<g>
						<path d="M64.9,184.9l-9.8,0v-9.8h9.8V184.9z M56.7,183.3h6.6v-6.6l-6.6,0V183.3z"/>
					</g>
				</g>
				<g>
					<g>
						<path d="M88.5,188.5H71.5v-16.9h16.9V188.5z M73.2,186.9h13.7v-13.7H73.2V186.9z"/>
					</g>
					<g>
						<path d="M84.9,184.9l-9.8,0v-9.8h9.8V184.9z M76.7,183.3h6.6v-6.6l-6.6,0V183.3z"/>
					</g>
				</g>
				<g>
					<g>
						<g>
							<path d="M108.5,188.5H91.5v-16.9h16.9V188.5z M93.2,186.9h13.7v-13.7H93.2V186.9z"/>
						</g>
						<g>
							<path d="M104.9,184.9l-9.8,0v-9.8h9.8V184.9z M96.7,183.3h6.6v-6.6l-6.6,0V183.3z"/>
						</g>
					</g>
				</g>
				<g>
					<g>
						<g>
							<path d="M8.5,188.5H-8.5v-16.9H8.5V188.5z M-6.8,186.9H6.8v-13.7H-6.8V186.9z"/>
						</g>
						<g>
							<path d="M4.9,184.9l-9.8,0v-9.8h9.8V184.9z M-3.3,183.3h6.6v-6.6l-6.6,0V183.3z"/>
						</g>
					</g>
				</g>
			</g>
		</g>
		<g>
			<defs>
				<rect id="SVGID_17_" x="-100" y="100" width="100" height="100"/>
			</defs>
			<clipPath id="SVGID_18_">
				<use xlink:href="#SVGID_17_"  overflow="visible"/>
			</clipPath>
			<g clip-path="url(#SVGID_18_)">
				<g>
					<g>
						<path d="M-71.5,108.5h-16.9V91.5h16.9V108.5z M-86.8,106.8h13.7V93.2h-13.7V106.8z"/>
					</g>
					<g>
						<path d="M-75.1,104.9l-9.8,0v-9.8h9.8V104.9z M-83.3,103.3h6.6v-6.6l-6.6,0V103.3z"/>
					</g>
				</g>
				<g>
					<g>
						<path d="M-51.5,108.5h-16.9V91.5h16.9V108.5z M-66.8,106.8h13.7V93.2h-13.7V106.8z"/>
					</g>
					<g>
						<path d="M-55.1,104.9l-9.8,0v-9.8h9.8V104.9z M-63.3,103.3h6.6v-6.6l-6.6,0V103.3z"/>
					</g>
				</g>
				<g>
					<g>
						<path d="M-31.5,108.5h-16.9V91.5h16.9V108.5z M-46.8,106.8h13.7V93.2h-13.7V106.8z"/>
					</g>
					<g>
						<path d="M-35.1,104.9l-9.8,0v-9.8h9.8V104.9z M-43.3,103.3h6.6v-6.6l-6.6,0V103.3z"/>
					</g>
				</g>
				<g>
					<g>
						<path d="M-11.5,108.5h-16.9V91.5h16.9V108.5z M-26.8,106.8h13.7V93.2h-13.7V106.8z"/>
					</g>
					<g>
						<path d="M-15.1,104.9l-9.8,0v-9.8h9.8V104.9z M-23.3,103.3h6.6v-6.6l-6.6,0V103.3z"/>
					</g>
				</g>
				<g>
					<g>
						<path d="M-71.5,208.5h-16.9v-16.9h16.9V208.5z M-86.8,206.8h13.7v-13.7h-13.7V206.8z"/>
					</g>
					<g>
						<path d="M-75.1,204.9l-9.8,0v-9.8h9.8V204.9z M-83.3,203.3h6.6v-6.6l-6.6,0V203.3z"/>
					</g>
				</g>
				<g>
					<g>
						<path d="M-51.5,208.5h-16.9v-16.9h16.9V208.5z M-66.8,206.8h13.7v-13.7h-13.7V206.8z"/>
					</g>
					<g>
						<path d="M-55.1,204.9l-9.8,0v-9.8h9.8V204.9z M-63.3,203.3h6.6v-6.6l-6.6,0V203.3z"/>
					</g>
				</g>
				<g>
					<g>
						<path d="M-31.5,208.5h-16.9v-16.9h16.9V208.5z M-46.8,206.8h13.7v-13.7h-13.7V206.8z"/>
					</g>
					<g>
						<path d="M-35.1,204.9l-9.8,0v-9.8h9.8V204.9z M-43.3,203.3h6.6v-6.6l-6.6,0V203.3z"/>
					</g>
				</g>
				<g>
					<g>
						<path d="M-11.5,208.5h-16.9v-16.9h16.9V208.5z M-26.8,206.8h13.7v-13.7h-13.7V206.8z"/>
					</g>
					<g>
						<path d="M-15.1,204.9l-9.8,0v-9.8h9.8V204.9z M-23.3,203.3h6.6v-6.6l-6.6,0V203.3z"/>
					</g>
				</g>
				<g>
					<g>
						<g>
							<path d="M8.5,108.5H-8.5V91.5H8.5V108.5z M-6.8,106.8H6.8V93.2H-6.8V106.8z"/>
						</g>
						<g>
							<path d="M4.9,104.9l-9.8,0v-9.8h9.8V104.9z M-3.3,103.3h6.6v-6.6l-6.6,0V103.3z"/>
						</g>
					</g>
				</g>
				<g>
					<g>
						<g>
							<path d="M-91.5,208.5h-16.9v-16.9h16.9V208.5z M-106.8,206.8h13.7v-13.7h-13.7V206.8z"/>
						</g>
						<g>
							<path d="M-95.1,204.9l-9.8,0v-9.8h9.8V204.9z M-103.3,203.3h6.6v-6.6l-6.6,0V203.3z"/>
						</g>
					</g>
				</g>
				<g>
					<g>
						<g>
							<path d="M8.5,208.5H-8.5v-16.9H8.5V208.5z M-6.8,206.8H6.8v-13.7H-6.8V206.8z"/>
						</g>
						<g>
							<path d="M4.9,204.9l-9.8,0v-9.8h9.8V204.9z M-3.3,203.3h6.6v-6.6l-6.6,0V203.3z"/>
						</g>
					</g>
				</g>
				<g>
					<g>
						<g>
							<path d="M-91.5,108.5h-16.9V91.5h16.9V108.5z M-106.8,106.8h13.7V93.2h-13.7V106.8z"/>
						</g>
						<g>
							<path d="M-95.1,104.9l-9.8,0v-9.8h9.8V104.9z M-103.3,103.3h6.6v-6.6l-6.6,0V103.3z"/>
						</g>
					</g>
				</g>
				<g>
					<g>
						<path d="M-71.5,128.5h-16.9v-16.9h16.9V128.5z M-86.8,126.9h13.7v-13.7h-13.7V126.9z"/>
					</g>
					<g>
						<path d="M-75.1,124.9l-9.8,0v-9.8h9.8V124.9z M-83.3,123.3h6.6v-6.6l-6.6,0V123.3z"/>
					</g>
				</g>
				<g>
					<g>
						<path d="M-51.5,128.5h-16.9v-16.9h16.9V128.5z M-66.8,126.9h13.7v-13.7h-13.7V126.9z"/>
					</g>
					<g>
						<path d="M-55.1,124.9l-9.8,0v-9.8h9.8V124.9z M-63.3,123.3h6.6v-6.6l-6.6,0V123.3z"/>
					</g>
				</g>
				<g>
					<g>
						<path d="M-31.5,128.5h-16.9v-16.9h16.9V128.5z M-46.8,126.9h13.7v-13.7h-13.7V126.9z"/>
					</g>
					<g>
						<path d="M-35.1,124.9l-9.8,0v-9.8h9.8V124.9z M-43.3,123.3h6.6v-6.6l-6.6,0V123.3z"/>
					</g>
				</g>
				<g>
					<g>
						<path d="M-11.5,128.5h-16.9v-16.9h16.9V128.5z M-26.8,126.9h13.7v-13.7h-13.7V126.9z"/>
					</g>
					<g>
						<path d="M-15.1,124.9l-9.8,0v-9.8h9.8V124.9z M-23.3,123.3h6.6v-6.6l-6.6,0V123.3z"/>
					</g>
				</g>
				<g>
					<g>
						<g>
							<path d="M8.5,128.5H-8.5v-16.9H8.5V128.5z M-6.8,126.9H6.8v-13.7H-6.8V126.9z"/>
						</g>
						<g>
							<path d="M4.9,124.9l-9.8,0v-9.8h9.8V124.9z M-3.3,123.3h6.6v-6.6l-6.6,0V123.3z"/>
						</g>
					</g>
				</g>
				<g>
					<g>
						<g>
							<path d="M-91.5,128.5h-16.9v-16.9h16.9V128.5z M-106.8,126.9h13.7v-13.7h-13.7V126.9z"/>
						</g>
						<g>
							<path d="M-95.1,124.9l-9.8,0v-9.8h9.8V124.9z M-103.3,123.3h6.6v-6.6l-6.6,0V123.3z"/>
						</g>
					</g>
				</g>
				<g>
					<g>
						<path d="M-71.5,148.5h-16.9v-16.9h16.9V148.5z M-86.8,146.9h13.7v-13.7h-13.7V146.9z"/>
					</g>
					<g>
						<path d="M-75.1,144.9l-9.8,0v-9.8h9.8V144.9z M-83.3,143.3h6.6v-6.6l-6.6,0V143.3z"/>
					</g>
				</g>
				<g>
					<g>
						<path d="M-51.5,148.5h-16.9v-16.9h16.9V148.5z M-66.8,146.9h13.7v-13.7h-13.7V146.9z"/>
					</g>
					<g>
						<path d="M-55.1,144.9l-9.8,0v-9.8h9.8V144.9z M-63.3,143.3h6.6v-6.6l-6.6,0V143.3z"/>
					</g>
				</g>
				<g>
					<g>
						<path d="M-31.5,148.5h-16.9v-16.9h16.9V148.5z M-46.8,146.9h13.7v-13.7h-13.7V146.9z"/>
					</g>
					<g>
						<path d="M-35.1,144.9l-9.8,0v-9.8h9.8V144.9z M-43.3,143.3h6.6v-6.6l-6.6,0V143.3z"/>
					</g>
				</g>
				<g>
					<g>
						<path d="M-11.5,148.5h-16.9v-16.9h16.9V148.5z M-26.8,146.9h13.7v-13.7h-13.7V146.9z"/>
					</g>
					<g>
						<path d="M-15.1,144.9l-9.8,0v-9.8h9.8V144.9z M-23.3,143.3h6.6v-6.6l-6.6,0V143.3z"/>
					</g>
				</g>
				<g>
					<g>
						<g>
							<path d="M8.5,148.5H-8.5v-16.9H8.5V148.5z M-6.8,146.9H6.8v-13.7H-6.8V146.9z"/>
						</g>
						<g>
							<path d="M4.9,144.9l-9.8,0v-9.8h9.8V144.9z M-3.3,143.3h6.6v-6.6l-6.6,0V143.3z"/>
						</g>
					</g>
				</g>
				<g>
					<g>
						<g>
							<path d="M-91.5,148.5h-16.9v-16.9h16.9V148.5z M-106.8,146.9h13.7v-13.7h-13.7V146.9z"/>
						</g>
						<g>
							<path d="M-95.1,144.9l-9.8,0v-9.8h9.8V144.9z M-103.3,143.3h6.6v-6.6l-6.6,0V143.3z"/>
						</g>
					</g>
				</g>
				<g>
					<g>
						<path d="M-71.5,168.5h-16.9v-16.9h16.9V168.5z M-86.8,166.8h13.7v-13.7h-13.7V166.8z"/>
					</g>
					<g>
						<path d="M-75.1,164.9l-9.8,0v-9.8h9.8V164.9z M-83.3,163.3h6.6v-6.6l-6.6,0V163.3z"/>
					</g>
				</g>
				<g>
					<g>
						<path d="M-51.5,168.5h-16.9v-16.9h16.9V168.5z M-66.8,166.8h13.7v-13.7h-13.7V166.8z"/>
					</g>
					<g>
						<path d="M-55.1,164.9l-9.8,0v-9.8h9.8V164.9z M-63.3,163.3h6.6v-6.6l-6.6,0V163.3z"/>
					</g>
				</g>
				<g>
					<g>
						<path d="M-31.5,168.5h-16.9v-16.9h16.9V168.5z M-46.8,166.8h13.7v-13.7h-13.7V166.8z"/>
					</g>
					<g>
						<path d="M-35.1,164.9l-9.8,0v-9.8h9.8V164.9z M-43.3,163.3h6.6v-6.6l-6.6,0V163.3z"/>
					</g>
				</g>
				<g>
					<g>
						<path d="M-11.5,168.5h-16.9v-16.9h16.9V168.5z M-26.8,166.8h13.7v-13.7h-13.7V166.8z"/>
					</g>
					<g>
						<path d="M-15.1,164.9l-9.8,0v-9.8h9.8V164.9z M-23.3,163.3h6.6v-6.6l-6.6,0V163.3z"/>
					</g>
				</g>
				<g>
					<g>
						<g>
							<path d="M8.5,168.5H-8.5v-16.9H8.5V168.5z M-6.8,166.8H6.8v-13.7H-6.8V166.8z"/>
						</g>
						<g>
							<path d="M4.9,164.9l-9.8,0v-9.8h9.8V164.9z M-3.3,163.3h6.6v-6.6l-6.6,0V163.3z"/>
						</g>
					</g>
				</g>
				<g>
					<g>
						<g>
							<path d="M-91.5,168.5h-16.9v-16.9h16.9V168.5z M-106.8,166.8h13.7v-13.7h-13.7V166.8z"/>
						</g>
						<g>
							<path d="M-95.1,164.9l-9.8,0v-9.8h9.8V164.9z M-103.3,163.3h6.6v-6.6l-6.6,0V163.3z"/>
						</g>
					</g>
				</g>
				<g>
					<g>
						<path d="M-71.5,188.5h-16.9v-16.9h16.9V188.5z M-86.8,186.9h13.7v-13.7h-13.7V186.9z"/>
					</g>
					<g>
						<path d="M-75.1,184.9l-9.8,0v-9.8h9.8V184.9z M-83.3,183.3h6.6v-6.6l-6.6,0V183.3z"/>
					</g>
				</g>
				<g>
					<g>
						<path d="M-51.5,188.5h-16.9v-16.9h16.9V188.5z M-66.8,186.9h13.7v-13.7h-13.7V186.9z"/>
					</g>
					<g>
						<path d="M-55.1,184.9l-9.8,0v-9.8h9.8V184.9z M-63.3,183.3h6.6v-6.6l-6.6,0V183.3z"/>
					</g>
				</g>
				<g>
					<g>
						<path d="M-31.5,188.5h-16.9v-16.9h16.9V188.5z M-46.8,186.9h13.7v-13.7h-13.7V186.9z"/>
					</g>
					<g>
						<path d="M-35.1,184.9l-9.8,0v-9.8h9.8V184.9z M-43.3,183.3h6.6v-6.6l-6.6,0V183.3z"/>
					</g>
				</g>
				<g>
					<g>
						<path d="M-11.5,188.5h-16.9v-16.9h16.9V188.5z M-26.8,186.9h13.7v-13.7h-13.7V186.9z"/>
					</g>
					<g>
						<path d="M-15.1,184.9l-9.8,0v-9.8h9.8V184.9z M-23.3,183.3h6.6v-6.6l-6.6,0V183.3z"/>
					</g>
				</g>
				<g>
					<g>
						<g>
							<path d="M8.5,188.5H-8.5v-16.9H8.5V188.5z M-6.8,186.9H6.8v-13.7H-6.8V186.9z"/>
						</g>
						<g>
							<path d="M4.9,184.9l-9.8,0v-9.8h9.8V184.9z M-3.3,183.3h6.6v-6.6l-6.6,0V183.3z"/>
						</g>
					</g>
				</g>
				<g>
					<g>
						<g>
							<path d="M-91.5,188.5h-16.9v-16.9h16.9V188.5z M-106.8,186.9h13.7v-13.7h-13.7V186.9z"/>
						</g>
						<g>
							<path d="M-95.1,184.9l-9.8,0v-9.8h9.8V184.9z M-103.3,183.3h6.6v-6.6l-6.6,0V183.3z"/>
						</g>
					</g>
				</g>
			</g>
		</g>
		<g>
			<defs>
				<rect id="SVGID_19_" x="100" y="100" width="100" height="100"/>
			</defs>
			<clipPath id="SVGID_20_">
				<use xlink:href="#SVGID_19_"  overflow="visible"/>
			</clipPath>
			<g clip-path="url(#SVGID_20_)">
				<g>
					<g>
						<path d="M128.5,108.5h-16.9V91.5h16.9V108.5z M113.2,106.8h13.7V93.2h-13.7V106.8z"/>
					</g>
					<g>
						<path d="M124.9,104.9l-9.8,0v-9.8h9.8V104.9z M116.7,103.3h6.6v-6.6l-6.6,0V103.3z"/>
					</g>
				</g>
				<g>
					<g>
						<path d="M148.5,108.5h-16.9V91.5h16.9V108.5z M133.2,106.8h13.7V93.2h-13.7V106.8z"/>
					</g>
					<g>
						<path d="M144.9,104.9l-9.8,0v-9.8h9.8V104.9z M136.7,103.3h6.6v-6.6l-6.6,0V103.3z"/>
					</g>
				</g>
				<g>
					<g>
						<path d="M168.5,108.5h-16.9V91.5h16.9V108.5z M153.2,106.8h13.7V93.2h-13.7V106.8z"/>
					</g>
					<g>
						<path d="M164.9,104.9l-9.8,0v-9.8h9.8V104.9z M156.7,103.3h6.6v-6.6l-6.6,0V103.3z"/>
					</g>
				</g>
				<g>
					<g>
						<path d="M188.5,108.5h-16.9V91.5h16.9V108.5z M173.2,106.8h13.7V93.2h-13.7V106.8z"/>
					</g>
					<g>
						<path d="M184.9,104.9l-9.8,0v-9.8h9.8V104.9z M176.7,103.3h6.6v-6.6l-6.6,0V103.3z"/>
					</g>
				</g>
				<g>
					<g>
						<path d="M128.5,208.5h-16.9v-16.9h16.9V208.5z M113.2,206.8h13.7v-13.7h-13.7V206.8z"/>
					</g>
					<g>
						<path d="M124.9,204.9l-9.8,0v-9.8h9.8V204.9z M116.7,203.3h6.6v-6.6l-6.6,0V203.3z"/>
					</g>
				</g>
				<g>
					<g>
						<path d="M148.5,208.5h-16.9v-16.9h16.9V208.5z M133.2,206.8h13.7v-13.7h-13.7V206.8z"/>
					</g>
					<g>
						<path d="M144.9,204.9l-9.8,0v-9.8h9.8V204.9z M136.7,203.3h6.6v-6.6l-6.6,0V203.3z"/>
					</g>
				</g>
				<g>
					<g>
						<path d="M168.5,208.5h-16.9v-16.9h16.9V208.5z M153.2,206.8h13.7v-13.7h-13.7V206.8z"/>
					</g>
					<g>
						<path d="M164.9,204.9l-9.8,0v-9.8h9.8V204.9z M156.7,203.3h6.6v-6.6l-6.6,0V203.3z"/>
					</g>
				</g>
				<g>
					<g>
						<path d="M188.5,208.5h-16.9v-16.9h16.9V208.5z M173.2,206.8h13.7v-13.7h-13.7V206.8z"/>
					</g>
					<g>
						<path d="M184.9,204.9l-9.8,0v-9.8h9.8V204.9z M176.7,203.3h6.6v-6.6l-6.6,0V203.3z"/>
					</g>
				</g>
				<g>
					<g>
						<g>
							<path d="M208.5,108.5h-16.9V91.5h16.9V108.5z M193.2,106.8h13.7V93.2h-13.7V106.8z"/>
						</g>
						<g>
							<path d="M204.9,104.9l-9.8,0v-9.8h9.8V104.9z M196.7,103.3h6.6v-6.6l-6.6,0V103.3z"/>
						</g>
					</g>
				</g>
				<g>
					<g>
						<g>
							<path d="M108.5,208.5H91.5v-16.9h16.9V208.5z M93.2,206.8h13.7v-13.7H93.2V206.8z"/>
						</g>
						<g>
							<path d="M104.9,204.9l-9.8,0v-9.8h9.8V204.9z M96.7,203.3h6.6v-6.6l-6.6,0V203.3z"/>
						</g>
					</g>
				</g>
				<g>
					<g>
						<g>
							<path d="M208.5,208.5h-16.9v-16.9h16.9V208.5z M193.2,206.8h13.7v-13.7h-13.7V206.8z"/>
						</g>
						<g>
							<path d="M204.9,204.9l-9.8,0v-9.8h9.8V204.9z M196.7,203.3h6.6v-6.6l-6.6,0V203.3z"/>
						</g>
					</g>
				</g>
				<g>
					<g>
						<g>
							<path d="M108.5,108.5H91.5V91.5h16.9V108.5z M93.2,106.8h13.7V93.2H93.2V106.8z"/>
						</g>
						<g>
							<path d="M104.9,104.9l-9.8,0v-9.8h9.8V104.9z M96.7,103.3h6.6v-6.6l-6.6,0V103.3z"/>
						</g>
					</g>
				</g>
				<g>
					<g>
						<path d="M128.5,128.5h-16.9v-16.9h16.9V128.5z M113.2,126.9h13.7v-13.7h-13.7V126.9z"/>
					</g>
					<g>
						<path d="M124.9,124.9l-9.8,0v-9.8h9.8V124.9z M116.7,123.3h6.6v-6.6l-6.6,0V123.3z"/>
					</g>
				</g>
				<g>
					<g>
						<path d="M148.5,128.5h-16.9v-16.9h16.9V128.5z M133.2,126.9h13.7v-13.7h-13.7V126.9z"/>
					</g>
					<g>
						<path d="M144.9,124.9l-9.8,0v-9.8h9.8V124.9z M136.7,123.3h6.6v-6.6l-6.6,0V123.3z"/>
					</g>
				</g>
				<g>
					<g>
						<path d="M168.5,128.5h-16.9v-16.9h16.9V128.5z M153.2,126.9h13.7v-13.7h-13.7V126.9z"/>
					</g>
					<g>
						<path d="M164.9,124.9l-9.8,0v-9.8h9.8V124.9z M156.7,123.3h6.6v-6.6l-6.6,0V123.3z"/>
					</g>
				</g>
				<g>
					<g>
						<path d="M188.5,128.5h-16.9v-16.9h16.9V128.5z M173.2,126.9h13.7v-13.7h-13.7V126.9z"/>
					</g>
					<g>
						<path d="M184.9,124.9l-9.8,0v-9.8h9.8V124.9z M176.7,123.3h6.6v-6.6l-6.6,0V123.3z"/>
					</g>
				</g>
				<g>
					<g>
						<g>
							<path d="M208.5,128.5h-16.9v-16.9h16.9V128.5z M193.2,126.9h13.7v-13.7h-13.7V126.9z"/>
						</g>
						<g>
							<path d="M204.9,124.9l-9.8,0v-9.8h9.8V124.9z M196.7,123.3h6.6v-6.6l-6.6,0V123.3z"/>
						</g>
					</g>
				</g>
				<g>
					<g>
						<g>
							<path d="M108.5,128.5H91.5v-16.9h16.9V128.5z M93.2,126.9h13.7v-13.7H93.2V126.9z"/>
						</g>
						<g>
							<path d="M104.9,124.9l-9.8,0v-9.8h9.8V124.9z M96.7,123.3h6.6v-6.6l-6.6,0V123.3z"/>
						</g>
					</g>
				</g>
				<g>
					<g>
						<path d="M128.5,148.5h-16.9v-16.9h16.9V148.5z M113.2,146.9h13.7v-13.7h-13.7V146.9z"/>
					</g>
					<g>
						<path d="M124.9,144.9l-9.8,0v-9.8h9.8V144.9z M116.7,143.3h6.6v-6.6l-6.6,0V143.3z"/>
					</g>
				</g>
				<g>
					<g>
						<path d="M148.5,148.5h-16.9v-16.9h16.9V148.5z M133.2,146.9h13.7v-13.7h-13.7V146.9z"/>
					</g>
					<g>
						<path d="M144.9,144.9l-9.8,0v-9.8h9.8V144.9z M136.7,143.3h6.6v-6.6l-6.6,0V143.3z"/>
					</g>
				</g>
				<g>
					<g>
						<path d="M168.5,148.5h-16.9v-16.9h16.9V148.5z M153.2,146.9h13.7v-13.7h-13.7V146.9z"/>
					</g>
					<g>
						<path d="M164.9,144.9l-9.8,0v-9.8h9.8V144.9z M156.7,143.3h6.6v-6.6l-6.6,0V143.3z"/>
					</g>
				</g>
				<g>
					<g>
						<path d="M188.5,148.5h-16.9v-16.9h16.9V148.5z M173.2,146.9h13.7v-13.7h-13.7V146.9z"/>
					</g>
					<g>
						<path d="M184.9,144.9l-9.8,0v-9.8h9.8V144.9z M176.7,143.3h6.6v-6.6l-6.6,0V143.3z"/>
					</g>
				</g>
				<g>
					<g>
						<g>
							<path d="M208.5,148.5h-16.9v-16.9h16.9V148.5z M193.2,146.9h13.7v-13.7h-13.7V146.9z"/>
						</g>
						<g>
							<path d="M204.9,144.9l-9.8,0v-9.8h9.8V144.9z M196.7,143.3h6.6v-6.6l-6.6,0V143.3z"/>
						</g>
					</g>
				</g>
				<g>
					<g>
						<g>
							<path d="M108.5,148.5H91.5v-16.9h16.9V148.5z M93.2,146.9h13.7v-13.7H93.2V146.9z"/>
						</g>
						<g>
							<path d="M104.9,144.9l-9.8,0v-9.8h9.8V144.9z M96.7,143.3h6.6v-6.6l-6.6,0V143.3z"/>
						</g>
					</g>
				</g>
				<g>
					<g>
						<path d="M128.5,168.5h-16.9v-16.9h16.9V168.5z M113.2,166.8h13.7v-13.7h-13.7V166.8z"/>
					</g>
					<g>
						<path d="M124.9,164.9l-9.8,0v-9.8h9.8V164.9z M116.7,163.3h6.6v-6.6l-6.6,0V163.3z"/>
					</g>
				</g>
				<g>
					<g>
						<path d="M148.5,168.5h-16.9v-16.9h16.9V168.5z M133.2,166.8h13.7v-13.7h-13.7V166.8z"/>
					</g>
					<g>
						<path d="M144.9,164.9l-9.8,0v-9.8h9.8V164.9z M136.7,163.3h6.6v-6.6l-6.6,0V163.3z"/>
					</g>
				</g>
				<g>
					<g>
						<path d="M168.5,168.5h-16.9v-16.9h16.9V168.5z M153.2,166.8h13.7v-13.7h-13.7V166.8z"/>
					</g>
					<g>
						<path d="M164.9,164.9l-9.8,0v-9.8h9.8V164.9z M156.7,163.3h6.6v-6.6l-6.6,0V163.3z"/>
					</g>
				</g>
				<g>
					<g>
						<path d="M188.5,168.5h-16.9v-16.9h16.9V168.5z M173.2,166.8h13.7v-13.7h-13.7V166.8z"/>
					</g>
					<g>
						<path d="M184.9,164.9l-9.8,0v-9.8h9.8V164.9z M176.7,163.3h6.6v-6.6l-6.6,0V163.3z"/>
					</g>
				</g>
				<g>
					<g>
						<g>
							<path d="M208.5,168.5h-16.9v-16.9h16.9V168.5z M193.2,166.8h13.7v-13.7h-13.7V166.8z"/>
						</g>
						<g>
							<path d="M204.9,164.9l-9.8,0v-9.8h9.8V164.9z M196.7,163.3h6.6v-6.6l-6.6,0V163.3z"/>
						</g>
					</g>
				</g>
				<g>
					<g>
						<g>
							<path d="M108.5,168.5H91.5v-16.9h16.9V168.5z M93.2,166.8h13.7v-13.7H93.2V166.8z"/>
						</g>
						<g>
							<path d="M104.9,164.9l-9.8,0v-9.8h9.8V164.9z M96.7,163.3h6.6v-6.6l-6.6,0V163.3z"/>
						</g>
					</g>
				</g>
				<g>
					<g>
						<path d="M128.5,188.5h-16.9v-16.9h16.9V188.5z M113.2,186.9h13.7v-13.7h-13.7V186.9z"/>
					</g>
					<g>
						<path d="M124.9,184.9l-9.8,0v-9.8h9.8V184.9z M116.7,183.3h6.6v-6.6l-6.6,0V183.3z"/>
					</g>
				</g>
				<g>
					<g>
						<path d="M148.5,188.5h-16.9v-16.9h16.9V188.5z M133.2,186.9h13.7v-13.7h-13.7V186.9z"/>
					</g>
					<g>
						<path d="M144.9,184.9l-9.8,0v-9.8h9.8V184.9z M136.7,183.3h6.6v-6.6l-6.6,0V183.3z"/>
					</g>
				</g>
				<g>
					<g>
						<path d="M168.5,188.5h-16.9v-16.9h16.9V188.5z M153.2,186.9h13.7v-13.7h-13.7V186.9z"/>
					</g>
					<g>
						<path d="M164.9,184.9l-9.8,0v-9.8h9.8V184.9z M156.7,183.3h6.6v-6.6l-6.6,0V183.3z"/>
					</g>
				</g>
				<g>
					<g>
						<path d="M188.5,188.5h-16.9v-16.9h16.9V188.5z M173.2,186.9h13.7v-13.7h-13.7V186.9z"/>
					</g>
					<g>
						<path d="M184.9,184.9l-9.8,0v-9.8h9.8V184.9z M176.7,183.3h6.6v-6.6l-6.6,0V183.3z"/>
					</g>
				</g>
				<g>
					<g>
						<g>
							<path d="M208.5,188.5h-16.9v-16.9h16.9V188.5z M193.2,186.9h13.7v-13.7h-13.7V186.9z"/>
						</g>
						<g>
							<path d="M204.9,184.9l-9.8,0v-9.8h9.8V184.9z M196.7,183.3h6.6v-6.6l-6.6,0V183.3z"/>
						</g>
					</g>
				</g>
				<g>
					<g>
						<g>
							<path d="M108.5,188.5H91.5v-16.9h16.9V188.5z M93.2,186.9h13.7v-13.7H93.2V186.9z"/>
						</g>
						<g>
							<path d="M104.9,184.9l-9.8,0v-9.8h9.8V184.9z M96.7,183.3h6.6v-6.6l-6.6,0V183.3z"/>
						</g>
					</g>
				</g>
			</g>
		</g>
	</g>
</g>
</svg>
